<?xml version="1.0" encoding="utf-8"?>
<!-- Generator: Adobe Illustrator 24.1.1, SVG Export Plug-In . SVG Version: 6.00 Build 0)  -->
<svg version="1.1" id="Layer_1" xmlns="http://www.w3.org/2000/svg" xmlns:xlink="http://www.w3.org/1999/xlink" x="0px" y="0px"
	 viewBox="0 0 45 46" style="enable-background:new 0 0 45 46;" xml:space="preserve">
<style type="text/css">
	.st0{fill:#414142;}
	.st1{fill:#6AC5AC;}
	.st2{fill:none;stroke:#6AC5AC;stroke-linecap:round;stroke-linejoin:round;}
	.st3{fill:none;stroke:#414142;stroke-linecap:round;stroke-linejoin:round;}
	.st4{fill:none;stroke:#414142;}
	.st5{fill:none;stroke:#6AC5AC;}
</style>
<g>
	<circle class="st0" cx="22.2" cy="23" r="9.4"/>
	<path class="st1" d="M25.7,25.3h-1v-3.9h1c0.1,0,0.3-0.1,0.3-0.3c0-0.1-0.1-0.3-0.3-0.3h-1.2c-0.1,0-0.3,0.1-0.3,0.3v0.3h-1.6
		c-0.6,0-0.8-1.2-0.8-2c0-0.1-0.1-0.3-0.3-0.3c-0.4,0-0.7,0.1-0.9,0.4c-0.3,0.4-0.4,1.1-0.3,1.8h-1.4c-0.4,0-0.8,0.4-0.8,0.8
		c0,0.3,0.2,0.6,0.4,0.7c0,0.1-0.1,0.2-0.1,0.3c0,0.3,0.2,0.6,0.4,0.7c0,0.1-0.1,0.2-0.1,0.3c0,0.3,0.2,0.6,0.4,0.7
		c-0.1,0.1-0.1,0.2-0.1,0.3c0,0.4,0.4,0.8,0.8,0.8h2.6c0.5,0,1-0.4,1.1-0.8h0.6v0.3c0,0.1,0.1,0.3,0.3,0.3h1.2
		c0.1,0,0.3-0.1,0.3-0.3C26,25.5,25.9,25.3,25.7,25.3z M23.2,25c0,0.3-0.3,0.6-0.6,0.6H20c-0.1,0-0.3-0.1-0.3-0.3
		c0-0.1,0-0.1,0.1-0.2c0,0,0.1-0.1,0.2-0.1c0.1,0,0.3-0.1,0.3-0.3c0-0.1-0.1-0.3-0.3-0.3h-0.4c-0.1,0-0.3-0.1-0.3-0.3
		c0-0.1,0.1-0.3,0.3-0.3c0.1,0,0.3-0.1,0.3-0.3c0-0.1-0.1-0.3-0.3-0.3h-0.4c-0.1,0-0.3-0.1-0.3-0.3c0-0.1,0.1-0.3,0.3-0.3
		c0.1,0,0.3-0.1,0.3-0.3c0-0.1-0.1-0.3-0.3-0.3h-0.4c-0.1,0-0.3-0.1-0.3-0.3c0-0.1,0.1-0.3,0.3-0.3h1.7c0.1,0,0.2,0,0.2-0.1
		c0.1-0.1,0.1-0.1,0-0.2c-0.2-0.7-0.1-1.4,0.1-1.7c0.1-0.1,0.1-0.1,0.2-0.2c0.1,1.1,0.4,2.2,1.3,2.2h1.6v2.8h-0.8
		C23.3,24.8,23.2,24.9,23.2,25z"/>
	<path class="st2" d="M18.2,2.8c0.7-0.1,1.4-0.2,2.1-0.3"/>
	<path class="st2" d="M26.3,43.2c-0.7,0.1-1.4,0.2-2.1,0.3"/>
	<path class="st2" d="M13.1,4.6c0.6-0.3,1.3-0.6,2-0.8"/>
	<path class="st2" d="M8.6,7.6c0.5-0.5,1.1-0.9,1.7-1.3"/>
	<path class="st2" d="M5.1,11.6c0.4-0.6,0.8-1.2,1.3-1.7"/>
	<path class="st2" d="M2.7,16.4c0.2-0.7,0.5-1.3,0.8-2"/>
	<path class="st2" d="M1.7,21.7c0-0.7,0.1-1.4,0.2-2.1"/>
	<path class="st2" d="M2.1,27.1c-0.1-0.7-0.2-1.4-0.3-2.1"/>
	<path class="st2" d="M3.8,32.2c-0.3-0.6-0.6-1.3-0.8-2"/>
	<path class="st2" d="M6.8,36.6c-0.5-0.5-0.9-1.1-1.3-1.7"/>
	<path class="st2" d="M10.8,40.1c-0.6-0.4-1.2-0.8-1.7-1.3"/>
	<path class="st2" d="M15.7,42.5c-0.7-0.2-1.3-0.5-2-0.8"/>
	<path class="st2" d="M28.8,3.5c0.7,0.2,1.3,0.5,2,0.8"/>
	<path class="st2" d="M20.9,43.5c-0.7,0-1.4-0.1-2.1-0.2"/>
	<g>
		<path class="st2" d="M31.5,41.5c-0.6,0.3-1.3,0.6-2,0.8"/>
		<path class="st2" d="M36,38.7c-0.5,0.4-1.1,0.9-1.7,1.3"/>
	</g>
	<path class="st2" d="M23.5,2.5c0.7,0,1.4,0.1,2.1,0.2"/>
	<path class="st3" d="M39.1,11.2c2.3,3.3,3.7,7.4,3.7,11.8c0,5-1.8,9.5-4.7,13.1"/>
	<polyline class="st3" points="38.6,15.4 39.1,11.2 43.3,11.7 	"/>
	<circle class="st4" cx="36.8" cy="8.4" r="1.9"/>
</g>
</svg>
