<?xml version="1.0" encoding="utf-8"?>
<!-- Generator: Adobe Illustrator 24.1.1, SVG Export Plug-In . SVG Version: 6.00 Build 0)  -->
<svg version="1.1" id="Layer_1" xmlns="http://www.w3.org/2000/svg" xmlns:xlink="http://www.w3.org/1999/xlink" x="0px" y="0px"
	 viewBox="0 0 131 130" style="enable-background:new 0 0 131 130;" xml:space="preserve">
<style type="text/css">
	.st0{fill:#414142;}
	.st1{fill:#6AC5AC;}
	.st2{fill:none;stroke:#6AC5AC;stroke-width:6;stroke-linecap:round;stroke-linejoin:round;}
	.st3{fill:none;stroke:#414142;stroke-width:6;stroke-linecap:round;stroke-linejoin:round;}
	.st4{fill:none;stroke:#414142;stroke-width:6;}
	.st5{fill:none;stroke:#6AC5AC;stroke-width:6;}
	.st6{fill:none;stroke:#6AC5AC;stroke-width:2;stroke-linecap:round;stroke-linejoin:round;}
	.st7{fill:none;stroke:#414142;stroke-width:2;stroke-linecap:round;stroke-linejoin:round;}
	.st8{fill:none;stroke:#414142;stroke-width:2;}
</style>
<g>
	<ellipse transform="matrix(0.8992 -0.4376 0.4376 0.8992 -21.8707 35.0797)" class="st0" cx="65.2" cy="65" rx="28.7" ry="28.7"/>
	<path class="st1" d="M75.9,72.2h-3V60.1h3c0.4,0,0.8-0.4,0.8-0.8c0-0.4-0.4-0.8-0.8-0.8h-3.8c-0.4,0-0.8,0.4-0.8,0.8v0.9h-4.9
		c-1.8,0-2.5-3.6-2.5-6c0-0.4-0.4-0.8-0.8-0.8c-1.2,0-2.1,0.5-2.8,1.3c-0.9,1.2-1.3,3.2-0.9,5.5h-4.3c-1.3,0-2.4,1.1-2.4,2.4
		c0,0.9,0.6,1.8,1.4,2.2c-0.2,0.3-0.2,0.7-0.2,1c0,0.9,0.6,1.8,1.4,2.2c-0.2,0.3-0.2,0.7-0.2,1c0,0.9,0.6,1.8,1.4,2.2
		c-0.2,0.3-0.2,0.7-0.2,1c0,1.3,1.1,2.4,2.4,2.4h7.9c1.6,0,2.9-1.1,3.3-2.6h1.7V73c0,0.4,0.4,0.8,0.8,0.8h3.8c0.4,0,0.8-0.4,0.8-0.8
		S76.4,72.2,75.9,72.2z M68.1,71.2c0,1-0.8,1.8-1.8,1.8h-7.9c-0.4,0-0.8-0.4-0.8-0.8c0-0.2,0.1-0.4,0.2-0.6c0.1-0.1,0.3-0.2,0.6-0.2
		c0.4,0,0.8-0.4,0.8-0.8c0-0.4-0.4-0.8-0.8-0.8h-1.1c-0.4,0-0.8-0.4-0.8-0.8c0-0.4,0.4-0.8,0.8-0.8c0.4,0,0.8-0.4,0.8-0.8
		c0-0.4-0.4-0.8-0.8-0.8h-1.1c-0.4,0-0.8-0.4-0.8-0.8c0-0.4,0.4-0.8,0.8-0.8c0.4,0,0.8-0.4,0.8-0.8c0-0.4-0.4-0.8-0.8-0.8h-1.1
		c-0.4,0-0.8-0.4-0.8-0.8c0-0.4,0.4-0.8,0.8-0.8h5.3c0.2,0,0.5-0.1,0.6-0.3c0.2-0.2,0.2-0.4,0.2-0.7c-0.5-2.2-0.4-4.2,0.4-5.1
		c0.2-0.3,0.5-0.4,0.8-0.5c0.2,3.3,1.3,6.7,4.1,6.7h4.9v8.6h-2.4C68.4,70.4,68.1,70.8,68.1,71.2z"/>
	<path class="st6" d="M52.7,3.2c2.1-0.4,4.3-0.7,6.5-1"/>
	<path class="st6" d="M77.7,126.8c-2.1,0.4-4.3,0.7-6.5,1"/>
	<path class="st6" d="M37.1,8.5c1.9-1,3.9-1.8,6-2.6"/>
	<path class="st6" d="M23.5,17.7c1.6-1.4,3.3-2.8,5.1-4.1"/>
	<path class="st6" d="M12.7,30.1c1.2-1.8,2.5-3.5,3.9-5.2"/>
	<path class="st6" d="M5.4,44.9c0.7-2,1.5-4.1,2.4-6.1"/>
	<path class="st6" d="M2.3,61.1c0.1-2.2,0.4-4.3,0.8-6.5"/>
	<path class="st6" d="M3.4,77.5c-0.4-2.1-0.7-4.3-1-6.5"/>
	<path class="st6" d="M8.7,93c-1-1.9-1.8-3.9-2.6-6"/>
	<path class="st6" d="M17.9,106.7c-1.4-1.6-2.8-3.3-4.1-5.1"/>
	<path class="st6" d="M30.3,117.5c-1.8-1.2-3.5-2.5-5.2-3.9"/>
	<path class="st6" d="M45.1,124.8c-2-0.7-4.1-1.5-6.1-2.4"/>
	<path class="st6" d="M85.3,5.2c2,0.7,4.1,1.5,6.1,2.4"/>
	<path class="st6" d="M61.2,127.9c-2.2-0.1-4.3-0.4-6.5-0.8"/>
	<g>
		<path class="st6" d="M93.5,121.7c-2,0.9-4,1.7-6.1,2.4"/>
		<path class="st6" d="M107.4,113c-1.7,1.4-3.4,2.7-5.2,3.9"/>
	</g>
	<path class="st6" d="M69.1,2.1c2.2,0.1,4.3,0.4,6.5,0.8"/>
	<path class="st7" d="M116.8,28.8c7.2,10.2,11.4,22.7,11.4,36.2c0,15.2-5.4,29.2-14.4,40.1"/>
	<polyline class="st7" points="115.3,41.7 116.8,28.8 129.7,30.3 	"/>
	<circle class="st8" cx="109.8" cy="20.4" r="5.8"/>
</g>
</svg>
