<?xml version="1.0" encoding="utf-8"?>
<!-- Generator: Adobe Illustrator 24.0.2, SVG Export Plug-In . SVG Version: 6.00 Build 0)  -->
<svg version="1.1" id="Layer_1" xmlns="http://www.w3.org/2000/svg" xmlns:xlink="http://www.w3.org/1999/xlink" x="0px" y="0px"
	 viewBox="0 0 236 200" style="enable-background:new 0 0 236 200;" xml:space="preserve">
<style type="text/css">
	.st0{opacity:0.2;fill:#6AC5AC;enable-background:new    ;}
	.st1{fill:#6AC5AC;}
	.st2{fill:#FED97B;}
	.st3{fill:none;stroke:#414042;stroke-width:0.44;stroke-miterlimit:10;}
	.st4{fill:none;stroke:#414042;stroke-width:0.44;stroke-miterlimit:10;stroke-dasharray:0.44,0.44;}
	.st5{fill:#F1F2F2;}
	.st6{fill:#D1D3D4;}
	.st7{fill:#D84079;}
	.st8{fill:#6D6E71;}
	.st9{fill:#FFFFFF;}
	.st10{fill:#E6E7E8;}
	.st11{fill:#02BA9D;}
	.st12{fill:#414142;}
	.st13{fill:#BCBEC0;}
	.st14{fill:#6AC5AC;stroke:#414042;stroke-width:0.44;stroke-miterlimit:10;}
</style>
<path class="st0" d="M163.2,174.6c10.2-1.1,20.7-2.9,29.8-7.9c13.4-7.3,22.8-21.3,23.8-35.6c0.8-12.1-4-23.4-6.8-35
	c-3.5-14.2-4-29.2-4-44c0-8,0.1-16.2-2.9-23.4c-4.1-10.1-14-17.3-25.2-19.8s-23.5-0.7-34.5,3.9c-5.9,2.4-11.6,5.7-15.4,10.6
	c-4.1,5.2-5.6,11.7-9.7,16.9c-3.8,4.8-9.4,8-15.1,10.4c-7.4,3.2-15.2,5.3-23.3,6.4c-9.1,1.2-18.2,0.9-27.3,2s-18.5,3.9-25.3,10.1
	c-6.4,5.8-9.7,13.9-12.4,21.7c-4.4,12.6-7.7,25.7-10.1,39.2c-1.5,8.9-2.5,18-0.8,26.7c3.2,16.6,17,30.3,34.3,34.2
	c14.3,3.2,29.8,0,44.3-4.5c13.2-4.1,27.5-11,41.3-11.4C137,174.8,149.8,176,163.2,174.6z"/>
<path class="st1" d="M149.1,116c0,25.5-20.6,46.1-46.1,46.1c-25.5,0-46.1-20.6-46.1-46.1c0-25.5,20.6-46.1,46.1-46.1
	C128.5,69.9,149.1,90.5,149.1,116"/>
<path class="st2" d="M135.7,148.4c-8.3,8.4-19.9,13.6-32.7,13.6c-12.7,0-24.2-5.2-32.6-13.5L135.7,148.4z"/>
<line class="st3" x1="120" y1="106.7" x2="105.8" y2="106.7"/>
<line class="st3" x1="102.3" y1="106.7" x2="104.4" y2="106.7"/>
<line class="st3" x1="98.2" y1="106.7" x2="100.3" y2="106.7"/>
<line class="st3" x1="91.8" y1="126.7" x2="77.6" y2="126.7"/>
<line class="st3" x1="74.2" y1="126.7" x2="76.2" y2="126.7"/>
<line class="st3" x1="70.1" y1="126.7" x2="72.1" y2="126.7"/>
<polygon class="st3" points="76.9,107.1 75.2,108.1 73.6,107.1 73.6,105.2 75.2,104.3 76.9,105.2 "/>
<polygon class="st3" points="114.5,127.7 112.9,128.6 111.2,127.7 111.2,125.8 112.9,124.8 114.5,125.8 "/>
<line class="st3" x1="65.6" y1="148.9" x2="140.5" y2="148.9"/>
<path class="st2" d="M90.9,100.1l-3,6.4c-0.2,0.3-0.7,0.3-0.9,0l-3-6.4H90.9z"/>
<path class="st3" d="M90.9,100.1l-3,6.4c-0.2,0.3-0.7,0.3-0.9,0l-3-6.4"/>
<line class="st4" x1="122.7" y1="91.3" x2="67" y2="91.3"/>
<line class="st4" x1="67" y1="86.1" x2="122.7" y2="86.1"/>
<path class="st5" d="M143.7,98.7h-13.3c-0.1,0-0.1,0-0.1-0.1v-4.5c0-0.1,0-0.1,0.1-0.1h13.3c0.1,0,0.1,0,0.1,0.1L143.7,98.7
	C143.8,98.7,143.7,98.7,143.7,98.7"/>
<path class="st6" d="M130.3,96.4v1.8c0,0.3,0.3,0.5,0.7,0.5h12.1c0.4,0,0.7-0.2,0.7-0.5v-1.8H130.3z"/>
<path class="st3" d="M143.7,98.7h-13.3c-0.1,0-0.1,0-0.1-0.1v-4.5c0-0.1,0-0.1,0.1-0.1h13.3c0.1,0,0.1,0,0.1,0.1L143.7,98.7
	C143.8,98.7,143.7,98.7,143.7,98.7z"/>
<rect x="132.7" y="85.1" class="st7" width="7.5" height="23"/>
<rect x="72.2" y="95.6" class="st8" width="46.3" height="1.6"/>
<path class="st5" d="M72.1,98.7h-9.2c-0.1,0-0.1,0-0.1-0.1v-4.5c0-0.1,0-0.1,0.1-0.1h9.2c0.1,0,0.1,0,0.1,0.1L72.1,98.7
	C72.2,98.7,72.2,98.7,72.1,98.7"/>
<path class="st6" d="M62.8,96.4v1.8c0,0.3,0.2,0.5,0.5,0.5h8.4c0.3,0,0.5-0.2,0.5-0.5v-1.8H62.8z"/>
<path class="st3" d="M72.1,98.7h-9.2c-0.1,0-0.1,0-0.1-0.1v-4.5c0-0.1,0-0.1,0.1-0.1h9.2c0.1,0,0.1,0,0.1,0.1L72.1,98.7
	C72.2,98.7,72.2,98.7,72.1,98.7z"/>
<path class="st5" d="M131.7,98.7h-13.3c-0.1,0-0.1,0-0.1-0.1v-4.5c0-0.1,0-0.1,0.1-0.1h13.3c0.1,0,0.1,0,0.1,0.1L131.7,98.7
	C131.8,98.7,131.8,98.7,131.7,98.7"/>
<path class="st6" d="M118.3,96.4v1.8c0,0.3,0.3,0.5,0.7,0.5h12.1c0.4,0,0.7-0.2,0.7-0.5v-1.8H118.3z"/>
<path class="st3" d="M131.7,98.7h-13.3c-0.1,0-0.1,0-0.1-0.1v-4.5c0-0.1,0-0.1,0.1-0.1h13.3c0.1,0,0.1,0,0.1,0.1L131.7,98.7
	C131.8,98.7,131.8,98.7,131.7,98.7z"/>
<rect x="62.8" y="139" class="st9" width="4.5" height="9.9"/>
<rect x="65.1" y="139" class="st10" width="2.2" height="9.9"/>
<rect x="62.8" y="139" class="st3" width="4.5" height="9.9"/>
<rect x="135.7" y="139" class="st9" width="4.5" height="9.9"/>
<rect x="138" y="139" class="st10" width="2.2" height="9.9"/>
<rect x="135.7" y="139" class="st3" width="4.5" height="9.9"/>
<rect x="62.8" y="77.6" class="st9" width="4.5" height="66.6"/>
<rect x="65.1" y="77.6" class="st10" width="2.2" height="66.6"/>
<rect x="62.8" y="77.6" class="st3" width="4.5" height="66.6"/>
<rect x="123.3" y="77.6" class="st9" width="4.5" height="66.6"/>
<rect x="125.5" y="77.6" class="st10" width="2.2" height="66.6"/>
<rect x="123.3" y="77.6" class="st3" width="4.5" height="66.6"/>
<rect x="62.8" y="134.1" class="st10" width="77.4" height="10.1"/>
<rect x="62.8" y="134.1" class="st9" width="77.4" height="3.2"/>
<rect x="62.8" y="134.1" class="st3" width="77.4" height="10.1"/>
<rect x="67.3" y="131.5" class="st9" width="55.9" height="2.6"/>
<rect x="67.3" y="131.5" class="st3" width="55.9" height="2.6"/>
<rect x="127.7" y="114.9" class="st9" width="12.5" height="18.6"/>
<rect x="127.7" y="114.9" class="st3" width="12.5" height="18.6"/>
<rect x="129.3" y="118.1" class="st2" width="9.4" height="4.6"/>
<polygon class="st11" points="131.9,118.1 129.3,120.7 129.3,122.7 131.4,122.7 135.9,118.1 "/>
<polygon class="st12" points="132.2,122.7 134.1,122.7 138.7,118.1 138.7,118.1 136.8,118.1 "/>
<rect x="129.3" y="123.4" class="st2" width="1.7" height="1.7"/>
<rect x="131.8" y="123.4" class="st11" width="1.7" height="1.7"/>
<rect x="134.4" y="123.4" class="st7" width="1.7" height="1.7"/>
<rect x="137" y="123.4" class="st12" width="1.7" height="1.7"/>
<rect x="129.3" y="125.9" class="st12" width="1.7" height="1.7"/>
<rect x="131.8" y="125.9" class="st7" width="1.7" height="1.7"/>
<rect x="134.4" y="125.9" class="st11" width="1.7" height="1.7"/>
<rect x="137" y="125.9" class="st2" width="1.7" height="1.7"/>
<rect x="129.3" y="128.3" class="st2" width="1.7" height="1.7"/>
<rect x="131.8" y="128.3" class="st11" width="1.7" height="1.7"/>
<rect x="134.4" y="128.3" class="st7" width="1.7" height="1.7"/>
<rect x="137" y="128.3" class="st12" width="1.7" height="1.7"/>
<rect x="131.8" y="83.3" class="st10" width="2.1" height="25.4"/>
<rect x="131.8" y="83.3" class="st13" width="1.1" height="25.4"/>
<rect x="131.8" y="83.3" class="st3" width="2.1" height="25.4"/>
<rect x="139.1" y="83.3" class="st10" width="2.1" height="25.4"/>
<rect x="139.1" y="83.3" class="st13" width="1.1" height="25.4"/>
<rect x="139.1" y="83.3" class="st3" width="2.1" height="25.4"/>
<rect x="83.8" y="92.9" class="st6" width="7.5" height="7.3"/>
<rect x="85.2" y="92.9" class="st9" width="1.5" height="7.3"/>
<rect x="83.8" y="92.9" class="st3" width="7.5" height="7.3"/>
<rect x="85.8" y="79.6" class="st6" width="2.9" height="4.5"/>
<rect x="86.4" y="79.6" class="st9" width="0.6" height="4.5"/>
<rect x="85.8" y="79.6" class="st3" width="2.9" height="4.5"/>
<rect x="80.9" y="84.1" class="st6" width="12.6" height="8.8"/>
<rect x="80.9" y="84.1" class="st3" width="12.6" height="8.8"/>
<path class="st9" d="M89.6,88.5c0,1.3-1.1,2.4-2.4,2.4c-1.3,0-2.4-1.1-2.4-2.4c0-1.3,1.1-2.4,2.4-2.4C88.6,86.1,89.6,87.2,89.6,88.5
	"/>
<path class="st3" d="M89.6,88.5c0,1.3-1.1,2.4-2.4,2.4c-1.3,0-2.4-1.1-2.4-2.4c0-1.3,1.1-2.4,2.4-2.4C88.6,86.1,89.6,87.2,89.6,88.5
	z"/>
<path class="st10" d="M70.3,88.5c0,1.5-1.2,2.7-2.7,2.7c-1.5,0-2.7-1.2-2.7-2.7c0-1.5,1.2-2.7,2.7-2.7C69,85.8,70.3,87,70.3,88.5"/>
<path class="st3" d="M70.3,88.5c0,1.5-1.2,2.7-2.7,2.7c-1.5,0-2.7-1.2-2.7-2.7c0-1.5,1.2-2.7,2.7-2.7C69,85.8,70.3,87,70.3,88.5z"/>
<path class="st10" d="M126,88.5c0,1.5-1.2,2.7-2.7,2.7c-1.5,0-2.7-1.2-2.7-2.7c0-1.5,1.2-2.7,2.7-2.7C124.8,85.8,126,87,126,88.5"/>
<path class="st3" d="M126,88.5c0,1.5-1.2,2.7-2.7,2.7c-1.5,0-2.7-1.2-2.7-2.7c0-1.5,1.2-2.7,2.7-2.7C124.8,85.8,126,87,126,88.5z"/>
<path class="st3" d="M87,79.6v-4.2c0-3.7,3-6.7,6.7-6.7h35.7c3.7,0,6.7,3,6.7,6.7v9.6"/>
<polygon class="st7" points="98.4,116.3 104.3,116.3 104.5,116.2 101.4,112.2 98.3,116.2 "/>
<polygon class="st11" points="107.5,112.3 101.4,112.3 104.5,116.3 "/>
<polygon class="st2" points="92.2,116.3 98.1,116.3 98.3,116.2 95.2,112.2 92.1,116.2 "/>
<polygon class="st2" points="101.4,112.3 95.2,112.3 98.3,116.3 "/>
<polygon class="st12" points="104.3,116.3 98.3,130.6 109.1,116.3 104.6,116.3 "/>
<polygon class="st7" points="98.4,116.3 98.3,116.3 98.3,130.6 104.3,116.3 "/>
<polygon class="st9" points="107.5,112.2 104.5,116.2 104.6,116.3 109.1,116.3 107.7,112.2 "/>
<polygon class="st9" points="92.1,116.2 89,112.2 89,112.2 87.5,116.3 92,116.3 "/>
<polygon class="st7" points="95.2,112.3 89,112.3 92.1,116.3 "/>
<polygon class="st1" points="92,116.3 87.5,116.3 98.3,130.6 92.2,116.3 "/>
<polygon class="st2" points="98.1,116.3 92.2,116.3 98.3,130.6 98.3,116.3 "/>
<polygon class="st3" points="109.1,116.3 98.3,130.6 87.5,116.3 87.9,115.4 88.3,114.3 89,112.2 107.7,112.2 "/>
<line class="st14" x1="104.3" y1="116.3" x2="107.5" y2="112.2"/>
<line class="st3" x1="101.4" y1="112.2" x2="104.6" y2="116.3"/>
<line class="st3" x1="98.1" y1="116.3" x2="101.4" y2="112.2"/>
<line class="st3" x1="95.2" y1="112.2" x2="98.4" y2="116.3"/>
<line class="st3" x1="92" y1="116.3" x2="95.2" y2="112.2"/>
<line class="st3" x1="89" y1="112.2" x2="92.2" y2="116.3"/>
<line class="st3" x1="98.3" y1="116.3" x2="98.3" y2="130.6"/>
<line class="st3" x1="104.3" y1="116.3" x2="98.3" y2="130.6"/>
<line class="st3" x1="92.2" y1="116.3" x2="98.3" y2="130.6"/>
<line class="st3" x1="87.5" y1="116.3" x2="109.1" y2="116.3"/>
<path class="st3" d="M90.4,112.2h-6c-0.8,0-1.4-0.6-1.4-1.4s0.6-1.4,1.4-1.4h2.2c0.5,0,1-0.4,1-1v-0.8"/>
<line class="st3" x1="115.1" y1="110.9" x2="121.6" y2="110.9"/>
<line class="st3" x1="103.7" y1="78.8" x2="118.8" y2="78.8"/>
<line class="st3" x1="102.3" y1="78.8" x2="98.4" y2="78.8"/>
</svg>
