<?xml version="1.0" encoding="utf-8"?>
<!-- Generator: Adobe Illustrator 24.0.2, SVG Export Plug-In . SVG Version: 6.00 Build 0)  -->
<svg version="1.1" id="Layer_1" xmlns="http://www.w3.org/2000/svg" xmlns:xlink="http://www.w3.org/1999/xlink" x="0px" y="0px"
	 viewBox="0 0 150 124" style="enable-background:new 0 0 150 124;" xml:space="preserve">
<style type="text/css">
	.st0{opacity:0.2;fill:#6AC5AC;enable-background:new    ;}
	.st1{fill:#FFBEC7;}
	.st2{fill:url(#SVGID_1_);}
	.st3{fill:url(#SVGID_2_);}
	.st4{fill:url(#SVGID_3_);}
	.st5{fill:url(#SVGID_4_);}
	.st6{fill:url(#SVGID_5_);}
	.st7{fill:#DFE5EE;}
	.st8{opacity:5.000000e-02;enable-background:new    ;}
	.st9{fill:#6AC5AC;}
	.st10{opacity:0.5;fill:#EFF4F8;enable-background:new    ;}
	.st11{fill:url(#SVGID_6_);}
	.st12{fill:#535461;}
	.st13{fill:#F1F1F4;}
	.st14{fill:#FFFFFF;}
	.st15{fill:url(#SVGID_7_);}
	.st16{fill:url(#SVGID_8_);}
	.st17{fill:#D63671;}
	.st18{fill:url(#SVGID_9_);}
</style>
<path class="st0" d="M0.8,63.8c0.4,4.8,3.1,9.1,4.8,13.6c2.3,6.4,2.6,13.5,0.6,20c-0.4,1.4-0.9,2.7-0.9,4.1c0,4.8,5.4,7.9,10.4,10
	c12.6,5.3,25.7,9.3,39.1,11.8c4.4,0.8,9.9,1.2,12.6-1.9c1.3-1.5,1.7-3.5,2.6-5.1c2.5-4.3,8.6-5.9,14-6.9c6.6-1.1,13.2-1.9,19.9-2.3
	c6.7-0.4,14.3-0.7,18.8-5.1c2.8-2.8,3.6-6.7,3.8-10.3c0.4-12-5.3-24.9,2-35.3c3.1-4.3,8.1-7.5,11.1-11.9c4.4-6.3,4-14.3,1-21.1
	s-8.3-12.4-13.5-18.1c-1.7-1.9-3.6-3.8-6.2-4.6c-2.7-0.9-5.8-0.5-8.7-0.1c-13.2,1.9-26.8,4-37.9,10.6c-5.5,3.3-10.1,7.5-15,11.4
	c-10.6,8.5-22.8,16.3-36.8,19.6C11.3,45.2-0.2,52.5,0.8,63.8z"/>
<path class="st1" d="M43.9,29.9c0,0-9.1-1.6,0,10.7V29.9z"/>
<linearGradient id="SVGID_1_" gradientUnits="userSpaceOnUse" x1="225.0029" y1="-21.5088" x2="225.0029" y2="64.4395" gradientTransform="matrix(1 0 0 -1 -147.3 95.83)">
	<stop  offset="0" style="stop-color:#808080;stop-opacity:0.25"/>
	<stop  offset="0.54" style="stop-color:#808080;stop-opacity:0.12"/>
	<stop  offset="1" style="stop-color:#808080;stop-opacity:0.1"/>
</linearGradient>
<path class="st2" d="M106.4,92.3c0,0-1.3-1.5-5-0.6c-1.8-1.7-4-4.2-4.1-5.9c-0.7,0.2-1.5,0.5-2.2,0.8c-3.1-3.4-7-8.9-6.9-14.2
	c0.3-8.6-5.6-23.4-5.6-23.4s0.5-6.1-0.4-11.1c-0.6-3.4-1.9-6.3-4.4-6.5c-0.4,0-0.8,0-1.1,0.1C72.2,33.1,75,47.8,75,47.8L71,60
	L47.7,72.4c0,0,14.1,18.5,21,19.2c0,0,5,5.3,8.7,9.9c-1.3,1.7-2,2.9-2,2.9l3.5,5c-1.4,1.9-3.5,5.7,1,7.5c6.2,2.5,19.7-8.7,19.7-8.7
	S111.5,100.5,106.4,92.3z"/>
<linearGradient id="SVGID_2_" gradientUnits="userSpaceOnUse" x1="188.7983" y1="55.0961" x2="188.7983" y2="66.068" gradientTransform="matrix(1 0 0 -1 -147.3 95.83)">
	<stop  offset="0" style="stop-color:#808080;stop-opacity:0.25"/>
	<stop  offset="0.54" style="stop-color:#808080;stop-opacity:0.12"/>
	<stop  offset="1" style="stop-color:#808080;stop-opacity:0.1"/>
</linearGradient>
<path class="st3" d="M43.6,29.8c0,0-9.3-1.6,0,10.9V29.8z"/>
<linearGradient id="SVGID_3_" gradientUnits="userSpaceOnUse" x1="188.7515" y1="46.8054" x2="188.7515" y2="54.3441" gradientTransform="matrix(1 0 0 -1 -147.3 95.83)">
	<stop  offset="0" style="stop-color:#808080;stop-opacity:0.25"/>
	<stop  offset="0.54" style="stop-color:#808080;stop-opacity:0.12"/>
	<stop  offset="1" style="stop-color:#808080;stop-opacity:0.1"/>
</linearGradient>
<path class="st4" d="M41.4,41.5c0,0-3.4,0-3.3,4.2c0,1.4,0.9,2.7,2.3,3.2c0.7,0.2,1.5,0.2,2.2-0.2c1.9-0.9,2.7-3.2,1.8-5.1
	c-0.2-0.3-0.4-0.7-0.6-0.9C43.2,42,42.3,41.6,41.4,41.5z"/>
<linearGradient id="SVGID_4_" gradientUnits="userSpaceOnUse" x1="189.3162" y1="38.7692" x2="189.3162" y2="46.0311" gradientTransform="matrix(1 0 0 -1 -147.3 95.83)">
	<stop  offset="0" style="stop-color:#808080;stop-opacity:0.25"/>
	<stop  offset="0.54" style="stop-color:#808080;stop-opacity:0.12"/>
	<stop  offset="1" style="stop-color:#808080;stop-opacity:0.1"/>
</linearGradient>
<path class="st5" d="M43.1,50c-0.3-0.1-0.6-0.2-1-0.2c0,0-3.3,0.8-2.7,4.8c0,0,0.3,2.9,3.2,2.5c2-0.3,2.2-2.9,2.2-4.5
	C44.7,51.5,44.1,50.5,43.1,50z"/>
<linearGradient id="SVGID_5_" gradientUnits="userSpaceOnUse" x1="189.2365" y1="26.1334" x2="189.2365" y2="35.5375" gradientTransform="matrix(1 0 0 -1 -147.3 95.83)">
	<stop  offset="0" style="stop-color:#808080;stop-opacity:0.25"/>
	<stop  offset="0.54" style="stop-color:#808080;stop-opacity:0.12"/>
	<stop  offset="1" style="stop-color:#808080;stop-opacity:0.1"/>
</linearGradient>
<path class="st6" d="M43.2,60.5c-0.3-0.1-0.5-0.2-0.8-0.2c-0.4,0.2-0.7,0.5-1,0.8c-0.5,0.4-1,1-1.4,1.5c-1.2,1.8-1.6,4.4,3,7.1v-3.5
	c0.6-0.5,1.1-1.2,1.4-1.8C45.1,62.9,44.6,61.3,43.2,60.5z"/>
<path class="st7" d="M75,103.3c0,0,8.4-14.1,21.4-18.4l-0.7,7.6L85,103.3L75,103.3z"/>
<path class="st8" d="M75,103.3c0,0,8.4-14.1,21.4-18.4l-0.7,7.6L85,103.3L75,103.3z"/>
<path class="st9" d="M79.4,107c0,0-6,6.2,0,8.6c6,2.4,19.3-8.6,19.3-8.6s11.5-7.6,6.6-15.7C105.3,91.3,99.7,84.9,79.4,107z"/>
<path class="st1" d="M97.8,89.2c0,0-17.6,20.4-17.3,17.4c0.1-0.9-0.9-2.6-2.4-4.6c-3.5-4.9-9.7-11.4-9.7-11.4
	C61.8,90,48,71.8,48,71.8l22.8-12.2l3.9-12.1c0,0-2.8-14.4,1.7-16c0.4-0.1,0.7-0.2,1.1-0.1c0.2,0,0.3,0,0.5,0.1
	c2.1,0.5,3.2,3.2,3.8,6.3c0,0,0,0,0,0.1c0.9,4.9,0.4,10.9,0.4,10.9s5.8,14.6,5.5,23c-0.2,5.7,4.4,11.5,7.5,14.8
	C96.7,88.2,97.8,89.2,97.8,89.2z"/>
<path class="st8" d="M73.6,78.3c0,0,0.3-12.7-2-15.9c-2.3-3.2-20.6,10.2-20.6,10.2S69.9,74.9,73.6,78.3z"/>
<path class="st8" d="M79.4,82.9c0,0,8.3-4.9,8.2-12.8"/>
<path class="st8" d="M75,87.6c0,0-2.3,3.2-6.6,3.1"/>
<path class="st8" d="M97.8,89.2c0,0-17.6,20.4-17.3,17.4c0.1-0.9-0.9-2.6-2.4-4.6c9.7-3.3,15-11.7,17-15.5
	C96.7,88.2,97.8,89.2,97.8,89.2z"/>
<path class="st7" d="M102.6,92.9c0,0,0,0.1,0,0.1c-0.3,1.4-0.5,2.7-0.7,4.1c-0.1,0.4-0.2,0.9-0.3,1.3c-0.4,1.1-1,2.1-1.7,3.1
	c-5.3,6.8-18.9,10.3-18.9,10.3l-0.1-0.1l-5.8-8.4c15.4-2.9,21.4-18.4,21.4-18.4c0.1,2.6,4.7,6.6,5.9,7.5
	C102.5,92.6,102.6,92.7,102.6,92.9L102.6,92.9z"/>
<path class="st10" d="M81.7,37.8c-3.9-0.5-4.2-3.8-3.9-6.2c0,0,0.1,0,0.1,0C80,32.1,81.1,34.7,81.7,37.8z"/>
<path class="st8" d="M102.6,92.9c0,0,0,0.1,0,0.1c-0.3,1.4-0.5,2.7-0.7,4.1c-0.1,0.4-0.2,0.9-0.3,1.3l-0.3,0.9l-0.8,1.3l-0.6,0.8
	c-5.3,6.8-18.9,10.3-18.9,10.3l-0.1-0.1c0.4-0.2,9.6-4,13.2-7.4c3.5-3.2,7.8-10.6,8.4-11.7C102.5,92.7,102.6,92.8,102.6,92.9z"/>
<linearGradient id="SVGID_6_" gradientUnits="userSpaceOnUse" x1="206.6251" y1="21.8584" x2="206.6251" y2="87.103" gradientTransform="matrix(1 0 0 -1 -147.3 95.83)">
	<stop  offset="0" style="stop-color:#808080;stop-opacity:0.25"/>
	<stop  offset="0.54" style="stop-color:#808080;stop-opacity:0.12"/>
	<stop  offset="1" style="stop-color:#808080;stop-opacity:0.1"/>
</linearGradient>
<path class="st11" d="M73,8.7H45.7c-1.5,0-2.7,1.2-2.7,2.7c0,0,0,0,0,0v59.8c0,1.5,1.2,2.7,2.7,2.7c0,0,0,0,0,0H73
	c1.5,0,2.7-1.2,2.7-2.7c0,0,0,0,0,0V11.4C75.7,9.9,74.5,8.7,73,8.7z"/>
<path class="st12" d="M44.9,9.2h28.8c1,0,1.7,0.8,1.7,1.7v61c0,1-0.8,1.7-1.7,1.7H44.9c-1,0-1.7-0.8-1.7-1.7V11
	C43.2,10,44,9.2,44.9,9.2z"/>
<rect x="45.6" y="15.2" class="st13" width="27.5" height="52.5"/>
<circle class="st14" cx="56.1" cy="12.2" r="0.2"/>
<path class="st14" d="M57.5,12h5.2c0.1,0,0.2,0.1,0.2,0.2v0.2c0,0.1-0.1,0.2-0.2,0.2h-5.2c-0.1,0-0.2-0.1-0.2-0.2v-0.2
	C57.3,12,57.4,12,57.5,12z"/>
<circle class="st14" cx="59.2" cy="70.2" r="1.8"/>
<path class="st1" d="M41.8,41.4c0,0-3.3,0-3.3,4.1c0,1.4,0.9,2.7,2.3,3.1c0.7,0.2,1.5,0.2,2.1-0.2c1.9-0.9,2.6-3.2,1.7-5
	C44.1,42.3,43,41.5,41.8,41.4z"/>
<path class="st10" d="M41.8,43.5c0,0-3.1,2.1-0.4,4C41.4,47.5,41.1,43.8,41.8,43.5z"/>
<path class="st1" d="M42.5,49.5c0,0-3.2,0.8-2.7,4.7c0,0,0.3,2.8,3.1,2.4c1.9-0.3,2.2-2.8,2.1-4.4c0-1.1-0.6-2-1.6-2.5
	C43.1,49.6,42.8,49.5,42.5,49.5z"/>
<path class="st10" d="M42.3,51.3c0,0-3.1,1.2,0,4.6C42.3,55.8,40.9,52.6,42.3,51.3z"/>
<path class="st1" d="M43.3,65.6v3.5c-4.5-2.6-4.1-5.2-2.9-7c0.4-0.6,0.9-1.1,1.4-1.5c0.3-0.3,0.6-0.5,1-0.7c0.3,0,0.6,0.1,0.8,0.2
	c1.3,0.7,1.8,2.4,1.1,3.7C44.3,64.5,43.8,65.1,43.3,65.6z"/>
<path class="st10" d="M41,63.9c0,0-0.3-0.8-0.6-1.8c0.4-0.6,0.9-1.1,1.4-1.5C42.6,62,41,63.9,41,63.9z"/>
<path class="st8" d="M81.7,48.8c0,0-3.5,3.9-4.6,4.3"/>
<linearGradient id="SVGID_7_" gradientUnits="userSpaceOnUse" x1="206.2132" y1="57.5364" x2="206.2132" y2="64.8639" gradientTransform="matrix(1 0 0 -1 -147.3 95.83)">
	<stop  offset="0" style="stop-color:#808080;stop-opacity:0.25"/>
	<stop  offset="0.54" style="stop-color:#808080;stop-opacity:0.12"/>
	<stop  offset="1" style="stop-color:#808080;stop-opacity:0.1"/>
</linearGradient>
<path class="st15" d="M68.3,33.3H55.1v0.1c-0.6-1.9-2.7-3-4.6-2.3c-1.9,0.6-3,2.7-2.3,4.6s2.7,3,4.6,2.3c1.1-0.4,2-1.2,2.3-2.3v0.1
	h13.2l1.6-1.3L68.3,33.3z M51.6,37.6c-1.6,0-3-1.3-3-3c0-1.6,1.3-3,3-3c1.6,0,3,1.3,3,3C54.5,36.3,53.2,37.6,51.6,37.6L51.6,37.6
	L51.6,37.6z"/>
<path class="st9" d="M51.7,31c-2,0-3.6,1.6-3.6,3.6s1.6,3.6,3.6,3.6c2,0,3.6-1.6,3.6-3.6l0,0C55.3,32.6,53.7,31,51.7,31z M51.7,31.7
	c1.6,0,2.9,1.3,2.9,2.9c0,1.6-1.3,2.9-2.9,2.9c-1.6,0-2.9-1.3-2.9-2.9C48.8,33,50.1,31.7,51.7,31.7C51.7,31.7,51.7,31.7,51.7,31.7"
	/>
<polygon class="st9" points="68.1,35.9 55.1,35.9 55.1,33.4 68.1,33.4 69.7,34.6 "/>
<linearGradient id="SVGID_8_" gradientUnits="userSpaceOnUse" x1="206.2132" y1="47.9879" x2="206.2132" y2="55.3153" gradientTransform="matrix(1 0 0 -1 -147.3 95.83)">
	<stop  offset="0" style="stop-color:#808080;stop-opacity:0.25"/>
	<stop  offset="0.54" style="stop-color:#808080;stop-opacity:0.12"/>
	<stop  offset="1" style="stop-color:#808080;stop-opacity:0.1"/>
</linearGradient>
<path class="st16" d="M68.3,42.9H55.1V43c-0.6-1.9-2.7-3-4.6-2.3c-1.9,0.6-3,2.7-2.3,4.6c0.6,1.9,2.7,3,4.6,2.3
	c1.1-0.4,2-1.2,2.3-2.3v0.1h13.2l1.6-1.3L68.3,42.9z M51.6,47.1c-1.6,0-3-1.3-3-3c0-1.6,1.3-3,3-3c1.6,0,3,1.3,3,3
	C54.5,45.8,53.2,47.1,51.6,47.1C51.6,47.1,51.6,47.1,51.6,47.1L51.6,47.1z"/>
<path class="st17" d="M51.7,40.6c-2,0-3.6,1.6-3.6,3.6c0,2,1.6,3.6,3.6,3.6c2,0,3.6-1.6,3.6-3.6l0,0C55.3,42.2,53.7,40.6,51.7,40.6z
	 M51.7,41.3c1.6,0,2.9,1.3,2.9,2.9c0,1.6-1.3,2.9-2.9,2.9c-1.6,0-2.9-1.3-2.9-2.9C48.8,42.6,50.1,41.3,51.7,41.3
	C51.7,41.3,51.7,41.3,51.7,41.3"/>
<polygon class="st17" points="68.1,45.4 55.1,45.4 55.1,42.9 68.1,42.9 69.7,44.2 "/>
<linearGradient id="SVGID_9_" gradientUnits="userSpaceOnUse" x1="199.7777" y1="59.3452" x2="199.7777" y2="64.3455" gradientTransform="matrix(1 0 0 -1 -147.3 95.83)">
	<stop  offset="0" style="stop-color:#808080;stop-opacity:0.25"/>
	<stop  offset="0.54" style="stop-color:#808080;stop-opacity:0.12"/>
	<stop  offset="1" style="stop-color:#808080;stop-opacity:0.1"/>
</linearGradient>
<path class="st18" d="M55.7,32.1l-0.5-0.5c-0.1-0.1-0.3-0.1-0.4,0c0,0,0,0,0,0l-3.2,3.2l-1.4-1.4c-0.1-0.1-0.3-0.1-0.4,0
	c0,0,0,0,0,0l-0.5,0.5c-0.1,0.1-0.1,0.3,0,0.4c0,0,0,0,0,0l2.1,2.1c0.1,0.1,0.3,0.1,0.4,0c0,0,0,0,0,0l4-3.9
	C55.8,32.4,55.8,32.2,55.7,32.1C55.7,32.1,55.7,32.1,55.7,32.1L55.7,32.1z"/>
<path class="st9" d="M55.5,32L55,31.5c-0.1-0.1-0.3-0.1-0.4,0l-3.1,3.1l-1.3-1.3c-0.1-0.1-0.3-0.1-0.4,0l-0.5,0.5
	c-0.1,0.1-0.1,0.3,0,0.4l2,2c0.1,0.1,0.3,0.1,0.4,0l3.8-3.7C55.6,32.3,55.6,32.1,55.5,32L55.5,32z"/>
</svg>
