<?xml version="1.0" encoding="utf-8"?>
<!-- Generator: Adobe Illustrator 24.0.2, SVG Export Plug-In . SVG Version: 6.00 Build 0)  -->
<svg version="1.1" id="Layer_1" xmlns="http://www.w3.org/2000/svg" xmlns:xlink="http://www.w3.org/1999/xlink" x="0px" y="0px"
	 viewBox="0 0 236 200" style="enable-background:new 0 0 236 200;" xml:space="preserve">
<style type="text/css">
	.st0{opacity:0.2;fill:#6AC5AC;enable-background:new    ;}
	.st1{fill:#414142;}
	.st2{fill:#6AC5AC;}
	.st3{fill:#BE6F72;}
	.st4{fill:#3F3D56;}
	.st5{fill:#FBBEBE;}
	.st6{opacity:0.1;enable-background:new    ;}
	.st7{fill:#E3E8F4;}
	.st8{fill:#F2918F;}
	.st9{opacity:0.1;}
	.st10{opacity:0.1;fill:#414142;enable-background:new    ;}
</style>
<g>
	<path class="st0" d="M99,27.8c-9.3-3.5-19.2-6.5-29.3-6.2C54.8,22,40.6,30.1,33.5,42.1c-5.9,10.1-6.7,22-9.3,33.3
		c-3.2,13.9-9.3,27.1-15.8,39.9c-3.5,6.9-7.2,14-7.8,21.6c-0.8,10.6,4.6,21.1,13.3,28.2s20.1,10.8,31.6,11.7
		c6.1,0.5,12.5,0.1,18-2.5c5.8-2.7,10-7.7,15.8-10.4c5.4-2.5,11.6-2.8,17.7-2.4c7.8,0.5,15.5,2,23,4.6c8.4,2.9,16.2,7.2,24.6,10.2
		c8.4,3,17.8,4.7,26.4,2.3c8.1-2.3,14.5-7.8,20.2-13.4c9.3-9,17.9-19,25.9-29.6c5.2-7.1,10.1-14.5,12.4-22.8
		C234,96.8,228,78.9,214.7,68c-11-9-25.9-13-40.4-15.4c-13.3-2.2-28.6-2.5-40.8-8.1C121.8,39,111.2,32.4,99,27.8z"/>
	<path class="st1" d="M116.5,137c-0.3,0-0.7,0-1,0.1c-0.6,0.1-1.1,0.3-1.6,0.6c-2.4,1.3-4.6,3.2-5.6,5.7c-0.1,0.2-0.1,0.3-0.1,0.5
		c0.1,0.1,0.2,0.3,0.3,0.4l0.9,0.8c0.1,0.1,0.3,0.2,0.4,0.3c0.2,0.1,0.5,0.1,0.8,0c2.5-0.6,5.2-1.2,7-3.1c0.8-0.9,1.6-2.1,2.8-2.2
		c0.5,0,1,0.2,1.5,0.3s1.1-0.2,1.2-0.7c0-0.2,0-0.5-0.1-0.7l-0.8-2.5c-0.2-0.7-2.3-0.7-3-0.6C118.3,136,117.6,136.9,116.5,137z"/>
	<path class="st1" d="M125.5,151.3c0,0.9,0,1.7-0.1,2.6c-0.1,0.7-0.3,1.3-0.6,2c-0.5,1-1.1,1.9-1.8,2.8c-0.7,0.8-1.4,1.5-2.4,1.8
		c-1,0.3-2.2,0.1-2.8-0.7c-0.5-0.7-0.5-1.6-0.5-2.4c0.1-2,0.4-4.1,1.3-5.9c0.4-0.8,0.9-1.5,1.3-2.3c0.8-1.6,1.3-3.6,2.8-4.7
		c0.9,0.4,1.9,0.7,2.9,0.8c0.4,0,1.5,0.1,1.6,0.6c0.1,0.3-0.6,1.3-0.8,1.6C125.8,148.6,125.5,149.9,125.5,151.3z"/>
	<path class="st1" d="M115.2,114c0.3,0.8,0.7,1.6,0.8,2.4c0.1,0.5,0,1,0,1.6c0,0.7,0.2,1.4,0.4,2.1l1.4,5.9c0.2,0.9,0.4,1.8,0.3,2.7
		c-0.1,0.6-0.3,1.2-0.3,1.8c0,0.5,0.1,0.9,0.2,1.4c0.3,1.4,0.2,2.8-0.2,4.1c0,0.1-0.1,0.2,0,0.3c0,0.2,0.2,0.3,0.3,0.4
		c1.6,0.8,3.2,1.4,5,1.7c1.6-3.8,2.7-7.7,3.3-11.7c0.4-2.4,0.5-4.9,1-7.3c0-0.1,0.1-0.3,0.2-0.4c0.2-0.1,0.4-0.1,0.6,0
		c2.6,1.3,5.2,2.7,7.6,4.4c1.7-2.2,2.4-5.1,1.8-7.9c-0.3-1.2-0.7-2.3-1.3-3.4c-0.6-1.3-1.3-2.5-2.2-3.7c-1.9-2.4-4.7-3.9-7.6-5
		c-1.8-0.6-3.6-1.1-5.4-1.6c-1-0.3-2.7-1.2-3.7-0.5c-1,0.7-1.7,2.5-2.1,3.6c-0.5,1.4-0.8,2.9-0.8,4.4
		C114.3,110.8,114.6,112.4,115.2,114z"/>
	<path class="st1" d="M136,121.1c-0.5,0.6-0.1,1.5-0.2,2.3c-0.1,0.4-0.2,0.7-0.4,1l-2.5,4.9c-0.4,0.7-0.7,1.5-0.9,2.3
		c-0.3,1.8,0.4,3.7-0.5,5.3c-0.3,0.5-0.7,0.9-0.9,1.5c-0.1,0.4,0,0.8,0,1.3c-0.1,0.5-0.3,0.9-0.5,1.4c-0.1,0.5-0.2,0.9-0.2,1.4
		c-0.3,2-1.3,3.8-2.9,5c-0.9,0.8-2,1.1-3.2,1.1c-1.2-0.1-2.3-0.9-2.5-2c-0.1-0.4-0.1-0.8-0.3-1.1c-0.3-0.4-1.1-0.5-1.4-0.9l1.3-2.1
		c0.4-0.6,0.8-1.3,0.9-2.1c0.1-0.9-0.4-1.9-0.2-2.8c0.1-0.8,0.7-1.4,0.9-2.2c0.2-1-0.2-2-0.4-2.9c-0.6-2.4,0.1-4.9,0.7-7.2
		c0.8-3.1,1.7-6.3,3.4-9.1C129.4,117.8,132.5,119.6,136,121.1z"/>
	<path class="st2" d="M136,71.8c0.2,0.5,0.1,1.2,0.1,1.7c-0.1,1.3,0.2,2.6,0.1,3.9c-0.1,1.3-0.5,2.6-0.7,3.8
		c-0.8,3.6-0.6,7.4-1.3,11.1c-0.9,4.5-3.2,8.7-3.6,13.3c-0.1,1.5-0.1,3-0.9,4.3c-4.7-2.1-9.2-4.7-13.4-7.9
		c0.9-6.8,1.8-13.5,1.7-20.4c-0.1-0.8,0-1.6,0.2-2.5c0.2-0.7,0.5-1.3,0.9-1.9c1-1.6,2.1-3.2,3.2-4.7c0.7-1,1.5-2,2.6-2.5
		c1.1-0.5,2.5-0.3,3.7,0c1.5,0.3,2.9,0.5,4.4,0.8C133.8,71.1,135.6,70.7,136,71.8z"/>
	<path class="st3" d="M100.6,97.7c-0.6-0.6-1.3-1.2-2-1.6c0.9-1.1,0.7-2.7,1-4.2c0.2-0.9,0.5-1.8,0.8-2.7c0.1-0.2,0.2-0.5,0.5-0.6
		c0.2,0,0.3,0,0.5,0.1c0.8,0.3,2.4,0.3,3,0.8c0.7,0.6,0.1,1.9-0.2,2.7C104,92.6,101,98.1,100.6,97.7z"/>
	<path class="st1" d="M102.9,146c0.4,0.6,0.6,1.3,0.7,2.1c0.1,0.7-0.2,1.5-0.8,1.9s-1.5,0.3-2.3,0c-3.2-1-5.8-3.4-7.2-6.5
		c-0.2-0.5-0.4-1.1-0.9-1.5c-0.3-0.3-0.7-0.5-1-0.7c-1-0.6-2-1.3-2.5-2.4c-0.5-1.1-0.3-2.5,0.7-3.1c0.6-0.4,1.3-0.4,2-0.3
		c0.7,0.2,1.3,0.5,1.9,0.8c1,0.5,2.2,1,3.1,1.7c0.8,0.6,1.5,1.5,2.1,2.3c0.8,0.9,1.5,1.8,2.1,2.7C101.3,143.3,103,145.7,102.9,146z"
		/>
	<path class="st1" d="M83.9,140.6c-0.1,1.3-0.3,2.6-0.7,3.8c-0.2,0.7-0.5,1.4-1.1,1.9c-0.5,0.3-1.1,0.5-1.6,0.6
		c-0.2,0.1-0.4,0.1-0.6,0c-0.4-0.1-0.6-0.4-0.8-0.7c-0.9-1.1-1.7-2.4-2.1-3.7c-0.5-2,0-4.2,0.9-6c0.3-0.8,0.8-1.4,1.4-2
		c0.7-0.6,1.6-1,2.5-1.1c1-0.2,2.1-0.6,2.2,0.6C84.1,136.1,84.1,138.3,83.9,140.6z"/>
	<path class="st1" d="M98.2,91.9c1.8,0.9,3.8,2.1,4.1,4.1c0.2,1.2-0.2,2.4-0.1,3.7c0.1,1.1,0.5,2.1,0.5,3.2c-0.1,0.5-0.1,1-0.3,1.5
		c-0.2,1-0.1,1.9-0.1,2.9c-0.1,2.2-0.8,4.3-1.2,6.4c-0.2,1.5-0.3,3.1-0.2,4.6c0.1,1,0.3,2,0.3,3c0,0.7-0.1,1.4-0.2,2.2
		c-0.3,2.2-1,4.4-2.1,6.4c-1.2,2.4-1.1,5.6-0.9,8.4c0.1,0.4,0,0.8-0.1,1.1c-0.3,0.6-1.1,0.7-1.8,0.6c-2.5-0.2-4.8-1.4-6.5-3.3
		c-0.2-0.2-0.4-0.5-0.5-0.9c-0.1-0.6,0.4-1,0.7-1.5c1.1-1.6,0.8-3.7,0.9-5.6c0.1-1.4,0.4-2.7,1-4c0.3-0.7,0.7-1.5,0.8-2.3
		c0.1-0.7-0.2-1.5-0.4-2.2l-0.8-2.5c-1.2-3.8-2.4-7.7-4.2-11.2c-1.2,0.8-2,2-2.4,3.4c-0.7,2.4,0.3,5.2-0.6,7.5
		c-0.2,0.3-0.3,0.7-0.4,1c-0.1,0.3-0.1,0.6-0.1,0.9c0,2.5,0.2,5,0.5,7.5c0,0.4,0.1,0.7,0.3,1.1c0.2,0.2,0.4,0.4,0.5,0.6
		c0.5,0.6,0.4,1.4,0.3,2.1l-0.5,3.5c0,0.2-0.1,0.3-0.2,0.5c-0.1,0.1-0.3,0.2-0.4,0.2c-1.6,0.5-3.4,0.7-5.1,0.5
		c-0.5-0.1-1-0.4-1.4-0.7c0-0.5,0.6-0.9,0.6-1.4c0-0.3-0.2-0.6-0.4-0.8c-1-1.1-2.1-2.2-2.1-3.7c0-0.4,0.1-0.8,0.1-1.1
		c0-1-0.7-1.8-0.9-2.7c-0.3-1.2,0.1-2.4,0.2-3.6c0.2-1.6,0-3.2-0.3-4.8l-0.9-5.9c-0.1-0.9-0.3-1.8-0.5-2.7c-0.3-0.9-0.7-1.7-1.1-2.5
		c-0.8-1.7-1.5-3.4-2.2-5.2c-0.2-0.5-0.4-1-0.4-1.5c0-0.9,0.4-1.7,1-2.4c1.1-1.3,2.5-2.2,4.1-2.5c0.3-0.1,0.6-0.1,0.8,0
		c0.2,0.1,0.4,0.2,0.6,0.3c4.1,2.7,9.1,3.3,13.7,1.6c0.3,0.2,0.7,0.1,1,0c0.8-0.4,1.5-1,2.2-1.6C94.7,93.3,96.5,92.3,98.2,91.9z"/>
	<path class="st4" d="M44.6,158.4c0.1,0.4,0.3,0.8,0.6,1.1c0.9,1.2,2.2,2.2,2.8,3.6c0.1,0.3,0.2,0.6,0.3,0.9
		c0.4,0.9,0.9,1.8,1.7,2.4c0.6,0.5,1.2,0.9,1.9,1.2c1.1,0.6,2.4,1.2,3.7,1.2c0.3,0,0.5,0,0.8-0.1c0.4-0.1,0.8-0.2,1.2-0.4
		c0.8-0.5,1.6-1.4,1.4-2.3c0-0.2-0.1-0.4-0.2-0.5c-0.1-0.3-0.3-0.5-0.5-0.7c-0.4-0.6-0.9-1.2-1.5-1.6c-0.7-0.4-1.6-0.5-2.3-1.1
		c-0.3-0.2-0.5-0.5-0.7-0.8c-0.6-0.9-1-1.9-1.3-2.9c-0.2-0.8-0.3-1.6-0.9-2.2s-1.3-0.7-2.1-0.8c-0.3-0.1-0.5-0.1-0.8-0.1
		c-0.4,0-0.8,0.1-1.1-0.1c-0.3-0.2-0.5-0.4-0.9-0.4c-0.3,0-0.6,0.2-0.9,0.4C44.9,155.9,44.2,157.2,44.6,158.4z"/>
	<path class="st5" d="M53.8,159.5c0.2,0.9,0.4,1.8,1.1,2.4c0.4,0.4,1,0.6,1.2,1.1s-0.1,1.2-0.4,1.7c-0.5,0.6-1,1.1-1.7,1.5
		c-0.5,0.3-1.2,0.6-1.8,0.4c-0.5-0.1-0.9-0.5-1.3-0.9c-0.9-0.8-1.8-1.7-2.3-2.8c-0.5-1.2-0.5-2.5-1.1-3.6c-0.3-0.7-0.8-1.2-1-2
		c-0.1-0.3-0.1-0.5,0-0.8c0.2-0.4,0.6-0.6,1-0.6c0.4,0,0.8,0.1,1.2,0.3c1.2,0.4,2.4,0.8,3.6,1c0.5,0.1,0.8,0.1,1,0.6
		C53.6,158.4,53.7,159,53.8,159.5z"/>
	<path class="st5" d="M56.8,167c-0.2,0.3-0.3,0.6-0.4,1c-0.1,0.3-0.1,0.5,0,0.8c0.4-0.1,0.8-0.2,1.2-0.4c0.8-0.5,1.6-1.4,1.4-2.3
		c0-0.2-0.1-0.4-0.2-0.5c-0.3-0.1-0.5,0-0.7,0.2C57.6,166.1,57.1,166.5,56.8,167z"/>
	<path class="st4" d="M47.5,147.3c-0.1,0.2-0.1,0.5-0.1,0.8c0.1,0.5,0.6,0.8,1.1,1.1l4.5,2.2c0.3,0.1,0.6,0.3,0.9,0.5
		c0.8,0.5,1.4,1.1,2,1.8c0.7,0.6,1.4,1.2,2.3,1.4c0.9,0.2,1.8,0.1,2.6-0.3c0.4-0.2,0.8-0.5,1.2-0.8c0.3-0.3,0.6-0.6,0.9-0.9
		c0.2-0.2,0.4-0.5,0.5-0.8c0.1-0.5-0.2-0.9-0.4-1.3c-0.2-0.2-0.3-0.4-0.5-0.6c-1.7-1.9-4.6-2.9-7-3.3c-1-0.2-1.9-0.5-2.8-0.8
		c-0.9-0.3-1.9-0.5-2.9-0.4C48.8,145.8,47.9,146.4,47.5,147.3z"/>
	<path class="st6" d="M47.5,147.3c-0.1,0.2-0.1,0.5-0.1,0.8c0.1,0.5,0.6,0.8,1.1,1.1l4.5,2.2c0.3,0.1,0.6,0.3,0.9,0.5
		c0.8,0.5,1.4,1.1,2,1.8c0.7,0.6,1.4,1.2,2.3,1.4c0.9,0.2,1.8,0.1,2.6-0.3c0.4-0.2,0.8-0.5,1.2-0.8c0.3-0.3,0.6-0.6,0.9-0.9
		c0.2-0.2,0.4-0.5,0.5-0.8c0.1-0.5-0.2-0.9-0.4-1.3c-0.2-0.2-0.3-0.4-0.5-0.6c-1.7-1.9-4.6-2.9-7-3.3c-1-0.2-1.9-0.5-2.8-0.8
		c-0.9-0.3-1.9-0.5-2.9-0.4C48.8,145.8,47.9,146.4,47.5,147.3z"/>
	<path class="st5" d="M58.9,148.7c0.3,0.4,0.6,0.8,0.9,1.3c0.2,0.3,0.3,0.7,0.2,1.1c-0.1,0.2-0.3,0.5-0.5,0.6l-0.5,0.4
		c-0.1,0.1-0.3,0.3-0.5,0.4c-0.2,0.1-0.5,0.1-0.8,0.1c-0.6,0-1.3,0-1.8-0.4c-0.7-0.5-0.8-1.5-0.5-2.3c0.3-0.8,1-1.4,1.6-1.9
		C57.7,147.7,58.5,148.3,58.9,148.7z"/>
	<path class="st5" d="M61.7,151.4c-0.1,0.4,0,0.9,0.1,1.3c0.1,0.4,0.2,0.8,0.3,1.2c0,0,0,0,0,0c0.3-0.3,0.6-0.6,0.9-0.9
		c0.2-0.2,0.4-0.5,0.5-0.8c0.1-0.5-0.2-0.9-0.4-1.3c-0.2-0.2-0.3-0.4-0.5-0.6c-0.1,0.2-0.2,0.3-0.3,0.4
		C62,150.8,61.8,151.1,61.7,151.4z"/>
	<path class="st4" d="M49.8,132.1c-0.5,2.3-0.3,4.6,0,6.9c0.2,1.7,0.5,3.6-0.1,5.2c-0.2,0.6-0.5,1.3-0.4,1.9
		c0.2,1.2,1.7,1.7,2.9,1.9c0.4,0.1,0.7,0.1,1.1,0.1c0.4-0.1,0.7-0.3,1-0.5c1.7-1.3,3.1-3,3.8-5c0.5-1.4,0.6-2.8,0.8-4.2
		c0.2-2.4,0.5-4.8,0.1-7.2c-0.1-0.7-0.3-1.4-0.3-2.1c-0.1-1.2,0-2.5,0.2-3.7c0.4-3,1.1-5.9,2-8.8c-2.5,0.3-5-0.1-7.2-1.3
		c0.4,0.2-0.1,3.9-0.1,4.4c-0.2,1.5-0.4,3-0.8,4.5C52.1,127,50.4,129.4,49.8,132.1z"/>
	<path class="st6" d="M49.8,132.1c-0.5,2.3-0.3,4.6,0,6.9c0.2,1.7,0.5,3.6-0.1,5.2c-0.2,0.6-0.5,1.3-0.4,1.9
		c0.2,1.2,1.7,1.7,2.9,1.9c0.4,0.1,0.7,0.1,1.1,0.1c0.4-0.1,0.7-0.3,1-0.5c1.7-1.3,3.1-3,3.8-5c0.5-1.4,0.6-2.8,0.8-4.2
		c0.2-2.4,0.5-4.8,0.1-7.2c-0.1-0.7-0.3-1.4-0.3-2.1c-0.1-1.2,0-2.5,0.2-3.7c0.4-3,1.1-5.9,2-8.8c-2.5,0.3-5-0.1-7.2-1.3
		c0.4,0.2-0.1,3.9-0.1,4.4c-0.2,1.5-0.4,3-0.8,4.5C52.1,127,50.4,129.4,49.8,132.1z"/>
	<path class="st1" d="M63.2,118.9c1,3,0.8,6.3,0.4,9.4c-0.4,3.1-1.1,6.3-0.9,9.4c0.1,1.2,0.3,2.5-0.1,3.7c-0.2,0.6-0.5,1.1-0.8,1.7
		l-8.3,14.3c-0.4,0.8-1.2,1.2-2.1,1.3c-0.9,0.1-1.7-0.2-2.6-0.6c-0.5-0.2-1.1-0.5-1.5-0.8c-0.4-0.4-0.7-0.9-0.6-1.5
		c0.4-2.5,0.9-5,1.3-7.5c0.3-1.7,0.9-3.3,1.8-4.8c0.6-1,1.4-2,2-3c1.6-3.1,1-6.8-0.2-10.1c-1.2-3.2-3-6.3-4-9.6
		c-0.3-0.9-0.5-1.9-0.5-2.8c0-2,0.8-4,2.2-5.4c0.2-0.2,0.5-0.4,0.7-0.5c0.3-0.1,0.7-0.1,1,0C55.7,113,61.7,114.5,63.2,118.9z"/>
	<path class="st5" d="M137.4,74.2c0.2,1.1-0.3,2.3-0.8,3.3c-2.2,3.7-7.3,5.3-11.2,3.6c-1.6-0.7-3-1.9-4.3-3
		c-0.5-0.4-0.9-0.8-1.1-1.3c-0.4-1,0.1-2.1,0.9-2.8c0.8-0.7,1.8-1,2.8-1.3C127,71.5,136.6,68.2,137.4,74.2z"/>
	<path class="st1" d="M135.4,70.6c3.1,2.5,7.5,4.8,11,6.6c1.2,0.6,2.5,1.3,2.9,2.6c0.2,0.7,0.2,1.4,0.1,2.1c-0.1,1.4-0.3,2.8-0.8,4
		c-0.6,1.5-1.7,2.7-2.6,4.1c-1.6,2.4-2.5,5.2-4.4,7.3c1.3,4.3,2.7,8.6,3.2,13c0,0.1,0,0.3,0,0.4c-0.1,0.1-0.1,0.1-0.2,0.2l-3.2,2.1
		c-0.4,0.2-0.7,0.5-0.9,0.8c-0.6,0.7-0.5,1.8-0.8,2.6c-0.4,0.8-1.1,1.5-2,1.8c-0.9,0.3-1.8,0.4-2.7,0.3c-1.2-0.1-2.3-0.5-3.3-1.2
		c-0.8-0.6-1.4-1.5-2-2.4c-0.4-0.6-0.8-1.2-1-1.9c-0.3-1-0.4-2-0.4-3c0-1.9,0.2-3.9,0.6-5.8c0.2-0.8,0.3-1.5,0.5-2.3
		c0.2-1.5,0.2-3.1,0.4-4.6c0.2-1.7,0.6-3.4,1.2-5.1c0.3-1,0.5-2.1,0.7-3.1c0.3-1.9,0.9-3.6,1.5-5.4l1-3.1c0.2-0.7,0.4-1.3,0.7-2
		c0.5-1.2,1.1-2.4,1.3-3.7c0.2-1.4-1.3-3.1-0.8-4.4C135.1,70.7,135.3,70.5,135.4,70.6z"/>
	<path class="st1" d="M148.5,79.1c0.7,0.3,1.1,1.1,1.4,1.8c0.6,1.7,0.7,3.5,0.4,5.2c-0.1,0.4-0.2,0.9-0.2,1.3c0,0.5,0.1,1,0.2,1.6
		c0.3,2,0,4,0.1,6c0.1,2.2,0.6,4.6-0.4,6.7c-0.6,1.4-1.8,2.4-3,3.3c-4.4,3.4-9.2,6.2-14.3,8.2c0.9-1.1,0.9-2.7,0.3-3.9
		c-0.6-1.2-1.7-2.2-2.8-2.9c1.5-0.3,2.9-0.8,4.3-1.5c2.7-1.4,5-3.4,7.3-5.4c0.3-0.2,0.6-0.6,0.8-1c0.2-0.8-0.4-1.5-0.9-2.2
		c-1.3-2.1-1-4.8-0.5-7.2c0.6-2.6,1.6-5.2,3.2-7.4C145.5,80.4,146.8,79.4,148.5,79.1z"/>
	<path class="st5" d="M132.4,113.2c-0.2,0.4-0.5,0.7-0.9,1c-0.8,0.5-1.8,0.3-2.7,0c-0.8-0.3-1.5-0.8-2.2-1.4c-0.3-0.3-0.6-0.5-1-0.7
		c-0.7-0.3-1.6-0.1-2-0.7c0-0.1-0.1-0.1-0.1-0.2c0-0.2,0.3-0.3,0.5-0.3c1.1-0.1,2.1-0.4,3-0.9c-0.3-0.2-0.5-0.5-0.7-0.8
		c-0.1-0.1-0.1-0.2-0.1-0.4c0-0.1,0.1-0.3,0.2-0.4c1.7-1.6,4.2-2,6.3-1.1c0.2,0.1,0.4,0.2,0.5,0.4c0.1,0.2,0.2,0.3,0.2,0.5
		c0.2,0.7,0.8,1.8,0.6,2.5C133.9,111.6,132.9,112.5,132.4,113.2z"/>
	<path class="st1" d="M114.8,110c3.2-3.7,4.7-8.6,6-13.3l1-3.4l2.3-8.1c0.3-1.2,0.7-2.4,0.9-3.6c0.4-2.1,0.4-4.3,0.4-6.4
		c0-0.9-0.2-1.8-0.6-2.6c-0.2-0.6-0.3-1.2-0.5-1.7c-0.2-0.8-0.6-1.6-1-2.3c-0.1-0.2-0.3-0.4-0.5-0.6c-0.3-0.2-0.7-0.4-1.1-0.4
		c-0.8-0.2-1.7-0.4-2.5-0.4c-0.9,0-1.7,0.3-2.3,1c-0.4,0.5-0.6,1.1-0.9,1.7c-0.2,0.2-0.3,0.5-0.4,0.7c-0.1,0.4-0.2,0.8-0.2,1.2
		c-0.1,1.6-0.2,3.3-0.3,4.9c0,0.7-0.1,1.5-0.1,2.2c0,0.6,0.1,1.2,0.1,1.7l0.6,5.6c0.1,1.3,0,2.6,0.2,3.9c0.3,3.2-0.4,6.4-1.1,9.6
		c-0.3,1.5-0.7,3-1.4,4.4c-0.6,1.2-1.6,2.4-1.3,3.8c0.1,0.5,0.3,0.9,0.4,1.4c0,0.3,0,0.6,0.1,0.9c0.2,0.4,0.7,0.6,1.1,0.5
		C114,110.6,114.4,110.3,114.8,110z"/>
	<path class="st5" d="M115.2,95.1c0.1,0.7,0,1.5,0.1,2.2c0.1,1,0.3,1.9,0.5,2.8c0.3,1,0.6,2.2,1.5,2.8c0.2,0.1,0.4,0.3,0.7,0.4
		c0.2,0.2,0.3,0.4,0.2,0.7l-0.7-0.1c0.3,0.2,0.4,0.7,0.1,1c-0.2,0.3-0.7,0.4-1,0.1c0,0-0.1-0.1-0.1-0.1c0,0.2,0,0.5-0.1,0.7
		c-0.1,0.2-0.3,0.4-0.5,0.4c-0.1,0-0.3-0.1-0.4-0.2l-1.9-1.2c-0.6-0.3-1-0.7-1.3-1.3l-0.8-1.2c-0.2-0.2-0.3-0.5-0.4-0.8
		c-0.3-1,0.5-2.2,0.1-3.2c-0.1-0.2-0.3-0.5-0.5-0.7c-0.9-1.3-0.9-3.1-0.8-4.7c0-0.5,0.1-1.2,0.6-1.4c0.4-0.2,0.9,0,1.2,0.2
		c0.4,0.2,0.7,0.5,1.1,0.7c0.3,0.1,0.5,0.1,0.8,0.2c0.4,0.1,0.7,0.6,0.9,0.9C114.9,94,115.1,94.5,115.2,95.1z"/>
	<path class="st3" d="M92.5,71.9c-0.2,0.5-0.5,1-0.9,1.4c-0.4,0.4-0.9,0.6-1.5,0.5c-0.6-0.1-1-0.6-1.4-1c-1-1.2-2-2.3-2.7-3.7
		c-1-2.1-1.2-4.5-1.3-6.8c0-0.6-0.1-1.2,0.2-1.8c0.4-0.7,1.1-1,1.9-1.3l3.9-1.5c0.2-0.1,0.5-0.2,0.8-0.1c0.6,0.1,0.8,0.8,1,1.5
		c0.3,1.1,0.8,2.1,1.5,3c0.9,1.2,2.9,2.8,1.7,4.2C94.4,68,93.5,69.9,92.5,71.9z"/>
	<path class="st7" d="M97.6,65.1c1.7,1.6,2.3,4.2,2.2,6.5c-0.1,2.4-0.7,4.7-1.1,7s-0.5,4.8,0.6,7c0.3,0.7,0.8,1.4,1.1,2.2
		c0.2,0.8,0.3,1.6,0.2,2.4c0,0.8-0.2,1.7-0.5,2.4c-0.6,1.2-1.7,2.1-2.8,2.8c-2.2,1.6-4.5,3.2-7.1,4.1c-1.8,0.6-3.6,0.8-5.5,0.9
		c-1.2,0.1-2.5,0.1-3.7-0.1c-2.2-0.4-4.2-1.4-5.7-3c-0.3-0.3-0.5-0.6-0.6-0.9c-0.2-0.4-0.2-0.9-0.2-1.3c-0.1-1.7-0.1-3.4,0-5.1
		c0-1.6,0.3-3.2,0.7-4.8c0.5-1.8,1.4-3.5,2-5.3c2.3-6.1,2-13.1,5.2-18.8c0.7-1.2,1.8-2.5,3.2-2.3c0.3,0,0.5,0.1,0.7,0.3
		c0.2,0.2,0.3,0.5,0.3,0.8c0.3,2.8,0.8,5.6,2.1,8.2c0.5,1,1.3,2.5,2.5,2.7s1.9-0.9,2.5-1.7C94.8,67.6,96.1,66.3,97.6,65.1z"/>
	<path class="st1" d="M105.9,60.9c0.4,0.2,0.7,0.4,1,0.7c0.8,0.7,1.1,1.9,1.1,2.9c0,1.1-0.3,2.1-0.4,3.2c-0.4,2.8-0.1,5.8,0.1,8.6
		c0.1,0.5,0,0.9-0.1,1.4c-0.1,0.4-0.4,0.8-0.6,1.2c-0.5,1.2-0.1,2.7-0.4,4c-0.3,1.4-1.4,2.7-1.2,4.1c0.1,0.6,0.3,1.1,0.5,1.6
		s0,1.2-0.5,1.5c-0.5,0.3-1.2,0.1-1.7,0.2c-0.2,0.1-0.5,0.2-0.7,0.3c-0.9,0.4-1.9,0.3-2.8-0.2c-0.8-0.5-1.6-1.1-2.2-1.8
		c-1-1-1.9-2.1-2.4-3.5c-0.6-1.9-0.1-4.1,0.6-6c0.7-1.9,1.5-3.9,1.4-5.9c-0.1-1.1-0.4-2.3-0.6-3.4c-0.3-1.6-0.4-3.1-0.3-4.7
		c0-1.2,0.1-2.4,0.6-3.4c0.7-1.4,2.1-2.4,3.7-2.5C102.8,59.1,104.3,60.1,105.9,60.9z"/>
	<path class="st6" d="M101,85.9c0,0.8,0.2,1.6,0.4,2.4c0.5-1.1,0.5-2.2,0.6-3.4c0.3-4,1.1-7.7,2.1-11.5c-0.7,0.5-1.1,1.8-1.4,2.6
		C101.4,79.2,100.8,82.6,101,85.9z"/>
	<path class="st1" d="M83.5,58.4c-1.2,0.3-2.3,1.1-3.5,1.6c-1.3,0.5-2.6,0.7-3.9,1.1c-3,0.7-6.1,2.1-7.9,4.7
		c-1.4,1.9-1.9,4.2-2.8,6.3c-0.8,1.8-1.8,3.4-2.4,5.3c-0.7,2.4-0.7,5-0.5,7.5c0.2,2.1,0.4,4.2,1.3,6c0.5,1,1.2,1.8,1.7,2.8
		c0.6,1.2,0.9,2.4,1.4,3.6c0.5,1.2,1.2,2.4,2.4,3l1.9-1.1c2.8-1.6,5.6-3.3,8.4-5.1c2.4-1.6,4.8-3.3,6-5.9c1.1-2.3,1.2-4.9,0.9-7.4
		c-0.3-2.5-1-4.9-1.3-7.4c-0.4-3.1-0.4-6.3,0.2-9.4c0.3-1.4,0.9-2.9,1.1-4.3C86.5,58,84.6,58.1,83.5,58.4z"/>
	<path class="st5" d="M71.9,99.5c1.4,1.4,3.5,1.8,5.3,2.6c1.3,0.6,2.6,1.5,3.6,2.6c0.6,0.6,1.1,1.4,0.8,2.2c-0.2,0.7-1,1-1.6,1.3
		c-0.8,0.3-1.7,0.6-2.6,0.3c-0.5-0.2-0.9-0.6-1.3-0.8c-1.1-0.6-2.4-0.6-3.6-1.2c-1.6-0.8-2.3-2.7-3.8-3.7c-0.8-0.5-1.9-1-2-2
		c0-0.4,0.1-0.7,0.2-1c0.3-0.8,0.8-3.5,1.9-3.4C70.1,96.4,70.9,98.8,71.9,99.5z"/>
	<path class="st5" d="M64.3,87.4c0.5,1.7,1.6,3.2,2.7,4.5c0.8,1,1.7,2,1.7,3.3c0,1.2-0.8,2.3-1.8,2.9c-1,0.6-2.3,0.8-3.5,0.9
		c-1,0.1-1.9,0-2.9-0.2c-2.4-0.6-4-2.7-5.9-4.3c-1.1-0.9-2.3-1.8-3.2-2.9c-0.8-1.2-1.2-2.9-0.4-4.1c0.3-0.4,0.6-0.7,1-1
		c1.4-1.2,2.6-2.7,3.6-4.3c0.4-0.6,0.8-1.4,1.4-1.7c0.9-0.6,2.1-0.3,3.2,0c1.1,0.3,4.3,0.9,4.6,2.3c0.1,0.6-0.6,1.5-0.8,2.2
		C64,85.7,64,86.6,64.3,87.4z"/>
	<path class="st8" d="M70.1,90.6c0.3,0.6,0.6,1.3,0.8,1.9c0.8,2.7-0.6,5.6-1.3,8.3c-0.9,3.6-0.5,7.3-0.5,10.9c0,1.7-0.2,3.5-1.4,4.7
		c-0.3,0.3-0.7,0.5-0.9,0.9c-0.1,0.3-0.2,0.6-0.3,0.9c-0.7,2.3-3.1,3.7-5.5,3c-0.3-0.1-0.6-0.2-0.9-0.4c-1-0.5-1.8-1.5-3-1.5
		c-0.4,0-0.7,0.1-1.1,0.1c-1.1,0.1-2.2-0.3-3.3-0.7c-0.3-0.1-0.5-0.2-0.7-0.4c-0.2-0.2-0.3-0.4-0.5-0.6c-0.6-0.7-1.7-0.6-2.7-0.8
		c-1.4-0.3-2.5-1.4-2.8-2.8c-0.2-0.9,0-1.8,0.1-2.7l0.7-4c0.3-1.5,0.5-2.9,0.6-4.4c0.1-1.7-0.1-3.4-0.4-5c-0.3-1.3-0.8-2.7-0.9-4
		c-0.3-2.5,0.4-4.9,1.8-6.9c0.4-0.5,0.8-1,1.4-1c0.5,0,1,0.2,1.4,0.5c3.7,2.2,7.5,4.4,11.3,6.5c1,0.6,2.1,1.2,3.2,1.5
		c0.3,0.1,0.8,0.1,0.9-0.3c0-0.1,0-0.3-0.1-0.4c-0.6-1.2-1.6-2.3-2.3-3.5c-0.7-1.2-1.3-2.6-1.1-4c0.3-1.9,2.1-3.2,3.5-1.7
		C68,86.4,69.1,88.5,70.1,90.6z"/>
	<path class="st5" d="M58.5,114.8c3,0.2,6.1,0.4,8.9,1.6c0.9,0.4,1.9,0.9,2.8,0.6c0.5-0.1,0.9-0.4,1.3-0.7c1.2-0.9,2.3-1.8,3.3-2.8
		c-0.1-0.6-0.9-0.6-1.4-0.6c-1.4,0-2.8-0.3-4-1c-0.4-0.2-0.8-0.4-1.3-0.6c-1.2-0.3-2.5,0.3-3.7,0.6c-1.8,0.5-3.8,0.2-5.6-0.1l-5-0.7
		c-0.5-0.1-1-0.1-1.4,0.2c-0.2,0.2-0.4,0.5-0.5,0.9c-0.6,2.1-0.3,2.2,1.7,2.4L58.5,114.8z"/>
	<circle class="st6" cx="127.3" cy="70.6" r="8.3"/>
	<circle class="st5" cx="127.2" cy="70.2" r="8.3"/>
	<path class="st1" d="M134.2,59.7c0.7,0.4,1.4,0.8,1.7,1.5c0.2,0.5,0.3,1,0.4,1.4c0.5,1.6,1.7,2.9,1.7,4.5c0.1,1.8-1.2,3.3-2.8,4.2
		c-0.3,0.3-0.8,0.4-1.2,0.4c-0.4,0-0.8-0.3-1.2-0.5c-1.7-0.8-3.6,0.2-5.4,0.6c-1.9,0.5-3.8,0.3-5.6-0.3c-1-0.4-1.9-0.9-2.5-1.7
		c-0.6-0.8-0.8-2-0.3-2.9c0.3-0.5,0.7-0.9,0.7-1.4c0-0.3-0.2-0.6-0.3-0.9c-0.1-0.5,0.2-1,0.4-1.4c1.2-1.9,2.7-3.6,4.5-5.1
		c0.5-0.4,1.1-0.8,1.8-0.9c1.4-0.1,2.5,1,3.9,1C131.7,58.3,132.8,58.9,134.2,59.7z"/>
	<circle class="st6" cx="96.7" cy="59.9" r="8.5"/>
	<circle class="st3" cx="96.9" cy="59.7" r="8.5"/>
	<path class="st1" d="M101.5,64.5c1.2,0.7,2.7,0.6,4,0.3c0.8-0.1,1.5-0.4,2.1-0.9c0.6-0.5,1-1.2,1.1-2c0-0.9-0.6-1.6-0.6-2.5
		c-0.1-1.1,0.6-2.1,0.7-3.2c0.1-1.1-0.5-2.1-1-3c-0.9-1.6-1.9-3.3-3.2-4.5c-1.4-1.2-3.3-2-5.1-1.6c-0.9,0.2-1.7,0.7-2.6,0.8
		c-0.8,0.1-1.6-0.2-2.4-0.3c-0.8-0.1-1.7,0-2.3,0.5c-0.3,0.3-0.5,0.7-0.9,1c-0.3,0.1-0.5,0.2-0.8,0.3c-0.9,0.4-1.4,1.4-1.7,2.4
		l-2.2,6.4c0.7,0.5,1.6,0.8,2.4,1.2c0.8,0.4,1.6,1,1.8,1.9c0.1,0.7-0.1,1.5,0.3,2c0.4,0.5,1.1,0.6,1.7,0.5c0.6-0.1,1.2-0.3,1.9-0.2
		c1.6,0.2,2.1,1.2,3.6,0C99.6,62.4,100.1,63.8,101.5,64.5z"/>
	<circle class="st6" cx="60.6" cy="79" r="7.8"/>
	<circle class="st5" cx="60.9" cy="78.5" r="7.8"/>
	<path class="st4" d="M66.9,71c-1.8-1.4-3.9-2.5-6.1-3.2c-1.4-0.5-3-0.8-4.4-0.4c-2,0.6-4.6,1.4-5.8,3C50,71.2,49.4,72,49.1,73
		c-0.6,1.9,0.2,4,0.2,6c-0.1,2.3-1.3,4.5-2.7,6.4c-1.4,1.9-1.6,4.7-2.4,6.9c-0.3,0.8-0.4,1.8,0.3,2.2c0.6,0.3,1.4-0.1,1.9-0.5
		l3.5-2.5c0.3-0.2,0.6-0.4,0.9-0.5c0.7-0.2,1.4,0.3,2,0.7l7.2,5.1c0.3-0.6,0.3-1.3,0-1.9c0.7,0.2,1.2,0.8,1.8,1.2
		c0.6,0.4,1.5,0.5,1.9,0s0.1-1.3-0.4-1.8c-0.5-0.5-1.1-0.7-1.6-1.2c-0.9-0.9-1-2.4-1.6-3.6c-0.4-0.8-1.1-1.5-1.4-2.4
		c-0.5-1.4,0.2-3,0.8-4.4c0.7-1.6,1.6-3.4,3.2-4.3c0.5-0.3,1.1-0.5,1.7-0.7c1.4-0.7,3.1-2.2,3.7-3.6C68.8,72.9,67.9,71.7,66.9,71z"
		/>
	<path class="st6" d="M55.1,96.6c0.7,0.5,1.6,0.8,2.3,1.3c0.7,0.5,1.4,1.2,1.4,2.1c0,0.8-0.5,1.6-1,2.2l-6.3,8.3l3.2,0.9
		c-0.5,0.7-0.6,1.6-0.9,2.5c-0.3,0.8-0.8,1.7-1.6,1.9c-0.8,0.2-1.6-0.2-2.4-0.2c-0.6,0-1.2,0.3-1.7,0.3c-0.8,0-1.5-0.4-2.1-0.8
		c-1.4-0.9-2.8-2.3-2.8-4c0-0.6,0.1-1.1,0.3-1.7c0.9-3,1.9-6.1,3.8-8.6c1-1.3,2.3-2.5,3.6-3.6c0.3-0.3,0.6-0.5,1-0.7
		c0.8-0.3,1.7,0.1,2.6,0.3c0.9,0.2,1.9,0.3,2.4-0.4"/>
	<path class="st8" d="M54.8,96.1c0.7,0.5,1.6,0.8,2.3,1.3c0.7,0.5,1.4,1.2,1.4,2.1c0,0.9-0.5,1.6-1,2.2l-6.3,8.3l3.2,0.9
		c-0.5,0.7-0.6,1.6-0.9,2.5c-0.3,0.8-0.8,1.7-1.6,1.9c-0.8,0.2-1.6-0.2-2.4-0.2c-0.6,0-1.2,0.3-1.7,0.3c-0.8,0-1.5-0.4-2.1-0.8
		c-1.4-0.9-2.8-2.3-2.8-4c0-0.6,0.1-1.1,0.3-1.7c0.9-3,1.9-6.1,3.8-8.6c1-1.3,2.3-2.5,3.6-3.6c0.3-0.3,0.6-0.5,1-0.7
		c0.8-0.3,1.7,0.1,2.6,0.3c0.9,0.3,1.9,0.3,2.4-0.4"/>
	<g class="st9">
		<path d="M119.6,68.2c0.6,0.8,1.6,1.4,2.5,1.7c1.8,0.7,3.8,0.8,5.6,0.3c1.8-0.4,3.7-1.4,5.4-0.6c0.4,0.2,0.8,0.5,1.2,0.5
			c0.4,0,0.8-0.1,1.2-0.4c1-0.6,2-1.6,2.5-2.7c0,0.1,0,0.1,0,0.2c0.1,1.8-1.2,3.3-2.8,4.2c-0.3,0.3-0.8,0.4-1.2,0.4
			c-0.4,0-0.8-0.3-1.2-0.5c-1.7-0.8-3.6,0.2-5.4,0.6c-1.9,0.5-3.8,0.3-5.6-0.3c-1-0.4-1.9-0.9-2.5-1.7c-0.6-0.8-0.8-2-0.3-2.9l0-0.1
			C119.2,67.4,119.4,67.8,119.6,68.2z"/>
		<path d="M120,63.9c0,0.4-0.2,0.7-0.5,1.1c0-0.1-0.1-0.2-0.1-0.3c-0.1-0.5,0.1-0.9,0.4-1.3C119.9,63.5,120,63.7,120,63.9z"/>
	</g>
	<path class="st10" d="M89.3,51l-2.2,6.4c0.7,0.5,1.6,0.8,2.4,1.2c0.8,0.4,1.6,1,1.8,1.9c0.1,0.7-0.1,1.5,0.3,2
		c0.4,0.5,1.1,0.6,1.7,0.5c0.6-0.1,1.2-0.3,1.9-0.2c1.6,0.2,2.1,1.2,3.6,0c1.4-1.2,2,0.2,3.3,1c1.2,0.7,2.7,0.6,4,0.3
		c0.8-0.1,1.5-0.4,2.1-0.9c0.1-0.1,0.2-0.2,0.3-0.2c-0.2,0.4-0.5,0.8-0.9,1.1c-0.6,0.4-1.4,0.8-2.1,0.9c-1.3,0.3-2.8,0.4-4-0.3
		c-1.3-0.8-1.9-2.1-3.3-1s-2,0.2-3.6,0c-0.6-0.1-1.2,0.1-1.9,0.2c-0.6,0.1-1.4,0-1.7-0.5c-0.4-0.6-0.2-1.3-0.3-2
		c-0.2-0.9-1-1.5-1.8-1.9c-0.8-0.4-1.7-0.6-2.4-1.2l2.2-6.4c0.3-0.7,0.5-1.5,1.1-2C89.6,50.2,89.5,50.6,89.3,51z"/>
	<g class="st9">
		<path d="M60.7,95.2c0.6,0.3,1.3,0.3,1.7-0.2c0.4-0.5,0.1-1.3-0.4-1.8c-0.5-0.5-1.1-0.7-1.6-1.2c-0.9-0.9-1-2.4-1.6-3.6
			c-0.4-0.8-1.1-1.5-1.4-2.4c-0.5-1.4,0.2-3,0.8-4.4c0.7-1.6,1.6-3.4,3.2-4.3c0.5-0.3,1.1-0.5,1.7-0.7c1.4-0.7,3.1-2.2,3.7-3.6
			c0.6-1.2-0.2-2.3-1.2-3.1c0.5,0.3,0.9,0.6,1.3,0.9c1,0.8,1.9,2,1.3,3.2c-0.7,1.4-2.4,2.9-3.7,3.6c-0.5,0.3-1.1,0.4-1.7,0.7
			c-1.6,0.9-2.4,2.6-3.2,4.3c-0.6,1.4-1.3,2.9-0.8,4.4c0.3,0.9,1,1.6,1.4,2.4c0.6,1.2,0.7,2.7,1.6,3.6c0.5,0.5,1.1,0.7,1.6,1.2
			c0.5,0.5,0.8,1.2,0.4,1.8c-0.4,0.5-1.3,0.4-1.9,0C61.4,95.8,61.1,95.4,60.7,95.2z"/>
		<path d="M45,92.9l3.5-2.5c0.3-0.2,0.6-0.4,0.9-0.5c0.7-0.2,1.4,0.3,2,0.7l7.2,5.1c0.3-0.6,0.3-1.3,0-1.9c0.7,0.2,1.1,0.8,1.7,1.1
			c-0.1,0-0.2-0.1-0.3-0.1c0.3,0.6,0.3,1.3,0,1.9l-7.2-5.1c-0.6-0.4-1.3-0.9-2-0.7c-0.3,0.1-0.6,0.3-0.9,0.5l-3.5,2.5
			c-0.6,0.4-1.3,0.8-1.9,0.5c-0.3-0.2-0.6-0.6-0.5-1C44.3,93.3,44.7,93.1,45,92.9z"/>
	</g>
	<path class="st7" d="M131.3,109.8c0,0-14.8,1.2-17.8-0.9l13.6-2.1L131.3,109.8z"/>
	<path class="st6" d="M131.3,109.8c0,0-14.8,1.2-17.8-0.9l13.6-2.1L131.3,109.8z"/>
	<path class="st7" d="M131.3,109.8l-4.2-2.6c0,0-12.4,3.6-15.8,2.1l3.5-4.8l12.3,2.4L131.3,109.8z"/>
	<path class="st1" d="M112.8,74.9c-0.5,0.6-0.8,1.2-1.1,1.9c-0.1,0.4-0.2,0.7-0.3,1.1c-0.3,0.9-0.7,1.8-1.3,2.6
		c-1.3,1.9-2.9,3.6-3.2,5.9c-0.2,1.1,0,2.2,0.2,3.3c0.1,0.7,0.3,1.4,0.6,2.1c0.3,0.7,0.8,1.3,1.2,2c0.3,0.7,0.6,1.4,0.9,2.1
		c0.4-0.4,0.7-1,1.1-1.6s0.9-1,1.5-1c0.7,0,1.3,0.6,2,0.7c0.1,0,0.2,0,0.3,0c0.3-0.1,0.3-0.5,0.3-0.8c-0.2-2-1.3-3.9-0.8-5.8
		c0.5-1.8,2.2-2.8,3.1-4.4c0.7-1.1,0.9-2.5,1-3.8c0.2-1.6,0.4-3.1,0.3-4.7c0-0.8-0.7-5.8-1.8-5.3c-0.4,0.2-0.8,0.9-1,1.3l-1,1.5
		L112.8,74.9z"/>
	<polygon class="st7" points="81.9,107.3 73.6,114.1 62.8,112.2 70.1,106.5 	"/>
	<polygon class="st6" points="82.2,106.9 73.9,113.7 63.1,111.7 70.4,106.1 	"/>
	<polygon class="st7" points="82.1,106.5 73.8,113.3 63.1,111.4 70.3,105.7 	"/>
	<polygon class="st6" points="82.4,105.7 74,112.5 63.3,110.6 70.5,104.9 	"/>
	<polygon class="st7" points="82.3,105.4 74,112.2 63.3,110.2 70.5,104.6 	"/>
</g>
</svg>
