<?xml version="1.0" encoding="utf-8"?>
<!-- Generator: Adobe Illustrator 24.0.2, SVG Export Plug-In . SVG Version: 6.00 Build 0)  -->
<svg version="1.1" id="Layer_1" xmlns="http://www.w3.org/2000/svg" xmlns:xlink="http://www.w3.org/1999/xlink" x="0px" y="0px"
	 viewBox="0 0 66 66" style="enable-background:new 0 0 66 66;" xml:space="preserve">
<style type="text/css">
	.st0{fill:#FFDB79;}
	.st1{fill:#484545;}
	.st2{fill:#F1908D;}
	.st3{fill:#74C1AA;}
	.st4{fill:#BAE1F0;}
</style>
<g>
	<path class="st3" d="M65.5,33c0,17.9-14.6,32.5-32.5,32.5C15.1,65.5,0.5,50.9,0.5,33S15.1,0.5,33,0.5C50.9,0.5,65.5,15.1,65.5,33"
		/>
	<path class="st1" d="M51.2,28.4c-1.2,0.4-3.1,0.9-4.3,0.3c-0.1,0,0-0.2,0.1-0.2c1.3,0.3,2.8-0.2,4.1-0.5
		C51.4,27.8,51.5,28.3,51.2,28.4"/>
	<path class="st1" d="M46,35.9c1,0.4,2.4,0.5,3.1,1.4c0.2,0.3-0.1,0.6-0.4,0.4c-0.8-0.8-2-1-2.9-1.6C45.8,36,45.9,35.9,46,35.9"/>
	<path class="st1" d="M43.7,20.9c-0.4,0.5-0.9,1-1.5,0.9c-0.1,0-0.1-0.1,0-0.2c0.8-0.1,1.4-1.3,1.8-1.9c0.4-0.5,0.8-1.2,1.5-1.2
		c0.2,0,0.2,0.3,0.1,0.4C44.8,19.5,44.3,20.2,43.7,20.9"/>
	<path class="st1" d="M37.5,19.2c0.8-0.3,1-1.7,1.3-2.4c0.2-0.5,0.5-1.3,1.2-1.4c0.2,0,0.2,0.2,0.1,0.3c-0.3,0.4-0.6,0.6-0.8,1.1
		c-0.2,0.4-0.3,0.9-0.5,1.3c-0.2,0.5-0.6,1.2-1.2,1.2C37.5,19.4,37.5,19.2,37.5,19.2"/>
	<path class="st0" d="M32.4,31.2C32,32,32,33.1,32.2,33.8c0.1,0.3,0.4,0.3,0.6,0.1c0.2-0.4,0.5-1.6,0.3-2.5c0,0,0,0,0.1,0
		c0.2,0.4,0.2,0.8,0.2,1.2c-0.1,0.6-0.1,1.1,0,1.4c0.1,0.3,0.6,0.3,0.6-0.1c0-0.3,0-0.6,0-0.9c0.1-1,0.6-2.2,1.2-1.5
		c0.6,0.8,0.3,2.5,0.1,3.4c0,0.2,0.1,0.3,0.2,0.3c-0.1,0.7-0.1,1.4-0.2,2.1c-0.1,2.1-0.1,4.4,0.2,6.6v0c-0.6,0.1-1.2,0.2-1.8,0.2
		c-0.4,0-0.7,0-1.1,0.1c-0.2-1.6-0.8-3.1-1.2-4.7c-0.5-2-0.7-3.9-1.2-5.9c0,0,0,0,0-0.1c0-0.2,0-0.4,0.1-0.7c0-0.4,0-0.8,0.1-1.2
		c0-0.1,0.4-1.1,0.6-0.6c0,0,0,0,0,0.1c-0.4,1-0.3,2.3,0.5,2.8c0.2,0.1,0.5,0,0.5-0.3c0-0.5,0-1.6-0.2-2.4
		C32,31,32.2,30.7,32.4,31.2C32.4,31.2,32.4,31.2,32.4,31.2"/>
	<path class="st1" d="M32.6,44.2c-1.4-3.1-1.9-6.4-2.6-9.7c-0.1,0-0.2-0.1-0.1-0.2c0-0.1,0-0.2,0-0.4c0-0.1,0-0.1,0-0.2
		c0-0.1,0-0.2,0.1-0.3c0-1.3,0.2-3.7,1.3-3.2c0.1,0.1,0.2,0.1,0.3,0.3c0.2-0.2,0.3-0.3,0.5-0.3c0.4-0.1,0.7,0.1,0.9,0.4
		c0.1-0.1,0.2-0.1,0.3-0.1c0.1,0,0.3,0,0.4,0.1c0.1,0.2,0.2,0.3,0.2,0.5c0.3-0.5,0.7-0.9,1.2-0.7c0.9,0.3,1.2,1.3,1.2,2.3
		c0.3,1.3-0.2,2.9-0.3,4.1c-0.2,2.3,0,4.6-0.2,6.9l-0.2,0c-0.2-2.1-0.3-4.4-0.2-6.6c0-0.7,0.1-1.4,0.2-2.1c-0.1,0-0.2-0.2-0.2-0.3
		c0.2-1,0.5-2.6-0.1-3.4c-0.5-0.7-1,0.6-1.2,1.5c0,0.3,0,0.6,0,0.9c0,0.4-0.5,0.4-0.6,0.1c-0.1-0.3-0.1-0.8,0-1.4
		c0-0.4-0.1-0.8-0.2-1.2c0,0,0,0-0.1,0c0.1,0.9-0.1,2.1-0.3,2.5c-0.1,0.2-0.5,0.2-0.6-0.1C32,33.1,32,32,32.4,31.2c0,0,0-0.1,0-0.1
		c-0.2-0.4-0.4-0.2-0.5,0.2c0.2,0.8,0.2,1.8,0.2,2.4c0,0.2-0.3,0.4-0.5,0.3c-0.8-0.5-0.9-1.8-0.5-2.8c0,0,0,0,0-0.1
		c-0.2-0.5-0.5,0.5-0.6,0.6c-0.1,0.4-0.1,0.8-0.1,1.2c0,0.2,0,0.5-0.1,0.7c0,0,0,0,0,0.1c0.4,2,0.7,3.9,1.2,5.9
		c0.4,1.5,1,3.1,1.2,4.7L32.6,44.2z"/>
	<path class="st0" d="M38.1,40.3c-0.6,1.3-0.4,2.5-0.4,3.8c-0.2-0.1-0.5-0.2-0.8-0.3c-0.4,0-0.8,0-1.2,0.1c0.2-2.3,0-4.6,0.2-6.9
		c0.1-1.3,0.6-2.8,0.3-4.1c0-1.1-0.4-2.1-1.2-2.3c-0.5-0.2-0.9,0.2-1.2,0.7c-0.1-0.2-0.1-0.3-0.2-0.5c-0.1-0.1-0.2-0.2-0.4-0.1
		c-0.1,0-0.2,0.1-0.3,0.1c-0.2-0.3-0.5-0.5-0.9-0.4c-0.2,0.1-0.4,0.2-0.5,0.3c-0.1-0.1-0.2-0.2-0.3-0.3c-1.1-0.5-1.3,1.9-1.3,3.2
		c-0.1,0.1-0.1,0.2-0.1,0.3c0,0.1,0,0.1,0,0.2c0,0.2,0,0.3,0,0.4c0,0.1,0.2,0.3,0.1,0.2c-1.3-9.3,1.2,6.6,2.6,9.7
		c-1.2,0.1-2.4,0.2-3.6,0.2c0.6-1.5-0.9-3.3-1.7-4.3c-0.8-1-1.8-1.8-2.7-2.7c-1.3-1.4-1.8-3.2-2.1-5c-0.7-5.3,2.5-9.4,7.5-10.8
		c4.7-1.3,11.1,0.1,12.4,5.5c0.7,3.1-0.4,6.3-1.8,9C39.9,37.5,38.8,38.8,38.1,40.3"/>
	<path class="st1" d="M29.2,18.6c0.1-1.1-0.8-2-0.8-3c0-0.2,0.3-0.3,0.4-0.1c0.2,0.6,0.4,1.2,0.6,1.8c0.1,0.5,0.2,0.9,0,1.3
		C29.4,18.8,29.2,18.7,29.2,18.6"/>
	<path class="st1" d="M37.5,45.7c-2,0.8-4.9,1.1-7,0.8c-0.5-0.1-0.8-0.1-1.1-0.2c0,0.4,0,0.8-0.2,0.8c0.3,0,0.5,0.1,0.8,0.1
		c0.9,0.1,1.8,0.2,2.7,0.2C34,47.4,37.6,47.6,37.5,45.7 M40.7,36c1.4-2.7,2.6-5.9,1.8-9c-1.3-5.3-7.7-6.8-12.4-5.5
		c-5.1,1.4-8.2,5.5-7.5,10.8c0.2,1.8,0.8,3.6,2.1,5c0.9,0.9,1.9,1.7,2.7,2.7c0.8,1.1,2.3,2.9,1.7,4.3c1.2,0,2.4-0.1,3.6-0.2l0.1,0
		c0.4,0,0.7,0,1.1-0.1c0.6,0,1.2-0.1,1.8-0.2v0l0.2,0c0.4-0.1,0.8-0.1,1.2-0.1c0.3,0,0.6,0.1,0.8,0.3c-0.1-1.3-0.2-2.5,0.4-3.8
		C38.8,38.8,39.9,37.5,40.7,36 M33.4,50.5c-1.7,0.1-4.4,0.6-4.2-1.8c0,0,0,0,0,0c-0.3-0.3-0.5-0.7-0.1-1.1c-0.1,0-0.2-0.1-0.2-0.2
		c0-0.3,0.1-1,0.1-1.3c-0.2-0.2-0.3-0.5-0.3-1c-0.1-0.1-0.1-0.3,0-0.4c0,0,0-0.1,0-0.1c0.5-1.4-1.1-3.2-1.9-4.2
		c-0.9-1.1-2.1-2-3-3.1c-1.7-2.1-2.2-5.4-1.8-8c0.7-4.6,4.7-7.7,9.1-8.4c4.3-0.7,10.1,0.4,11.7,5.1c0.9,2.7,0.5,5.7-0.5,8.3
		c-0.7,1.6-1.6,3.2-2.5,4.7c-0.5,0.8-1.1,1.7-1.3,2.6c-0.2,1.1-0.1,2,0,3.1c0,0.1,0,0.2-0.1,0.2c0.1,0.2,0,0.5-0.3,0.7
		c0.1,0.4,0.1,0.8,0,1.1c0.4,0.7,0.2,1.2-0.3,1.6C37.8,50.2,34.9,50.5,33.4,50.5 M30.1,45.9c0.8,0,1.5,0.1,2.3,0
		c1-0.1,1.9-0.2,2.8-0.4c0.7-0.1,1.7-0.2,2.2-0.6c0.5-0.4-1.1-0.6-1.2-0.6c-0.4,0-0.7,0.1-1.1,0.2c-0.5,0.1-1,0.1-1.5,0.2
		c-1.6,0.1-3.1,0.3-4.7,0.3C29.2,45.6,29.4,45.9,30.1,45.9 M29.4,48.8c0.3,1.3,1.1,1.3,2.3,1.3c0.6,0,1.2,0,1.7,0
		c1.2-0.1,3.5-0.2,3.9-1.6c-1.2,0.6-3.2,0.7-4,0.8c-1.2,0.1-2.4,0.2-3.5-0.3C29.6,49,29.5,48.9,29.4,48.8 M29.3,47.6
		c-0.7,1.6,3.5,1.2,4.2,1.1c0.8-0.1,4.4-0.3,4.2-1.6C36,48.5,30.8,47.8,29.3,47.6"/>
	<path class="st1" d="M22.3,23.4c-0.6-1.1-1.7-2.3-2-3.5c0-0.2,0.2-0.4,0.4-0.2c0.3,0.6,0.6,1.3,1,1.9c0.3,0.6,0.6,1.1,0.9,1.7
		C22.6,23.5,22.4,23.5,22.3,23.4"/>
	<path class="st1" d="M18.6,27.2c0.5,0.4,1.1,0.9,1.6,1.3c0.1,0.1,0,0.2-0.1,0.1c-1.2-0.6-2.6-1.5-3.4-2.5c-0.1-0.2,0.1-0.4,0.3-0.3
		C17.5,26.2,18,26.7,18.6,27.2"/>
	<path class="st1" d="M16.3,33.4c-0.5,0-1.3,0.1-1.6-0.2c-0.1-0.1-0.1-0.3,0-0.3c0.5-0.3,1.5,0,2.1,0c0.8,0,1.6,0.1,2.3,0.4
		c0.2,0.1,0,0.3-0.1,0.3C18.1,33.5,17.2,33.4,16.3,33.4"/>
</g>
</svg>
