<?xml version="1.0" encoding="utf-8"?>
<!-- Generator: Adobe Illustrator 24.0.2, SVG Export Plug-In . SVG Version: 6.00 Build 0)  -->
<svg version="1.1" id="Layer_1" xmlns="http://www.w3.org/2000/svg" xmlns:xlink="http://www.w3.org/1999/xlink" x="0px" y="0px"
	 viewBox="0 0 236 200" style="enable-background:new 0 0 236 200;" xml:space="preserve">
<style type="text/css">
	.st0{opacity:0.5;}
	.st1{fill:#6AC5AC;stroke:#414142;stroke-width:0.25;stroke-miterlimit:10;}
	.st2{fill:#6AC5AC;}
	.st3{opacity:0.2;fill:#6AC5AC;enable-background:new    ;}
	.st4{fill:#F7DF1E;}
	.st5{fill:none;stroke:#414142;stroke-width:0.5;stroke-miterlimit:10;}
	.st6{fill:none;stroke:#535461;stroke-width:0.5;stroke-miterlimit:10;}
	.st7{fill:none;stroke:#535461;stroke-width:0.25;stroke-miterlimit:10;}
	.st8{fill:#FFD037;}
	.st9{fill:#E6E6F0;}
	.st10{fill:#FDC2CC;}
	.st11{fill:#565171;}
	.st12{opacity:0.49;fill:#414142;enable-background:new    ;}
	.st13{fill:#414142;}
	.st14{opacity:0.1;enable-background:new    ;}
	.st15{opacity:0.1;fill:#6AC5AC;enable-background:new    ;}
	.st16{fill:#F2918F;}
	.st17{opacity:0.1;}
	.st18{fill:#714B4F;}
	.st19{fill:#E44D26;}
	.st20{fill:#F16529;}
	.st21{fill:#EBEBEB;}
	.st22{fill:#FFFFFF;}
	.st23{fill:#264DE4;}
	.st24{fill:#2965F1;}
</style>
<g class="st0">
	<path class="st1" d="M134.7,38.2c-0.7,0.2-1.6,0.7-2,2.1c-0.8,2.8,1.1,4.7,0.5,7.5c-0.2,0.8-0.5,1.5-1,2.1c-0.8,1-1.6,1.5-2.4,2.3
		c-1,0.9-1.8,2.2-2.1,3.5c-0.4,1.5-0.4,3-0.1,4.5c0.3,1.3,0.8,2.2,1.2,3.2c0.5,1.3,1,2.6,1.3,4c0.2,0.7,0.3,1.4,0.3,2
		c0,0.9-0.1,1.8-0.2,2.7l-1.2,8.2c-0.2,1.1-0.3,2.2-0.3,3.2c0,1.1,0.1,2.2,0.4,3.2c0.4,2.2,0.9,4.4,1.8,5.6c0.9,1.1,2.6,0.7,3.5-1.6
		c0.9-2.2,1-5.2,1.8-7.6c1.3-3.7,3.9-4.2,5.3-7.8c1.4-3.4,1-7.6,1.7-11.5c0.5-2.8,1.6-5.3,2.2-8.1c0.9-4,0.8-8.1,0.1-11.2
		c-0.6-2.5-1.8-4.8-3.5-6.7c-0.6-0.7-1.3-1.3-2-1.3c-0.8-0.1-1.5,1-2.3,1.3C136.6,38.3,135.7,38,134.7,38.2z"/>
	<path class="st1" d="M139.1,36.9c0,0-1.4,35.4-7.2,56.2"/>
	<path class="st1" d="M132.7,40.5c0,0,6.2,5.7,5,16.4"/>
	<path class="st1" d="M127.5,56.6c0,0,10.2,2.1,9.4,8.2"/>
	<path class="st1" d="M145.4,44.7c0,0-4.1,3.6-7.8,13.8"/>
	<path class="st1" d="M141.3,75.6c0,0-2.8,2.2-5.1-5.5"/>
	<path class="st1" d="M129.2,80.2c0,0,5.7-0.7,6.3-4.3"/>
</g>
<path class="st2" d="M147.6,14.5c-1.4,0.2-3.1,0.9-3.8,2.9c-1.4,4,2.8,7,1.8,11.2c-0.3,1.1-0.9,2.2-1.7,3c-1.5,1.4-3.2,2.1-4.7,3.1
	c-1.6,1-3.2,2.5-4,4.9c-0.7,2.3-0.4,4.8,0.3,6.7c0.7,1.9,1.9,3.3,2.9,4.8c1.2,1.9,2.3,3.9,3.1,6.1c0.4,1,0.7,2,0.8,3
	c0.1,1.3,0,2.6-0.2,4l-1.5,11.9c-0.2,1.6-0.4,3.2-0.3,4.7c0.1,1.8,0.6,3.3,1.2,4.8c1.1,3.2,2.3,6.6,4.4,8.4c2.1,1.8,5.4,1.4,7.1-1.9
	c1.7-3.2,1.4-7.5,2.8-10.9c2.3-5.3,7.6-5.8,10.1-10.9c2.5-4.9,1.1-11.1,2.1-16.8c0.7-4.1,2.6-7.7,3.6-11.7
	c1.4-5.8,0.7-11.8-1.1-16.4c-1.9-4.6-4.8-7.8-8-10.3c-1.3-1.1-2.8-2-4.4-2.2c-1.7-0.2-3.1,1.2-4.7,1.6
	C151.5,14.9,149.5,14.2,147.6,14.5z"/>
<path class="st3" d="M15.4,128.1c7.8,9.9,4.8,24.4-0.2,36c-1.7,3.9-3.5,8-2.8,12.2c0.9,5.1,5.4,8.8,10.2,10.8
	c8.7,3.6,19.1,2.7,27.1-2.2c6.9-4.3,11.9-11.3,18.9-15.4c11.8-6.9,26.7-4.3,39.5,0.5c9,3.3,18.9,7.7,27.9,4.2
	c6.3-2.5,10.7-8.4,13.1-14.8c1.1-3.1,2-6.4,4.2-8.8c1.3-1.4,3-2.5,4.7-3.3c15.9-7.9,36-3.7,51.5-12.4c10.4-5.9,17.1-17.1,20.1-28.7
	s2.6-23.8,1.9-35.8c-0.5-8.5-1.5-17.6-6.9-24.2c-5.8-6.9-15.6-9.5-24.5-8.2c-8.9,1.3-17,6.1-24.1,11.6c-8.9,6.9-17.1,15.6-28.1,18.4
	c-7.4,1.9-15.3,0.9-22.9,0.5c-12.8-0.6-25.6,0.7-38.4,2.2c-12.2,1.4-24.5,3-36.1,6.9c-8.2,2.8-14.8,7.9-22.6,11.5
	c-5.1,2.3-10.6,3-15.4,5.9c-5.9,3.6-11.3,10-9.8,17.4C3.9,119.3,11.2,122.9,15.4,128.1z"/>
<path class="st4" d="M102.2,59.7h64.5v64.5h-64.5V59.7z"/>
<path class="st5" d="M157.6,13.1c0,0,1.3,51.9-8.2,82"/>
<path class="st5" d="M144.7,17.7c0,0,13.5,9.1,12.4,24.8"/>
<path class="st6" d="M135.8,40.7c0,0,21.4,4.2,20.5,13.1"/>
<path class="st5" d="M171.4,25.3c0,0-8.1,4.8-14.5,19.5"/>
<path class="st7" d="M166.8,70.4c0,0-5.6,2.9-11.2-8.7"/>
<path class="st7" d="M142.2,75.6c0,0,11.8-0.4,12.5-5.7"/>
<path class="st8" d="M1.2,141c-0.7,0.4-1.4,0.7-1.4,0.5c-0.1-0.1,0.5-0.5,1.2-0.9s0.4-0.1,0.5,0C1.5,140.7,1.9,140.6,1.2,141z"/>
<path class="st9" d="M87.2,117.4l-0.8,1.2c0,0,0.9,1.2,1,1.3s2.6-0.1,2.6-0.1l0.2-0.9l-0.4-1L87.2,117.4z"/>
<polygon class="st10" points="59.6,116.7 57.9,117 59,119 60.1,119.6 61.1,120.3 61.4,119.5 60.7,118 "/>
<path class="st11" d="M86.4,97.3c0,0,8.7,2.1,10.4,4.4c0,0,1.5,1.3,0,3.6c-1.5,2.3-3.6,7.5-3.6,7.5s-1.5,5.1-2.1,5.4s-4,0.7-4.3-0.7
	c0,0,1.9-3.1,1.9-4.5c0-1.4,3.2-8.1,3.2-8.1s-7.3-0.8-9.6-0.3C80,105.1,83.4,96.5,86.4,97.3z"/>
<path class="st12" d="M86.4,97.3c0,0,8.7,2.1,10.4,4.4c0,0,1.5,1.3,0,3.6c-1.5,2.3-3.6,7.5-3.6,7.5s-1.5,5.1-2.1,5.4s-4,0.7-4.3-0.7
	c0,0,1.9-3.1,1.9-4.5c0-1.4,3.2-8.1,3.2-8.1s-7.3-0.8-9.6-0.3C80,105.1,83.4,96.5,86.4,97.3z"/>
<path class="st13" d="M84.6,99.3c0,0.4-0.1,0.9-0.1,1.4c-0.5,3.8-2,9.4-2,9.4s-1.6,3.4-2,5.5c-0.4,2.2-3.5,2.7-3.5,2.7
	s-8.4,1-10.1,0.6c-1.7-0.4-4.4,1.1-5.7,0.9s-2.2-3.4-2.2-3.4c2.3,0,4.6-0.5,6.7-1.4c3.4-1.6,8.4-0.8,8.4-0.8
	c0.7-0.2,1.4-0.7,1.7-1.4c0.5-1.1,0.5-7.9,0.4-8.4c-1-2.9-0.9-4.8-0.6-5.9c0.1-0.5,0.3-0.9,0.6-1.3L84.6,99.3z"/>
<path class="st14" d="M84.6,99.3c0,0.4-0.1,0.9-0.1,1.4c-0.7,0.1-2.9,0.1-4.4-0.8c-1.5-0.9-3.6-1.2-4.6-1.3c0.1-0.5,0.3-0.9,0.6-1.3
	L84.6,99.3z"/>
<path class="st9" d="M85.7,98.4c-0.3,1-0.9,2.1-0.9,2.1s-2.8,0.4-4.7-0.8S75,98.3,75,98.3c0.5-0.3,0.9-1.3,1.1-2.1
	c0.1-0.5,0.2-0.9,0.3-1.4c0,0,9.2,1.9,9.6,2.2C86.1,97.1,85.9,97.7,85.7,98.4z"/>
<path class="st10" d="M102,66.9l-11.1,6.7l-1.1,0.7V71l0.8-0.4l9.4-4.5c0,0,0.4-8.1,1.6-6.9S102,66.9,102,66.9z"/>
<path class="st14" d="M90.9,73.6l-1.1,0.7V71l0.8-0.4C90.6,71.7,90.7,72.7,90.9,73.6z"/>
<path class="st2" d="M82.3,74.8l8-4.6c0,0,0.1,4.5,1,5.1c0,0-3.3,1-4.6,3.1L82.3,74.8z"/>
<path class="st15" d="M88.1,80.6l8-4.6c0,0,0.1,4.5,1,5.1c0,0-3.3,1-4.6,3.1L88.1,80.6z"/>
<path class="st10" d="M102,78.8c0,0-3.8,1.7-6.3,2.3c-0.6,0.2-1.2,0.2-1.7,0.2c-1.7-0.3,0.4-2.5,0.4-2.5l0.9-0.1l4.8-0.8
	c0,0,0.5-7.5,1.4-6.9C102.4,71.6,102,78.8,102,78.8z"/>
<path class="st10" d="M85.9,72.1c0,0-3.2,2.4-2,5.4c1.2,3-6.2-1.8-6.2-1.8s2.4-3.6,2.9-6.3C81.1,66.7,85.9,72.1,85.9,72.1z"/>
<path class="st14" d="M85.7,98.4c-1.4-0.5-2.8-0.9-4.3-1c-2.2-0.2-4.1-0.7-5.3-1.1c0.1-0.5,0.2-0.9,0.3-1.4c0,0,9.2,1.9,9.6,2.2
	C86.1,97.1,85.9,97.7,85.7,98.4z"/>
<path class="st14" d="M95.6,81.1c-0.6,0.2-1.2,0.2-1.7,0.2c-1.7-0.3,0.4-2.5,0.4-2.5l0.9-0.1C95.6,79.2,96,80.2,95.6,81.1z"/>
<path class="st2" d="M80.7,73.4c0,0-2.9-0.1-4,1.1c-1,1.2-0.8,4.4-0.8,4.4s-0.2,6.4,1.4,10c0.1,0.1,0.1,0.2,0,0.4c0,0,0,0,0,0
	s-1,4.7-2.1,5.5c-1,0.8,2.2,1.8,6.1,2.2c3.9,0.4,5.4,1.6,5.4,1.6s0.7-0.7,0.7-2.4c0.1-1.7-1-13.7-1-13.7s4.1,1,6.6-0.2
	c0,0,1.1,0.6,2.2-1c1-1.6-0.7-3.4-0.7-3.4s-1.6,1.6-6.2-0.5C83.8,75.3,82.1,73.3,80.7,73.4z"/>
<path class="st9" d="M58.4,116.8h-0.9v1.3l0.9,2c0,0,1.2,0.2,1.3,0.2c0.1,0,1-0.2,1-0.2l0.3-0.5C61,119.6,57.7,118.3,58.4,116.8z"/>
<path class="st16" d="M86.4,118l-1.3,3l5.7,2.7l4.5,0.1c0,0,0.4-1-1.1-1.6l-1.2-0.2c0,0-1.6-2.8-1.7-4.2c0,0-1.5,0.3-1.7,1.4
	C89.5,119.3,87.4,120.3,86.4,118z"/>
<path class="st16" d="M58.1,117.1l-2.4,2.2l4.1,4.7l4,1.9c0,0,0.8-0.8-0.4-1.9l-1-0.7c0,0-0.3-3.2,0.1-4.5c0,0-1.5-0.3-2.1,0.6
	C60.3,119.5,58,119.6,58.1,117.1z"/>
<path class="st14" d="M80.5,69.5c-0.1,0.4-0.2,0.8-0.3,1.1c0.8,1.9,3,2.9,5,2.1c0.2-0.2,0.4-0.4,0.6-0.6
	C85.8,72.2,81,66.9,80.5,69.5z"/>
<path class="st14" d="M80.1,79.5c0,0,2.3,3.1,5.7,3.1"/>
<g class="st17">
	<path d="M93.9,82.5c0,0-0.1,0-0.1-0.1c-0.1,0-0.1,0.1-0.2,0.1C93.7,82.6,93.8,82.5,93.9,82.5z"/>
	<path d="M94.7,78.3c-0.1-0.1-0.2-0.2-0.3-0.3c0,0-0.5,0.5-1.7,0.6C93.4,78.6,94.1,78.5,94.7,78.3z"/>
	<path d="M87.2,82.7l0,0.2c1,0.2,2,0.3,3,0.2C89.2,83,88.2,82.9,87.2,82.7z"/>
	<path d="M82,97.2c-3.9-0.4-7.2-1.4-6.1-2.2c1-0.8,2.1-5.5,2.1-5.5s0,0,0,0c0-0.1,0-0.3,0-0.4c-1.6-3.6-1.4-10-1.4-10
		s-0.2-3.2,0.8-4.4c0.8-0.9,2.6-1.1,3.5-1.1c-0.1,0-0.2,0-0.2,0c0,0-2.9-0.1-4,1.1c-1,1.2-0.8,4.4-0.8,4.4s-0.2,6.4,1.4,10
		c0.1,0.1,0.1,0.2,0,0.4c0,0,0,0,0,0s-1,4.7-2.1,5.5c-1.1,0.8,2.2,1.8,6.1,2.2s5.4,1.6,5.4,1.6c0.1-0.1,0.1-0.2,0.2-0.3
		C86.2,98,84.6,97.4,82,97.2z"/>
</g>
<circle class="st10" cx="83.9" cy="69" r="3.9"/>
<path class="st14" d="M89.4,67.3c-0.3,0.8-1.3,1.1-2.1,1.3c-1.2,0.3-2.5,0.6-3.6,0.1c-0.1-0.1-0.3-0.1-0.5-0.1
	c-0.1,0.1-0.3,0.2-0.3,0.3c-1.3,1.8-1.1,4.2-1.4,6.4c-0.1,0.7-0.3,1.4-0.7,1.9c-0.9,1-2.6,0.9-3.4,2c-0.5,0.7-0.5,1.6-0.5,2.5
	c0,0.9,0,1.9,0,2.8c0,0.6,0,1.2-0.3,1.8C76,87.2,74.9,87.6,74,88c-0.6,0.2-1.2,0.5-1.9,0.4c-0.6-0.1-1.3-0.5-1.4-1.1
	c-0.1-0.9,0.8-1.5,1.4-2.1c1-1,1.4-2.5,1.4-3.9c0-0.6,0-1.1-0.2-1.7c-0.2-0.6-0.6-1-0.9-1.6c-0.8-1.7,0.2-3.6,1.3-5.1
	c1.1-1.5,2.5-2.9,2.7-4.8c0-0.4,0.1-0.8,0.2-1.2c0.2-0.5,0.6-2,1-2.3c0.7-0.5,1.6-0.9,2.5-1c0.7-0.1,1.4-0.1,2.1-0.2
	c0.8-0.2,1.5-0.5,2.3-0.7c1.7-0.3,3.6,1.7,4.4,3.3C89.1,66.4,89.6,66.8,89.4,67.3z"/>
<path class="st13" d="M89.4,67.1c-0.3,0.8-1.3,1.1-2.1,1.3c-1.2,0.3-2.5,0.6-3.6,0.1c-0.1-0.1-0.3-0.1-0.5-0.1
	c-0.1,0.1-0.3,0.2-0.3,0.3c-1.3,1.8-1.1,4.2-1.4,6.4c-0.1,0.7-0.3,1.4-0.7,1.9c-0.9,1-2.6,0.9-3.4,2c-0.5,0.7-0.5,1.6-0.5,2.5
	c0,0.9,0,1.9,0,2.8c0,0.6,0,1.2-0.3,1.8c-0.5,0.9-1.5,1.4-2.5,1.7c-0.6,0.2-1.2,0.5-1.9,0.4c-0.6-0.1-1.3-0.5-1.4-1.1
	c-0.1-0.9,0.8-1.5,1.4-2.1c1-1,1.4-2.5,1.4-3.9c0-0.6,0-1.1-0.2-1.7c-0.2-0.6-0.6-1-0.9-1.6c-0.8-1.7,0.2-3.6,1.3-5.1
	c1.1-1.5,2.5-2.9,2.7-4.8c0-0.4,0.1-0.8,0.2-1.2c0.2-0.5,0.6-2,1-2.3c0.7-0.5,1.6-0.9,2.5-1c0.7-0.1,1.4-0.1,2.1-0.2
	c0.8-0.2,1.5-0.5,2.3-0.7c1.7-0.3,3.6,1.7,4.4,3.3C89.1,66.3,89.6,66.6,89.4,67.1z"/>
<g>
	<path class="st13" d="M118,113.6l4.9-3c1,1.7,1.8,3.1,3.9,3.1c2,0,3.2-0.8,3.2-3.8V89.3h6.1V110c0,6.3-3.7,9.1-9,9.1
		C122.3,119.1,119.5,116.6,118,113.6"/>
	<path class="st13" d="M139.5,112.9l4.9-2.9c1.3,2.1,3,3.7,6,3.7c2.5,0,4.1-1.3,4.1-3c0-2.1-1.6-2.8-4.4-4l-1.5-0.6
		c-4.4-1.9-7.3-4.2-7.3-9.1c0-4.5,3.5-8,8.9-8c3.9,0,6.6,1.3,8.6,4.8l-4.7,3c-1-1.9-2.2-2.6-3.9-2.6c-1.8,0-2.9,1.1-2.9,2.6
		c0,1.8,1.1,2.6,3.7,3.7l1.5,0.6c5.1,2.2,8.1,4.5,8.1,9.5c0,5.5-4.3,8.4-10,8.4C144.9,119.1,141.2,116.4,139.5,112.9"/>
</g>
<path class="st18" d="M193.1,109.2l-1.7,0.1l-0.9,0.1v-2.1l1.2-0.2l0.7-0.1c0,0,2.2-6.5,4.3-5.3S193.1,109.2,193.1,109.2z"/>
<path class="st14" d="M191.5,109.3l-0.9,0.1v-2.1l1.2-0.2C191.3,107.6,191.4,108.5,191.5,109.3z"/>
<path class="st19" d="M219.7,74.7l-3.7,41.8l-16.8,4.7l-16.7-4.7l-3.7-41.8H219.7z"/>
<path class="st20" d="M199.2,117.7l13.6-3.8l3.2-35.8h-16.8V117.7z"/>
<path class="st21" d="M192,88.4h7.3v-5.1h-12.9l0.1,1.4l1.3,14.1h11.5v-5.1h-6.8L192,88.4z M193.1,101.4H188l0.7,8.1l10.5,2.9h0V107
	h0l-5.7-1.5L193.1,101.4z"/>
<g>
	<polygon class="st13" points="182.5,63.4 185.1,63.4 185.1,65.9 187.5,65.9 187.5,63.4 190.1,63.4 190.1,71.2 187.5,71.2 
		187.5,68.5 185.1,68.5 185.1,71.2 182.5,71.2 	"/>
	<polygon class="st13" points="193.6,65.9 191.3,65.9 191.3,63.4 198.5,63.4 198.5,65.9 196.2,65.9 196.2,71.2 193.6,71.2 
		193.6,65.9 193.6,65.9 	"/>
	<polygon class="st13" points="199.6,63.4 202.3,63.4 204,66.1 205.7,63.4 208.4,63.4 208.4,71.2 205.8,71.2 205.8,67.3 204,70.1 
		204,70.1 202.2,67.3 202.2,71.2 199.6,71.2 	"/>
	<polygon class="st13" points="209.7,63.4 212.3,63.4 212.3,68.6 216,68.6 216,71.2 209.7,71.2 209.7,63.4 	"/>
</g>
<path class="st22" d="M199.2,98.8h6.3l-0.6,6.7l-5.7,1.5v5.3l10.5-2.9l0.1-0.9l1.2-13.5l0.1-1.4h-11.9V98.8L199.2,98.8z M199.2,88.4
	L199.2,88.4l12.4,0l0.1-1.2l0.2-2.6l0.1-1.4h-12.9V88.4L199.2,88.4z"/>
<path class="st23" d="M32.1,123.2l-20.3-5.6L7.3,66.7H57l-4.5,50.8L32.1,123.2z"/>
<path class="st24" d="M48.6,114.3l3.9-43.4H32.2v48L48.6,114.3z"/>
<path class="st21" d="M17.7,89.7l0.6,6.2h13.9v-6.2H17.7z M16.5,77.1l0.6,6.2h15.1v-6.2L16.5,77.1L16.5,77.1z M32.2,105.9
	L32.2,105.9l-7-1.9l-0.4-5h-6.3l0.9,9.8l12.8,3.6h0L32.2,105.9z"/>
<g>
	<polygon class="st13" points="19,52.9 26.5,52.9 26.5,56.1 22.1,56.1 22.1,59.2 26.5,59.2 26.5,62.4 19,62.4 	"/>
	<polygon class="st13" points="28,52.9 35.6,52.9 35.6,55.7 31.2,55.7 31.2,56.2 35.6,56.2 35.6,62.5 28,62.5 28,59.7 32.4,59.7 
		32.4,59.1 28,59.1 28,52.9 	"/>
	<polygon class="st13" points="37.1,52.9 44.7,52.9 44.7,55.7 40.2,55.7 40.2,56.2 44.6,56.2 44.6,62.5 37.1,62.5 37.1,59.7 
		41.5,59.7 41.5,59.1 37.1,59.1 37.1,52.9 	"/>
</g>
<path class="st22" d="M46.6,89.7l1.1-12.6H32.1v6.2h8.8l-0.6,6.4h-8.2V96h7.7l-0.7,8.1l-6.9,1.9v6.5l12.8-3.5l0.1-1.1l1.5-16.4
	L46.6,89.7L46.6,89.7z"/>
</svg>
