<?xml version="1.0" encoding="utf-8"?>
<!-- Generator: Adobe Illustrator 24.0.2, SVG Export Plug-In . SVG Version: 6.00 Build 0)  -->
<svg version="1.1" id="Layer_1" xmlns="http://www.w3.org/2000/svg" xmlns:xlink="http://www.w3.org/1999/xlink" x="0px" y="0px"
	 viewBox="0 0 66 66" style="enable-background:new 0 0 66 66;" xml:space="preserve">
<style type="text/css">
	.st0{fill:#FFDB79;}
	.st1{fill:#484545;}
	.st2{fill:#F1908D;}
	.st3{fill:#BAE1F0;}
</style>
<g>
	<path class="st0" d="M65.5,33c0,17.9-14.6,32.5-32.5,32.5C15.1,65.5,0.5,50.9,0.5,33C0.5,15.1,15.1,0.5,33,0.5
		C50.9,0.5,65.5,15.1,65.5,33"/>
	<path class="st1" d="M49.3,31c-1.2-3.8-4.8-6.6-8.1-8.5C35,19.1,26.4,19.4,21,24c-2.8,2.3-4.4,6.2-4.5,9.7
		c-0.1,3.1,1.7,5.7,4.2,7.4c1.5,1.1,3.4,1.8,5.1,2.4C25.6,46,25,48.5,25.3,51c0,0.2,0.2,0.5,0.5,0.4c1.4-0.5,2.5-1.4,3.5-2.5
		c1.2-1.5,2.1-3.1,4-3.8c2-0.8,4.5-0.8,6.6-1.3c2.1-0.4,4.3-1.2,6-2.5C48.9,38.6,50.6,34.9,49.3,31"/>
	<path class="st2" d="M43.3,41.6c-3.5,1.8-7.7,1.3-11.2,3c-2.7,1.3-3.4,4.5-6.2,5.8c-0.2-2.3,0.3-4.6,0.3-6.9
		c0.3-0.2,0.3-0.8-0.2-0.9c-3.2-1-6.4-2.5-8-5.6c-1.7-3.2-0.1-7.6,1.8-10.3c4.1-5.9,12.8-6.3,19-4c3.7,1.4,7.2,4.3,9,7.8
		C50.2,34.9,47.4,39.5,43.3,41.6"/>
</g>
</svg>
