<?xml version="1.0" encoding="utf-8"?>
<!-- Generator: Adobe Illustrator 24.0.2, SVG Export Plug-In . SVG Version: 6.00 Build 0)  -->
<svg version="1.1" id="Layer_1" xmlns="http://www.w3.org/2000/svg" xmlns:xlink="http://www.w3.org/1999/xlink" x="0px" y="0px"
	 viewBox="0 0 356 261" style="enable-background:new 0 0 356 261;" xml:space="preserve">
<style type="text/css">
	.st0{clip-path:url(#SVGID_2_);}
	.st1{clip-path:url(#SVGID_4_);fill:#1B1C20;}
	.st2{clip-path:url(#SVGID_4_);fill:#E9503E;}
</style>
<g id="Artwork_38_1_">
	<g>
		<defs>
			<rect id="SVGID_1_" x="-24" y="-21" width="307" height="307"/>
		</defs>
		<clipPath id="SVGID_2_">
			<use xlink:href="#SVGID_1_"  style="overflow:visible;"/>
		</clipPath>
		<g class="st0">
			<defs>
				<rect id="SVGID_3_" x="-24" y="-21" width="307" height="307"/>
			</defs>
			<clipPath id="SVGID_4_">
				<use xlink:href="#SVGID_3_"  style="overflow:visible;"/>
			</clipPath>
			<path class="st1" d="M41.6,217.8h-1.3c-1.1,0-1.4-0.2-1.6-0.8l-1.2-3.3h-7.1l-1.2,3.3c-0.2,0.6-0.5,0.8-1.6,0.8h-1.2
				c-0.6,0-0.8-0.3-0.6-0.8l6.4-16.7c0.2-0.6,0.5-0.7,1.1-0.7h1.4c0.6,0,0.9,0.1,1.1,0.7l6.4,16.7C42.4,217.5,42.3,217.8,41.6,217.8
				 M34,202.5h-0.2c0,0,0,1.5-0.6,3.1l-2,5.5h5.3l-2-5.4C34.1,204,34.1,202.5,34,202.5"/>
			<path class="st1" d="M54.3,200.4v1.3c0,0.6-0.2,0.9-0.9,0.9H49v14.4c0,0.6-0.2,0.9-0.9,0.9h-1.5c-0.6,0-0.9-0.2-0.9-0.9v-14.4
				h-4.4c-0.7,0-0.9-0.2-0.9-0.9v-1.3c0-0.6,0.2-0.9,0.9-0.9h12.1C54,199.5,54.3,199.7,54.3,200.4"/>
			<path class="st1" d="M68.4,200.4v1.3c0,0.6-0.2,0.9-0.9,0.9h-7.9v4.5h6.7c0.6,0,0.9,0.2,0.9,0.9v1.3c0,0.6-0.2,0.9-0.9,0.9h-6.7
				v4.7h8.2c0.7,0,0.9,0.2,0.9,0.9v1.3c0,0.6-0.2,0.9-0.9,0.9H57.3c-0.7,0-0.9-0.2-0.9-0.9v-16.5c0-0.6,0.2-0.9,0.9-0.9h10.2
				C68.2,199.5,68.4,199.7,68.4,200.4"/>
			<path class="st1" d="M74.3,200.4v14.4h7.4c0.6,0,0.9,0.2,0.9,0.9v1.3c0,0.6-0.2,0.9-0.9,0.9H72c-0.7,0-0.9-0.2-0.9-0.9v-16.5
				c0-0.6,0.2-0.9,0.9-0.9h1.5C74.1,199.5,74.3,199.7,74.3,200.4"/>
			<path class="st1" d="M85.6,199.5h1.5c0.6,0,0.9,0.2,0.9,0.9v16.5c0,0.6-0.2,0.9-0.9,0.9h-1.5c-0.7,0-0.9-0.2-0.9-0.9v-16.5
				C84.7,199.7,85,199.5,85.6,199.5"/>
			<path class="st1" d="M103.1,200.4v1.3c0,0.6-0.2,0.9-0.9,0.9h-7.9v4.5h6.7c0.6,0,0.9,0.2,0.9,0.9v1.3c0,0.6-0.2,0.9-0.9,0.9h-6.7
				v4.7h8.2c0.7,0,0.9,0.2,0.9,0.9v1.3c0,0.6-0.2,0.9-0.9,0.9H92c-0.7,0-0.9-0.2-0.9-0.9v-16.5c0-0.6,0.2-0.9,0.9-0.9h10.2
				C102.9,199.5,103.1,199.7,103.1,200.4"/>
			<path class="st1" d="M119.5,205.2c0,2.7-1.3,4.5-3.4,5.2c0.3,0.3,0.6,0.6,0.8,1.1l2.8,5.4c0.3,0.5,0.2,0.9-0.4,0.9h-1.5
				c-1.1,0-1.4-0.1-1.7-0.8l-2.2-4.4c-0.7-1.4-1.3-1.8-3.1-1.8H109v6.1c0,0.6-0.2,0.9-0.9,0.9h-1.5c-0.7,0-0.9-0.2-0.9-0.9v-16.5
				c0-0.6,0.2-0.9,0.9-0.9h7.1C117.3,199.5,119.5,201.6,119.5,205.2 M113.4,202.5H109v5.3h4.4c1.7,0,2.7-0.9,2.7-2.6
				C116.1,203.5,115.2,202.5,113.4,202.5"/>
			<path class="st1" d="M33.4,237.2c-4.5,0-6.7-2-6.7-5.9c0-3.6,2.6-5.9,6.9-5.9c4.5,0,6.9,2.6,6.9,6.7v5.6c0,4.2-2.4,6.7-6.9,6.7
				c-3.5,0-5.7-1.5-6.7-4.1c-0.2-0.6-0.1-0.9,0.6-1.1l1.4-0.5c0.6-0.3,0.8-0.1,1.1,0.5c0.6,1.4,1.7,2.1,3.6,2.1
				c2.4,0,3.7-1.3,3.7-3.7v-1.1C36.7,236.9,35.3,237.2,33.4,237.2 M33.6,228.5c-2.4,0-3.7,1-3.7,2.9s1,2.9,3.7,2.9
				c2.1,0,3.4-0.4,3.7-0.6v-1.5C37.3,229.8,36,228.5,33.6,228.5"/>
			<path class="st1" d="M49.5,237.2c-4.5,0-6.7-2-6.7-5.9c0-3.6,2.6-5.9,6.9-5.9c4.5,0,6.9,2.6,6.9,6.7v5.6c0,4.2-2.4,6.7-6.9,6.7
				c-3.5,0-5.7-1.5-6.7-4.1c-0.2-0.6-0.1-0.9,0.6-1.1l1.4-0.5c0.6-0.3,0.8-0.1,1.1,0.5c0.6,1.4,1.7,2.1,3.6,2.1
				c2.4,0,3.7-1.3,3.7-3.7v-1.1C52.8,236.9,51.5,237.2,49.5,237.2 M49.8,228.5c-2.4,0-3.7,1-3.7,2.9s1,2.9,3.7,2.9
				c2.1,0,3.4-0.4,3.7-0.6v-1.5C53.5,229.8,52.2,228.5,49.8,228.5"/>
			<path class="st2" d="M204.3,9.3h-89.1C94,9.3,75.9,23,69.4,42.1c-14.2,4.8-25.4,16.1-30.3,30.3C20,78.9,6.3,97,6.3,118.2v133.7
				c0,2.1,1.7,3.8,3.8,3.8c2.1,0,3.8-1.7,3.8-3.8v-85.3h155.9c5,0,9.9-0.8,14.6-2.2v23.1h-15.1c-6.9,0-13.4,2.7-18.2,7.5l-14.5,14.5
				c-2.7,2.7-3.5,6.7-2,10.2c1.4,3.5,4.8,5.8,8.6,5.8h30.8c3.6,0,7.1-0.4,10.4-1.1v27.6c0,2.1,1.7,3.8,3.8,3.8
				c2.1,0,3.8-1.7,3.8-3.8v-30c13-5.3,23.2-16,27.7-29.3c19.1-6.5,32.8-24.6,32.8-45.8V57.7C252.7,31,231,9.3,204.3,9.3 M67.2,51.3
				c-0.3,2.1-0.4,4.2-0.4,6.4c0,4.2,0.5,8.3,1.5,12.1H54.7c-2.2,0-4.3,0.2-6.4,0.4C52.3,62,59,55.3,67.2,51.3 M115.2,106.1h67.4
				c1.2,3.8,1.8,7.9,1.8,12.1v10.4H84.9c-22.5,0-40.7-18.3-40.7-40.7c0-3.2,0.4-6.3,1.1-9.3c3-0.7,6.1-1.1,9.4-1.1h16.4
				C78.7,94.3,95.6,106.1,115.2,106.1 M79.7,77.5h64.1c15.3,0,28.6,8.4,35.5,20.9h-64.1C100,98.4,86.6,89.9,79.7,77.5 M169.9,158.9
				H14v-40.7c0-16.1,9.4-30.1,23-36.7c-0.3,2.1-0.4,4.2-0.4,6.4c0,26.7,21.7,48.4,48.4,48.4h99.6v19.9
				C179.9,158,175,158.9,169.9,158.9 M192.2,136.3h17.2L198.7,147c-2,2-4.2,3.8-6.5,5.3V136.3z M174.1,217.8h-30.8
				c-1,0-1.4-0.6-1.5-1c-0.2-0.4-0.3-1.1,0.4-1.8l14.5-14.5c3.4-3.4,8-5.3,12.8-5.3h15.1v21.2C181.2,217.3,177.7,217.8,174.1,217.8
				 M192.2,213.5v-18.3h12.1c2.2,0,4.3-0.1,6.4-0.4C206.8,202.9,200.2,209.5,192.2,213.5 M214.8,177.1c0,3.2-0.4,6.4-1.1,9.4
				c-3,0.7-6.1,1.1-9.4,1.1h-12.1v-26.3c4.3-2.3,8.4-5.2,11.9-8.7l10.7-10.7V177.1z M214.8,128.7h-22.6v-10.4
				c0-4.2-0.5-8.3-1.5-12.1h24.1V128.7z M214.8,98.4h-26.8c-7.6-16.8-24.5-28.6-44.1-28.6H76.3c-1.2-3.8-1.8-7.9-1.8-12.1
				c0-3.2,0.4-6.4,1.1-9.4c3-0.7,6.1-1.1,9.4-1.1h89.1c22.5,0,40.7,18.3,40.7,40.7V98.4z M245,146.8c0,16.1-9.4,30.1-23,36.7
				c0.3-2.1,0.4-4.2,0.4-6.4v-44.5v-0.1v-26.4H245V146.8z M245,98.4h-22.6V87.9c0-26.7-21.7-48.4-48.4-48.4H84.9
				c-2.2,0-4.3,0.1-6.4,0.4c6.6-13.6,20.6-23,36.7-23h89.1c22.5,0,40.7,18.3,40.7,40.7V98.4z"/>
		</g>
	</g>
</g>
</svg>
