<svg id="Layer_1" data-name="Layer 1" xmlns="http://www.w3.org/2000/svg" xmlns:xlink="http://www.w3.org/1999/xlink" viewBox="0 0 356 72"><defs><style>.cls-1{fill:none;}.cls-2{clip-path:url(#clip-path);}.cls-3{fill:#f37522;}</style><clipPath id="clip-path"><rect class="cls-1" y="3.76" width="356" height="64.49"/></clipPath></defs><title>crunchyroll</title><g id="Artwork_12" data-name="Artwork 12"><g class="cls-2"><g class="cls-2"><path class="cls-3" d="M92.86,48.71a18.58,18.58,0,0,0,7-1.4v5.63a22,22,0,0,1-8.13,1.58c-8.57,0-13.31-5.13-13.31-14.49s4.74-14.55,13.31-14.55a22,22,0,0,1,8.13,1.58V32.7a18.38,18.38,0,0,0-7-1.35c-4.73,0-7.66,1.41-7.66,8.68s2.93,8.68,7.66,8.68"/><path class="cls-3" d="M121.07,25.48v5.84c-3.76.06-7.86,0-7.86,1.67V54h-6.74V29.08c0-4.19,14.6-3.6,14.6-3.6"/><path class="cls-3" d="M151,25.93V41.32c0,8.29-2.77,13.2-12.39,13.2s-12.34-4.91-12.34-13.2V25.93h6.63v16.3c0,4.51,1.65,6.05,5.71,6.05s5.75-1.54,5.75-6.05V25.93Z"/><path class="cls-3" d="M200.34,48.74a18.54,18.54,0,0,0,7-1.41V53a22.13,22.13,0,0,1-8.13,1.58c-8.58,0-13.33-5.14-13.33-14.51s4.75-14.56,13.33-14.56a21.92,21.92,0,0,1,8.13,1.58V32.7a18.54,18.54,0,0,0-7-1.35c-4.74,0-7.68,1.41-7.68,8.69s2.94,8.7,7.68,8.7"/><path class="cls-3" d="M238.16,37.1V54h-6.68V36.55c0-2.48-.56-5.12-6.85-5.12a11.12,11.12,0,0,0-4.49.84V54H213.4V15.26h6.74V26.44a15.17,15.17,0,0,1,5.62-1c7.8,0,12.4,4.32,12.4,11.62"/><path class="cls-3" d="M246.91,65C252,52.5,251.68,53.48,252,52.49L242,25.93h7.13l6.29,19.55,6.18-19.55h7.13L258,54.63,254,65Z"/><path class="cls-3" d="M288,25.48v5.84c-3.76.06-7.9,0-7.9,1.65V54h-6.74V29.08c0-4.2,14.64-3.6,14.64-3.6"/><path class="cls-3" d="M317.44,40c0,9.36-4.73,14.49-13.3,14.49S290.83,49.39,290.83,40s4.74-14.49,13.31-14.49,13.3,5.13,13.3,14.49m-6.76,0c0-7.44-2.54-8.91-6.54-8.91s-6.55,1.47-6.55,8.91,2.54,8.9,6.55,8.9,6.54-1.46,6.54-8.9"/><rect class="cls-3" x="323.23" y="15.26" width="6.74" height="38.7"/><rect class="cls-3" x="337.83" y="15.26" width="6.74" height="38.7"/><path class="cls-3" d="M181.49,36.38V53.94H175V36.53c0-2.47.12-5.07-5.88-5.07-1.86,0-5.27.24-5.27,1.43v21h-6.59V30.75c0-4.66,5.77-5.29,12.75-5.29,7.63,0,11.53,3.12,11.53,10.92"/><path class="cls-3" d="M7.82,39.88a28.34,28.34,0,0,1,56.61-2c0-.63,0-1.26,0-1.9A32.24,32.24,0,1,0,32.24,68.24c.74,0,1.47,0,2.19-.07A28.35,28.35,0,0,1,7.82,39.88"/><path class="cls-3" d="M51.85,41.48a10.32,10.32,0,0,1-3.5-20A22.63,22.63,0,1,0,60.09,37.37a10.31,10.31,0,0,1-8.24,4.11"/><polygon class="cls-3" points="348.27 15.78 348.27 15.26 351.54 15.26 351.54 15.78 350.18 15.78 350.18 19.28 349.62 19.28 349.62 15.78 348.27 15.78"/><polygon class="cls-3" points="352.14 19.28 352.14 15.26 352.75 15.26 354.07 17 355.39 15.26 356 15.26 356 19.28 355.44 19.28 355.44 16.11 354.07 17.91 352.7 16.11 352.7 19.28 352.14 19.28"/></g></g></g></svg>