<svg id="Layer_1" data-name="Layer 1" xmlns="http://www.w3.org/2000/svg" xmlns:xlink="http://www.w3.org/1999/xlink" viewBox="0 0 183.39 46"><defs><style>.cls-1{fill:none;}.cls-2{clip-path:url(#clip-path);}.cls-3{fill:#00aec7;}.cls-4{clip-path:url(#clip-path-2);}.cls-5{clip-path:url(#clip-path-3);}.cls-6{clip-path:url(#clip-path-4);}.cls-7{clip-path:url(#clip-path-5);}.cls-8{clip-path:url(#clip-path-6);}</style><clipPath id="clip-path"><rect class="cls-1" x="2.69" y="3.39" width="178" height="39.22"/></clipPath><clipPath id="clip-path-2"><path class="cls-1" d="M128.81,27.06a7.48,7.48,0,1,1,14.93,0,7.48,7.48,0,1,1-14.93,0m-7.88,0a15.35,15.35,0,1,0,15.35-15.53,15.44,15.44,0,0,0-15.35,15.53"/></clipPath><clipPath id="clip-path-3"><path class="cls-1" d="M66.88,27.23a7.48,7.48,0,1,1,7.48,7.69,7.59,7.59,0,0,1-7.48-7.69m-7.81.05c0,8.47,6.64,15.33,14.71,15.33a13.93,13.93,0,0,0,8.73-3.07V42H90V12.66H82.51v2.41A14.13,14.13,0,0,0,73.68,12c-8.07,0-14.61,6.86-14.61,15.33"/></clipPath><clipPath id="clip-path-4"><path class="cls-1" d="M162.09,14.75V12.51h-7.52V41.63h7.52V27.21c.12-6.39,2.51-7.82,5.81-7.82s5,2,5,7.82V41.63h7.76V27.21c0-3.84,0-7.28-1.84-10.28a11.07,11.07,0,0,0-9.4-5,10.72,10.72,0,0,0-7.36,2.86"/></clipPath><clipPath id="clip-path-5"><path class="cls-1" d="M17.64,35.57A7.71,7.71,0,0,1,11.17,32L5.32,36.32a15.22,15.22,0,0,0,24.65,0L24.12,32a7.73,7.73,0,0,1-6.48,3.61"/></clipPath><clipPath id="clip-path-6"><path class="cls-1" d="M17.88,19a7.79,7.79,0,0,1,7,4.7h-14a7.77,7.77,0,0,1,7-4.7M2.69,27.28a15.67,15.67,0,0,0,.22,2.58H32.85a15.67,15.67,0,0,0,.22-2.58A15.29,15.29,0,0,0,17.88,11.89,15.29,15.29,0,0,0,2.69,27.28"/></clipPath></defs><title>ellation</title><g id="Artwork_6" data-name="Artwork 6"><g class="cls-2"><rect class="cls-3" x="110.47" y="3.39" width="7.51" height="7.52"/><polygon class="cls-3" points="110.47 12.54 110.47 41.95 117.99 41.95 117.99 41.94 117.99 12.54 110.47 12.54"/><polygon class="cls-3" points="96.5 3.39 96.5 12.57 92.18 12.57 92.18 19.5 96.5 19.5 96.5 41.95 104.15 41.95 104.15 19.49 108.51 19.5 108.51 12.57 104.15 12.57 104.15 3.39 96.5 3.39"/><rect class="cls-3" x="36.01" y="3.39" width="7.51" height="38.56"/><rect class="cls-3" x="48.42" y="3.39" width="7.51" height="38.56"/><g class="cls-4"><rect class="cls-3" x="119.84" y="10.47" width="32.88" height="33.23"/></g><g class="cls-5"><rect class="cls-3" x="57.98" y="10.86" width="33.13" height="32.84"/></g><g class="cls-6"><rect class="cls-3" x="153.48" y="10.8" width="28.31" height="31.92"/></g><g class="cls-7"><rect class="cls-3" x="4.23" y="30.87" width="26.83" height="12.83"/></g><g class="cls-8"><rect class="cls-3" x="1.6" y="10.8" width="32.55" height="20.15"/></g></g></g></svg>