<?xml version="1.0" encoding="utf-8"?>
<!-- Generator: Adobe Illustrator 24.0.2, SVG Export Plug-In . SVG Version: 6.00 Build 0)  -->
<svg version="1.1" id="Layer_1" xmlns="http://www.w3.org/2000/svg" xmlns:xlink="http://www.w3.org/1999/xlink" x="0px" y="0px"
	 viewBox="0 0 236 200" style="enable-background:new 0 0 236 200;" xml:space="preserve">
<style type="text/css">
	.st0{fill:#414142;}
	.st1{fill:#FFB8B8;}
	.st2{fill:#D0CDE1;}
	.st3{fill:#414142;stroke:#D0CDE1;stroke-width:2;stroke-miterlimit:10;}
	.st4{fill:#6AC5AC;}
	.st5{opacity:0.15;enable-background:new    ;}
	.st6{opacity:0.15;fill:#414142;enable-background:new    ;}
</style>
<g>
	<circle class="st0" cx="136.6" cy="77.81" r="7.59"/>
	<path class="st0" d="M138.72,70.43c4.19,0,7.59,3.4,7.59,7.59c0,1.26-0.31,2.49-0.91,3.6c2.62-3.27,2.08-8.05-1.19-10.66
		c-3.27-2.62-8.05-2.08-10.66,1.19c-0.28,0.36-0.54,0.74-0.75,1.14C134.23,71.48,136.41,70.43,138.72,70.43z"/>
	<circle class="st0" cx="122.42" cy="55.5" r="22.29"/>
	<path class="st0" d="M104.92,41.67c7.99-8.98,21.65-10.01,30.9-2.34c-0.18-0.17-0.36-0.35-0.55-0.52
		c-9.21-8.18-23.3-7.34-31.47,1.87c-8.17,9.2-7.34,23.28,1.85,31.46c0.19,0.17,0.38,0.33,0.58,0.49
		C97.51,64.34,96.94,50.65,104.92,41.67z"/>
	<circle class="st1" cx="122.23" cy="63.25" r="14.36"/>
	<path class="st1" d="M112.03,67.78c0,0,1.89,17.38-1.13,19.27c-3.02,1.89,17.38,4.53,17.38,4.53s-3.02-18.89,4.53-23.81
		L112.03,67.78z"/>
	<path class="st2" d="M130.17,84.03c0,0,5.63-2.63-2.48-1.69c-8.1,0.94-15.09-2.65-15.09-2.65s-2.46-2.46-2.83,0.19
		s1.13,7.56-7.18,8.31s-15.87-1.51-18.89,4.16s-1.51,30.23-1.51,30.23s5.67,20.4,10.2,23.43c4.53,3.02,44.21-1.13,44.21-1.13
		l11.34-20.4v-23.81c0,0-1.51-8.31-12.09-6.05c0,0-6.8-1.51-6.42-4.91S130.17,84.03,130.17,84.03z"/>
	<path class="st0" d="M93.88,160.44c0.23-1.02,0.39-1.59,0.39-1.59l-0.12-0.83l-1.24-8.45L92.38,146
		c4.53-1.89,5.67-10.58,5.67-10.58l0.17-0.1l0.77-0.46v0l2.78-1.67l0.06-0.03l1.12,0.75l2.28,1.52c7.97,5.86,16.09,5.76,21.11,4.84
		c3.06-0.57,4.97-1.43,4.97-1.43l5.5-1.83l0.17-0.06l0.17,0.03l3.22,0.49l0.06,0.01l0.27,0.04l-0.75,5.16l-1.08,7.5
		c2.86,1.51,5.4,4.36,7.62,7.86c0.49,0.78,0.97,1.58,1.43,2.42c0.6,1.08,1.17,2.21,1.72,3.37c0.07,0.14,0.13,0.28,0.2,0.42
		c0.21,0.45,0.42,0.91,0.62,1.37H92.88c0.08-0.46,0.15-0.9,0.22-1.32c0-0.01,0.01-0.03,0.01-0.04c0.03-0.14,0.05-0.28,0.08-0.42
		C93.44,162.43,93.69,161.28,93.88,160.44z"/>
	<path class="st0" d="M91.62,87.81c0,0,4.16,7.56,2.65,17s4.53,32.87,4.53,32.87l4.53-1.13c0,0-3.02-19.65-2.27-24.18
		c0.76-4.53,0.76-22.29-3.02-24.56S91.62,87.81,91.62,87.81z"/>
	<path class="st0" d="M135.57,95.66l1.59,41.84l3.02,1.89c0,0,4.35-45.91,2.08-45.91h-4.61c-1.15,0-2.08,0.93-2.08,2.08
		C135.57,95.59,135.57,95.63,135.57,95.66z"/>
	<circle class="st0" cx="100.88" cy="134.85" r="1.89"/>
	<circle class="st0" cx="138.67" cy="136.74" r="1.89"/>
	<polygon class="st0" points="109.95,45.3 109.95,59.66 113.28,59.66 117.51,55.12 116.94,59.66 131.64,59.66 130.73,55.12 
		132.55,59.66 134.89,59.66 134.89,45.3 	"/>
	<ellipse class="st1" cx="107.68" cy="60.22" rx="1.13" ry="2.08"/>
	<ellipse class="st1" cx="136.78" cy="60.22" rx="1.13" ry="2.08"/>
	<path class="st0" d="M144.53,136.55c0,0-17.19-3.21-18.33,2.46s19.08,3.21,19.08,3.21L144.53,136.55z"/>
	<path class="st2" d="M144.15,97.63c0,0,41.19,32.87,33.63,40.81s-36.28,5.67-36.28,5.67l1.89-9.45l16.63-1.89l-8.31-8.31
		l-7.56,0.76V97.63z"/>
	<path class="st0" d="M83.31,152.42l5.29,4.16c0,0,3.78,11.71,9.45,8.31s-5.29-15.49-5.29-15.49l-6.42-2.27L83.31,152.42z"/>
	<path class="st2" d="M88.6,91.59l-5.28,1.59c0,0-36.67,27.13-38.18,34.69c-1.51,7.56,7.18,11.71,7.18,11.71l32.87,15.49l3.4-9.07
		l-15.49-7.94c0,0,1.13-2.27-3.4-2.65s-5.29-5.29-5.29-5.29s9.07-13.98,13.98-10.96s6.42,5.29,6.42,5.29L88.6,91.59z"/>
	<path class="st0" d="M163.85,161.74V163c0,0.35-0.06,0.69-0.19,1.02c-0.06,0.14-0.12,0.28-0.2,0.42c-0.51,0.85-1.42,1.37-2.41,1.37
		H67.93c-0.99,0-1.9-0.52-2.41-1.37c-0.08-0.13-0.15-0.27-0.2-0.42c-0.13-0.32-0.19-0.67-0.19-1.02v-1.27c0-1.55,1.25-2.8,2.8-2.8
		c0,0,0,0,0,0h5.37v-0.59c0-0.06,0.05-0.12,0.12-0.12c0,0,0,0,0,0h2.8c0.06,0,0.12,0.05,0.12,0.12c0,0,0,0,0,0v0.59h1.75v-0.59
		c0-0.06,0.05-0.12,0.12-0.12c0,0,0,0,0,0H81c0.06,0,0.12,0.05,0.12,0.12c0,0,0,0,0,0v0.59h1.75v-0.59c0-0.06,0.05-0.12,0.12-0.12
		c0,0,0,0,0,0h2.8c0.06,0,0.12,0.05,0.12,0.12c0,0,0,0,0,0v0.59h1.75v-0.59c0-0.06,0.05-0.12,0.12-0.12c0,0,0,0,0,0h2.8
		c0.06,0,0.12,0.05,0.12,0.12c0,0,0,0,0,0v0.59h1.75v-0.59c0-0.06,0.05-0.12,0.12-0.12c0,0,0,0,0,0h2.8c0.06,0,0.12,0.05,0.12,0.12
		c0,0,0,0,0,0v0.59h1.75v-0.59c0-0.06,0.05-0.12,0.12-0.12c0,0,0,0,0,0h2.8c0.06,0,0.12,0.05,0.12,0.12c0,0,0,0,0,0v0.59h1.75v-0.59
		c0-0.06,0.05-0.12,0.12-0.12c0,0,0,0,0,0h21.94c0.06,0,0.12,0.05,0.12,0.12c0,0,0,0,0,0v0.59h1.75v-0.59
		c0-0.06,0.05-0.12,0.12-0.12c0,0,0,0,0,0h2.8c0.06,0,0.12,0.05,0.12,0.12v0.59h1.75v-0.59c0-0.06,0.05-0.12,0.12-0.12c0,0,0,0,0,0
		h2.8c0.06,0,0.12,0.05,0.12,0.12c0,0,0,0,0,0v0.59h1.75v-0.59c0-0.06,0.05-0.12,0.12-0.12c0,0,0,0,0,0h2.8
		c0.06,0,0.12,0.05,0.12,0.12c0,0,0,0,0,0v0.59h1.75v-0.59c0-0.06,0.05-0.12,0.12-0.12c0,0,0,0,0,0h2.8c0.06,0,0.12,0.05,0.11,0.12
		v0.59h1.75v-0.59c0-0.06,0.05-0.12,0.12-0.12c0,0,0,0,0,0h2.8c0.06,0,0.12,0.05,0.12,0.12c0,0,0,0,0,0v0.59h1.75v-0.59
		c0-0.06,0.05-0.12,0.12-0.12c0,0,0,0,0,0h2.8c0.06,0,0.12,0.05,0.12,0.12c0,0,0,0,0,0v0.59h8.17
		C162.6,158.93,163.85,160.19,163.85,161.74C163.85,161.73,163.85,161.73,163.85,161.74z"/>
	<rect x="38.08" y="164.02" class="st0" width="152.85" height="0.42"/>
	<path class="st0" d="M156.35,108.43h-34.71v-0.72h-15.74v0.72H71.06c-1.3,0-2.35,1.05-2.35,2.35v47.53c0,1.3,1.05,2.35,2.35,2.35
		h85.3c1.3,0,2.35-1.05,2.35-2.35v-47.53C158.7,109.48,157.65,108.43,156.35,108.43L156.35,108.43z"/>
	<circle class="st3" cx="113.77" cy="125.02" r="5.21"/>
	<circle class="st2" cx="112.1" cy="126.9" r="5.21"/>
	<rect x="9.84" y="171.55" class="st0" width="39.41" height="0.47"/>
	<rect x="181.87" y="171.55" class="st0" width="39.41" height="0.47"/>
	<path class="st0" d="M32.8,156.36c-4.15,6.78-2.72,15.21-2.72,15.21s8.16-2.56,12.31-9.34s2.72-15.21,2.72-15.21
		S36.95,149.58,32.8,156.36z"/>
	<path class="st4" d="M29.91,171.63l-0.24-0.04c-0.09-0.01-8.58-1.42-13.67-7.51c-5.09-6.09-4.97-14.7-4.96-14.79l0.01-0.24
		l0.24,0.04c0.09,0.01,8.58,1.42,13.67,7.51l0,0c5.09,6.09,4.97,14.7,4.96,14.79L29.91,171.63z"/>
	<path class="st0" d="M30.24,171.84l-0.23-0.07c-0.08-0.03-8.28-2.66-12.43-9.43c-4.14-6.77-2.77-15.27-2.75-15.35l0.04-0.24
		l0.23,0.07c0.08,0.03,8.28,2.66,12.43,9.43l0,0c4.14,6.77,2.77,15.27,2.75,15.35L30.24,171.84z M15.21,147.3
		c-0.19,1.43-0.94,8.83,2.73,14.82c3.67,5.99,10.61,8.69,11.96,9.17c0.19-1.43,0.94-8.83-2.73-14.82l0,0
		C23.5,150.48,16.57,147.78,15.21,147.3L15.21,147.3z"/>
	<circle class="st0" cx="30.33" cy="145.02" r="4.59"/>
	<polygon class="st0" points="87.78,87.03 61.46,60.51 49.04,60.51 49.04,60.09 61.63,60.09 61.7,60.15 88.07,86.74 	"/>
	<polygon class="st0" points="149.59,86.2 175.91,59.68 188.33,59.68 188.33,59.26 175.73,59.26 175.67,59.32 149.29,85.91 	"/>
	<rect x="4.41" y="47.43" class="st2" width="30.45" height="6.02"/>
	<rect x="4.41" y="56.67" class="st2" width="30.45" height="6.02"/>
	<rect x="4.41" y="65.91" class="st2" width="30.45" height="6.02"/>
	<rect x="4.41" y="47.43" class="st5" width="12.59" height="6.02"/>
	<rect x="4.41" y="56.67" class="st6" width="4.08" height="6.02"/>
	<rect x="4.41" y="65.91" class="st5" width="20.3" height="6.02"/>
	<rect x="203.51" y="48.79" class="st2" width="30.49" height="2.72"/>
	<rect x="192.09" y="48.43" class="st4" width="6.04" height="6.04"/>
	<rect x="192.09" y="57.49" class="st4" width="6.04" height="6.04"/>
	<rect x="192.09" y="66.55" class="st4" width="6.04" height="6.04"/>
	<path class="st0" d="M199.79,53.22h-6.46v-6.46h6.46V53.22z M193.75,52.8h5.62v-5.62h-5.62V52.8z"/>
	<rect x="203.51" y="57.84" class="st2" width="30.49" height="2.72"/>
	<path class="st0" d="M199.79,62.28h-6.46v-6.46h6.46V62.28z M193.75,61.86h5.62v-5.62h-5.62V61.86z"/>
	<rect x="203.51" y="66.9" class="st2" width="30.49" height="2.72"/>
	<path class="st0" d="M199.79,71.33h-6.46v-6.46h6.46V71.33z M193.75,70.92h5.62V65.3h-5.62V70.92z"/>
	<circle class="st4" cx="43.82" cy="50.5" r="3.34"/>
	<circle class="st4" cx="43.82" cy="60.51" r="3.34"/>
	<circle class="st4" cx="43.82" cy="69.48" r="3.34"/>
	<path class="st0" d="M42.15,53.21c-1.96,0-3.54-1.59-3.54-3.54s1.59-3.54,3.54-3.54c1.96,0,3.54,1.59,3.54,3.54
		C45.7,51.62,44.11,53.21,42.15,53.21z M42.15,46.54c-1.73,0-3.13,1.4-3.13,3.13s1.4,3.13,3.13,3.13c1.73,0,3.13-1.4,3.13-3.13
		C45.28,47.94,43.88,46.54,42.15,46.54z"/>
	<path class="st0" d="M42.15,63.22c-1.96,0-3.54-1.59-3.54-3.54c0-1.96,1.59-3.54,3.54-3.54c1.96,0,3.54,1.59,3.54,3.54
		C45.7,61.63,44.11,63.22,42.15,63.22z M42.15,56.55c-1.73,0-3.13,1.4-3.13,3.13c0,1.73,1.4,3.13,3.13,3.13
		c1.73,0,3.13-1.4,3.13-3.13C45.28,57.95,43.88,56.55,42.15,56.55z"/>
	<path class="st0" d="M42.15,72.19c-1.96,0-3.54-1.59-3.54-3.54c0-1.96,1.59-3.54,3.54-3.54c1.96,0,3.54,1.59,3.54,3.54
		C45.7,70.6,44.11,72.18,42.15,72.19z M42.15,65.51c-1.73,0-3.13,1.4-3.13,3.13s1.4,3.13,3.13,3.13c1.73,0,3.13-1.4,3.13-3.13
		C45.28,66.92,43.88,65.52,42.15,65.51z"/>
	<path class="st0" d="M210.64,157.48h-0.42v-3.13c0-0.35,0.28-0.63,0.63-0.63h1.04c0.12,0,0.21-0.09,0.21-0.21v-2.09
		c0-0.12-0.09-0.21-0.21-0.21h-1.04c-0.35,0-0.63-0.28-0.63-0.63v-1.04c0-0.12-0.09-0.21-0.21-0.21h-1.88
		c-0.35,0-0.63-0.28-0.63-0.63v-0.21c0-0.12-0.09-0.21-0.21-0.21h-7.51c-0.12,0-0.21,0.09-0.21,0.21v0.21
		c0,0.35-0.28,0.63-0.63,0.63h-1.88c-0.12,0-0.21,0.09-0.21,0.21v1.04c0,0.35-0.28,0.63-0.63,0.63h-1.04
		c-0.12,0-0.21,0.09-0.21,0.21v2.09c0,0.12,0.09,0.21,0.21,0.21h1.25c0.35,0,0.63,0.28,0.63,0.63v3.13h-0.42v-3.13
		c0-0.12-0.09-0.21-0.21-0.21h-1.25c-0.35,0-0.63-0.28-0.63-0.63v-2.09c0-0.35,0.28-0.63,0.63-0.63h1.04c0.12,0,0.21-0.09,0.21-0.21
		v-1.04c0-0.35,0.28-0.63,0.63-0.63h1.88c0.12,0,0.21-0.09,0.21-0.21v-0.21c0-0.35,0.28-0.63,0.63-0.63h7.51
		c0.35,0,0.63,0.28,0.63,0.63v0.21c0,0.12,0.09,0.21,0.21,0.21h1.88c0.35,0,0.63,0.28,0.63,0.63v1.04c0,0.12,0.09,0.21,0.21,0.21
		h1.04c0.35,0,0.63,0.28,0.63,0.63v2.09c0,0.35-0.28,0.63-0.63,0.63h-1.04c-0.12,0-0.21,0.09-0.21,0.21V157.48z"/>
	<path class="st0" d="M210.02,172.07H197.3c-0.35,0-0.63-0.28-0.63-0.63v-8.97h0.42v8.97c0,0.12,0.09,0.21,0.21,0.21h12.72
		c0.12,0,0.21-0.09,0.21-0.21v-8.97h0.42v8.97C210.64,171.79,210.36,172.07,210.02,172.07z"/>
	<path class="st4" d="M197.09,158.93h15.64c0.23,0,0.42,0.19,0.42,0.42v4.17c0,0.23-0.19,0.42-0.42,0.42h-15.64
		c-0.23,0-0.42-0.19-0.42-0.42v-4.17C196.67,159.12,196.86,158.93,197.09,158.93z"/>
	<path class="st0" d="M211.37,162.69h-15.64c-0.35,0-0.63-0.28-0.63-0.63v-4.17c0-0.35,0.28-0.63,0.63-0.63h15.64
		c0.35,0,0.63,0.28,0.63,0.63v4.17C212,162.41,211.72,162.69,211.37,162.69z M195.74,157.68c-0.12,0-0.21,0.09-0.21,0.21v4.17
		c0,0.12,0.09,0.21,0.21,0.21h15.64c0.12,0,0.21-0.09,0.21-0.21v-4.17c0-0.12-0.09-0.21-0.21-0.21H195.74z"/>
	<path class="st2" d="M203.14,146.42L203.14,146.42c-0.55-3.73-0.7-7.52-0.44-11.28l0.44-6.23l0,0
		C200.73,133.7,201.27,140,203.14,146.42L203.14,146.42z"/>
	<path class="st2" d="M205.01,147.47L205.01,147.47c-0.27-2.23-0.34-4.48-0.21-6.72l0.21-3.71l0,0
		C203.86,139.89,204.12,143.64,205.01,147.47z"/>
</g>
</svg>
