<?xml version="1.0" encoding="utf-8"?>
<!-- Generator: Adobe Illustrator 24.0.2, SVG Export Plug-In . SVG Version: 6.00 Build 0)  -->
<svg version="1.1" id="Layer_1" xmlns="http://www.w3.org/2000/svg" xmlns:xlink="http://www.w3.org/1999/xlink" x="0px" y="0px"
	 viewBox="0 0 236 200" style="enable-background:new 0 0 236 200;" xml:space="preserve">
<style type="text/css">
	.st0{opacity:0.2;fill:#6AC5AC;enable-background:new    ;}
	.st1{fill:url(#SVGID_1_);}
	.st2{fill:#FDC2CC;}
	.st3{fill:#414142;}
	.st4{fill:#B07473;}
	.st5{opacity:0.1;enable-background:new    ;}
	.st6{fill:#6AC5AC;}
	.st7{fill:#67647E;}
	.st8{fill:#E1E7EF;}
	.st9{fill:url(#SVGID_2_);}
	.st10{fill:#A27772;}
	.st11{opacity:0.1;}
	.st12{fill:#585268;}
	.st13{fill:#F6F8FB;}
	.st14{fill:url(#SVGID_3_);}
	.st15{fill:#FBBEBE;}
	.st16{opacity:0.05;enable-background:new    ;}
	.st17{fill:#7C5C5C;}
	.st18{fill:url(#SVGID_4_);}
	.st19{fill:#D39999;}
	.st20{fill:#7E5659;}
	.st21{fill:#865A61;}
	.st22{fill:#65617D;}
	.st23{opacity:0.1;fill:#414142;enable-background:new    ;}
	.st24{opacity:0.05;}
</style>
<g>
	<path class="st0" d="M2.97,101.66c3.72,14.49,11.59,27.02,24.04,33.09c25.87,12.62,84.18,6.11,127.71-1.36
		c22.52-3.87,42.3-14.52,56.68-29.54L2.97,101.66z"/>
	<path class="st0" d="M231.22,33.44h-23.88c-1.14,0-2.07-0.85-2.07-1.88s0.93-1.88,2.07-1.88h4.13c-1.14,0-2.07-0.85-2.07-1.88
		c0-1.04,0.93-1.88,2.07-1.88h-2.95c-1.14,0-2.07-0.85-2.07-1.88s0.93-1.88,2.07-1.88h12.46c-2.77-1.17-5.99-2.01-9.72-2.44
		c-33.99-3.98-46.12-1.35-50.41,1.36c-5.33,3.41-11.26,5.78-17.47,6.98c-20.97,3.94-60.19,8.69-95.74-1.52
		c-17.67-5.07-30.8,3.51-38.67,17.83h226.39c-0.3-4.17-1.18-8.01-2.8-11.38C232.18,33.28,231.71,33.44,231.22,33.44z"/>
	<path class="st0" d="M0.94,71.41c-0.92,8.43-0.6,16.95,0.93,25.29l209.68,6.99c5.78-6.04,10.68-12.85,14.57-20.25L0.94,71.41z
		 M83.87,89.45h-4.13c1.13,0,2.07,0.85,2.07,1.88s-0.93,1.88-2.07,1.88H55.86c-1.13,0-2.07-0.85-2.07-1.88s0.93-1.88,2.07-1.88H60
		c-1.13,0-2.07-0.85-2.07-1.88s0.93-1.88,2.07-1.88h-2.95c-1.13,0-2.07-0.85-2.07-1.88s0.93-1.88,2.07-1.88h23.88
		c1.14,0,2.07,0.85,2.07,1.88s-0.93,1.88-2.07,1.88h2.94c1.14,0,2.07,0.85,2.07,1.88S85.01,89.45,83.87,89.45z"/>
	<path class="st0" d="M235.38,44.49L6.46,49.57c-2.79,6.53-4.63,13.9-5.49,21.55h230.39c1.5-4.48,2.61-9.07,3.33-13.74
		C235.38,52.89,235.65,48.54,235.38,44.49z M47.45,61.12h-4.13c1.13,0,2.07,0.85,2.07,1.88c0,1.04-0.93,1.88-2.07,1.88H19.44
		c-1.13,0-2.07-0.85-2.07-1.88c0-1.04,0.93-1.88,2.07-1.88h4.13c-1.13,0-2.07-0.85-2.07-1.88c0-1.04,0.93-1.88,2.07-1.88h-2.95
		c-1.13,0-2.07-0.85-2.07-1.88s0.93-1.88,2.07-1.88H44.5c1.14,0,2.07,0.85,2.07,1.88s-0.93,1.88-2.07,1.88h2.95
		c1.13,0,2.07,0.85,2.07,1.88C49.52,60.28,48.59,61.12,47.45,61.12z"/>
	<ellipse class="st0" cx="137.69" cy="172.62" rx="15.54" ry="3.49"/>
	<ellipse class="st0" cx="173.8" cy="183.7" rx="28.04" ry="2.3"/>
	<ellipse class="st0" cx="61.22" cy="180.21" rx="28.04" ry="3.49"/>
	<ellipse class="st0" cx="103.97" cy="162.74" rx="21.1" ry="3.49"/>
	
		<linearGradient id="SVGID_1_" gradientUnits="userSpaceOnUse" x1="131.098" y1="17.4318" x2="131.098" y2="139.5644" gradientTransform="matrix(1 0 0 -1 -31.16 181.86)">
		<stop  offset="0" style="stop-color:#808080;stop-opacity:0.25"/>
		<stop  offset="0.54" style="stop-color:#808080;stop-opacity:0.12"/>
		<stop  offset="1" style="stop-color:#808080;stop-opacity:0.1"/>
	</linearGradient>
	<path class="st1" d="M119.74,79.72c-0.45-3-3.18-10.01-3.18-10.01l0,0c-0.05-0.21-0.1-0.41-0.16-0.62
		c-1.94-6.65-4.62-7.23-4.62-7.23l-9.6-2.07c0.08,0.05,0.15,0.12,0.21,0.19c-0.05,0-0.1,0.01-0.15,0.02
		c-0.44-0.52-0.73-1.15-0.84-1.82c-0.02-0.1-0.04-0.21-0.05-0.31c2.67-2.6,2.72-6.88,0.12-9.55c-0.21-0.22-0.43-0.42-0.67-0.6
		c-0.1-0.08-0.21-0.15-0.31-0.23c0.45-0.48,0.47-1.15,0.13-1.82c-0.76-1.57-2.4-2.56-4.09-3.05c-1.29-0.37-2.69-0.49-3.97-0.08
		c-0.73,0.23-1.39,0.62-2.08,0.96c-1.27,0.64-2.69,1.14-3.64,2.19c-0.22,0.24-0.43,0.56-0.36,0.88c0.05,0.24,0.24,0.43,0.36,0.64
		c0.27,0.48,0.21,1.08,0.02,1.6c-0.19,0.52-0.46,1-0.59,1.54s-0.08,1.16,0.32,1.54c0.19,0.15,0.39,0.29,0.6,0.41
		c0.22,0.19,0.41,0.4,0.57,0.64c0.38,0.51,0.76,1.02,1.14,1.54c0.53,0.68,1.01,1.4,1.42,2.16c0.28,0.56,0.5,1.15,0.88,1.65
		c0.11,0.15,0.24,0.28,0.38,0.4l-0.11-0.04c0.33,0.34,0.79,0.52,1.26,0.51l0,0c0.02,0,0.04,0,0.06,0c0.09,0,0.17-0.04,0.23-0.1
		c0,0.07,0,0.14,0,0.21c0.02,0.74,0.02,1.52-0.03,2.26L92.9,61.5c-0.27-0.13-0.59-0.1-0.83,0.09l-8.84,7.09c0,0-1.92,2.63-1.65,7.17
		l-1.55,6.8c0,0-1.94,5.77-0.45,9.89c1.49,4.12,2.35,6.48,2.35,6.48s0.6,4.68,1.49,5.07c0.89,0.38,1.28,0.59,1.28,0.59l0.18,1.12
		l0,0c0,0,0.06,0.11,0.17,0.29c0.65,1.13,3.06,5.13,4.46,4.7c0.18,1.09,0.25,2.18,0.23,3.28l1.39,9.31c0,0,0.97,2.53,0.91,3.86
		c-0.06,1.33,1.13,3.22,1.13,3.22c-0.72,1.32-0.93,2.86-0.6,4.33c0.57,2.48,1.28,13.9,1.28,13.9l1.03,2.77l-0.03,3.25
		c-0.08,0.53-0.31,1.03-0.64,1.45c-0.67,0.73-0.62,1.57-2.23,2.56c-1.61,0.99-2.64,1.37-2.64,2.69c0,0.18-0.02,0.37-0.05,0.55
		c-0.15,0.97-0.44,1.49,2.53,1.77c3.49,0.33,5.81-1.94,5.81-1.94s0.51-0.93,2.93-1.31c0,0,0.83-0.04,0.87-0.77
		c0.02-0.25,0.01-0.73,0-1.26c-0.04-1.01-0.14-2.19-0.26-2.25c-0.16-0.07-0.44-1.09-0.54-1.46h0.67c0,0,0.62-4.68,0-7.72
		s-0.06-5.18-0.06-5.18l-0.12-8.01c0,0-0.83-0.88-0.18-2.45c0.65-1.56,0-9.28,0-9.28s0.24-2.77,0.92-3.42s0.03-4.06,0-4.23
		l1.22,4.09c0,0,0.54,8.13,1.67,9.6l0.33,3.68c0,0,2.32,3.39,1.88,5.21s0.48,8.42,0.48,8.42v6.75c0,0-1.04,2.71,0.41,3.68l0.62-0.02
		c-0.21,0.19-0.37,0.48-0.61,0.73c-0.28,0.29-0.44,1.38-0.53,2.32c-0.07,0.8-0.1,1.48-0.1,1.48s0.62,0.99,1.79,1.06
		c1.17,0.07,5.01,2.99,5.01,2.99s3.8,0,4.78-0.21l0.06-0.01c0.32-0.1,0.58-0.32,0.74-0.61c0.2-0.34,0.26-0.73,0.18-1.11
		c-0.12-0.58-0.58-1.22-1.6-1.76c-2.54-1.34-2.92-2.59-2.92-2.59l-1.67-2.5h0.24c0,0-0.15-2.65,1.67-5.63l-0.12-13.11
		c0,0,0.74-4.51-0.54-6.95c0,0-0.11-2.59,0.75-3.39s-1.14-8.83-1.14-8.83s-0.41-4.32-0.9-8.25l0,0c2.01,1.91,4.09-4.96,4.45-6.18
		h0.05l-0.02-0.09c0.01-0.06,0.02-0.09,0.02-0.09l0,0c0,0-0.45-1.59-0.12-1.26s1.13-0.88,1.13-0.88s-0.12-6.57,1.28-9.88
		C121.76,87.79,119.74,79.72,119.74,79.72z M113.75,83.9l0.01-0.02c0.21,4.01-0.04,12.57-0.04,12.57s-0.28,1.1-0.57,2.39l-0.21-8.13
		l0,0l-0.21-7.66L113.75,83.9z M88.1,81.14c0,0,1.01,12.66,0,14.49c-0.29,0.52-0.53,1.45-0.73,2.5c-0.33-0.88-1.04-2.94-0.79-4.03
		c0.33-1.41-0.65-5.13-0.65-5.21s-0.09-2.07,0.62-3.58c0.71-1.51,0.24-2.17,0.24-2.17S87.39,80.66,88.1,81.14z"/>
	<path class="st2" d="M90.57,109.66c-0.88,3.88-4.39-1.99-5.19-3.39c-0.1-0.18-0.16-0.29-0.16-0.29l0.38-1.78l2.01-0.83
		c0.32,0.17,0.62,0.36,0.9,0.59C89.61,104.82,91.25,106.65,90.57,109.66z"/>
	<path class="st2" d="M117.79,103.31c0,0,0,0.03-0.02,0.09c0,0.02-0.02,0.06-0.03,0.09c-0.35,1.21-2.39,8.03-4.37,6.13
		c-2.16-2.07-1.11-6.84-1.11-6.84h0.01l4.55-0.46l0.9,0.93l0,0L117.79,103.31z"/>
	<path class="st3" d="M115.16,136.86l0.12,13.02c-1.78,2.95-1.64,5.58-1.64,5.58l-5.88,0.23c-1.43-0.96-0.41-3.65-0.41-3.65v-6.7
		c0,0-0.91-6.55-0.47-8.36s-1.84-5.17-1.84-5.17l-0.32-3.65c-1.11-1.46-1.64-9.53-1.64-9.53l-1.19-4.07c0.03,0.18,0.65,3.58,0,4.2
		c-0.65,0.63-0.91,3.39-0.91,3.39s0.64,7.66,0,9.21c-0.64,1.55,0.17,2.43,0.17,2.43l0.12,7.95c0,0-0.56,2.13,0.06,5.14
		c0.61,3.01,0,7.66,0,7.66h-6.3l0.03-3.25l-1.02-2.75c0,0-0.7-11.34-1.26-13.8c-0.33-1.46-0.13-2.98,0.58-4.3
		c0,0-1.17-1.87-1.11-3.19c0.06-1.32-0.9-3.83-0.9-3.83l-1.36-9.24c0.04-1.78-0.19-3.55-0.67-5.26c-0.79-2.63-1.96-6.08-1.96-6.08
		l1.32,0.12l6.66,0.59c0,0,16.2-1.09,16.92-0.18c0.15,0.3,0.26,0.61,0.31,0.94c0.73,3.27,1.69,13.5,1.69,13.5s1.96,7.98,1.12,8.77
		c-0.84,0.79-0.74,3.36-0.74,3.36C115.89,132.37,115.16,136.86,115.16,136.86z"/>
	<path class="st4" d="M101.47,159.47c-0.05,0.73-0.85,0.77-0.85,0.77c-2.37,0.37-2.87,1.29-2.87,1.29s-2.27,2.26-5.7,1.93
		c-2.91-0.28-2.63-0.8-2.48-1.76c0.03-0.18,0.05-0.36,0.05-0.54c0-1.32,1.01-1.69,2.59-2.69c1.58-1,1.54-1.82,2.19-2.54
		c0.66-0.72,0.73-2.13,0.73-2.13c0.74-1.3,2.63,0.21,2.63,0.21c0.09,0.46,2.89,0.39,2.89,0.39s0.37,1.49,0.56,1.58
		c0.13,0.06,0.22,1.23,0.26,2.23C101.48,158.74,101.48,159.22,101.47,159.47z"/>
	<path class="st5" d="M101.47,159.47c-0.05,0.73-0.85,0.77-0.85,0.77c-2.37,0.37-2.87,1.29-2.87,1.29s-2.27,2.26-5.7,1.93
		c-2.91-0.28-2.63-0.8-2.48-1.76c1.3,0.32,3.79,0.77,5.24-0.02c2.02-1.1,3.47-1.86,3.47-1.86l3.19-1.61
		C101.48,158.74,101.48,159.22,101.47,159.47z"/>
	<path class="st4" d="M119.31,163.37c-0.16,0.29-0.42,0.5-0.73,0.6l-0.06,0.01c-0.96,0.21-4.69,0.21-4.69,0.21s-3.77-2.92-4.91-2.98
		s-1.75-1.05-1.75-1.05s0.02-0.68,0.1-1.47c0.09-0.93,0.24-2.02,0.52-2.3c0.5-0.53,0.62-1.24,1.75-0.79c0,0,1.62-2.86,3.53-0.65
		l1.98,3c0,0,0.37,1.24,2.87,2.58c1,0.54,1.45,1.17,1.57,1.75C119.57,162.65,119.5,163.04,119.31,163.37z"/>
	<path class="st5" d="M119.31,163.37c-0.22,0.19-0.47,0.39-0.73,0.6l-0.06,0.01c-0.96,0.21-4.69,0.21-4.69,0.21
		s-3.77-2.92-4.91-2.98s-1.75-1.05-1.75-1.05s0.02-0.68,0.1-1.47c1.16,0.35,2.92,0.96,3.39,1.62c0.72,1.01,2.92,2.41,2.92,2.41
		s4.09-0.39,5.91-0.45C119.57,162.65,119.5,163.04,119.31,163.37z"/>
	<path class="st2" d="M103.37,61.35l-5.39,5.7c0,0-6.53-0.48-5.39-2.41c0.58-0.98,0.67-3.04,0.62-4.83
		c-0.05-1.73-0.23-3.19-0.23-3.19s9.17-4.56,8.47-0.31c-0.15,0.8-0.16,1.62-0.02,2.43C101.82,60.88,103.37,61.35,103.37,61.35z"/>
	<path class="st5" d="M101.44,56.3c-0.15,0.8-0.16,1.62-0.02,2.43c-1.27,1.28-2.99,2-4.8,2c-1.24,0-2.58-1.02-3.58-1.61
		c-0.05-1.73-0.06-2.51-0.06-2.51S102.15,52.05,101.44,56.3z"/>
	<path class="st2" d="M103.37,53.63c0,3.73-3.02,6.76-6.75,6.76c-3.73,0-6.76-3.02-6.76-6.75s3.02-6.76,6.75-6.76
		c1.53,0,3.02,0.52,4.22,1.47C102.44,49.63,103.37,51.58,103.37,53.63z"/>
	<path class="st5" d="M112.56,104.32c-1.68,4-12.5,4.08-12.5,4.08v-4.36l-0.65-0.04c0.28,1.25-0.4,4.3-0.4,4.3
		c-8.55,1.21-10.63-3.67-10.63-3.67l0.3-1.67l6.66,0.59c0,0,16.2-1.09,16.92-0.18C112.41,103.66,112.51,103.99,112.56,104.32z"/>
	<path class="st6" d="M100.06,107.87v-4.36l-0.65-0.04c0.28,1.24-0.4,4.3-0.4,4.3c-6.43,0.91-9.21-1.63-10.18-2.94
		c-0.18-0.23-0.33-0.47-0.45-0.73l2.61-14.69l0.62-21.62L92.54,64l0.22-1.82v-0.02h0.02l0.67,0.29l3.98,1.72l4.52-3.42l0.07-0.05
		l0.23-0.17l0.37,0.3l0.93,0.75l2.98,19.25c0,0,5.17,14.82,6.13,20.81c0.04,0.24,0.07,0.46,0.1,0.67
		C113.39,107.77,100.06,107.87,100.06,107.87z"/>
	<circle class="st7" cx="97.91" cy="64.59" r="0.38"/>
	<circle class="st7" cx="98.09" cy="68.1" r="0.38"/>
	<circle class="st7" cx="98.48" cy="73.78" r="0.38"/>
	<circle class="st7" cx="99.11" cy="79.9" r="0.38"/>
	<circle class="st7" cx="99.49" cy="85.64" r="0.38"/>
	<circle class="st7" cx="99.88" cy="91.76" r="0.38"/>
	<circle class="st7" cx="99.73" cy="97.81" r="0.38"/>
	<path class="st5" d="M93.02,91.55c0,0-0.43,5.63-1.22,7.26s-1.14,6.23-1.14,6.23l-1.83-0.21c-0.18-0.23-0.33-0.47-0.45-0.73
		l2.61-14.69l0.62-21.62l0.94-3.8l0.22-1.82l0.02-0.01c0.21-0.1,0.45-0.09,0.65,0.01l0.09,0.05c-0.03,0.07-0.05,0.15-0.07,0.23
		c-0.71,2.24-0.98,6.36-0.98,6.36s1.03,7.54,1.14,11.05C93.72,83.38,93.02,91.55,93.02,91.55z"/>
	<path class="st5" d="M88.51,103.96c-0.02,0.05-0.04,0.09-0.07,0.14c-0.71,1.2-2.51,1.96-3.06,2.17c-0.1-0.18-0.16-0.29-0.16-0.29
		l0.38-1.78l2.01-0.83C87.93,103.53,88.23,103.73,88.51,103.96z"/>
	<path class="st3" d="M83.64,75.25l-1.67,0.99L80.46,83c0,0-1.9,5.73-0.44,9.82c1.46,4.09,2.31,6.44,2.31,6.44s0.58,4.65,1.46,5.03
		c0.88,0.38,1.26,0.58,1.26,0.58l0.18,1.11c0,0,2.38-0.81,3.22-2.23c0.84-1.42-0.62-4.96-0.62-4.96s-1.26-3.01-0.93-4.42
		c0.32-1.4-0.64-5.09-0.64-5.17c0-0.08-0.09-2.05,0.62-3.55s0.24-2.15,0.24-2.15l-0.44-4.3L83.64,75.25z"/>
	<path class="st5" d="M112.7,103.05c0,0-4.42,1.67-5.82,0.21c-1.4-1.46-1.26-8.3-1.26-8.3s-1.34-12.63-2.19-14.7
		s-0.41-17.05-0.41-17.05s-0.57-1.94-1.07-2.44c-0.03-0.03-0.07-0.06-0.11-0.08l0.17,0.04l0.6,0.13l0.93,0.75l2.98,19.25
		c0,0,5.17,14.82,6.13,20.81L112.7,103.05z"/>
	<path class="st5" d="M117.79,103.49h-0.05c-0.56,0.07-5.46,0.67-5.48-0.36c0-0.12,0.01-0.24,0.02-0.35l4.55-0.46l0.9,0.93l0,0
		c0.02,0.06,0.03,0.11,0.04,0.15L117.79,103.49z"/>
	<path class="st3" d="M113.08,68.48l3.22,1.68c0,0,2.69,6.95,3.12,9.94c0,0,1.99,7.99,0.62,11.27c-1.37,3.29-1.26,9.81-1.26,9.81
		s-0.79,1.2-1.11,0.88s0.12,1.26,0.12,1.26s-5.51,0.73-5.53-0.35c-0.02-1.08,1.26-6.26,1.26-6.26s0.35-12.31-0.15-14.24
		C112.88,80.54,113.08,68.48,113.08,68.48z"/>
	<path class="st5" d="M103.46,81.59c0,0-1.81,4.44-2.4,4.74c-0.58,0.29,0.12,1.46,0.12,1.46S104.49,83.17,103.46,81.59z"/>
	<path class="st5" d="M102.38,66.01c0.02-0.08-2.16,2.14-2.75,2.48S101.77,68.47,102.38,66.01z"/>
	<path class="st5" d="M96.3,81.24c0,0-3.33,2.15-2.89,3.01C93.85,85.1,96.3,81.24,96.3,81.24z"/>
	<path class="st5" d="M102.35,112.7c0,0,2.84,1.82,7.25,2.27L102.35,112.7z"/>
	<path class="st5" d="M95.54,117.08c0,0,2.63,3.31,3.83,3.39C100.57,120.56,95.54,117.08,95.54,117.08z"/>
	<path class="st5" d="M99.22,130.04c-0.12,0.06-1.49,2.98-2.89,3.07S99.22,130.04,99.22,130.04z"/>
	<path class="st5" d="M111.41,136.44c0,0,2.61-0.58,3.19,1.29C114.6,137.72,114.43,137.14,111.41,136.44z"/>
	<path class="st5" d="M109.66,147.14c0,0,3.16-0.64,3.83,0.23C114.16,148.25,109.66,147.14,109.66,147.14z"/>
	<path class="st5" d="M100.72,148.63c0,0.03-3.21,0.64-3.1,1.05c0.12,0.41,3.43,0.35,3.55-0.29
		C101.26,149.06,101.06,148.72,100.72,148.63C100.73,148.63,100.73,148.63,100.72,148.63z"/>
	<path class="st5" d="M108.61,151.41c0,0,5.28-0.64,4.96,0.47C113.24,152.98,108.61,151.41,108.61,151.41z"/>
	<path class="st5" d="M80.95,86.33c0.03,0.09,3.48,0.56,3.95,1.67c0,0-3.39-1.58-3.93-1.58"/>
	<path class="st5" d="M85.8,95.36c0,0-2.87,0.91-2.66,2.27C83.35,99,82.85,97,85.8,95.36z"/>
	<path class="st5" d="M84.47,102.32c0,0,1.04-1.43,2.04-1.17C87.5,101.41,84.47,102.32,84.47,102.32z"/>
	<path class="st5" d="M100.83,48.35c-0.1,0.1-0.21,0.18-0.33,0.25c-0.83,0.48-1.05,1.22-1.45,2.08c-0.37,0.78-0.77,1.61-1.51,2.06
		c-0.95,0.57-2.21,0.36-3.2,0.86c-0.9,0.47-1.42,1.44-1.32,2.44c0.06,0.38,0.16,0.75,0.28,1.12c0.23,0.79,0.33,1.61,0.3,2.43
		c0,0.02,0,0.05,0,0.07c-3.34-1.67-4.69-5.72-3.02-9.06c1.67-3.34,5.72-4.69,9.06-3.02C100.07,47.8,100.47,48.06,100.83,48.35
		L100.83,48.35z"/>
	<path class="st3" d="M100.66,46.32c-0.74-1.56-2.36-2.55-4.01-3.03c-1.27-0.37-2.64-0.49-3.9-0.08c-0.72,0.23-1.37,0.62-2.04,0.96
		c-1.25,0.63-2.63,1.13-3.57,2.17c-0.22,0.24-0.41,0.55-0.36,0.87c0.05,0.24,0.23,0.41,0.35,0.63c0.27,0.48,0.21,1.07,0.02,1.59
		s-0.45,1-0.58,1.53c-0.13,0.53-0.08,1.15,0.31,1.53c0.18,0.17,0.4,0.27,0.59,0.41c0.21,0.19,0.4,0.4,0.56,0.64l1.12,1.52
		c0.52,0.68,0.99,1.39,1.4,2.15c0.28,0.55,0.49,1.14,0.86,1.64s0.95,0.89,1.57,0.84c0.1,0,0.19-0.04,0.25-0.12
		c0.02-0.05,0.03-0.1,0.03-0.15c0.03-0.82-0.07-1.64-0.3-2.42c-0.12-0.36-0.22-0.74-0.28-1.12c-0.1-1.01,0.43-1.97,1.32-2.44
		c0.99-0.5,2.25-0.29,3.2-0.86c0.74-0.45,1.14-1.27,1.51-2.07c0.4-0.86,0.62-1.6,1.45-2.08C100.97,47.94,101.07,47.14,100.66,46.32z
		"/>
	<path class="st5" d="M97.63,156.7c0,0,1.03,1.32,0.76,2.07S97.63,156.7,97.63,156.7z"/>
	<path class="st5" d="M111.61,160c0,0,0.23-1.76,1.15-1.78c0.92-0.02,0.96-0.1,1.67,0.18c0.7,0.27,1.36,0.69,1.15,0.75
		c-0.21,0.06-1.21-1.01-2.23-0.46C112.7,159.03,112.12,159.48,111.61,160z"/>
	<path class="st5" d="M94.55,66.38l2.89-2.03c0,0-4.23-2.5-4.74-2.15c-0.5,0.35-0.85,3.51-0.85,3.51L94.55,66.38z"/>
	<path class="st8" d="M94.54,66.25l2.89-2.07c0,0-4.23-2.5-4.74-2.15s-0.85,3.69-0.85,3.69L94.54,66.25z"/>
	<path class="st6" d="M94.54,66.25l2.89-2.07c0,0-4.23-2.5-4.74-2.15s-0.85,3.69-0.85,3.69L94.54,66.25z"/>
	<path class="st3" d="M93.17,62.05l-0.09-0.04c-0.26-0.13-0.58-0.1-0.81,0.08l-8.68,7.04c0,0-1.89,2.61-1.62,7.11l5.12,7.25
		c0,0,0.58-2.45,1.29-1.99c0,0,0.99,12.57,0,14.38c-0.99,1.81-1.43,8.59-1.43,8.59l3.36,0.38c0,0,0.35-4.59,1.14-6.23
		c0.79-1.64,1.22-7.26,1.22-7.26s0.71-8.17,0.59-11.68s-1.14-11.05-1.14-11.05S92.41,64.22,93.17,62.05z"/>
	<path class="st5" d="M101.82,65.1l-3.61-1.33c0,0,4.59-5.03,5.17-2.24L101.82,65.1z"/>
	<path class="st8" d="M101.82,64.92l-3.61-1.33c0,0,4.59-5.03,5.17-2.24L101.82,64.92z"/>
	<path class="st6" d="M101.82,64.92l-3.61-1.33c0,0,4.59-5.03,5.17-2.24L101.82,64.92z"/>
	<path class="st5" d="M101.7,60.64c0.05-0.01,0.11,0,0.15,0.03L101.7,60.64z"/>
	<path class="st3" d="M102.05,60.29l9.57,2.07c0,0,2.63,0.58,4.53,7.19c1.9,6.61-2.6,14.7-2.6,14.7l-0.99-0.85l0.5,19.3
		c0,0-4.42,1.67-5.82,0.21s-1.26-8.31-1.26-8.31s-1.35-12.63-2.19-14.7s-0.41-17.04-0.41-17.04S102.59,60.18,102.05,60.29z"/>
	<path class="st5" d="M110.8,72.59c-0.13,0.12-0.29,5.96,0.29,10.41c0.36,2.71,0.91,5.38,1.65,8.01l-0.87-17.8
		C111.88,73.2,111.21,72.21,110.8,72.59z"/>
	<path class="st5" d="M109.63,67.56c0.23,0.15,1.26,2.57,0.79,3.57C109.95,72.12,109.63,67.56,109.63,67.56z"/>
	<path class="st5" d="M100.6,46.32c-0.47-0.92-1.2-1.69-2.1-2.2c0.67,0.48,1.21,1.12,1.58,1.86c0.41,0.83,0.29,1.65-0.51,2.11
		c-0.8,0.45-1.05,1.22-1.45,2.08c-0.37,0.78-0.77,1.61-1.51,2.07c-0.95,0.57-2.2,0.36-3.2,0.86c-0.9,0.47-1.42,1.44-1.32,2.45
		c0.06,0.38,0.16,0.75,0.28,1.12c0.22,0.79,0.33,1.61,0.3,2.43c0,0.05-0.01,0.11-0.03,0.15c-0.06,0.08-0.15,0.12-0.25,0.12
		c-0.25,0.02-0.5-0.03-0.72-0.13c0.33,0.33,0.78,0.5,1.24,0.49c0.13,0.02,0.26-0.07,0.28-0.21c0-0.02,0-0.04,0-0.07
		c0.03-0.82-0.07-1.64-0.3-2.43c-0.13-0.36-0.22-0.74-0.28-1.12c-0.1-1.01,0.43-1.97,1.32-2.44c0.99-0.5,2.25-0.29,3.2-0.86
		c0.74-0.45,1.14-1.27,1.51-2.07c0.4-0.86,0.62-1.6,1.45-2.08C100.91,47.95,101.01,47.14,100.6,46.32z"/>
	
		<linearGradient id="SVGID_2_" gradientUnits="userSpaceOnUse" x1="170.4881" y1="6.797" x2="170.4881" y2="132.9934" gradientTransform="matrix(1 0 0 -1 -31.16 181.86)">
		<stop  offset="0" style="stop-color:#808080;stop-opacity:0.25"/>
		<stop  offset="0.54" style="stop-color:#808080;stop-opacity:0.12"/>
		<stop  offset="1" style="stop-color:#808080;stop-opacity:0.1"/>
	</linearGradient>
	<path class="st9" d="M159.46,72.27c-2.85-0.06-5.36-2.07-6.78-4.52c-0.37-0.58-0.61-1.25-0.69-1.94c0.01-0.16,0.04-0.31,0.08-0.46
		c0.09-0.23,0.16-0.47,0.21-0.71c0.01-0.1,0.01-0.19,0-0.29c0,0,0,0,0-0.02c0.07-0.52-0.24-1.03-0.62-1.39
		c-0.38-0.36-0.86-0.62-1.25-0.98c-1.22-1.07-1.59-2.8-1.62-4.44v-0.09c0.01-0.7,0.07-1.41,0.06-2.11c0.01-0.4-0.01-0.8-0.05-1.19
		c-0.12-0.99-0.5-2.01-1.28-2.64c-2.04-1.65-5.46,0.07-7.57-1.49c-0.51-0.38-0.93-0.95-1.55-1.1c-0.47-0.11-0.96,0.04-1.42,0.19
		c-1.55,0.51-3.29,1.19-3.89,2.69c-0.35,0.86-0.25,1.84-0.57,2.72c-0.21,0.58-0.6,1.09-0.89,1.64c-0.24,0.42-0.35,0.89-0.33,1.37
		c-0.03,0.25,0.01,0.5,0.1,0.73c0.11,0.28,0.28,0.53,0.51,0.73c-0.08,0.17-0.18,0.33-0.3,0.48c-0.4,0.49-1.01,0.83-1.42,1.31
		c-0.76,0.89-0.74,2.09-0.36,3.13s1.06,1.99,1.52,3c0.21,0.44,0.36,0.93,0.15,1.37c-0.15,0.3-0.45,0.54-0.69,0.8
		c-0.34,0.39-0.56,0.87-0.62,1.38c-4.65,1.06-4.65,4.8-4.65,4.8l0,0l-2.51,6.32c0,0-0.4,1.06-0.88,2.47l-2.97-0.53l2.07,3.46
		c-0.39,1.41-0.67,2.71-0.58,3.37c0,0-0.92,4.34,0.72,5.1l3.62,1.63c0.16,0.1,0.33,0.17,0.5,0.23l0.15,0.07
		c0.11,0.05,0.23,0.05,0.34,0h0.01h0.04c0.07,0,0.14-0.01,0.21-0.03c0.08-0.04,0.14-0.11,0.18-0.2c0-0.01,0-0.01,0-0.02l1.08-0.31
		l0.92,1.09c0.41,0.29,0.83,0.54,1.22,0.77l-1.42,14.14c0,0-0.23,18.8-0.92,23.09c-0.26,1.59-0.26,2.67-0.16,3.4l-0.03,0.05
		c0.17,1.21,0.62,1.45,0.62,1.45v-0.02c0.01,0.01,0.02,0.01,0.03,0.02c0.21-0.55,0.46-1.08,0.74-1.59c0,0.1,0,0.21,0,0.31
		c-0.01,1.6-0.06,3.83-0.23,5.28c-0.28,2.48,0.72,10.65,0.72,10.65l0.35,7.44c0.06,1.26-0.24,2.52-0.85,3.62
		c-0.83,1.49-1.88,3.58-1.96,4.5c0,0.05,0,0.1,0,0.15l0,0l-1.77,2.13c0,0-0.69,1.07,0.87,1.5c0.84,0.23,2.29,0,3.46-0.27
		c1.05-0.24,1.79-1.17,1.79-2.25c0.29-1.02,0.79-1.98,1.46-2.81l0.29,1.71l1.95,0.48l0.25-4.69c0.1-0.26,0.15-0.54,0.13-0.83l0,0
		c0.38-3.34-0.9-3.04-0.9-3.04c0.03,0.03,0.06,0.07,0.06,0.12l-0.06-0.11l0,0c-0.79-1.56-0.41-4.13-0.41-4.13s1.03-7.44,1.39-9.4
		c0.25-1.39,0.15-5.93,0.06-8.47c0-0.11,0-0.21-0.01-0.31c3.02-0.04,6.73-0.14,9.33-0.39v0.31l-0.48,17.57
		c-0.03,1.12-0.26,2.23-0.67,3.27c0,0.02-0.01,0.04-0.02,0.06c-0.57,1.47-0.89,3.03-0.95,4.61l-0.22,5.58v0.15l0,0
		c-0.39,0.15-1,0.58-1.02,1.83c-0.03,1.83,3.21,1.22,3.21,1.22c3.23,0,3.26-3.36,3.26-3.36s0.1-3.08,0.26-5.15
		c0.15-2.06-0.49-1.61-0.49-1.61l-0.05,5.87c0,0.01,0,0.03,0,0.05v-5.15l0.05-0.75v-0.02l0,0v-0.16l0.41-6.06
		c0,0,2.98-10.09,3.44-12.03c0.33-1.38,0.19-5.52,0.08-7.81c0-0.11,0-0.21-0.02-0.3c0.92-0.08,1.74-0.09,2.07-0.09h0.15
		c0,0-0.15-16.21-0.54-22.31s-1-11.7-2.54-13.38c-0.93-1.02-2.23-4.15-3.1-6.48c1.84,0.79,3.74,1.42,5.7,1.86
		c4.87,1.02,4.21-3.21,4.21-3.21l-0.49-8h0.03c-0.02-2.1-0.2-4.19-0.54-6.26c-0.26-1.59-0.65-3.23-1.26-4.55
		c0.53-0.21,1.05-0.43,1.56-0.65c1.32-0.58,2.82-1.41,3.01-2.84h-0.06C159.43,72.48,159.45,72.37,159.46,72.27z M129.25,83.84
		L129.25,83.84c0.01,0.83-0.02,2.26-0.07,3.84l-1.55-2.07l1.55-2.52L129.25,83.84z M150.63,91.16l-2.58-0.83
		c0.46-0.71,0.99-1.37,1.59-1.97l0.22-0.21l-0.08,0.02l0.12-0.11l0.07-0.02l-0.12,0.11l0.14-0.03c0.16,0.65,0.46,1.25,0.88,1.77
		C151.81,90.9,150.63,91.16,150.63,91.16L150.63,91.16z"/>
	<polygon class="st10" points="134.96,165.53 134.66,171.25 132.74,170.77 132.33,168.39 	"/>
	<polygon class="st5" points="134.96,165.53 134.66,171.25 132.74,170.77 132.33,168.39 	"/>
	<path class="st2" d="M142.02,172.01l2.93,0.61l2.18-1.92v-5.42l0.05-0.74v-0.02l0,0v-0.16l0.4-6.02c0,0,2.94-10.02,3.39-11.94
		c0.32-1.36,0.19-5.48,0.08-7.75c-0.04-0.93-0.08-1.56-0.08-1.56l-6.48-1.57l-0.14,4.98l-0.47,17.45c-0.03,1.11-0.26,2.21-0.66,3.25
		l-0.02,0.06c-0.56,1.46-0.88,3.01-0.94,4.57l-0.22,5.55v0.15L142.02,172.01z"/>
	<path class="st5" d="M142.02,172.01l2.93,0.61l2.18-1.92v-0.46c-0.01,0.21-0.13,0.39-0.31,0.5l-0.03,0.02
		c-1.01,0.53-2.16,0.76-3.29,0.65l-1.14-0.1c-0.1,0.01-0.21,0.03-0.3,0.07v0.15L142.02,172.01z"/>
	<path class="st4" d="M146.79,170.9l0.03-0.02c0.19-0.11,0.31-0.31,0.32-0.54l0.05-5.83c0,0,0.63-0.45,0.48,1.6
		c-0.15,2.05-0.25,5.11-0.25,5.11s-0.02,3.34-3.21,3.34c0,0-3.19,0.61-3.16-1.21c0.02-1.82,1.32-1.9,1.32-1.9l1.14,0.1
		C144.63,171.66,145.78,171.44,146.79,170.9z"/>
	<path class="st2" d="M126.74,170.77c0.07,1.32,3.95,0.56,3.95,0.56l2.61-5.06c0,0,2.18-1.67,1.09-3.14
		c-0.06-0.08-0.11-0.16-0.16-0.25c0,0,0,0-0.01-0.01l0,0c-0.02-0.04-0.04-0.08-0.06-0.12l0,0c-0.78-1.55-0.4-4.09-0.4-4.09
		s1.01-7.39,1.37-9.34c0.25-1.38,0.15-5.89,0.06-8.42c-0.03-1.05-0.06-1.75-0.06-1.75l-6.43-1.72c0,0,0,0.8,0,1.92
		c-0.01,1.58-0.06,3.8-0.23,5.24c-0.28,2.45,0.71,10.57,0.71,10.57l0.34,7.39c0.06,1.25-0.23,2.5-0.83,3.6
		c-0.81,1.48-1.86,3.55-1.93,4.47C126.74,170.68,126.74,170.72,126.74,170.77z"/>
	<path class="st5" d="M126.74,170.77c0.07,1.32,3.95,0.56,3.95,0.56l2.61-5.06c0,0,2.18-1.67,1.09-3.14
		c-0.06-0.08-0.11-0.16-0.16-0.25c-0.04,0.77-0.88,2.69-0.88,2.69s-2.15,4.3-2.83,5.29s-3.65-0.18-3.77-0.23
		C126.74,170.68,126.74,170.72,126.74,170.77z"/>
	<path class="st4" d="M134.15,162.74c0,0,1.27-0.3,0.89,3.02l0,0c0.03,0.77-0.35,1.49-1.01,1.89c-0.91,0.57-2.32,1.8-3.03,4.2l0,0
		c0,1.06-0.73,1.99-1.77,2.23c-1.15,0.27-2.58,0.5-3.41,0.27c-1.54-0.43-0.86-1.49-0.86-1.49l1.77-2.1c0,0,3.09,1.21,3.77,0.23
		c0.68-0.99,2.83-5.29,2.83-5.29S134.52,163.02,134.15,162.74z"/>
	<path class="st5" d="M144.5,136.14l-0.14,4.98c1.73-0.17,2.96-0.4,3.17-0.73c0.46-0.71,2.11-1,3.52-1.13
		c-0.04-0.93-0.08-1.56-0.08-1.56L144.5,136.14z"/>
	<path class="st5" d="M128.69,139.96c0.16-0.34,0.41-0.63,0.71-0.86c0.68-0.38,0.61,2.43,0.61,2.43s2.27,0.02,5.18-0.02
		c-0.03-1.05-0.06-1.76-0.06-1.76l-6.43-1.72C128.69,138.04,128.7,138.84,128.69,139.96z"/>
	<path class="st3" d="M127.95,140.62c0,0,0.76-2.07,1.45-2.43c0.69-0.37,0.61,2.43,0.61,2.43s16.7,0.15,17.53-1.14
		s5.69-1.21,5.69-1.21s-0.15-16.09-0.53-22.16c-0.38-6.07-0.99-11.61-2.5-13.28c-0.98-1.08-2.38-4.58-3.24-6.91
		c-0.47-1.27-0.78-2.2-0.78-2.2l-15.94,0.91l-0.13,1.29l-1.69,16.93c0,0-0.23,18.67-0.91,22.92
		C126.82,140.01,127.95,140.62,127.95,140.62z"/>
	<g class="st11">
		<path d="M146.24,139.48c0.83-1.29,5.69-1.21,5.69-1.21s-0.15-16.09-0.53-22.16c-0.38-6.07-0.99-11.61-2.5-13.28
			c-0.99-1.08-2.38-4.58-3.24-6.91c-0.39-1.07-0.68-1.89-0.76-2.13l1.24-0.07c0,0,0.31,0.93,0.78,2.2c0.86,2.33,2.26,5.83,3.24,6.91
			c1.52,1.67,2.13,7.21,2.5,13.28c0.38,6.07,0.53,22.16,0.53,22.16s-4.86-0.07-5.69,1.21c-0.71,1.1-13,1.15-16.57,1.14
			C135.52,140.61,145.6,140.47,146.24,139.48z"/>
		<path d="M128.1,138.19c0.31-0.17,0.46,0.3,0.54,0.88c-0.28,0.5-0.52,1.02-0.72,1.55c0,0-0.44-0.24-0.62-1.45
			C127.56,138.74,127.83,138.34,128.1,138.19z"/>
	</g>
	<path class="st12" d="M132.88,54.78c-1.1,1.5,0.01,3.64-1.17,5.11c-0.39,0.48-0.99,0.83-1.4,1.3c-0.75,0.88-0.73,2.08-0.36,3.11
		c0.37,1.03,1.03,1.98,1.5,2.98c0.21,0.44,0.36,0.93,0.15,1.36c-0.14,0.3-0.44,0.53-0.68,0.79c-0.76,0.85-0.78,2.03-0.37,3.03
		s1.19,1.86,1.96,2.71c0.3,0.33,0.69,0.7,1.19,0.69c0.27-0.02,0.52-0.1,0.75-0.25c3.64-1.86,5.17-6.26,3.48-9.98
		c-0.64-1.54-1.71-3.01-1.72-4.63c0-1.29,0.66-2.52,0.78-3.8c0.14-1.56-0.78-4.03-2.66-4.71C134.47,53.5,133.44,54.01,132.88,54.78z
		"/>
	<path class="st5" d="M132.88,54.78c-1.1,1.5,0.01,3.64-1.17,5.11c-0.39,0.48-0.99,0.83-1.4,1.3c-0.75,0.88-0.73,2.08-0.36,3.11
		c0.37,1.03,1.03,1.98,1.5,2.98c0.21,0.44,0.36,0.93,0.15,1.36c-0.14,0.3-0.44,0.53-0.68,0.79c-0.76,0.85-0.78,2.03-0.37,3.03
		s1.19,1.86,1.96,2.71c0.3,0.33,0.69,0.7,1.19,0.69c0.27-0.02,0.52-0.1,0.75-0.25c3.64-1.86,5.17-6.26,3.48-9.98
		c-0.64-1.54-1.71-3.01-1.72-4.63c0-1.29,0.66-2.52,0.78-3.8c0.14-1.56-0.78-4.03-2.66-4.71C134.47,53.5,133.44,54.01,132.88,54.78z
		"/>
	<path class="st5" d="M145.12,109.49c-2.21,0.12-4.29,1.07-6.22,2.14c-1.93,1.07-3.81,2.29-5.89,3.05"/>
	<path class="st5" d="M143.74,114.7c-2.18,0.21-4.22,1.2-5.73,2.79c-0.54,0.57-1,1.2-1.56,1.75c-0.86,0.84-1.92,1.44-3.07,1.74"/>
	<path class="st5" d="M144.2,118.66c-1.76,0.49-3.36,1.45-4.61,2.78c-0.34,0.37-0.65,0.76-0.99,1.12c-1.83,1.96-4.41,3-6.9,3.99"/>
	<path class="st2" d="M144.01,63.73c0.05,1.76,0.2,3.53,0.45,5.27c0.21,1.24,0.5,2.36,0.91,2.85c1.21,1.45-5.92,3.38-5.92,3.38
		l-4.21-3.26c0,0,3.34-3.07,1.78-6.07S144.01,63.73,144.01,63.73z"/>
	<path class="st5" d="M130.1,95.91h16.85c-0.47-1.27-0.78-2.2-0.78-2.2l-15.94,0.91L130.1,95.91z"/>
	<path class="st6" d="M129.02,95.61h18.01c-0.51-1.81,0-3.49,0.72-4.78c0.51-0.9,1.14-1.73,1.89-2.45l0.12-0.11l6.29-1.39l0.34-0.07
		c0,0,0.05-11.44-4-13.01c-4.05-1.57-6.48-3.69-6.48-3.69l-5.56,1.72l-4.1-2.07c-1.32,1.42-4.81,0.86-4.81,0.86
		c-5.72,0.66-5.72,4.96-5.72,4.96s3.34,7.79,3.59,7.79S129.02,95.61,129.02,95.61z"/>
	<path class="st5" d="M135.24,88.34c0,0-3.67-0.81-4.92-2.24"/>
	<path class="st5" d="M153.76,84.07l-4.26,3.49c0.03,0.28,0.08,0.55,0.14,0.83l0.12-0.11l6.29-1.39L153.76,84.07z"/>
	<path class="st5" d="M142.22,94.39c0,0,0.93,0.52,2.36,1.21h2.45c-0.51-1.81,0-3.49,0.72-4.78l-4.32-1.4
		C144.91,90.8,142.22,94.39,142.22,94.39z"/>
	<path class="st6" d="M128.26,74.21l-2.53,1.37l-2.48,6.27c0,0-2.58,6.88-2.33,8.7c0,0-0.91,4.3,0.71,5.06l4.21,1.91
		c0.2,0.09,0.43,0,0.52-0.2c0.05-0.11,0.04-0.23-0.01-0.34c-0.6-1.14-1.26-2.92-0.21-3.9l-1.21-2.53l4.39-7.19l1.47-2.48
		L128.26,74.21z"/>
	<path class="st5" d="M133.88,86.9c0.22,0.89,0.96,2.27,3.41,2.79l2.69,2.2l2.86,1.3l1.17,0.53l0.49-3.57l-1.12-0.62l-1.31-0.71
		c0,0-2.95-5.34-7.62-3.1C133.99,85.92,133.76,86.42,133.88,86.9z"/>
	<path class="st2" d="M134.04,86.6c0.22,0.89,0.96,2.27,3.4,2.79l2.69,2.2l2.86,1.3l1.16,0.53l0.49-3.57l-1.12-0.62l-1.3-0.71
		c0,0-2.95-5.34-7.62-3.09C134.16,85.63,133.92,86.12,134.04,86.6z"/>
	<circle class="st5" cx="139.3" cy="61.83" r="6.53"/>
	<circle class="st2" cx="139.3" cy="61.68" r="6.53"/>
	<path class="st5" d="M143.34,75.63l-1.96-3.81c0,0,2.87-1.16,3.08-2.51c0.21-1.35,2.75,1.58,2.2,2.55
		C146.12,72.82,143.34,75.63,143.34,75.63z"/>
	<path class="st6" d="M143.34,75.32l-1.96-3.81c0,0,2.87-1.16,3.08-2.51c0.21-1.35,2.75,1.58,2.2,2.55
		C146.12,72.52,143.34,75.32,143.34,75.32z"/>
	<path class="st13" d="M127.28,85.18l10.84,14.58c0,0-4,2.18-9.5-1.72l-2.38-2.83l-6.79-11.44L127.28,85.18z"/>
	<path class="st2" d="M125.15,93.1l0.99-0.03c0,0,6.03-5.86,7.51-2.89c1.48,2.96-3.76,5.73-3.76,5.73l-1.59,0.86l-2.08,0.62
		l-1.33-1.78L125.15,93.1z"/>
	<path class="st5" d="M126.6,96.27c0.09,0.34,0.18,0.71,0.02,1.02c-0.04,0.08-0.1,0.15-0.18,0.2c-0.07,0.03-0.14,0.04-0.21,0.03
		c-0.52-0.04-1.01-0.29-1.36-0.67c-0.35-0.39-0.64-0.82-0.88-1.28c-0.27-0.47-0.55-0.99-0.45-1.52c0.11-0.58,0.62-0.98,1.12-1.31
		c1-0.66,1.03,0.11,1.25,0.96S126.37,95.41,126.6,96.27z"/>
	<path class="st6" d="M126.45,96.27c0.09,0.34,0.18,0.71,0.02,1.02c-0.04,0.08-0.1,0.15-0.18,0.2c-0.07,0.03-0.14,0.04-0.21,0.03
		c-0.52-0.04-1.01-0.28-1.36-0.67c-0.35-0.39-0.64-0.82-0.88-1.28c-0.27-0.47-0.55-0.99-0.45-1.52c0.11-0.58,0.62-0.98,1.12-1.31
		c1-0.66,1.03,0.11,1.25,0.96C125.99,94.54,126.22,95.41,126.45,96.27z"/>
	<polygon class="st5" points="129.32,83.36 129.83,82.51 129.39,84.09 	"/>
	<path class="st5" d="M143,92.88l1.16,0.53l0.49-3.57l-1.12-0.62C144.31,90.11,143.63,91.75,143,92.88z"/>
	<path class="st5" d="M147.66,88.74c0,0-3.76,0.23-5.35-0.8"/>
	<g class="st11">
		<path d="M147.2,91.13c0.51-0.9,1.14-1.73,1.89-2.45c0.18-0.11,0.36-0.21,0.56-0.3l5.86-1.2l0.34-0.07c0,0,0.05-11.44-4-13.01
			c-2.27-0.86-4.4-2.06-6.31-3.56l0.44-0.14c0,0,2.43,2.12,6.48,3.69c4.05,1.57,4,13.01,4,13.01h-0.61l-5.99,1.15
			c0,0-0.26,0.25-0.34,0.32c-0.75,0.75-1.4,1.6-1.92,2.53c-0.79,1.47-0.97,3.2-0.5,4.8h-0.62C145.97,94.1,146.48,92.42,147.2,91.13z
			"/>
		<path d="M131.21,70.95c0.1-0.01,0.19-0.03,0.29-0.04c0.41,0.06,0.82,0.09,1.24,0.1C132.23,71.03,131.71,71,131.21,70.95z"/>
		<path d="M139.79,72.13l-3.71-1.88c0.07-0.06,0.14-0.13,0.21-0.2l3.87,1.96L139.79,72.13z"/>
	</g>
	<path class="st6" d="M153.91,83.76l2.48,3.04l0.51,8.25c0,0,0.66,4.2-4.15,3.19c-4.81-1.01-10.37-4.14-10.37-4.14
		s2.69-3.59,1.21-4.96l6.88,2.23c0,0,1.16-0.25,0.25-1.26c-0.91-1.01-1.07-2.83-1.07-2.83L153.91,83.76z"/>
	<path class="st5" d="M155.03,92.47l1.37,1.57C155.68,93.82,155.15,93.21,155.03,92.47z"/>
	<polygon class="st5" points="152.7,92.22 154.82,94.95 153.76,95.2 	"/>
	<path class="st5" d="M131.51,58.68c-0.23-0.57-0.05-1.24,0.23-1.78c0.28-0.54,0.67-1.05,0.88-1.63c0.31-0.86,0.22-1.84,0.56-2.69
		c0.6-1.5,2.31-2.17,3.84-2.69c0.45-0.15,0.93-0.3,1.4-0.19c0.62,0.15,1.02,0.71,1.53,1.09c2.08,1.55,5.46-0.16,7.47,1.48
		c0.77,0.62,1.14,1.63,1.26,2.62c0.12,0.99,0,1.99-0.01,2.98c-0.03,1.74,0.29,3.64,1.6,4.8c0.39,0.35,0.86,0.61,1.24,0.97
		c0.38,0.36,0.69,0.86,0.62,1.38c-0.05,0.24-0.12,0.47-0.21,0.7c-0.26,0.91,0.13,1.86,0.6,2.69c1.4,2.43,3.88,4.44,6.69,4.49
		c-0.19,1.42-1.65,2.24-2.96,2.82c-1.65,0.74-3.41,1.47-5.23,1.38c-1.82-0.09-3.72-1.26-4.04-3.05c-0.11-0.62-0.1-1.37-0.62-1.69
		c-0.32-0.2-0.74-0.15-1.09-0.29c-0.5-0.21-0.75-0.77-0.92-1.29c-0.34-1.07-0.52-2.18-0.54-3.31c-0.02-1.33,0.15-2.78-0.6-3.88
		c-0.7-1.01-1.94-1.53-2.74-2.46c-0.74-0.86-1.55-1.9-2.77-2.07C135.99,58.83,132.5,61.12,131.51,58.68z"/>
	<path class="st3" d="M131.51,58.38c-0.23-0.57-0.05-1.24,0.23-1.78c0.28-0.54,0.67-1.05,0.88-1.63c0.31-0.86,0.22-1.84,0.56-2.69
		c0.6-1.5,2.31-2.17,3.84-2.69c0.45-0.15,0.93-0.3,1.4-0.19c0.62,0.15,1.02,0.71,1.53,1.09c2.08,1.55,5.46-0.16,7.47,1.48
		c0.77,0.62,1.14,1.63,1.26,2.62c0.12,0.99,0,1.98-0.01,2.98c-0.03,1.74,0.29,3.64,1.6,4.8c0.39,0.35,0.86,0.61,1.24,0.97
		c0.38,0.36,0.69,0.86,0.62,1.38c-0.05,0.24-0.12,0.47-0.21,0.7c-0.26,0.91,0.13,1.86,0.6,2.69c1.41,2.42,3.88,4.43,6.68,4.49
		c-0.19,1.42-1.65,2.24-2.96,2.82c-1.65,0.74-3.41,1.47-5.23,1.37c-1.82-0.09-3.72-1.26-4.04-3.05c-0.11-0.62-0.1-1.37-0.62-1.69
		c-0.32-0.2-0.74-0.15-1.09-0.29c-0.5-0.21-0.75-0.77-0.92-1.29c-0.34-1.07-0.52-2.18-0.54-3.31c-0.02-1.33,0.15-2.78-0.6-3.88
		c-0.7-1.01-1.94-1.53-2.74-2.46c-0.74-0.86-1.55-1.9-2.77-2.07C135.99,58.53,132.5,60.83,131.51,58.38z"/>
	<path class="st5" d="M136.14,75.15l3.74-3.04c0,0-2.56-1.39-2.87-2.57s-2.36,0.56-2.15,1.62
		C135.07,72.23,136.14,75.15,136.14,75.15z"/>
	<path class="st6" d="M136.28,74.7l3.74-3.04c0,0-2.56-1.39-2.86-2.57c-0.29-1.18-2.36,0.56-2.15,1.62
		C135.23,71.78,136.28,74.7,136.28,74.7z"/>
	<circle class="st5" cx="140.17" cy="74.2" r="0.3"/>
	<circle class="st5" cx="140.17" cy="75.86" r="0.3"/>
	<circle class="st5" cx="140.17" cy="77.51" r="0.3"/>
	<g class="st11">
		<path d="M133.02,54.16c0.3-0.81,0.23-1.72,0.51-2.54c-0.13,0.18-0.23,0.38-0.32,0.58c-0.34,0.85-0.25,1.83-0.56,2.69l-0.02,0.05
			C132.78,54.69,132.91,54.43,133.02,54.16z"/>
		<path d="M156.62,74.61c-1.65,0.74-3.41,1.47-5.23,1.37c-1.82-0.09-3.72-1.26-4.04-3.05c-0.11-0.62-0.1-1.37-0.62-1.69
			c-0.32-0.2-0.74-0.15-1.09-0.29c-0.5-0.21-0.75-0.77-0.92-1.29c-0.34-1.07-0.52-2.18-0.54-3.31c-0.02-1.33,0.15-2.78-0.6-3.88
			c-0.7-1.01-1.94-1.53-2.75-2.46c-0.74-0.86-1.55-1.9-2.77-2.07c-1.67-0.23-5.17,2.07-6.15-0.38c-0.16-0.46-0.14-0.97,0.06-1.41
			c-0.07,0.12-0.14,0.24-0.21,0.37c-0.28,0.55-0.46,1.21-0.23,1.78c0.99,2.44,4.48,0.15,6.15,0.38c1.22,0.17,2.03,1.21,2.77,2.07
			c0.81,0.93,2.05,1.45,2.74,2.46c0.76,1.1,0.58,2.55,0.6,3.88c0.02,1.12,0.2,2.24,0.54,3.31c0.17,0.52,0.41,1.08,0.92,1.29
			c0.35,0.15,0.76,0.1,1.09,0.29c0.53,0.32,0.52,1.08,0.62,1.69c0.32,1.79,2.22,2.96,4.04,3.05c1.82,0.09,3.57-0.63,5.23-1.37
			c1.2-0.53,2.53-1.27,2.89-2.48C158.57,73.66,157.55,74.2,156.62,74.61z"/>
	</g>
	
		<linearGradient id="SVGID_3_" gradientUnits="userSpaceOnUse" x1="206.1413" y1="-2.6105" x2="206.1413" y2="118.7956" gradientTransform="matrix(1 0 0 -1 -31.16 181.86)">
		<stop  offset="0" style="stop-color:#808080;stop-opacity:0.25"/>
		<stop  offset="0.54" style="stop-color:#808080;stop-opacity:0.12"/>
		<stop  offset="1" style="stop-color:#808080;stop-opacity:0.1"/>
	</linearGradient>
	<path class="st14" d="M193.13,86.28c-4.37-2.52-6.03-3.14-6.03-3.14l-0.09-0.06c-0.48-0.37-0.85-0.84-1.1-1.39
		c-0.01-0.1-0.01-0.2,0-0.3c0,0.01,0,0.02,0,0.03c0.07-1.33,1.02-2.55,1.92-3.6l2.3-2.7c0.26-0.27,0.46-0.59,0.59-0.94
		c0.05-0.19,0.07-0.38,0.06-0.58c0-0.08,0-0.16,0-0.24c-0.01-0.67-0.03-1.35-0.06-2.02c-0.02-0.59-0.17-1.33-0.76-1.45
		c-0.31-0.06-0.71,0.05-0.87-0.21c-0.05-0.11-0.07-0.23-0.04-0.35c0,0.01,0,0.02,0,0.03v-0.03c0.11-0.45,0.19-0.92,0.22-1.38
		c0.01-0.24-0.02-0.48-0.1-0.7c-0.34-0.97-1.51-1.37-2.55-1.56c-1.04-0.18-2.2-0.34-2.84-1.15c-0.17-0.27-0.36-0.53-0.57-0.78
		c-0.3-0.27-0.66-0.45-1.06-0.52c-1.28-0.32-2.64-0.2-3.85,0.33c-0.5,0.22-1,0.52-1.55,0.49c-0.55-0.03-1.06-0.43-1.62-0.52
		c-0.91-0.15-1.78,0.51-2.23,1.3c-0.27,0.47-0.41,1-0.41,1.54v0.09l0,0c-0.01,0.58,0.2,1.14,0.59,1.57
		c0.39,0.41,0.98,0.69,1.14,1.22c0.07,0.22,0.05,0.45,0.11,0.67c0.01,0.03,0.01,0.05,0.02,0.08l-0.03,0.04
		c-0.94,1.2-1.45,2.68-1.45,4.2c0.02,3.04,2,5.71,4.9,6.61c0,0.07,0,0.14,0,0.21c0,0.83-0.24,1.69-0.95,2.31l-6.2,2.48
		c0,0-3.74-0.44-5.08,5.01c-0.22,0.91-0.29,1.84-0.23,2.77c0.05,0.83-0.06,2.27-1.03,4.15c-1.53,3-1.18,9.89,1.95,10.57
		c2.96,0.64,4.11,0.38,4.24,0.35v0.12c-0.05,1.29-0.52,12.44-2.22,13.78c-0.47,0.37-0.38,0.62,0,0.8c0,0,0,0.07-0.01,0.21
		c-0.05,0.83-0.31,3.93-1.45,5.69c-1.32,2.05-1.19,13.84-1.19,13.84l-0.9,6.95c0,0,0.56,4.3,0,5.05c-0.5,0.67-1.16,16.56-1.3,20
		h-0.06c-0.56,0.04-1.06,0.35-1.34,0.83c-0.73,1.19-3.29,3.38-3.29,3.38c-0.56,0.79-2.61,1.55-3.7,1.9
		c-0.14,0.05-0.28,0.11-0.41,0.18c-0.41,0.22-0.73,0.57-0.93,0.98c-0.14,0.25-0.18,0.55-0.1,0.83c0.28,0.68,6.06,1.16,7.52,0.48
		c1.15-0.54,5.7-1.24,7.59-1.52c0.71-0.09,1.26-0.65,1.35-1.35c0.04-0.24-0.03-0.48-0.17-0.68l0,0c-0.36-0.45-0.55-1.67-0.62-2.48
		c0.15-0.06,0.3-0.15,0.43-0.25c-0.16-2.48,0.19-4.96,1.03-7.3c1.39-3.68,1.81-10.5,1.46-14.93c0,0,4.25-18.27,7.59-19.98l0,0
		c0.05,0.07,1.67,2.15,1.88,8.59c0.21,6.55,2.57,10.84,2.57,10.84s-1.05,11.11,0,15.27l-1.37,6.56c-0.1-0.08-0.17-0.15-0.17-0.15
		s0.04,0.18,0.1,0.47l-0.03,0.14l0.06,0.01c0.15,0.83,0.38,2.25,0.29,3.1c-0.05,0.48-0.19,1.13-0.28,1.77
		c-0.14,1.01-0.18,1.99,0.35,2.2c0.87,0.35,5.99,0.83,6.86-0.3c0.4-0.47,0.5-1.12,0.25-1.68c-0.06-0.15-0.15-0.3-0.25-0.43
		c0,0-1.36-2.22-0.98-3.79c0.07-0.31,0.01-0.63-0.16-0.9c0.06-0.77,0.37-4.33,1.17-7.35c0.87-3.28,2.71-10.47,1.36-15.2l0,0
		c-0.05-0.19-0.11-0.37-0.17-0.55c-0.78-2.58-1.04-5.29-0.77-7.98c-0.5-2.29-0.5-4.66,0-6.95c0.84-3.82,1.42-7.57,1.42-7.57
		s0.46-5.05,0.06-8.14c0-0.07-0.02-0.13-0.03-0.21l0.22-0.05c0,0-1.18-5.25-1.6-8.59c-0.1-0.79-0.23-1.79-0.37-2.85
		c0.39-0.06,0.76-0.16,1.13-0.28c3.76-1.3,4.94-13.02,4.94-13.02v-3.72C196.26,94.51,197.52,88.8,193.13,86.28z M165.13,176.82
		c-0.12-0.06-0.18-0.1-0.18-0.1l0,0L165.13,176.82z"/>
	<path class="st3" d="M190.87,153.94c1.63,4.69-0.27,12.3-1.16,15.7c-0.88,3.4-1.15,7.48-1.15,7.48c-3.46,0.54-5.98-0.14-5.98-0.14
		l1.43-7c-1.02-4.14,0-15.22,0-15.22s-2.31-4.28-2.51-10.8c-0.21-6.42-1.78-8.5-1.83-8.56l0,0c-3.26,1.7-7.4,19.91-7.4,19.91
		c0.34,4.42-0.07,11.21-1.43,14.88c-0.82,2.33-1.17,4.8-1.02,7.27c-0.48,0.41-1.14,0.47-1.86,0.36c-1.94-0.31-4.27-1.99-4.27-1.99
		s0.75-19.83,1.29-20.59c0.55-0.75,0-5.03,0-5.03l0.88-6.93c0,0-0.14-11.76,1.15-13.79c1.12-1.76,1.37-4.86,1.42-5.67
		c0-0.13,0-0.21,0-0.21l1.97-2.36c0,0,19.02-1.43,20.45,0c0.35,0.35,0.57,1.15,0.69,2.15c0.39,3.08-0.06,8.11-0.06,8.11
		s-0.57,3.74-1.39,7.54c-0.49,2.28-0.49,4.65,0,6.93C189.84,148.67,190.1,151.37,190.87,153.94z"/>
	<path class="st10" d="M189.68,183.74c-0.85,1.12-5.84,0.65-6.69,0.3c-0.52-0.21-0.48-1.19-0.34-2.2c0.09-0.64,0.22-1.29,0.27-1.77
		c0.13-1.22-0.41-3.7-0.41-3.7s1.12,1.19,1.39,0c0.12-0.52,0.54-0.79,0.97-0.92c0.58-0.18,1.21-0.14,1.76,0.11
		c0.88,0.38,2.35,1.2,2.09,2.3c-0.37,1.56,0.95,3.77,0.95,3.77c0.1,0.13,0.19,0.27,0.25,0.43
		C190.16,182.62,190.06,183.27,189.68,183.74z"/>
	<path class="st5" d="M189.68,183.74c-0.85,1.12-5.84,0.65-6.69,0.3c-0.52-0.21-0.48-1.19-0.34-2.2c0.54,0.25,1.45,0.46,2.97,0.32
		c0.35-0.03,0.71-0.04,1.07-0.03c1.08,0.05,2.17,0.03,3.24-0.07C190.16,182.62,190.07,183.27,189.68,183.74z"/>
	<path class="st5" d="M172.25,155.3c0.34,4.42-0.07,11.21-1.43,14.88c-0.82,2.33-1.17,4.8-1.02,7.27c-0.48,0.41-1.14,0.47-1.86,0.36
		c0.41-2.87,2.16-15.21,3.27-24.97c1.27-11.11,7.23-18.75,7.23-18.75l1.19,1.31C176.39,137.09,172.25,155.3,172.25,155.3z"/>
	<path class="st15" d="M187.64,83.89l-0.83,4.08l-4.06,6.83l-5.01-2.14c0,0-6.82-7.13-2.53-8.15c0.51-0.11,1-0.33,1.42-0.63
		c0.84-0.63,1.11-1.56,1.11-2.46c-0.03-1.01-0.27-2-0.69-2.92l8.76-2.75c-0.36,1.15-0.57,2.34-0.62,3.55
		c-0.07,2.39,0.83,3.56,1.55,4.13C187,83.64,187.31,83.8,187.64,83.89z"/>
	<path class="st5" d="M185.8,75.74c-0.36,1.15-0.57,2.34-0.62,3.55c-0.16,0.19-0.33,0.37-0.51,0.54c-1.84,1.76-4.5,2.37-6.93,1.58
		c-0.03-1.01-0.27-2-0.7-2.92L185.8,75.74z"/>
	<path class="st15" d="M186.81,74.62c0,3.83-3.1,6.93-6.93,6.93s-6.93-3.1-6.93-6.93c0-3.83,3.1-6.93,6.93-6.93c0,0,0,0,0,0
		c3.81-0.02,6.91,3.06,6.93,6.87C186.81,74.58,186.81,74.6,186.81,74.62z"/>
	<path class="st5" d="M187.64,83.89l-0.83,4.08l-4.06,6.83l-5.01-2.14c0,0-6.82-7.13-2.53-8.15c0.51-0.11,1-0.33,1.42-0.63
		c-0.77,2.12,2.42,6.54,2.42,6.54c0.37,0.55,1.22,0.21,1.22,0.21c2.06-0.31,5.84-6.22,6.46-7.21
		C186.99,83.63,187.3,83.8,187.64,83.89z"/>
	<path class="st5" d="M191.56,123.41c-1.21,0.27-7.88,1.75-10.41,1.38c-2.79-0.41-8.2-0.68-8.2-0.68s-3.45,0.19-4.51-0.3
		c0-0.13,0-0.21,0-0.21l1.97-2.36c0,0,19.02-1.43,20.45,0C191.22,121.61,191.43,122.41,191.56,123.41z"/>
	<path class="st6" d="M179.04,90.62c0,0-3.58-4.96-2.23-6.9l-6.06,2.48c0,0-3.64-0.44-4.96,5c-0.21,0.9-0.29,1.83-0.23,2.76
		c0.05,0.83-0.06,2.27-1,4.13c-1.49,2.99-1.15,9.85,1.9,10.54c3.06,0.68,4.14,0.34,4.14,0.34s-0.41,12.43-2.17,13.86
		c-1.76,1.43,4.5,1.09,4.5,1.09s5.42,0.27,8.2,0.68c2.79,0.41,10.6-1.43,10.6-1.43s-1.15-5.23-1.56-8.56
		c-0.41-3.33-1.36-10.42-1.36-10.42l6.93-9.39c0,0,1.22-5.67-3.06-8.19s-5.89-3.13-5.89-3.13s-4.3,7-6.54,7.34
		C180.27,90.82,179.41,91.17,179.04,90.62z"/>
	<path class="st5" d="M171.09,92.59c0,0-0.07,2.24,0.34,3.13c0.41,0.88,1.9,5.78,1.9,5.78h-3.4c0,0,1.83-1.97,1.7-2.92
		C171.5,97.62,171.09,92.59,171.09,92.59z"/>
	<path class="st15" d="M181.15,109.51c0,0-7.5-1.83-8.2-3.4c-0.7-1.56-2.63-5.06-2.63-5.06l0.79-1.07l3.65,2.86
		c0,0,4.34,3.46,6.39,3.81S181.15,109.51,181.15,109.51z"/>
	<path class="st16" d="M181.15,109.51c0,0-7.5-1.83-8.2-3.4c-0.7-1.56-2.63-5.06-2.63-5.06l0.79-1.07l3.65,2.86
		c0,0,4.34,3.46,6.39,3.81S181.15,109.51,181.15,109.51z"/>
	<path class="st15" d="M187.64,100.68v4.07h-0.65c-3.23,0-6.41,0.82-9.24,2.39l-1.23,0.68l-0.33,0.18l-2.11-4.75l1.97-1.77h0.1
		c0.48,0.05,2.57,0.22,3.45-0.08c0.84-0.29,1.88-1.19,4.35-0.56c1.22,0.31,2.26,1.68,3.44,1.25L187.64,100.68z"/>
	<path class="st5" d="M194.19,93.26l1.36,1.53v3.7c0,0-1.15,11.69-4.82,12.98c-3.67,1.29-10.22-0.75-10.22-0.75s-1.69-4.48-0.9-4.75
		s6.99-1.91,6.99-1.91s-0.09-6.86,1.27-8.89c0,0-0.88-6.39,2.18-6.52S194.19,93.26,194.19,93.26z"/>
	<path class="st6" d="M194.4,93.26l1.36,1.53v3.7c0,0-1.15,11.69-4.82,12.98c-3.67,1.29-10.22-0.75-10.22-0.75s-1.69-4.48-0.9-4.75
		c0.79-0.27,6.99-1.91,6.99-1.91s-0.09-6.86,1.27-8.89c0,0-0.88-6.39,2.17-6.52S194.4,93.26,194.4,93.26z"/>
	<path class="st5" d="M184.91,77.56c0.06-0.45,0.01-0.9-0.15-1.32c-0.19-0.41-0.64-0.73-1.08-0.62c-0.58,0.14-0.83,0.89-1.4,1.07
		c-0.48,0.15-1.01-0.19-1.24-0.64c-0.23-0.45-0.24-0.98-0.24-1.48c0-0.57,0-1.13,0-1.7c0-0.62-0.02-1.29-0.4-1.77
		c-0.47-0.6-1.59-0.87-2.33-0.84c-0.49,0.01-0.97,0.2-1.33,0.54c-0.4,0.34-0.86,0.59-1.4,0.5c-0.46-0.07-0.84-0.4-0.98-0.84v-0.02
		c2.3-3.06,6.64-3.67,9.7-1.37c3.06,2.3,3.67,6.64,1.37,9.7c-0.23,0.31-0.49,0.6-0.77,0.87C184.78,78.94,184.86,78.25,184.91,77.56z
		"/>
	<path class="st17" d="M175.34,71.09c-0.46-0.07-0.84-0.4-0.98-0.85c-0.06-0.22-0.04-0.45-0.11-0.67c-0.16-0.54-0.73-0.81-1.11-1.22
		c-0.76-0.81-0.71-2.15-0.17-3.12c0.44-0.79,1.29-1.45,2.17-1.3c0.55,0.1,1.03,0.49,1.58,0.52c0.55,0.04,1.03-0.27,1.51-0.49
		c1.18-0.54,2.51-0.65,3.76-0.33c0.39,0.08,0.74,0.26,1.03,0.52c0.2,0.25,0.38,0.51,0.55,0.77c0.63,0.81,1.77,0.96,2.78,1.15
		c1.01,0.18,2.15,0.58,2.48,1.55c0.22,0.64,0,1.34-0.12,2.01c-0.04,0.14-0.03,0.28,0.03,0.41c0.16,0.26,0.55,0.15,0.85,0.21
		c0.57,0.12,0.72,0.86,0.74,1.45c0.02,0.67,0.04,1.34,0.05,2.01c0.02,0.25,0,0.5-0.06,0.74c-0.12,0.35-0.32,0.67-0.58,0.94
		l-2.24,2.7c-1,1.19-2.05,2.59-1.86,4.13c-0.47,0.21-1.03-0.2-1.19-0.69c-0.15-0.49-0.03-1.03,0.07-1.53
		c0.18-0.88,0.3-1.76,0.36-2.65c0.06-0.45,0.01-0.9-0.15-1.32c-0.19-0.41-0.64-0.73-1.08-0.62c-0.58,0.14-0.83,0.89-1.4,1.07
		c-0.48,0.15-1.01-0.19-1.24-0.64c-0.23-0.45-0.24-0.97-0.24-1.48v-1.7c0-0.62-0.02-1.29-0.4-1.77c-0.47-0.6-1.59-0.87-2.33-0.84
		c-0.49,0.01-0.97,0.2-1.33,0.54C176.34,70.93,175.88,71.18,175.34,71.09z"/>
	<path class="st5" d="M176.9,92.42l2.13,8.74C179.03,101.16,180.71,101.15,176.9,92.42z"/>
	<path class="st5" d="M184.17,90.96c0,0-2.79,4.56-1.7,9.28l0.52,0.04C182.99,100.28,182.07,98.09,184.17,90.96z"/>
	<path class="st5" d="M185.93,116.78c0,0,3.42-1.13,3.67,1.49C189.61,118.27,188.96,116.47,185.93,116.78z"/>
	<path class="st5" d="M176.05,101.69c0,0-0.68,4.75,0.54,6.66c0,0-2.48,1.02-5.98,0.82l-0.41-7.48L176.05,101.69z"/>
	<path class="st5" d="M176.52,107.82l-0.33,0.18l-2.11-4.75l1.97-1.77h0.1l0,0C176.12,101.72,175.57,105.8,176.52,107.82z"/>
	<path class="st6" d="M176.05,101.49c0,0-0.68,4.75,0.54,6.66c0,0-2.48,1.02-5.98,0.82l-2.38-7.47L176.05,101.49z"/>
	<path class="st10" d="M170.18,180.85c-0.08,0.7-0.62,1.25-1.32,1.35c-1.85,0.27-6.29,0.98-7.41,1.51
		c-1.43,0.68-7.07,0.21-7.34-0.48c-0.08-0.28-0.04-0.58,0.1-0.83c0.19-0.41,0.51-0.76,0.91-0.98c0.13-0.07,0.27-0.13,0.41-0.18
		c1.06-0.35,3.07-1.11,3.61-1.89c0,0,2.5-2.19,3.21-3.37c0.27-0.47,0.76-0.78,1.31-0.81c0.6-0.03,1.26,0.27,1.53,1.58
		c0,0,3.26,1.86,4.13,0.23c0,0,0.14,2.5,0.68,3.19l0,0C170.15,180.35,170.21,180.6,170.18,180.85z"/>
	<path class="st5" d="M170.18,180.85c-0.08,0.7-0.62,1.25-1.32,1.35c-1.85,0.27-6.29,0.98-7.41,1.51c-1.43,0.68-7.07,0.21-7.34-0.48
		c-0.08-0.28-0.04-0.58,0.1-0.83c0.19-0.41,0.51-0.76,0.91-0.98c0.92,0.62,2.96,1.21,7.45,0.51c4.28-0.67,6.4-1.32,7.44-1.77l0,0
		C170.15,180.36,170.21,180.6,170.18,180.85z"/>
	<g class="st11">
		<path d="M188.72,69.74v-0.03c0.1-0.51,0.24-1.03,0.21-1.54c-0.04,0.42-0.11,0.83-0.21,1.24
			C188.69,69.51,188.69,69.63,188.72,69.74z"/>
		<path d="M184.75,76.1c0.11,0.24,0.17,0.51,0.17,0.78c0.03-0.37-0.03-0.74-0.17-1.08c-0.19-0.41-0.64-0.73-1.08-0.62
			c-0.58,0.14-0.83,0.89-1.4,1.07c-0.48,0.15-1-0.19-1.24-0.64s-0.24-0.98-0.24-1.48c0-0.57,0-1.13,0-1.7c0-0.62-0.02-1.29-0.4-1.77
			c-0.48-0.61-1.59-0.87-2.33-0.85c-0.5,0.01-0.97,0.2-1.33,0.54c-0.4,0.34-0.86,0.59-1.4,0.5c-0.46-0.07-0.84-0.4-0.98-0.84
			c-0.06-0.22-0.04-0.45-0.11-0.67c-0.16-0.53-0.73-0.81-1.11-1.22c-0.36-0.4-0.56-0.91-0.57-1.45c-0.06,0.63,0.15,1.26,0.57,1.74
			c0.38,0.41,0.95,0.68,1.11,1.22c0.06,0.21,0.05,0.45,0.11,0.67c0.14,0.45,0.52,0.77,0.98,0.84c0.54,0.09,1-0.16,1.4-0.5
			c0.36-0.34,0.84-0.53,1.33-0.54c0.74-0.02,1.86,0.24,2.33,0.85c0.38,0.49,0.4,1.15,0.4,1.77c0,0.57,0,1.13,0,1.7
			c0,0.5,0,1.03,0.24,1.48c0.24,0.44,0.75,0.79,1.24,0.64c0.57-0.18,0.83-0.94,1.4-1.07C184.11,75.37,184.56,75.7,184.75,76.1z"/>
		<path d="M190.34,74.23c-0.12,0.35-0.32,0.67-0.58,0.93l-2.24,2.7c-0.94,1.13-1.94,2.45-1.86,3.9c0.07-1.33,0.99-2.54,1.86-3.59
			l2.24-2.7c0.26-0.27,0.45-0.59,0.58-0.93c0.06-0.24,0.08-0.5,0.06-0.75C190.39,73.94,190.37,74.09,190.34,74.23z"/>
		<path d="M184.48,81.3c-0.04-0.12-0.06-0.24-0.07-0.36c-0.02,0.23,0,0.45,0.07,0.67c0.15,0.49,0.71,0.9,1.19,0.69
			c-0.01-0.1-0.02-0.2-0.02-0.3C185.17,82.19,184.63,81.79,184.48,81.3z"/>
	</g>
	<path class="st5" d="M161.9,176.6c0,0,0.71,1.24,3.29,0.15"/>
	<path class="st5" d="M183.66,176.9c0,0,2.22,2.61,5.02,0.86"/>
	<path class="st5" d="M190.12,145.99c0,0-1.57,0.98-1.62,1.54s0.81-0.41,0.81-0.41L190.12,145.99z"/>
	<path class="st5" d="M190.74,153.51c-0.55,0.45-1.22,0.72-1.93,0.75c-1.17,0.05-1.07,1.58-0.31,1.12
		C189.26,154.92,190.74,153.51,190.74,153.51z"/>
	<path class="st5" d="M191.03,154.49c0,0-0.75,3.7-1.36,2.98"/>
	
		<linearGradient id="SVGID_4_" gradientUnits="userSpaceOnUse" x1="649.5923" y1="-0.7974" x2="649.5923" y2="120.8498" gradientTransform="matrix(-1 0 0 -1 715.71 181.86)">
		<stop  offset="0" style="stop-color:#808080;stop-opacity:0.25"/>
		<stop  offset="0.54" style="stop-color:#808080;stop-opacity:0.12"/>
		<stop  offset="1" style="stop-color:#808080;stop-opacity:0.1"/>
	</linearGradient>
	<path class="st18" d="M45.74,182.19c0,0,4.72,1.3,6.99-0.43c2.27-1.72,3.26-1.17,3.26-1.17s5.42-0.3,5.87-1.58
		c0.45-1.28-2.08-5.93-2.08-5.93c-0.18-0.41-0.44-0.94-0.56-0.94l0.02-1.96l0,0l0.79-8.21c1.81-4.65,0.03-10.65,0.03-10.65
		l-0.32-1.49c-0.18-0.84-0.07-1.71,0.31-2.48l3.29-6.61c0.18-0.44,0.38-0.86,0.62-1.27c0.21-0.38,0.48-0.85,0.83-1.4
		c0.1-0.16,0.21-0.33,0.32-0.5c0.4-0.62,0.88-1.32,1.47-2.13c1.46-2.02,2.22-4.55,2.62-6.4l0.18,0.58h0.01h0.03l0,0l0.05,0.01l0,0
		h0.07h0.01l0.08,0.01h0.03l1.01,12.88c0.06,5.02,1.91,7.81,1.91,7.81l-0.25,11.09c0.35,2.67-0.41,6.23-0.76,7.65l-0.8,1.8
		c-0.64,0.32-1.08,0.93-1.18,1.64c-0.16,1.33-1.56,4.19-1.56,4.19c-0.54,0.69-1.72,2.54-1.72,2.54s-0.55,1.79-0.21,2.46
		c0.34,0.67,3.21,0.6,3.21,0.6c3.27,0.73,5.78-1.03,5.63-2.24c-0.16-1.21,0.51-1.52,0.51-1.52c1.3-0.41,1.18-1.3,1.18-1.3
		c0.28-1.82-0.07-3.68-0.99-5.28l-0.21,0.48c-0.06-0.96,0.08-1.91,0.39-2.82l-0.12,0.08l-0.04,0.02h-0.01
		c0.21-1.81,2.11-5.17,2.11-5.17c3.5-6.13,2.23-14.44,2.23-14.44l-0.54-2.59l-0.03-0.98c-0.07-2.33,0.1-4.67,0.53-6.96
		c0.19-1.02,0.38-2.24,0.53-3.6c0.31-2.86,1.33-5.81,1.79-7.06l0.14-0.02h0.02c0.19-0.03,0.38-0.07,0.58-0.1h0.04
		c0,0,0.11-0.6,0.21-1.63c0.06-0.65,0.1-1.49,0.1-2.44c0.01-2.88-0.43-5.75-1.3-8.49l0.11-0.15c0,0,0.25-0.34,0.71-0.93l0,0
		c0.84-1.07,2.14-2.69,3.75-4.51c2.88-3.29,2.04-6.61,2.04-6.61s-2.09-7.65-3.02-12.24c-0.53-2.62-1.53-4.39-2.29-5.44
		c0.17-0.72,0.27-1.46,0.29-2.21c0.06-1.36,0.01-2.78-0.6-4c-0.61-1.22-1.91-2.19-3.27-2.02c-0.19,0.05-0.39,0.05-0.59,0
		c-0.16-0.07-0.29-0.19-0.39-0.34c-0.8-1.1-0.85-2.57-0.6-3.9c0.25-1.33,0.76-2.6,0.98-3.94c0.23-1.33,0.12-2.82-0.73-3.87
		c-1-1.24-2.74-1.59-4.04-2.52c-0.91-0.65-1.6-1.6-2.56-2.18c-0.96-0.58-1.86-0.36-2.9-0.14c-1.75,0.37-3.42,0.54-5.08,1.29
		c-1.68,0.76-3.19,1.86-4.43,3.22c-0.44,0.44-0.78,0.97-0.99,1.56c-0.41,1.37,0.39,2.82,0.23,4.23c-0.12,1-0.71,1.87-1.18,2.77
		c-0.47,0.89-0.83,1.96-0.46,2.89c0.58,1.46,2.46,1.77,3.84,2.55c0.18,0.09,0.34,0.23,0.45,0.39c0.34,0.59-0.35,1.2-0.79,1.73
		c-0.25,0.31-0.43,0.67-0.52,1.05c-1.15,0.47-2,1.49-2.25,2.71c-0.46,2.08,0.25,4.71,0.88,6.44c-0.69,3.87,0.21,5.39,0.87,5.98
		c0.67,0.57,1.08,1.38,1.15,2.26v0.07c0.04,0.7,0.12,1.4,0.22,2.1l0,0c-0.02-0.16-0.05-0.34-0.06-0.41c-0.54,1-1.57,3.55-2.14,7.84
		c-0.12,0.92-0.29,1.83-0.52,2.73c-0.41,1.59-0.56,3.24-0.44,4.88l0.1,1.39c-0.1,0-0.2-0.03-0.28-0.09l0.73,1.33v2.24
		c0,1.01-0.19,2.01-0.55,2.96c-0.05,0.14-0.11,0.27-0.17,0.41c-0.19,0.38-0.27,0.8-0.24,1.22c-1.56,2.39-5.14,15.79-5.14,15.79
		c-1.94,4.39,0.16,7.23,0.16,7.23s1.02,12.23,1.21,12.86s0.61,8.09,0.61,8.09l0,0c0,0.2,0,0.4,0,0.59c-0.11-0.05-0.23-0.08-0.35-0.1
		c-1.7-0.1-2.16,2.59-2.16,2.59l-3.48,3.32c0,0-1.59-0.27-3.93,1.49C41.9,180.59,45.74,182.19,45.74,182.19z M80.48,111.51
		l-0.01-0.04l-0.1,0.06l0,0l-0.04,0.02l-0.02,0.01l0,0l-1.6-5.66c-0.43-1.52-0.47-3.12-0.12-4.65l1.24-5.43l0,0v-1.31l3.94,10.5
		C84.03,106.43,81.69,109.86,80.48,111.51z"/>
	<path class="st2" d="M82.21,128.59c0,0-1.59,3.87-2,7.58c-0.15,1.34-0.34,2.55-0.52,3.55c-0.41,2.27-0.58,4.57-0.51,6.87l0.03,0.96
		l0.52,2.56c0,0,1.24,8.21-2.18,14.26c0,0-2.03,3.62-2.09,5.34l-1.37,0.53l-2.78-0.78c0,0,1.34-4.81,0.9-8.18l0.25-10.95
		c0,0-1.8-2.74-1.87-7.7l-1.06-13.61L82.21,128.59z"/>
	<path class="st2" d="M69.54,126.65c0,0-0.34,5.31-2.96,8.96c-2.62,3.66-3.18,5.24-3.18,5.24l-3.23,6.53
		c-0.37,0.76-0.48,1.62-0.3,2.44l0.32,1.47c0,0,1.75,5.93-0.03,10.52l-0.84,8.86h-4.93c0,0-0.41-7.37-0.59-7.99
		c-0.18-0.62-1.19-12.7-1.19-12.7s-2.07-2.81-0.16-7.15c0,0,4.31-16.23,5.46-15.95S69.54,126.65,69.54,126.65z"/>
	<g class="st11">
		<path d="M59.67,151.32l-0.32-1.47c-0.18-0.83-0.08-1.69,0.3-2.45l3.23-6.54c0,0,0.56-1.59,3.18-5.24
			c2.52-3.51,2.93-8.55,2.96-8.93l0.5-0.02c0,0-0.34,5.31-2.96,8.96c-2.62,3.66-3.18,5.24-3.18,5.24l-3.23,6.53
			c-0.37,0.76-0.48,1.62-0.3,2.44l0.32,1.47c0,0,1.75,5.93-0.03,10.52l-0.84,8.86h-0.5l0.84-8.86
			C61.42,157.24,59.67,151.32,59.67,151.32z"/>
	</g>
	<path class="st5" d="M74.97,169.72c0.06-1.71,2.09-5.34,2.09-5.34c3.43-6.05,2.18-14.26,2.18-14.26l-0.53-2.56l-0.03-0.96
		c-0.07-2.3,0.1-4.61,0.51-6.87c0.18-1,0.37-2.21,0.52-3.55c0.39-3.57,1.88-7.29,1.99-7.57l0.51-0.02c0,0-1.59,3.87-2,7.58
		c-0.15,1.34-0.34,2.55-0.52,3.55c-0.41,2.27-0.58,4.57-0.51,6.87l0.03,0.96l0.52,2.56c0,0,1.24,8.21-2.18,14.26
		c0,0-2.03,3.62-2.09,5.34l-1.37,0.53l-0.29-0.08L74.97,169.72z"/>
	<path class="st19" d="M73.38,169.66c0.76,0.3,1.61,0.19,2.27-0.28c-0.45,1.33-0.52,2.76-0.19,4.12c0.56,2.25-5.24-1.81-5.24-1.81
		l1.24-2.83C71.46,168.86,71.94,169.75,73.38,169.66z"/>
	<path class="st5" d="M73.81,169.79c0.65,0.13,1.32-0.02,1.84-0.41c-0.45,1.33-0.52,2.76-0.19,4.12c0.56,2.25-5.24-1.81-5.24-1.81
		l1.24-2.83c0,0,0.36,0.69,1.42,0.8C73.2,169.68,73.51,169.73,73.81,169.79z"/>
	<polygon class="st2" points="60.21,117.15 62.63,117.15 62.63,103.39 60.81,103.07 	"/>
	<polygon class="st16" points="60.21,117.15 62.63,117.15 62.63,103.39 60.81,103.07 	"/>
	<path class="st20" d="M72,170.72c0,0,1.53-0.1,2.21,1.28l0.84,0.65l0.41-0.97c0.9,1.58,1.23,3.42,0.95,5.21
		c0,0,0.12,0.87-1.15,1.28c0,0-0.65,0.31-0.5,1.5c0.15,1.19-2.31,2.93-5.52,2.21c0,0-2.81,0.06-3.15-0.59
		c-0.34-0.66,0.22-2.4,0.22-2.4s1.15-1.83,1.68-2.51c0,0,1.37-2.83,1.53-4.13C69.69,170.96,71.19,170,72,170.72z"/>
	<path class="st19" d="M59.35,171.88l0.02-1.94c0,0-2.79,0.8-5.05-0.11c0,0,0.19,1.95-0.12,2.22c-0.31,0.27,1.05,2.78,1.05,2.78
		l1.52,1.59l2.61-0.95l0.71-2.23C60.08,173.23,59.53,171.88,59.35,171.88z"/>
	<path class="st5" d="M59.35,171.88l0.02-1.94c0,0-2.79,0.8-5.05-0.11c0,0,0.19,1.95-0.12,2.22c-0.31,0.27,1.05,2.78,1.05,2.78
		l1.52,1.59l2.61-0.95l0.71-2.23C60.08,173.23,59.53,171.88,59.35,171.88z"/>
	<path class="st20" d="M54.03,171.17c0,0,1.48,0.17,1.3,2.07c-0.19,1.89,0.08,0,0.08,0s1.58,0.64,2.14,1.53
		c0.56,0.89,1.58-0.8,1.65-1.28c0.08-0.48,0.71-0.68,0.71-0.68s2.48,4.6,2.04,5.86c-0.44,1.26-5.76,1.56-5.76,1.56
		s-0.97-0.55-3.2,1.15c-2.23,1.7-6.87,0.41-6.87,0.41s-3.78-1.58-1.48-3.31s3.85-1.47,3.85-1.47l3.42-3.29
		C51.9,173.73,52.36,171.08,54.03,171.17z"/>
	<path class="st21" d="M71.74,62.5c0.94,0.57,1.62,1.5,2.51,2.15c1.27,0.92,2.98,1.26,3.96,2.49c0.83,1.05,0.93,2.51,0.71,3.82
		c-0.22,1.32-0.72,2.58-0.96,3.89c-0.24,1.31-0.19,2.77,0.59,3.85c0.09,0.15,0.22,0.26,0.38,0.33c0.19,0.05,0.39,0.05,0.58,0
		c1.33-0.16,2.62,0.79,3.21,2s0.65,2.61,0.58,3.95c-0.05,1.1-0.18,2.23-0.66,3.22c-0.83,1.69-2.55,2.73-4.24,3.52
		c-1.1,0.52-2.23,0.97-3.39,1.37c-0.79,0.27-1.63,0.51-2.45,0.37c-1.41-0.24-2.41-1.53-3.75-2.03c-1.1-0.41-2.31-0.26-3.48-0.16
		c-1,0.09-2.13,0.08-2.82-0.64c-0.88-0.93-0.48-2.44-0.03-3.64c-1.43-0.09-2.51-1.32-2.42-2.75c0.03-0.55,0.24-1.07,0.59-1.49
		c0.43-0.52,1.11-1.12,0.77-1.71c-0.11-0.17-0.27-0.3-0.45-0.39c-1.35-0.77-3.2-1.08-3.76-2.52c-0.36-0.93-0.01-1.98,0.45-2.86
		c0.46-0.88,1.03-1.75,1.16-2.73c0.17-1.4-0.62-2.83-0.22-4.18c0.21-0.58,0.54-1.1,0.97-1.54c1.21-1.34,2.69-2.43,4.34-3.18
		c1.63-0.75,3.26-0.91,4.99-1.28C69.92,62.14,70.77,61.91,71.74,62.5z"/>
	<path class="st2" d="M62.63,83.3c0,0-3.95-0.21-4.7,3.16c-0.75,3.37,1.62,8.2,1.62,8.2L62.63,83.3z"/>
	<path class="st16" d="M62.63,83.3c0,0-3.95-0.21-4.7,3.16c-0.75,3.37,1.62,8.2,1.62,8.2L62.63,83.3z"/>
	<path class="st2" d="M60.11,93.32l1.5,1.19l6.99,0.31l4.36-3l4.44-7.62c-2.71-0.69-3.81-2.57-4.22-4.32
		c-0.26-1.19-0.29-2.41-0.09-3.61c0,0-7.12-3.68-6.24,2.07c0.12,0.71,0.14,1.42,0.07,2.14c-0.41,3.37-3.68,2.73-3.68,2.73
		l-1.25,1.93l-1.44,4.75L60.11,93.32z"/>
	<path class="st5" d="M66.85,78.34c0.12,0.71,0.14,1.42,0.07,2.14c2.04,0.93,4.43,0.71,6.26-0.59c-0.26-1.19-0.29-2.41-0.09-3.61
		C73.1,76.29,65.98,72.6,66.85,78.34z"/>
	<circle class="st2" cx="69.54" cy="74.5" r="6.3"/>
	<path class="st6" d="M65.08,92.12c0.15,0,0.3,0.02,0.45,0.04c0.83,0.08,4.28,0.27,6.25-2.08c2.2-2.63,5.13-5.87,5.25-6.01l0,0
		l2.98,0.9c0,0-2.36-0.84-3.93,3.55c-0.71,1.89-0.08,4.02,1.54,5.23c0.58,0.42,1.25,0.7,1.95,0.83c0,0,0,0.01,0,0.01v1.93l0,0
		l-1.22,5.37c-0.35,1.52-0.31,3.1,0.12,4.6l1.86,6.57l0,0c-0.28,0.19-11.82,8.04-19.52,2.62l0,0c0.03-0.24,0.98-7.95,0.32-11.72
		c-0.17-0.97-0.28-1.94-0.35-2.92c0-0.02,0-0.05,0-0.07c-0.07-0.86-0.47-1.67-1.13-2.23c-0.69-0.62-1.63-2.27-0.7-6.64
		c0.23-1.08,0.58-2.14,1.03-3.15l2.58-5.84l0,0l2.38,0.05 M64.95,83.17c-0.21,0.26-2.97,3.71-3.27,5.93
		c-0.29,2.11-0.65,2.76,3.4,3.02L64.95,83.17z"/>
	<path class="st2" d="M82.02,86c0,0,2.33,2,3.25,6.53c0.92,4.54,2.95,12.07,2.95,12.07s0.83,3.29-2,6.53s-4.7,5.78-4.7,5.78
		l-1.86,2.74c-0.32,0.47-0.79,0.8-1.34,0.95c-0.85,0.22-2.15,0.38-3.28-0.23c-0.85-0.48-1.21-1.51-0.83-2.41l0.41-0.96
		c0,0-3.83,2.41-4.16,1.08c-0.33-1.33,4.45-2.66,4.45-2.66s3.95-0.67,4.75-2.54c0,0,4.24-5.45,3.91-7.32l-4.1-10.99
		c0,0-5.13-0.68-3.38-6.44C77.86,82.38,82.02,86,82.02,86z"/>
	<path class="st3" d="M57.51,127.45c0,0,9.36,1.87,11.57,1.62l0.24,0.79c0,0,3.55,0.8,11.59-0.48c0.52-0.08,1.07-0.18,1.63-0.28
		l0.19-0.03c0,0,0.11-0.6,0.2-1.61c0.19-2.3,0.26-6.76-1.36-11.33l-1.35-4.16c0,0-8.35,5.01-13.88,4.55
		c-0.49-0.04-0.98-0.08-1.48-0.1c-1.13-0.04-2.89,0-4.04-0.92l-2.4,0.41v6.82c0,1-0.18,1.99-0.54,2.92
		c-0.05,0.14-0.11,0.27-0.17,0.41C57.5,126.49,57.43,126.97,57.51,127.45z"/>
	<path class="st5" d="M69.32,127.74v2.12c0,0,4.09,0.92,13.41-0.79c0,0,0.11-0.6,0.2-1.61C80.06,127.92,72.18,129.02,69.32,127.74z"
		/>
	<path class="st5" d="M57.51,127.45c0,0,9.36,1.87,11.57,1.62l0.24,0.79v-2.12c-1.07,0.44-8.68-1.39-11.44-2.08
		c-0.05,0.14-0.11,0.27-0.17,0.41C57.5,126.49,57.43,126.98,57.51,127.45z"/>
	<path class="st22" d="M80.21,125.08l0.69,4.31c0.52-0.08,1.07-0.18,1.63-0.28c-0.22-1.26-0.69-4.13-0.56-4.61l-0.87-0.75
		L80.21,125.08z"/>
	<path class="st23" d="M80.31,124.99l0.69,4.31c0.52-0.08,1.07-0.18,1.63-0.28c-0.22-1.26-0.69-4.13-0.56-4.61l-0.87-0.75
		L80.31,124.99z"/>
	<g class="st24">
		<path d="M65.83,116.51c-0.49-0.04-0.98-0.08-1.48-0.1c-1.1-0.04-2.79,0-3.94-0.85l0.4-0.07c1.15,0.91,2.89,0.87,4.04,0.92
			c0.49,0.02,0.98,0.06,1.48,0.1c0.16,0.01,0.33,0.02,0.49,0.03C66.49,116.55,66.16,116.54,65.83,116.51z"/>
		<path d="M80.41,129.38c0.52-0.08,1.07-0.17,1.63-0.28l0.19-0.04c0,0,0.11-0.6,0.19-1.61c0.19-2.3,0.26-6.76-1.36-11.33l-1.27-3.93
			c0.27-0.15,0.41-0.24,0.41-0.24l1.35,4.16c1.62,4.57,1.55,9.03,1.36,11.33c-0.09,1.01-0.2,1.61-0.2,1.61l-0.19,0.04
			c-0.56,0.1-1.11,0.19-1.63,0.28c-3.75,0.6-6.53,0.74-8.42,0.72C75.14,130.06,77.79,129.82,80.41,129.38z"/>
		<path d="M68.58,129.07v0.02h-0.27C68.41,129.08,68.5,129.08,68.58,129.07z"/>
	</g>
	<ellipse class="st19" cx="81.37" cy="125.16" rx="0.35" ry="0.73"/>
	<path class="st2" d="M58.83,110.43c0.57-4.24,1.58-6.75,2.11-7.74c0.02,0.13,0.07,0.57,0.1,0.7c0.11,0.62,0.01,1.4,0.05,2.19
		l-0.53,9.58l0.71,3c0.67,2.37-1.8,0.5-1.8,0.5c-0.51,1.12-1.45,1-1.45,1l-0.13-1.72c-0.12-1.62,0.02-3.25,0.43-4.82
		C58.54,112.23,58.71,111.33,58.83,110.43z"/>
	<path class="st16" d="M58.83,110.43c0.57-4.24,1.58-6.75,2.11-7.74c0.02,0.13,0.07,0.57,0.1,0.7c0.11,0.62,0.01,1.4,0.05,2.19
		l-0.53,9.58l0.71,3c0.67,2.37-1.8,0.5-1.8,0.5c-0.51,1.12-1.45,1-1.45,1l-0.13-1.72c-0.12-1.62,0.02-3.25,0.43-4.82
		C58.54,112.23,58.71,111.33,58.83,110.43z"/>
	<path class="st2" d="M82.54,115.6c-0.45,0.58-0.69,0.91-0.69,0.91l-1.86,2.74c-0.32,0.47-0.79,0.8-1.34,0.95
		c-0.85,0.22-2.15,0.39-3.28-0.23c-0.85-0.47-1.21-1.51-0.83-2.41l0.41-0.96c0,0-3.83,2.41-4.16,1.08
		c-0.33-1.33,4.45-2.66,4.45-2.66s3.95-0.67,4.75-2.54c0,0,0.35-0.44,0.83-1.12"/>
	<path class="st22" d="M80.21,120.19c0,0-4.53-0.44-5.96-3.03l-0.66,2.14c0,0,4.75,3.28,5.84,2.86L80.21,120.19z"/>
	<path class="st23" d="M80.05,120.16c0,0-4.52-0.44-5.96-3.03l-0.65,2.13c0,0,4.75,3.28,5.83,2.86L80.05,120.16z"/>
	<path class="st22" d="M59.61,118.98c0,0-1.58,0.56-1.9,0.25l0.71,1.31l1.35-1.03L59.61,118.98z"/>
	<path class="st5" d="M59.61,118.98c0,0-1.58,0.56-1.9,0.25l0.71,1.31l1.35-1.03L59.61,118.98z"/>
	<polygon class="st5" points="69.32,127.74 69.32,125 68.67,127.8 	"/>
	<path class="st5" d="M75.74,71.17c-0.38,0.54-1.05,0.81-1.7,0.89c-0.65,0.08-1.31,0.01-1.97,0c-1.03-0.02-2.13,0.14-2.98,0.75
		c-0.54,0.39-0.94,0.93-1.37,1.45c-1.28,1.56-3.05,3.02-5.06,2.86c-0.35,0-0.69-0.14-0.94-0.4c-0.16-0.25-0.25-0.55-0.24-0.86
		c-0.09-1.29-0.05-2.58,0.12-3.86c0.08-0.79,0.28-1.57,0.58-2.3c0.36-0.74,0.83-1.41,1.4-2c0.69-0.8,1.52-1.46,2.44-1.96
		c0.94-0.5,2.02-0.64,3.06-0.39c1.2,0.33,2.14,1.27,3.29,1.76C73.69,67.66,77.17,69.14,75.74,71.17z"/>
	<path class="st21" d="M75.74,70.92c-0.38,0.54-1.05,0.81-1.7,0.89c-0.65,0.08-1.31,0.01-1.97,0c-1.03-0.02-2.13,0.14-2.98,0.75
		c-0.54,0.39-0.94,0.93-1.37,1.45c-1.28,1.56-3.05,3.02-5.06,2.86c-0.35,0-0.69-0.14-0.94-0.4c-0.16-0.25-0.25-0.55-0.24-0.86
		c-0.09-1.29-0.05-2.58,0.12-3.86c0.08-0.79,0.28-1.57,0.58-2.3c0.36-0.74,0.83-1.41,1.4-2c0.69-0.8,1.52-1.46,2.44-1.96
		c0.94-0.5,2.02-0.64,3.06-0.39c1.2,0.33,2.14,1.27,3.29,1.76C73.69,67.41,77.17,68.88,75.74,70.92z"/>
	<polygon class="st2" points="60.82,115.5 60.81,116.25 60.64,115.53 	"/>
	<polygon class="st16" points="60.82,115.5 60.81,116.25 60.64,115.53 	"/>
	<g class="st24">
		<path d="M76.76,87.74c-1.75,5.76,3.35,6.43,3.35,6.43l4.1,10.99c0.33,1.87-3.91,7.32-3.91,7.32c-0.3,0.7-1.03,1.23-1.84,1.62
			c0.47-0.29,0.85-0.7,1.09-1.2c0,0,4.24-5.45,3.91-7.32l-4.1-10.99c0,0-5.1-0.68-3.35-6.43c0.58-1.92,1.45-2.8,2.32-3.11
			C77.72,85.54,77.17,86.37,76.76,87.74z"/>
	</g>
	<g class="st11">
		<path d="M76.84,92.98c0.24,0.3,0.52,0.56,0.83,0.78c0.58,0.42,1.25,0.7,1.95,0.83c0,0,0,0,0,0.01v0.21
			c-0.64-0.14-1.24-0.4-1.77-0.78C77.46,93.73,77.12,93.38,76.84,92.98z"/>
		<path d="M60.99,101.21c0,0.02,0,0.05,0,0.07c0.06,0.98,0.18,1.96,0.36,2.93c0.62,3.56-0.19,10.63-0.31,11.61
			c-0.07-0.04-0.13-0.08-0.21-0.13l0,0c0.03-0.24,0.98-7.95,0.32-11.72c-0.17-0.97-0.28-1.94-0.35-2.92c0-0.02,0-0.05,0-0.07
			c-0.04-0.57-0.23-1.11-0.56-1.58C60.68,99.91,60.94,100.55,60.99,101.21z"/>
		<path d="M64.79,83.39l-2.02-0.04c0,0-0.01,0-0.01,0l-2.58,5.84c-0.45,1.01-0.8,2.07-1.03,3.15c-0.75,3.53-0.28,5.29,0.3,6.16
			c-0.65-0.76-1.31-2.5-0.48-6.4c0.23-1.08,0.57-2.14,1.02-3.15l2.6-5.84l0,0l2.38,0.05 M64.97,83.17c-0.02,0.02-0.08,0.1-0.17,0.22
			L64.97,83.17z"/>
		<path d="M80.02,84.97l0.04,0.01L80.02,84.97z"/>
		<path d="M79.28,84.94l-2.02-0.61 M77.24,84.33c-0.12,0.13-3.05,3.38-5.25,6.01c-1.97,2.35-5.42,2.17-6.25,2.08
			c-0.15-0.02-0.3-0.03-0.45-0.04c-2.26-0.14-3.15-0.41-3.44-0.98c0.42,0.41,1.36,0.62,3.26,0.74c0.15,0,0.3,0.02,0.45,0.04
			c0.83,0.08,4.28,0.27,6.25-2.08c2.2-2.63,5.13-5.88,5.25-6.01l0,0l2.95,0.89c-0.24-0.06-0.48-0.07-0.73-0.03L77.24,84.33z"/>
	</g>
	<path class="st5" d="M55.31,174.18c0,0-2.85,0.78-3.4-0.44"/>
	<path class="st5" d="M73.41,173.59c0,0-3.31,0.85-4.07-0.47"/>
	<ellipse class="st0" cx="40.22" cy="165.62" rx="5.56" ry="0.94"/>
	<ellipse class="st0" cx="18.3" cy="178.95" rx="5.56" ry="0.94"/>
</g>
</svg>
