<svg id="Layer_1" data-name="Layer 1" xmlns="http://www.w3.org/2000/svg" viewBox="0 0 236 200"><defs><style>.cls-1{fill:#414142;}.cls-2{fill:#ffb8b8;}.cls-3{fill:#f2918f;}.cls-4{fill:#6ac5ac;}.cls-5{fill:#00bfa6;}</style></defs><title>become-an-ambassador</title><rect class="cls-1" x="20.38" y="112.21" width="45.48" height="42.55"/><path class="cls-1" d="M84.45,169.55H1.8V97.42H84.45Zm-82.16-.49H84V97.91H2.29Z"/><path class="cls-1" d="M199.61,136.91a33,33,0,1,1,33-33A33,33,0,0,1,199.61,136.91Zm0-65.53a32.52,32.52,0,1,0,32.52,32.52A32.55,32.55,0,0,0,199.61,71.38Z"/><circle class="cls-1" cx="198.63" cy="103.9" r="15.89"/><polygon class="cls-2" points="102.86 142.26 104.45 151.24 109.38 149.07 109.38 140.96 102.86 142.26"/><path class="cls-1" d="M110,146.9s-3.18,3.47-6.37,1.73l-.44,15.07s-7.53,8.41-.29,8.55,6-3,6-3v-1.89l.86-1.59.73.29s2-2.46,1.88-3.62-.29-2.75-.29-2.75L110.24,152Z"/><polygon class="cls-2" points="157.91 116.18 164.14 121.39 160.96 125.16 152.84 120.67 157.91 116.18"/><path class="cls-1" d="M159.07,124.58l3.77-4.78,5.94,4.49,7.1,3.77s8,2.9,6.08,5.65-6.23,1.88-6.23,1.88l-1-.72-1.59-.44.43.87-3.48-.14-2.32-2.75-1.88-2.47-3-2.89Z"/><path class="cls-2" d="M90.54,58.37,89,70.39l-6.67,19s-7.1,10-2,10.29,5.22-9.27,5.22-9.27L94.16,74.6,96.48,59Z"/><path class="cls-2" d="M122.56,62.14l1,13.76L132,91.69s5.79,5.22,2.46,7-6.37-7.1-6.37-7.1l-10-14.06-1.6-14.63Z"/><circle class="cls-2" cx="113.14" cy="37.21" r="7.39"/><path class="cls-2" d="M107.2,39.1s-1.3,7.82-6.81,9.13,9.71,5.65,14.06,1.59a4.53,4.53,0,0,1-.44-5.94C116.33,40.55,107.2,39.1,107.2,39.1Z"/><path class="cls-3" d="M121.26,53l-7.47-4s-4.35,3-12.28-1.13c0,0-10,.81-9.81,2.11s-4.49,8.7-2.9,10.15,2.61-1.31,4.2,1.45,2.32,2,2.32,2-.58,9.71.58,10.15,19.85-2.32,19.85-2.32,2.46.43,1.3-.73-1.3-1.3-.58-2.17,1.74-.72.73-1.45a1.32,1.32,0,0,1-.44-1.74s4.79-2,6.67-1.88S122.7,53.44,121.26,53Z"/><path class="cls-1" d="M96.33,73.29l-.14,5.51S91.26,146,97.93,145.59s6.95-2.9,7.39-3.19,5.79,2.76,6.52-.43S113,98.5,113,98.5s16.66,38.25,27.09,33.62,23.62-13.19,20.58-16.52-17-12-17-12-.29-2.6-5.36-5.07l-16.51-17s.43-.58-.58-1.3-1,.58-1.31-1.31.15-1.16-.72-2-.73-.14-.87-1,.14-.72-.15-1-1.45-1.6-1.45-1.6l-1.44-3.77S98.94,70.39,96.33,73.29Z"/><polygon class="cls-4" points="95.75 76.33 116.33 70.97 117.34 73.29 95.61 78.8 95.75 76.33"/><polygon class="cls-4" points="98.22 77.49 96.91 84.3 98.65 84.3 99.96 77.2 98.22 77.49"/><path class="cls-4" d="M101.12,76.77a9.44,9.44,0,0,0,.29,3c.43,1.74,1,4.2,1,4.2s2.75-1.45,2.32-2.75S103,76.33,103,76.33Z"/><path class="cls-1" d="M112.31,36.91c.44-.64.24-1.53.56-2.24.49-1.11,1.94-1.34,3.15-1.41a9.8,9.8,0,0,1,2.42.06,2.34,2.34,0,0,1,1.64,1.26c.17.36.16-.76.08-2.21A7,7,0,0,0,115,26h0a13.17,13.17,0,0,0-4.49-.52,5.85,5.85,0,0,0-4,1.91A20.4,20.4,0,0,1,105.18,29a8,8,0,0,1-3.27,1.53,9.8,9.8,0,0,0-3.6,2,5.31,5.31,0,0,0-1.8,3.59,3.52,3.52,0,0,0,2.55,3.63,1.8,1.8,0,0,1,.78.36c1.54,1.26-.28,2.49-.3,3.86,0,1.14,1.24,1.91,2.38,2a4.61,4.61,0,0,0,4.67-3.53,9.72,9.72,0,0,0,0-2.85c-.1-1.09,2.29-3.58.71-1.75a2.71,2.71,0,0,0-.62,1.23c-.29,1.48,1,2,1.89,2.87a3.54,3.54,0,0,1,.77,3.68,4.1,4.1,0,0,0,.87-5.16c-.26-.43-.61-.8-.86-1.24-.39-.69-.47-2.16.67-2.09C110.83,37.16,111.66,37.86,112.31,36.91Z"/><rect class="cls-3" x="146.52" y="62.44" width="8.92" height="8.92" transform="translate(-13.22 84.45) rotate(-30)"/><rect class="cls-1" x="32.82" y="66.6" width="8.92" height="8.92" transform="translate(-30.53 28.16) rotate(-30)"/><rect class="cls-1" x="131.11" y="146.8" width="8.92" height="8.92" transform="translate(-57.47 88.05) rotate(-30)"/><rect class="cls-5" x="38.96" y="129.33" width="8.31" height="8.31"/><circle class="cls-4" cx="198.63" cy="103.9" r="3.91"/></svg>