<?xml version="1.0" encoding="utf-8"?>
<!-- Generator: Adobe Illustrator 24.0.2, SVG Export Plug-In . SVG Version: 6.00 Build 0)  -->
<svg version="1.1" id="Layer_1" xmlns="http://www.w3.org/2000/svg" xmlns:xlink="http://www.w3.org/1999/xlink" x="0px" y="0px"
	 viewBox="0 0 236 200" style="enable-background:new 0 0 236 200;" xml:space="preserve">
<style type="text/css">
	.st0{opacity:0.2;fill:#6AC5AC;enable-background:new    ;}
	.st1{fill:#464A5F;}
	.st2{opacity:0.1;enable-background:new    ;}
	.st3{fill:#9C9CA1;}
	.st4{opacity:0.1;fill:#414142;enable-background:new    ;}
	.st5{fill:#414142;}
	.st6{opacity:0.1;}
	.st7{fill:#939498;}
	.st8{fill:#6AC5AC;}
</style>
<g>
	<path class="st0" d="M104.18,21.35c-9.09-3.69-18.68-6.78-28.48-6.39c-14.41,0.57-28.23,9.23-35.01,21.96
		c-5.75,10.78-6.46,23.41-8.93,35.38c-3.05,14.74-8.9,28.75-15.14,42.44c-3.35,7.36-6.89,14.88-7.44,22.94
		c-0.76,11.2,4.59,22.36,12.99,29.8c8.4,7.45,19.54,11.38,30.73,12.24c5.95,0.46,12.18,0.03,17.47-2.74
		c5.59-2.93,9.68-8.23,15.29-11.12c5.21-2.68,11.3-3.06,17.14-2.71c7.66,0.46,15.2,2.06,22.38,4.76
		c8.17,3.07,15.77,7.51,23.92,10.62s17.26,4.85,25.59,2.25c7.82-2.44,14.02-8.36,19.58-14.36c9.16-9.85,17.51-20.41,24.98-31.6
		c5.03-7.54,9.71-15.49,11.94-24.27c4.25-16.79-1.6-35.74-14.58-47.2c-10.75-9.51-25.19-13.63-39.32-16.14
		c-12.89-2.28-27.79-2.42-39.65-8.37C126.33,33.17,116.04,26.17,104.18,21.35z"/>
	<polygon class="st1" points="195.52,133.84 195.86,134.18 196.02,133.59 195.85,133 195.43,133 	"/>
	<polygon class="st2" points="195.52,133.84 195.86,134.18 196.02,133.59 195.85,133 195.43,133 	"/>
	<polygon class="st3" points="195.52,133.84 195.85,134.19 195.52,134.59 195.16,134.45 195.07,134.28 	"/>
	<polygon class="st2" points="195.52,133.84 195.85,134.19 195.52,134.59 195.16,134.45 195.07,134.28 	"/>
	<path class="st3" d="M132.07,71.22l-37.69,37.69c-1.41,1.41-1.42,3.7-0.01,5.11l57.78,58.24c1.41,1.42,3.69,1.43,5.12,0.03
		l38.26-37.71L132.07,71.22z"/>
	<path class="st4" d="M132.07,71.22l-37.69,37.69c-1.41,1.41-1.42,3.7-0.01,5.11l57.78,58.24c1.41,1.42,3.69,1.43,5.12,0.03
		l38.26-37.71L132.07,71.22z"/>
	<path class="st3" d="M132.07,70.47l-37.69,37.69c-1.41,1.41-1.42,3.7-0.01,5.11l57.78,58.24c1.41,1.42,3.69,1.43,5.12,0.03
		l38.26-37.72L132.07,70.47z"/>
	<path class="st5" d="M136.03,43.98l-3.46,26.25l63.45,63.36l3.64-26.68c0.17-1.21-0.25-2.43-1.12-3.28l-61.22-60.1
		c-0.3-0.3-0.79-0.29-1.08,0.02C136.13,43.66,136.05,43.81,136.03,43.98z"/>
	<path class="st4" d="M136.03,43.98l-3.46,26.25l63.45,63.36l3.64-26.68c0.17-1.21-0.25-2.43-1.12-3.28l-61.22-60.1
		c-0.3-0.3-0.79-0.29-1.08,0.02C136.13,43.66,136.05,43.81,136.03,43.98z"/>
	<path class="st5" d="M135.53,44.23l-3.46,26.25l63.45,63.36l3.64-26.68c0.17-1.21-0.25-2.43-1.12-3.28l-61.22-60.1
		c-0.3-0.3-0.79-0.29-1.08,0.02C135.63,43.91,135.55,44.06,135.53,44.23z"/>
	<g class="st6">
		<path class="st5" d="M132.24,82.54l-2.29,2.31c-0.28,0.28-0.29,0.74,0,1.03c0,0,0,0,0,0l2.33,2.38c0.28,0.29,0.74,0.3,1.03,0.02
			l2.28-2.16c0.29-0.27,0.31-0.73,0.04-1.02l-2.33-2.54c-0.27-0.3-0.73-0.33-1.03-0.06C132.26,82.52,132.25,82.53,132.24,82.54z"/>
		<path class="st5" d="M136.52,86.81l-2.29,2.31c-0.28,0.28-0.28,0.74,0,1.02l2.33,2.38c0.28,0.29,0.74,0.3,1.03,0.02c0,0,0,0,0,0
			l2.28-2.15c0.29-0.27,0.31-0.74,0.04-1.03l-2.33-2.54c-0.27-0.3-0.73-0.32-1.03-0.04C136.54,86.79,136.53,86.8,136.52,86.81z"/>
		<path class="st5" d="M141.01,91.3l-2.29,2.31c-0.28,0.28-0.28,0.74,0,1.02l2.33,2.38c0.28,0.29,0.74,0.3,1.03,0.02l2.28-2.16
			c0.29-0.27,0.31-0.73,0.04-1.02l-2.33-2.54c-0.27-0.3-0.73-0.33-1.03-0.06C141.03,91.27,141.02,91.29,141.01,91.3z"/>
		<path class="st5" d="M145.54,95.84l-2.28,2.33c-0.28,0.28-0.28,0.74,0,1.02l2.33,2.38c0.28,0.29,0.74,0.3,1.03,0.02l2.28-2.16
			c0.29-0.27,0.31-0.73,0.04-1.02l-2.34-2.55c-0.27-0.3-0.73-0.32-1.03-0.05C145.56,95.82,145.55,95.83,145.54,95.84z"/>
		<path class="st5" d="M150.09,100.38l-2.28,2.32c-0.28,0.28-0.28,0.75,0,1.03l2.33,2.38c0.28,0.29,0.74,0.3,1.03,0.02l2.28-2.16
			c0.29-0.27,0.31-0.73,0.04-1.02l-2.33-2.54c-0.26-0.3-0.72-0.34-1.03-0.07C150.11,100.36,150.1,100.37,150.09,100.38z"/>
		<path class="st5" d="M154.91,104.63l-2.84,2.88c-0.13,0.13-0.13,0.35,0,0.48l2.86,2.93c0.13,0.13,0.35,0.13,0.48,0l2.84-2.68
			c0.14-0.13,0.14-0.34,0.02-0.48l-2.86-3.12c-0.13-0.14-0.35-0.14-0.48-0.01C154.92,104.62,154.92,104.63,154.91,104.63z"/>
		<path class="st5" d="M159.45,109.17l-2.84,2.89c-0.13,0.13-0.13,0.34,0,0.48l2.86,2.93c0.13,0.13,0.35,0.13,0.48,0l2.84-2.68
			c0.14-0.13,0.14-0.34,0.02-0.48l-2.86-3.12c-0.13-0.14-0.34-0.15-0.48-0.02C159.46,109.16,159.46,109.17,159.45,109.17z"/>
		<path class="st5" d="M163.47,113.19l-2.84,2.89c-0.13,0.13-0.13,0.34,0,0.48l2.86,2.93c0.13,0.13,0.35,0.13,0.48,0l2.84-2.68
			c0.14-0.13,0.14-0.34,0.02-0.48l-2.86-3.11c-0.12-0.14-0.34-0.16-0.48-0.03C163.48,113.18,163.48,113.19,163.47,113.19z"/>
		<path class="st5" d="M167.97,117.69l-2.84,2.87c-0.13,0.13-0.13,0.35,0,0.48l2.86,2.93c0.13,0.13,0.35,0.13,0.48,0l2.84-2.68
			c0.13-0.13,0.14-0.34,0.02-0.48l-2.86-3.12c-0.13-0.14-0.35-0.14-0.48-0.01C167.98,117.68,167.98,117.69,167.97,117.69z"/>
		<path class="st5" d="M172.33,122.05l-2.84,2.87c-0.13,0.13-0.13,0.35,0,0.48l2.86,2.93c0.13,0.13,0.35,0.13,0.48,0l2.84-2.68
			c0.13-0.13,0.14-0.34,0.02-0.48l-2.87-3.11C172.69,121.93,172.47,121.92,172.33,122.05C172.34,122.05,172.33,122.05,172.33,122.05
			z"/>
		<path class="st5" d="M176.69,126.4l-2.84,2.89c-0.13,0.13-0.13,0.34,0,0.48l2.86,2.93c0.13,0.13,0.35,0.13,0.48,0l2.84-2.68
			c0.14-0.13,0.14-0.34,0.02-0.48l-2.86-3.12C177.06,126.28,176.84,126.27,176.69,126.4C176.7,126.4,176.7,126.4,176.69,126.4z"/>
		<path class="st5" d="M181.05,130.77l-2.84,2.88c-0.13,0.13-0.13,0.35,0,0.48l2.85,2.93c0.13,0.13,0.34,0.14,0.48,0.01l2.84-2.68
			c0.14-0.13,0.14-0.34,0.02-0.48l-2.86-3.12C181.41,130.64,181.2,130.64,181.05,130.77C181.06,130.77,181.05,130.77,181.05,130.77z
			"/>
		<path class="st5" d="M128.09,86.69L125.81,89c-0.28,0.28-0.29,0.74,0,1.03c0,0,0,0,0,0l2.33,2.38c0.28,0.29,0.74,0.3,1.03,0.02
			c0,0,0,0,0,0l2.28-2.15c0.3-0.27,0.31-0.74,0.04-1.03l-2.34-2.55c-0.27-0.3-0.73-0.32-1.03-0.04
			C128.11,86.67,128.1,86.68,128.09,86.69z"/>
		<path class="st5" d="M119.02,95.75l-2.29,2.31c-0.28,0.28-0.28,0.75,0,1.03l2.33,2.37c0.28,0.28,0.73,0.29,1.02,0.02l2.28-2.16
			c0.29-0.27,0.31-0.73,0.04-1.02l-2.33-2.54c-0.27-0.3-0.73-0.32-1.03-0.05C119.04,95.74,119.03,95.75,119.02,95.75z"/>
		<path class="st5" d="M132.37,90.96l-2.29,2.31c-0.28,0.28-0.29,0.74,0,1.03c0,0,0,0,0,0l2.33,2.38c0.28,0.29,0.74,0.3,1.03,0.02
			l2.28-2.17c0.29-0.27,0.31-0.74,0.04-1.03l-2.33-2.54c-0.27-0.3-0.73-0.32-1.02-0.05C132.39,90.94,132.38,90.95,132.37,90.96z"/>
		<path class="st5" d="M136.85,95.45l-2.28,2.31c-0.28,0.28-0.28,0.74,0,1.02l2.33,2.38c0.28,0.29,0.74,0.3,1.03,0.02c0,0,0,0,0,0
			l2.28-2.15c0.3-0.27,0.31-0.74,0.04-1.03l-2.33-2.54c-0.27-0.3-0.73-0.32-1.03-0.05C136.88,95.43,136.87,95.44,136.85,95.45z"/>
		<path class="st5" d="M141.4,99.99l-2.28,2.31c-0.28,0.28-0.28,0.74,0,1.02l2.33,2.38c0.28,0.29,0.73,0.29,1.02,0.02l2.28-2.15
			c0.3-0.27,0.31-0.74,0.04-1.03l-2.33-2.52c-0.27-0.3-0.73-0.32-1.03-0.05C141.41,99.98,141.4,99.98,141.4,99.99z"/>
		<path class="st5" d="M123.44,99.89l-2.29,2.31c-0.28,0.28-0.28,0.74,0,1.02l2.33,2.38c0.28,0.29,0.74,0.3,1.03,0.02c0,0,0,0,0,0
			l2.28-2.15c0.29-0.27,0.31-0.74,0.04-1.03l-2.33-2.54c-0.27-0.3-0.73-0.32-1.02-0.05C123.47,99.86,123.46,99.87,123.44,99.89z"/>
		<path class="st5" d="M127.93,104.37l-2.28,2.31c-0.28,0.28-0.29,0.74,0,1.03c0,0,0,0,0,0l2.33,2.38c0.28,0.29,0.74,0.3,1.03,0.02
			c0,0,0,0,0,0l2.28-2.15c0.3-0.27,0.31-0.74,0.04-1.03L129,104.4c-0.27-0.3-0.73-0.33-1.03-0.06
			C127.96,104.35,127.94,104.36,127.93,104.37z"/>
		<path class="st5" d="M132.47,108.91l-2.28,2.31c-0.28,0.28-0.28,0.74,0,1.02l2.33,2.38c0.28,0.29,0.74,0.3,1.03,0.02l2.28-2.16
			c0.29-0.27,0.31-0.73,0.04-1.02l-2.33-2.54c-0.27-0.3-0.73-0.33-1.03-0.06C132.5,108.89,132.49,108.9,132.47,108.91z"/>
		<path class="st5" d="M145.94,104.53l-2.28,2.31c-0.28,0.28-0.28,0.74,0,1.02l2.33,2.38c0.28,0.29,0.74,0.3,1.03,0.02c0,0,0,0,0,0
			l2.28-2.15c0.29-0.27,0.31-0.73,0.04-1.03c0,0,0,0,0,0l-2.34-2.53c-0.27-0.3-0.73-0.32-1.03-0.05
			C145.95,104.51,145.95,104.52,145.94,104.53z"/>
		<path class="st5" d="M150.48,109.07l-2.29,2.31c-0.28,0.28-0.28,0.74,0,1.02l2.33,2.38c0.28,0.29,0.74,0.3,1.03,0.02c0,0,0,0,0,0
			l2.28-2.16c0.29-0.27,0.31-0.73,0.04-1.02l-2.34-2.55c-0.27-0.3-0.73-0.32-1.03-0.04C150.5,109.05,150.49,109.06,150.48,109.07z"
			/>
		<path class="st5" d="M155.3,113.32l-2.84,2.89c-0.13,0.13-0.13,0.35,0,0.48l2.86,2.92c0.13,0.13,0.35,0.13,0.48,0l2.84-2.68
			c0.13-0.13,0.14-0.34,0.02-0.48l-2.86-3.12c-0.13-0.14-0.35-0.14-0.48-0.01C155.31,113.31,155.31,113.32,155.3,113.32z"/>
		<path class="st5" d="M159.32,117.34l-2.84,2.89c-0.13,0.13-0.13,0.35,0,0.48l2.86,2.93c0.13,0.13,0.35,0.13,0.48,0l2.84-2.68
			c0.13-0.13,0.14-0.34,0.02-0.48l-2.86-3.12c-0.13-0.14-0.34-0.15-0.48-0.02C159.33,117.33,159.33,117.33,159.32,117.34z"/>
		<path class="st5" d="M163.83,121.84l-2.84,2.89c-0.13,0.13-0.13,0.34,0,0.48l2.86,2.93c0.13,0.13,0.35,0.13,0.48,0l2.84-2.68
			c0.14-0.13,0.14-0.34,0.02-0.48l-2.86-3.12c-0.13-0.14-0.34-0.15-0.48-0.02C163.83,121.84,163.83,121.84,163.83,121.84z"/>
		<path class="st5" d="M168.18,126.2l-2.84,2.89c-0.13,0.13-0.13,0.35,0,0.48l2.86,2.93c0.13,0.13,0.35,0.13,0.48,0l2.84-2.68
			c0.14-0.13,0.14-0.34,0.02-0.48l-2.86-3.12c-0.13-0.14-0.34-0.15-0.48-0.02C168.19,126.19,168.19,126.19,168.18,126.2z"/>
		<path class="st5" d="M132.54,99.77l-2.29,2.32c-0.28,0.28-0.28,0.74,0,1.02l2.33,2.38c0.28,0.29,0.74,0.3,1.03,0.03c0,0,0,0,0,0
			l2.28-2.15c0.29-0.27,0.31-0.74,0.04-1.03l-2.34-2.54c-0.27-0.3-0.73-0.32-1.02-0.05C132.56,99.75,132.55,99.76,132.54,99.77z"/>
		<path class="st5" d="M137.08,104.31l-2.29,2.31c-0.28,0.28-0.28,0.74,0,1.02l2.33,2.38c0.28,0.29,0.74,0.3,1.03,0.03c0,0,0,0,0,0
			l2.28-2.15c0.29-0.27,0.31-0.74,0.04-1.03l-2.33-2.54c-0.27-0.3-0.73-0.32-1.02-0.05C137.11,104.28,137.1,104.29,137.08,104.31z"
			/>
		<path class="st5" d="M141.62,108.85l-2.29,2.3c-0.28,0.28-0.28,0.74,0,1.02l2.33,2.38c0.28,0.29,0.74,0.3,1.03,0.02c0,0,0,0,0,0
			l2.28-2.15c0.29-0.27,0.31-0.74,0.04-1.03l-2.33-2.54c-0.27-0.29-0.73-0.31-1.03-0.04C141.65,108.82,141.63,108.83,141.62,108.85z
			"/>
		<path class="st5" d="M146.16,113.39l-2.29,2.31c-0.28,0.28-0.28,0.74,0,1.02l2.33,2.38c0.28,0.29,0.74,0.3,1.03,0.02c0,0,0,0,0,0
			l2.28-2.15c0.29-0.27,0.31-0.74,0.04-1.03l-2.33-2.54c-0.27-0.3-0.73-0.32-1.03-0.05C146.19,113.36,146.18,113.38,146.16,113.39z"
			/>
		<path class="st5" d="M150.99,117.64l-2.84,2.87c-0.13,0.13-0.13,0.35,0,0.48l2.86,2.93c0.13,0.13,0.35,0.13,0.48,0l2.84-2.68
			c0.14-0.13,0.14-0.34,0.02-0.48l-2.86-3.13c-0.13-0.14-0.35-0.14-0.48-0.01C151,117.63,150.99,117.63,150.99,117.64z"/>
		<path class="st5" d="M155.01,121.66l-2.84,2.87c-0.13,0.13-0.13,0.35,0,0.48l2.86,2.93c0.13,0.13,0.35,0.13,0.48,0l2.84-2.68
			c0.14-0.13,0.14-0.34,0.02-0.48l-2.85-3.12c-0.13-0.14-0.34-0.14-0.48-0.02C155.02,121.65,155.01,121.66,155.01,121.66z"/>
		<path class="st5" d="M159.51,126.16l-2.84,2.89c-0.13,0.13-0.13,0.35,0,0.48l2.86,2.93c0.13,0.13,0.34,0.14,0.48,0.01l2.84-2.68
			c0.14-0.13,0.14-0.34,0.02-0.48l-2.86-3.12c-0.12-0.14-0.34-0.16-0.48-0.03C159.52,126.15,159.51,126.15,159.51,126.16z"/>
		<path class="st5" d="M163.87,130.53l-2.84,2.87c-0.13,0.13-0.13,0.35,0,0.48l2.86,2.93c0.13,0.13,0.34,0.14,0.48,0.01l2.84-2.68
			c0.14-0.13,0.14-0.34,0.02-0.48l-2.85-3.12c-0.13-0.14-0.34-0.15-0.48-0.02C163.88,130.51,163.88,130.52,163.87,130.53z"/>
		<path class="st5" d="M172.54,130.56l-2.84,2.89c-0.13,0.13-0.13,0.35,0,0.48l2.86,2.93c0.13,0.13,0.34,0.14,0.48,0.01l2.84-2.68
			c0.13-0.13,0.14-0.34,0.02-0.48l-2.86-3.12c-0.12-0.14-0.34-0.16-0.48-0.03C172.55,130.55,172.55,130.56,172.54,130.56z"/>
		<path class="st5" d="M176.9,134.92l-2.85,2.87c-0.13,0.13-0.13,0.35,0,0.48l2.87,2.93c0.13,0.13,0.34,0.14,0.48,0.01l2.84-2.68
			c0.13-0.13,0.14-0.34,0.02-0.48l-2.86-3.12c-0.13-0.14-0.34-0.15-0.48-0.02C176.91,134.91,176.91,134.92,176.9,134.92z"/>
		<path class="st5" d="M154.82,130.85l-2.68,2.71c-0.17,0.18-0.17,0.46,0,0.64l2.7,2.77c0.17,0.18,0.46,0.18,0.64,0.01l2.68-2.52
			c0.18-0.17,0.19-0.45,0.03-0.63l-2.7-2.95c-0.17-0.19-0.46-0.21-0.65-0.04C154.83,130.84,154.82,130.84,154.82,130.85z"/>
		<path class="st5" d="M159.18,135.21l-2.68,2.71c-0.17,0.18-0.17,0.46,0,0.64l2.7,2.77c0.17,0.18,0.46,0.18,0.64,0.01l2.68-2.52
			c0.18-0.17,0.19-0.46,0.02-0.64l-2.71-2.95C159.66,135.04,159.37,135.03,159.18,135.21C159.18,135.2,159.18,135.21,159.18,135.21z
			"/>
		<path class="st5" d="M163.54,139.57l-2.68,2.71c-0.17,0.18-0.17,0.46,0,0.64l2.7,2.77c0.17,0.18,0.46,0.19,0.64,0.01l2.68-2.52
			c0.18-0.17,0.19-0.46,0.02-0.64l-2.7-2.95c-0.17-0.19-0.46-0.2-0.64-0.04C163.56,139.55,163.55,139.56,163.54,139.57z"/>
		<path class="st5" d="M167.98,143.84l-2.84,2.88c-0.13,0.13-0.13,0.35,0,0.48l2.86,2.93c0.13,0.13,0.35,0.13,0.48,0l2.84-2.68
			c0.14-0.13,0.14-0.34,0.02-0.48l-2.86-3.12c-0.13-0.14-0.35-0.14-0.48-0.01C167.99,143.83,167.99,143.84,167.98,143.84z"/>
		<path class="st5" d="M123.6,90.94l-2.44,2.49c-0.28,0.28-0.29,0.74,0,1.03c0,0,0,0,0,0l6.8,6.73c0.28,0.28,0.73,0.28,1.01,0.01
			l2.54-2.39c0.29-0.28,0.31-0.74,0.03-1.03c-0.01-0.01-0.01-0.01-0.02-0.02l-6.9-6.83C124.34,90.65,123.88,90.66,123.6,90.94z"/>
		<path class="st5" d="M168.12,134.91l-2.98,3.03c-0.13,0.13-0.13,0.35,0,0.48l7.34,7.27c0.13,0.13,0.34,0.13,0.47,0l3.1-2.92
			c0.14-0.13,0.14-0.35,0.01-0.48c0,0-0.01-0.01-0.01-0.01l-7.47-7.39C168.46,134.77,168.25,134.78,168.12,134.91z"/>
		<path class="st5" d="M137.16,113.18l-2.84,2.82c-0.13,0.13-0.13,0.35,0,0.48c0,0,0,0,0,0l15.83,16.22c0.13,0.13,0.35,0.13,0.48,0
			l3.09-2.92c0.13-0.13,0.14-0.35,0.01-0.48c0,0-0.01-0.01-0.01-0.01l-16.08-16.12C137.51,113.04,137.29,113.04,137.16,113.18z"/>
	</g>
	<path class="st5" d="M132.24,82.04l-2.29,2.32c-0.28,0.28-0.28,0.74,0,1.02l2.33,2.38c0.28,0.29,0.74,0.3,1.03,0.02l2.28-2.16
		c0.29-0.27,0.31-0.73,0.04-1.02l-2.33-2.54c-0.27-0.3-0.73-0.32-1.03-0.05C132.26,82.02,132.25,82.03,132.24,82.04z"/>
	<path class="st5" d="M136.52,86.31l-2.29,2.31c-0.28,0.28-0.28,0.74,0,1.02l2.33,2.38c0.28,0.29,0.74,0.3,1.03,0.02c0,0,0,0,0,0
		l2.28-2.15c0.29-0.27,0.31-0.74,0.04-1.03l-2.33-2.54c-0.27-0.3-0.73-0.32-1.03-0.05C136.54,86.3,136.53,86.3,136.52,86.31z"/>
	<path class="st5" d="M141.01,90.8l-2.29,2.31c-0.28,0.28-0.28,0.74,0,1.02l2.32,2.38c0.28,0.29,0.74,0.3,1.03,0.02l2.28-2.16
		c0.29-0.27,0.31-0.73,0.04-1.03c0,0,0,0,0,0l-2.33-2.54c-0.27-0.3-0.73-0.31-1.03-0.04C141.03,90.78,141.02,90.79,141.01,90.8z"/>
	<path class="st5" d="M145.54,95.34l-2.28,2.31c-0.28,0.29-0.28,0.75,0,1.03l2.33,2.38c0.28,0.29,0.74,0.3,1.03,0.02l2.28-2.16
		c0.29-0.27,0.31-0.73,0.04-1.02l-2.34-2.55c-0.27-0.3-0.73-0.32-1.03-0.05C145.56,95.33,145.55,95.33,145.54,95.34z"/>
	<path class="st5" d="M150.09,99.88l-2.28,2.31c-0.28,0.28-0.28,0.75,0,1.03l2.33,2.38c0.28,0.29,0.74,0.3,1.03,0.02l2.28-2.16
		c0.3-0.27,0.32-0.73,0.04-1.03c0,0,0,0-0.01-0.01l-2.33-2.54c-0.27-0.3-0.73-0.33-1.03-0.06C150.11,99.86,150.1,99.87,150.09,99.88
		z"/>
	<path class="st5" d="M154.91,104.14l-2.84,2.87c-0.13,0.13-0.13,0.34,0,0.48l2.86,2.93c0.13,0.13,0.34,0.14,0.48,0.01l2.84-2.68
		c0.14-0.13,0.14-0.34,0.02-0.48l-2.86-3.12c-0.13-0.14-0.35-0.14-0.48-0.01C154.92,104.14,154.92,104.14,154.91,104.14z"/>
	<path class="st5" d="M159.45,108.68l-2.84,2.88c-0.13,0.13-0.13,0.34,0,0.48l2.86,2.93c0.13,0.13,0.35,0.13,0.48,0l2.84-2.68
		c0.14-0.13,0.14-0.34,0.02-0.48l-2.86-3.12c-0.13-0.14-0.35-0.14-0.48-0.01C159.46,108.67,159.46,108.67,159.45,108.68z"/>
	<path class="st5" d="M163.47,112.69l-2.84,2.88c-0.13,0.13-0.13,0.34,0,0.48l2.86,2.94c0.13,0.13,0.35,0.13,0.48,0l2.84-2.68
		c0.14-0.13,0.14-0.34,0.02-0.48l-2.86-3.12c-0.13-0.14-0.34-0.15-0.48-0.02C163.48,112.69,163.48,112.69,163.47,112.69z"/>
	<path class="st5" d="M167.97,117.19l-2.84,2.87c-0.13,0.13-0.13,0.35,0,0.48l2.86,2.93c0.13,0.13,0.34,0.14,0.48,0.01l2.84-2.68
		c0.13-0.13,0.14-0.34,0.02-0.48l-2.86-3.13c-0.13-0.14-0.34-0.15-0.48-0.02C167.98,117.19,167.98,117.19,167.97,117.19z"/>
	<path class="st5" d="M172.33,121.55l-2.84,2.87c-0.13,0.13-0.13,0.35,0,0.48l2.86,2.94c0.13,0.13,0.35,0.13,0.48,0l2.84-2.68
		c0.13-0.13,0.14-0.34,0.02-0.48l-2.87-3.12C172.69,121.43,172.47,121.42,172.33,121.55C172.34,121.55,172.33,121.55,172.33,121.55z
		"/>
	<path class="st5" d="M176.69,125.91l-2.84,2.89c-0.13,0.13-0.13,0.34,0,0.48l2.86,2.93c0.13,0.13,0.35,0.13,0.48,0l2.84-2.68
		c0.14-0.13,0.14-0.34,0.02-0.48l-2.86-3.12c-0.13-0.14-0.34-0.15-0.48-0.02C176.7,125.9,176.7,125.91,176.69,125.91z"/>
	<path class="st5" d="M181.05,130.27l-2.84,2.89c-0.13,0.13-0.13,0.35,0,0.48l2.85,2.92c0.13,0.13,0.35,0.13,0.48,0l2.84-2.68
		c0.14-0.13,0.14-0.34,0.02-0.48l-2.86-3.12C181.41,130.14,181.19,130.14,181.05,130.27C181.06,130.27,181.05,130.27,181.05,130.27z
		"/>
	<path class="st5" d="M128.09,86.19l-2.28,2.31c-0.28,0.28-0.28,0.74,0,1.02l2.33,2.38c0.28,0.29,0.74,0.3,1.03,0.02c0,0,0,0,0,0
		l2.28-2.15c0.3-0.27,0.31-0.74,0.04-1.03l-2.34-2.53c-0.27-0.3-0.73-0.32-1.03-0.05C128.11,86.17,128.1,86.18,128.09,86.19z"/>
	<path class="st5" d="M119.02,95.26l-2.29,2.31c-0.28,0.28-0.28,0.75,0,1.03l2.33,2.38c0.28,0.28,0.73,0.29,1.02,0.02l2.28-2.16
		c0.29-0.27,0.31-0.74,0.04-1.03l-2.33-2.54c-0.27-0.3-0.73-0.32-1.02-0.05C119.04,95.24,119.03,95.25,119.02,95.26z"/>
	<path class="st5" d="M132.37,90.46l-2.29,2.31c-0.28,0.28-0.28,0.74,0,1.02l2.33,2.38c0.28,0.29,0.74,0.3,1.03,0.02c0,0,0,0,0,0
		l2.28-2.16c0.29-0.27,0.31-0.74,0.04-1.03l-2.33-2.54c-0.27-0.3-0.73-0.32-1.03-0.05C132.39,90.44,132.38,90.45,132.37,90.46z"/>
	<path class="st5" d="M136.85,94.95l-2.28,2.31c-0.28,0.28-0.28,0.74,0,1.02l2.33,2.38c0.28,0.29,0.74,0.3,1.03,0.02c0,0,0,0,0,0
		l2.28-2.15c0.3-0.27,0.31-0.74,0.04-1.03l-2.34-2.54c-0.27-0.3-0.74-0.32-1.03-0.04C136.87,94.94,136.86,94.94,136.85,94.95z"/>
	<path class="st5" d="M141.4,99.49l-2.28,2.31c-0.28,0.28-0.28,0.74,0,1.02l2.33,2.38c0.28,0.28,0.73,0.29,1.02,0.02l2.28-2.15
		c0.3-0.27,0.31-0.74,0.04-1.03l-2.33-2.54c-0.27-0.3-0.73-0.32-1.03-0.04C141.42,99.47,141.41,99.48,141.4,99.49z"/>
	<path class="st5" d="M123.44,99.39l-2.29,2.31c-0.28,0.28-0.28,0.74,0,1.02l2.33,2.38c0.28,0.29,0.74,0.3,1.03,0.02c0,0,0,0,0,0
		l2.28-2.15c0.29-0.27,0.31-0.74,0.04-1.03l-2.34-2.54c-0.27-0.3-0.73-0.32-1.03-0.05C123.46,99.37,123.45,99.38,123.44,99.39z"/>
	<path class="st5" d="M127.93,103.87l-2.28,2.31c-0.28,0.28-0.28,0.74,0,1.02l2.33,2.38c0.28,0.29,0.74,0.3,1.03,0.02l2.28-2.15
		c0.3-0.27,0.31-0.74,0.04-1.03l-2.33-2.54c-0.27-0.3-0.73-0.32-1.03-0.05C127.96,103.85,127.94,103.86,127.93,103.87z"/>
	<path class="st5" d="M132.47,108.41l-2.28,2.33c-0.28,0.28-0.28,0.74,0,1.02l2.33,2.38c0.28,0.29,0.74,0.3,1.03,0.02l2.28-2.16
		c0.29-0.27,0.31-0.73,0.04-1.02l-2.33-2.54c-0.27-0.3-0.73-0.33-1.03-0.07C132.5,108.39,132.49,108.4,132.47,108.41z"/>
	<path class="st5" d="M145.94,104.03l-2.28,2.31c-0.28,0.28-0.28,0.74,0,1.02l2.33,2.38c0.28,0.29,0.74,0.3,1.03,0.02c0,0,0,0,0,0
		l2.28-2.16c0.29-0.27,0.31-0.73,0.04-1.03c0,0,0,0-0.01-0.01l-2.33-2.54c-0.27-0.3-0.73-0.32-1.03-0.05
		C145.96,104,145.95,104.02,145.94,104.03z"/>
	<path class="st5" d="M150.48,108.57l-2.29,2.31c-0.28,0.28-0.28,0.74,0,1.02l2.33,2.38c0.28,0.29,0.74,0.3,1.03,0.02c0,0,0,0,0,0
		l2.28-2.16c0.29-0.27,0.31-0.73,0.04-1.02l-2.33-2.54c-0.27-0.3-0.73-0.33-1.03-0.06C150.5,108.55,150.49,108.56,150.48,108.57z"/>
	<path class="st5" d="M155.3,112.82l-2.84,2.88c-0.13,0.13-0.13,0.35,0,0.48l2.86,2.93c0.13,0.13,0.35,0.13,0.48,0l2.84-2.68
		c0.13-0.13,0.14-0.34,0.02-0.48l-2.86-3.12c-0.13-0.14-0.35-0.14-0.48-0.01C155.31,112.81,155.3,112.82,155.3,112.82z"/>
	<path class="st5" d="M159.32,116.84l-2.84,2.88c-0.13,0.13-0.13,0.35,0,0.48l2.86,2.93c0.13,0.13,0.35,0.13,0.48,0l2.84-2.68
		c0.13-0.13,0.14-0.34,0.02-0.48l-2.86-3.12c-0.13-0.14-0.35-0.14-0.48-0.01C159.33,116.83,159.33,116.84,159.32,116.84z"/>
	<path class="st5" d="M163.83,121.34l-2.84,2.88c-0.13,0.13-0.13,0.34,0,0.48l2.86,2.93c0.13,0.13,0.35,0.13,0.48,0l2.84-2.68
		c0.14-0.13,0.14-0.34,0.02-0.48l-2.86-3.11c-0.13-0.14-0.34-0.15-0.48-0.02C163.83,121.34,163.83,121.34,163.83,121.34z"/>
	<path class="st5" d="M168.18,125.7l-2.84,2.88c-0.13,0.13-0.13,0.35,0,0.48l2.86,2.93c0.13,0.13,0.35,0.13,0.48,0l2.84-2.68
		c0.14-0.13,0.14-0.34,0.02-0.48l-2.86-3.12c-0.13-0.14-0.35-0.14-0.48-0.01C168.19,125.69,168.19,125.7,168.18,125.7z"/>
	<path class="st5" d="M132.54,99.27l-2.29,2.31c-0.28,0.28-0.28,0.74,0,1.02l2.33,2.38c0.28,0.29,0.74,0.3,1.03,0.03c0,0,0,0,0,0
		l2.28-2.15c0.29-0.27,0.31-0.74,0.04-1.03l-2.34-2.53c-0.27-0.3-0.73-0.32-1.02-0.05C132.56,99.25,132.55,99.26,132.54,99.27z"/>
	<path class="st5" d="M137.08,103.81l-2.29,2.31c-0.28,0.28-0.29,0.74,0,1.03c0,0,0,0,0,0l2.33,2.38c0.28,0.29,0.74,0.3,1.03,0.03
		c0,0,0,0,0,0l2.28-2.15c0.29-0.27,0.31-0.74,0.04-1.03l-2.33-2.54c-0.26-0.3-0.72-0.33-1.02-0.06
		C137.11,103.78,137.1,103.79,137.08,103.81z"/>
	<path class="st5" d="M141.62,108.35l-2.29,2.31c-0.28,0.28-0.28,0.74,0,1.02l2.33,2.38c0.28,0.29,0.74,0.3,1.03,0.02c0,0,0,0,0,0
		l2.28-2.15c0.29-0.27,0.31-0.74,0.04-1.03l-2.33-2.54c-0.27-0.3-0.73-0.32-1.03-0.05C141.65,108.32,141.63,108.34,141.62,108.35z"
		/>
	<path class="st5" d="M146.16,112.89l-2.29,2.31c-0.28,0.28-0.29,0.74,0,1.03c0,0,0,0,0,0l2.33,2.38c0.28,0.29,0.74,0.3,1.03,0.02
		c0,0,0,0,0,0l2.28-2.15c0.29-0.27,0.31-0.74,0.04-1.03l-2.33-2.54c-0.27-0.3-0.73-0.33-1.03-0.06
		C146.19,112.86,146.17,112.88,146.16,112.89z"/>
	<path class="st5" d="M150.99,117.14l-2.84,2.88c-0.13,0.13-0.13,0.35,0,0.48l2.86,2.93c0.13,0.13,0.34,0.14,0.48,0.01l2.84-2.68
		c0.14-0.13,0.14-0.34,0.02-0.48l-2.86-3.12c-0.13-0.14-0.34-0.15-0.48-0.02C151,117.13,150.99,117.13,150.99,117.14z"/>
	<path class="st5" d="M155.01,121.16l-2.84,2.87c-0.13,0.13-0.13,0.35,0,0.48l2.86,2.92c0.13,0.13,0.34,0.14,0.48,0.01l2.84-2.68
		c0.14-0.13,0.14-0.34,0.02-0.48l-2.85-3.12c-0.13-0.14-0.34-0.15-0.48-0.02C155.02,121.15,155.01,121.15,155.01,121.16z"/>
	<path class="st5" d="M159.51,125.66l-2.84,2.89c-0.13,0.13-0.13,0.35,0,0.48l2.86,2.93c0.13,0.13,0.35,0.13,0.48,0l2.84-2.68
		c0.14-0.13,0.14-0.34,0.02-0.48l-2.86-3.12c-0.13-0.14-0.34-0.15-0.48-0.02C159.52,125.65,159.51,125.65,159.51,125.66z"/>
	<path class="st5" d="M163.87,130.02l-2.84,2.87c-0.13,0.13-0.13,0.35,0,0.48l2.86,2.93c0.13,0.13,0.35,0.13,0.48,0l2.84-2.68
		c0.14-0.13,0.14-0.34,0.02-0.48l-2.85-3.11c-0.12-0.14-0.34-0.15-0.48-0.03C163.88,130.01,163.88,130.01,163.87,130.02z"/>
	<path class="st5" d="M172.54,130.06l-2.84,2.89c-0.13,0.13-0.13,0.35,0,0.48l2.86,2.93c0.13,0.13,0.35,0.13,0.48,0l2.84-2.68
		c0.13-0.13,0.14-0.34,0.02-0.48l-2.86-3.12c-0.13-0.14-0.34-0.15-0.48-0.02C172.55,130.06,172.55,130.06,172.54,130.06z"/>
	<path class="st5" d="M176.9,134.42l-2.84,2.89c-0.13,0.13-0.13,0.35,0,0.48l2.86,2.93c0.13,0.13,0.35,0.13,0.48,0l2.84-2.68
		c0.13-0.13,0.14-0.34,0.02-0.48l-2.86-3.11c-0.12-0.14-0.34-0.16-0.48-0.03C176.91,134.41,176.91,134.42,176.9,134.42z"/>
	<path class="st5" d="M154.82,130.35l-2.68,2.71c-0.17,0.18-0.17,0.46,0,0.64l2.7,2.77c0.17,0.18,0.46,0.18,0.64,0.01l2.68-2.52
		c0.18-0.17,0.19-0.46,0.02-0.64l-2.7-2.95c-0.17-0.19-0.46-0.2-0.65-0.03C154.83,130.34,154.82,130.35,154.82,130.35z"/>
	<path class="st5" d="M159.18,134.71l-2.68,2.71c-0.17,0.18-0.17,0.46,0,0.64l2.7,2.77c0.18,0.17,0.46,0.17,0.63,0l2.68-2.52
		c0.18-0.17,0.19-0.46,0.02-0.64l-2.7-2.95C159.66,134.54,159.37,134.53,159.18,134.71C159.18,134.71,159.18,134.71,159.18,134.71z"
		/>
	<path class="st5" d="M163.54,139.07l-2.68,2.71c-0.17,0.18-0.17,0.46,0,0.64l2.7,2.77c0.17,0.18,0.46,0.18,0.64,0.01l2.68-2.52
		c0.18-0.17,0.19-0.46,0.02-0.64l-2.7-2.95c-0.17-0.19-0.46-0.2-0.65-0.03C163.56,139.06,163.55,139.06,163.54,139.07z"/>
	<path class="st5" d="M167.98,143.34l-2.84,2.89c-0.13,0.13-0.13,0.35,0,0.48l2.86,2.93c0.13,0.13,0.34,0.14,0.48,0.01l2.84-2.68
		c0.14-0.13,0.14-0.34,0.02-0.48l-2.86-3.12c-0.12-0.14-0.34-0.16-0.48-0.03C167.99,143.33,167.99,143.34,167.98,143.34z"/>
	<path class="st5" d="M123.6,90.44l-2.44,2.49c-0.28,0.28-0.29,0.74,0,1.03c0,0,0,0,0,0l6.8,6.73c0.28,0.28,0.73,0.28,1.01,0.01
		l2.54-2.39c0.29-0.28,0.31-0.74,0.03-1.03c-0.01-0.01-0.01-0.01-0.02-0.02l-6.9-6.83C124.34,90.16,123.88,90.16,123.6,90.44z"/>
	<path class="st5" d="M168.12,134.41l-2.98,3.04c-0.13,0.13-0.13,0.35,0,0.48l7.34,7.27c0.13,0.13,0.34,0.13,0.47,0l3.1-2.92
		c0.14-0.13,0.14-0.35,0.01-0.48c0,0-0.01-0.01-0.01-0.01l-7.47-7.39C168.46,134.28,168.25,134.28,168.12,134.41z"/>
	<path class="st5" d="M137.16,112.68l-2.84,2.82c-0.13,0.13-0.13,0.35,0,0.48c0,0,0,0,0,0l15.83,16.22c0.13,0.13,0.35,0.13,0.48,0
		l3.09-2.92c0.13-0.13,0.14-0.35,0.01-0.48c0,0-0.01-0.01-0.01-0.01l-16.08-16.12C137.51,112.54,137.29,112.55,137.16,112.68z"/>
	<path class="st4" d="M126,114.66l-12.5,12.41c-0.72,0.72-0.73,1.88-0.02,2.61l23.11,23.74c0.71,0.73,1.89,0.75,2.62,0.04
		c0,0,0,0,0.01-0.01l12.87-12.66c0.73-0.72,0.74-1.89,0.02-2.62c0,0-0.01-0.01-0.01-0.01l-23.49-23.5
		C127.89,113.93,126.72,113.93,126,114.66z"/>
	<path class="st7" d="M126,114.15l-12.5,12.42c-0.72,0.72-0.73,1.88-0.02,2.61l23.11,23.74c0.71,0.73,1.89,0.75,2.62,0.04
		c0,0,0,0,0.01-0.01l12.87-12.66c0.73-0.72,0.74-1.89,0.02-2.62c0,0-0.01-0.01-0.01-0.01l-23.49-23.5
		C127.9,113.43,126.72,113.43,126,114.15z"/>
	<path class="st8" d="M138,49l-3.16,22.12l58.62,58.44l2.98-21.93c0.16-1.2-0.25-2.41-1.1-3.26l-56.04-55.8
		c-0.3-0.3-0.79-0.3-1.08,0C138.1,48.68,138.02,48.83,138,49z"/>
	<circle class="st0" cx="7.46" cy="42.36" r="4.46"/>
	<circle class="st0" cx="128.47" cy="23.58" r="4.46"/>
	<circle class="st0" cx="199.2" cy="41.19" r="4.46"/>
	<circle class="st0" cx="16.37" cy="66.96" r="7.47"/>
	<circle class="st0" cx="107.63" cy="177.65" r="7.47"/>
	
		<ellipse transform="matrix(0.1602 -0.9871 0.9871 0.1602 2.8838 350.0681)" class="st0" cx="207.17" cy="173.34" rx="7.47" ry="7.47"/>
</g>
</svg>
