<svg id="Layer_1" data-name="Layer 1" xmlns="http://www.w3.org/2000/svg" xmlns:xlink="http://www.w3.org/1999/xlink" viewBox="0 0 356 261"><defs><style>.cls-1{fill:none;}.cls-2{clip-path:url(#clip-path);}.cls-3{fill:#e54145;}.cls-4{fill:#e86e35;}.cls-5{clip-path:url(#clip-path-3);}.cls-6{opacity:0.91;isolation:isolate;}.cls-7{clip-path:url(#clip-path-4);}.cls-8{fill:#fab965;}.cls-9{fill:#595a5c;}</style><clipPath id="clip-path"><rect class="cls-1" y="-0.04" width="356" height="258.08"/></clipPath><clipPath id="clip-path-3"><rect class="cls-1" x="268.94" y="0.8" width="26.58" height="22.58"/></clipPath><clipPath id="clip-path-4"><rect class="cls-1" x="268.94" y="0.8" width="26.56" height="22.58"/></clipPath></defs><title>frida</title><g id="Artwork_2" data-name="Artwork 2"><g class="cls-2"><g class="cls-2"><path class="cls-3" d="M257.6,4.63l4,18.54L246.86,17ZM297,18.2l-9.36,33.32L265.53,25.78Z"/><path class="cls-4" d="M290.83,48.77l19.88-10.18L298.91,20ZM279.36,0,260.89,3.77,266.2,25Z"/><g class="cls-5"><g class="cls-6"><g class="cls-7"><polygon class="cls-8" points="295.5 15.63 268.94 23.38 280.4 0.8 295.5 15.63"/></g></g></g><path class="cls-8" d="M264.47,26.09l-6.63,34.82L288.5,59.6Zm-4.88,36,32.5,34.18-4.46-31.45Z"/><polygon class="cls-8" points="292.09 96.26 312.94 102.98 315.29 92.72 292.09 96.26"/><path class="cls-3" d="M292.35,48.77l19.89-3.89,5.62,42.4Zm-1.73,1.1L293,93.93l22.13-5Z"/><path class="cls-9" d="M304.08,108.36l11.17-24.73h13.22l-47.1,102.82-47-102.82h13.21l11.17,24.73h45.33Zm-22.63,51.13,17.53-40H263.93Z"/><polygon class="cls-8" points="334.61 181.4 356 158.91 326.89 95.44 334.61 181.4"/><g class="cls-2"><path class="cls-9" d="M13.94,94.56V122.3H48.21v11.17H13.94v48.4H1.66V83.21H49.39V94.38H14Zm111.19,87.38H110.24L81.18,140.21h-5.1v41.73H63.8V83.28H78.69c8.76,0,18.18.13,26.06,4.58a27.29,27.29,0,0,1,13,23.55c0,14.13-9.42,25.89-23.68,27.6ZM76.08,130h4c12.56,0,26.15-2.35,26.15-18.06S91.55,94.28,79.39,94.28H76.08Zm70.65,51.93H134.44V83.28h12.29Zm17.38-98.62h20.48c30.21,0,55.32,16,55.32,48.79,0,33.62-24.59,49.83-55.71,49.83H164.11V83.32ZM176.4,170.7h4.32c25.11,0,46.82-9.42,46.82-38.07s-21.69-38.07-46.8-38.07h-4.32v76.12ZM66.53,197.24v20.43m-.69-20.43h1.38v20.43H65.84Zm-63.62,4.7v4.82H8.17v2H2.22v8.42H0V200H8.38v2Zm19.34,15.19H19l-5-7.27H13v7.27H10.89V200h2.59a9,9,0,0,1,4.52.8,4.75,4.75,0,0,1,2.25,4.1,4.67,4.67,0,0,1-4.11,4.8Zm-8.53-9h.67c2.18,0,4.54-.41,4.54-3.15s-2.55-3.07-4.65-3.07H13Zm12.29,9H23.18V200h2.14Zm3-17.15h3.56c5.25,0,9.62,2.77,9.62,8.49s-4.28,8.66-9.68,8.66h-3.5Zm2.14,15.19h.75c4.37,0,8.13-1.64,8.13-6.63s-3.72-6.62-8.13-6.62h-.75v13.25Zm15.6-2.35-2,4.31H41.83L50,199.26l8.19,17.87H55.85L54,212.82ZM50,203.93l-3,6.94h6.1Zm34,13.2H81.91V201.94H77.77v-2H88.05v2H84Zm7.58-19.75v10.53a3.74,3.74,0,0,1,3.2-1.75c3,0,3.73,2,3.73,4.62v6.35h-2V211c0-1.86-.24-3-2.35-3-2.64,0-2.64,2.32-2.64,4.24v4.9h-2V197.39h2.16Zm11.08,14.76a3.34,3.34,0,0,0,3.17,3.51h0a3.46,3.46,0,0,0,3.18-2.06l1.73,1a5.58,5.58,0,0,1-4.93,2.9,5.18,5.18,0,0,1-5.25-5.1c0-.16,0-.32,0-.49,0-3.27,1.75-5.73,5.19-5.73s5,2.49,5,5.59v.31h-8.13Zm6.07-1.55a2.87,2.87,0,0,0-3-2.66,3.06,3.06,0,0,0-3,2.66h6ZM117.54,200H120l4.2,7.32,4.25-7.32h2.42l-5.59,9.68v7.45h-2.16v-7.45Zm22.75,11.84a5.68,5.68,0,1,1-5.77-5.58h.09a5.57,5.57,0,0,1,5.67,5.49.28.28,0,0,1,0,.09m-9.31,0a3.72,3.72,0,1,0,3.72-3.72,3.71,3.71,0,0,0-3.72,3.72v0Zm13.12-5.34v5.88c0,1.71.43,3.2,2.46,3.2s2.46-1.51,2.46-3.2v-5.88h2v6.12c0,2.91-1.36,4.9-4.5,4.9s-4.51-2-4.51-4.9v-6.12Zm11.75,1.43a3.74,3.74,0,0,1,3.2-1.75c3,0,3.72,2,3.72,4.62v6.35h-2V211c0-1.86-.25-3-2.35-3-2.64,0-2.64,2.32-2.64,4.24v4.9h-2.05V206.48h2.05v1.43Zm19.8,9c0,3.72-1,6.29-5.19,6.29a4.74,4.74,0,0,1-5.12-4.34c0-.16,0-.32,0-.48h2.05a2.89,2.89,0,0,0,2.76,3,3,3,0,0,0,.42,0c2.54,0,3.06-1.73,3.06-3.91v-2a4.39,4.39,0,0,1-3.61,2,5.7,5.7,0,0,1,0-11.32,4.32,4.32,0,0,1,3.72,2.14v-1.86h2.05v10.44Zm-1.86-5.12a3.42,3.42,0,0,0-6.81-.71,4.21,4.21,0,0,0,0,.71,3.45,3.45,0,1,0,6.74,0Zm13.44-9.86v4.82h6v2h-6v8.42h-2.14V200h8.31v2Zm9.68,10.2a3.35,3.35,0,0,0,3.18,3.51h0a3.46,3.46,0,0,0,3.19-2.06l1.73,1a5.59,5.59,0,0,1-4.93,2.9,5.18,5.18,0,0,1-5.25-5.1,4.1,4.1,0,0,1,0-.49c0-3.27,1.74-5.73,5.19-5.73s5,2.49,5,5.59v.31h-8.12Zm6.07-1.55a2.87,2.87,0,0,0-2.94-2.66,3,3,0,0,0-3,2.66h6Zm5.77-2.77a3.5,3.5,0,0,1,2.83-1.66,3.4,3.4,0,0,1,3.07,1.86,3.86,3.86,0,0,1,3.28-1.86c2.79,0,3.52,2.18,3.52,4.6v6.37h-2v-6c0-1.36-.19-3.1-2-3.1-2.18,0-2.35,2.27-2.35,3.9v5.24H213v-5.59c0-1.38,0-3.5-1.95-3.5-2.18,0-2.36,2.25-2.36,3.91v5.23h-2.09V206.53h2.05v1.34Zm18.36-6.22a1.42,1.42,0,1,1,0-.32,1.71,1.71,0,0,1,0,.32m-.39,15.51h-2.05V206.46h2.05Zm5.34-9.2a3.74,3.74,0,0,1,3.2-1.75c3,0,3.72,2,3.72,4.62v6.35h-2V211c0-1.86-.26-3-2.35-3-2.64,0-2.64,2.32-2.64,4.24v4.9h-2V206.48h2v1.43Zm12.73-6.31a1.42,1.42,0,1,1,0-.32,1.71,1.71,0,0,1,0,.32m-.39,15.51h-2.05V206.46h2.05Zm7.56-8.23a1.58,1.58,0,0,0-1.36-.93,1.1,1.1,0,0,0-1.12,1c0,.93,1.23,1.34,2.48,1.86a3.34,3.34,0,0,1,2.46,3,3.58,3.58,0,0,1-3.63,3.52h-.1A3.94,3.94,0,0,1,247,215l1.75-.8a2.13,2.13,0,0,0,1.86,1.36,1.53,1.53,0,0,0,1.62-1.43v-.08a1.28,1.28,0,0,0-.74-1.15l-2-1.06a2.91,2.91,0,0,1-2-2.68,3.1,3.1,0,0,1,3.12-3.09h0a3.17,3.17,0,0,1,2.91,1.86Zm6.79,8.25h-2V208.4h-1.12v-1.87h1.12v-4.07h2v4.07h2v1.87h-2Zm12.05-15.19v4.82h6v2h-6v8.42h-2.14V200H277v2Zm10.38,4.54v5.88c0,1.71.43,3.2,2.46,3.2s2.46-1.51,2.46-3.2v-5.88h2v6.12c0,2.91-1.36,4.9-4.51,4.9s-4.41-2-4.41-4.9v-6.12h1.95Zm11.75,1.43a3.74,3.74,0,0,1,3.2-1.75c3,0,3.73,2,3.73,4.62v6.35h-2V211c0-1.86-.26-3-2.35-3-2.64,0-2.64,2.32-2.64,4.24v4.9h-2.05V206.48h2.05v1.43Zm17.78,7.54a4.39,4.39,0,0,1-3.61,2,5.7,5.7,0,0,1,0-11.32,4.35,4.35,0,0,1,3.72,2.09V197.38h1.92v19.73h-2.05v-1.66Zm.11-3.72a3.42,3.42,0,0,0-6.83-.51,4.34,4.34,0,0,0,0,.51,3.45,3.45,0,0,0,6.89.07ZM1.53,242.93v3.44H5.77v1.4H1.53v6H0V241.55H5.92v1.39H1.53Zm7.52,10.81H7.6V239.69H9.05ZM12,250.2a2.39,2.39,0,0,0,2.25,2.52h0a2.49,2.49,0,0,0,2.27-1.47l1.23.69A4,4,0,0,1,14.26,254a3.71,3.71,0,0,1-3.73-3.71,2.44,2.44,0,0,1,0-.27A3.71,3.71,0,0,1,13.89,246l.37,0a3.54,3.54,0,0,1,3.59,3.48,3.43,3.43,0,0,1,0,.56v.22Zm4.32-1.09a2,2,0,0,0-2.09-1.86,2.15,2.15,0,0,0-2.16,1.86h4.25Zm2.14-3h1.71L22,248.55l1.92-2.44h1.75l-2.79,3.46,3.26,4.12h-1.7L22,250.61l-2.42,3.08H17.8l3.38-4.12ZM29,242.7a1,1,0,1,1-1-1,1,1,0,0,1,1,1Zm-.28,11.06H27.25v-7.65H28.7v7.58Zm2.22-14.07h1.45v7.74A3.12,3.12,0,0,1,35,245.94,4.06,4.06,0,0,1,35,254a3.15,3.15,0,0,1-2.57-1.43v1.17H30.94ZM37.23,250A2.5,2.5,0,0,0,35,247.25h-.2a2.75,2.75,0,1,0,2.44,3,1.67,1.67,0,0,0,0-.32m4.88-7.26a1,1,0,1,1-1-1,1,1,0,0,1,1,1Zm-.28,11.06H40.38v-7.65h1.45v7.65Zm3.85,0H44.23V239.69h1.45Zm4.13-11a1,1,0,1,1-1-1,1,1,0,0,1,1,1Zm-.27,11.06H48.08v-7.65h1.46v7.65Zm4,0H52.12v-6.22h-.84v-1.41h.84V243.2h1.45v2.91H55v1.36H53.54v6.27Z"/><path class="cls-9" d="M54.54,246.11h1.7l2.55,4.8,2.4-4.8h1.64L56.68,258H55l3-5.58ZM76,253.74H74.16l-3.59-5.17H70v5.17H68.43V241.53h1.86a6.36,6.36,0,0,1,3.22.58,3.47,3.47,0,0,1-1.34,6.35ZM70,247.3h.48c1.56,0,3.24-.3,3.24-2.23s-1.86-2.18-3.31-2.18H70Zm8,2.9a2.4,2.4,0,0,0,2.25,2.52h0a2.47,2.47,0,0,0,2.27-1.47l1.29.69A4,4,0,0,1,80.25,254a3.71,3.71,0,0,1-3.73-3.71,2.44,2.44,0,0,1,0-.27A3.71,3.71,0,0,1,79.88,246l.37,0a3.55,3.55,0,0,1,3.56,3.52,4.38,4.38,0,0,1,0,.52v.22Zm4.32-1.09a2,2,0,0,0-2.08-1.86A2.14,2.14,0,0,0,78,249.11ZM88,248a1.12,1.12,0,0,0-1-.67.78.78,0,0,0-.8.75A2.27,2.27,0,0,0,88,249.4a2.37,2.37,0,0,1,1.74,2.16,2.55,2.55,0,0,1-2.58,2.52h0a2.81,2.81,0,0,1-2.63-1.7l1.25-.57a1.5,1.5,0,0,0,1.38,1,1.08,1.08,0,0,0,1.15-1v-.06a.91.91,0,0,0-.54-.82l-1.43-.76a2.06,2.06,0,0,1-1.45-1.86,2.22,2.22,0,0,1,2.23-2.2,2.27,2.27,0,0,1,2.07,1.32Zm10.66,2a4.06,4.06,0,1,1-4.08-4h0a4,4,0,0,1,4.06,3.91V250M92,250a2.59,2.59,0,1,0,2.58-2.64,2.62,2.62,0,0,0-2.64,2.6v0Zm9.28-3.87v4.19a1.86,1.86,0,1,0,3.5,0v-4.19h1.46v4.36a3.22,3.22,0,0,1-6.43.49,4,4,0,0,1,0-.49v-4.36h1.47Zm8.53,1.28a2.19,2.19,0,0,1,2.07-1.45,2.31,2.31,0,0,1,1.19.37l-.67,1.33a1.29,1.29,0,0,0-.9-.32c-1.56,0-1.76,1.45-1.76,2.68v3.72H108.3v-7.61h1.53v1.28Zm9.63.93a2.8,2.8,0,0,0-2.18-1,2.61,2.61,0,0,0-2.53,2.66,2.56,2.56,0,0,0,2.45,2.68,1,1,0,0,0,.17,0,2.73,2.73,0,0,0,2.07-1v1.86a4.22,4.22,0,0,1-2.09.5,4,4,0,0,1-4.06-3.91V250a4,4,0,0,1,4-4.08h.15a4.29,4.29,0,0,1,2,.5v1.87Zm2.43,1.88a2.4,2.4,0,0,0,2.25,2.52h0a2.48,2.48,0,0,0,2.27-1.47l1.23.69a4,4,0,0,1-3.51,2.06,3.73,3.73,0,0,1-3.74-3.71c0-.09,0-.18,0-.27a3.72,3.72,0,0,1,3.35-4.06l.38,0a3.53,3.53,0,0,1,3.58,3.48,2.6,2.6,0,0,1,0,.56v.22Zm4.32-1.09a2,2,0,0,0-2.08-1.86,2.14,2.14,0,0,0-2.16,1.86ZM132,248a1.1,1.1,0,0,0-1-.67.78.78,0,0,0-.8.75A2.27,2.27,0,0,0,132,249.4a2.38,2.38,0,0,1,1.75,2.16,2.55,2.55,0,0,1-2.58,2.52h0a2.81,2.81,0,0,1-2.63-1.7l1.25-.57a1.5,1.5,0,0,0,1.38,1,1.08,1.08,0,0,0,1.15-1v-.06a.91.91,0,0,0-.54-.82l-1.41-.83a2.08,2.08,0,0,1-1.46-1.87,2.23,2.23,0,0,1,2.24-2.19,2.25,2.25,0,0,1,2.07,1.32Zm9.52,5.77h-1.55V241.53h1.55Zm3.55-6.55a2.58,2.58,0,0,1,2.29-1.25c2.14,0,2.68,1.45,2.68,3.3v4.52h-1.41v-4.34c0-1.3-.19-2.17-1.68-2.17-1.86,0-1.86,1.65-1.86,3v3.48h-1.47v-7.65H145v1.08Zm12.59,1.13a2.8,2.8,0,0,0-2.18-1,2.62,2.62,0,0,0-2.53,2.66,2.56,2.56,0,0,0,2.45,2.68,1,1,0,0,0,.17,0,2.73,2.73,0,0,0,2.07-1v1.86a4.22,4.22,0,0,1-2.09.5,4,4,0,0,1-4-3.91V250a4,4,0,0,1,4-4.08h.16a4.28,4.28,0,0,1,2,.5v1.87Zm3.09,5.42h-1.46V239.69h1.46Zm3.46-7.63v4.19a1.86,1.86,0,1,0,3.5,0v-4.19h1.45v4.36a3.22,3.22,0,0,1-6.42.49,4,4,0,0,1,0-.49v-4.36h1.47Zm9.94,1.86a1.11,1.11,0,0,0-1-.74.78.78,0,0,0-.8.74,2.32,2.32,0,0,0,1.77,1.36,2.38,2.38,0,0,1,1.75,2.16,2.55,2.55,0,0,1-2.59,2.51h0a2.78,2.78,0,0,1-2.62-1.69l1.25-.58a1.5,1.5,0,0,0,1.37,1,1.09,1.09,0,0,0,1.16-1v-.06a.92.92,0,0,0-.54-.82l-1.43-.76a2.08,2.08,0,0,1-1.46-1.87,2.25,2.25,0,0,1,4.3-.87Zm5.23-5.27a1,1,0,1,1-1-1,1,1,0,0,1,1,1m-.28,11.06h-1.45v-7.65h1.45v7.65Zm4.92-2.87,2.17-4.78h1.64L184,254l-3.73-7.84h1.64Zm6.68-8.19a1,1,0,1,1-1-1,1,1,0,0,1,1,1m-.28,11.06h-1.45v-7.65h1.45v7.65Zm4,0h-1.45v-6.22h-.8v-1.41h.8V243.2h1.45v2.91h1.43v1.36h-1.43v6.27Z"/><path class="cls-9" d="M195.46,246.11h1.69l2.56,4.8,2.38-4.8h1.64L197.58,258h-1.65l3-5.58Zm13.68-4.58h2.53c3.73,0,6.86,2,6.86,6.05s-3.06,6.18-6.91,6.18h-2.48V241.53Zm1.53,10.82h.54c3.11,0,5.81-1.18,5.81-4.71s-2.68-4.71-5.81-4.71h-.54v9.43Zm11.26-9.65a1,1,0,1,1-1-1,1,1,0,0,1,1,1m-.28,11.06H220.2v-7.65h1.45v7.65Zm4.92-2.87,2.19-4.72h1.64L226.59,254l-3.73-7.83h1.64Zm5.49-.69a2.39,2.39,0,0,0,2.25,2.52h0a2.49,2.49,0,0,0,2.27-1.47l1.23.69a4,4,0,0,1-3.52,2.06,3.71,3.71,0,0,1-3.73-3.71,2.44,2.44,0,0,1,0-.27A3.71,3.71,0,0,1,234,246l.37,0a3.54,3.54,0,0,1,3.59,3.48,5.12,5.12,0,0,1,0,.56v.22h-5.83Zm4.32-1.09a2,2,0,0,0-2.09-1.86,2.18,2.18,0,0,0-2.16,1.86h4.25Zm4.26-1.72a2.19,2.19,0,0,1,2.07-1.45,2.31,2.31,0,0,1,1.19.37l-.67,1.33a1.29,1.29,0,0,0-.9-.32c-1.56,0-1.76,1.45-1.76,2.68v3.72h-1.46v-7.61h1.46v1.23Zm7.17.58a1.12,1.12,0,0,0-1-.67.78.78,0,0,0-.8.75,2.27,2.27,0,0,0,1.77,1.35,2.39,2.39,0,0,1,1.75,2.16,2.56,2.56,0,0,1-2.59,2.52h0a2.79,2.79,0,0,1-2.62-1.7l1.24-.57a1.51,1.51,0,0,0,1.38,1,1.07,1.07,0,0,0,1.15-1,.13.13,0,0,1,0-.06.94.94,0,0,0-.54-.82l-1.44-.76a2.08,2.08,0,0,1-1.45-1.86,2.22,2.22,0,0,1,2.23-2.2,2.27,2.27,0,0,1,2.07,1.32ZM253,242.7a1,1,0,1,1-1-1,1,1,0,0,1,1,1m-.28,11.06h-1.45v-7.65h1.45v7.65Zm4,0h-1.45v-6.22h-.8v-1.41h.8V243.2h1.45v2.91h1.44v1.36h-1.44v6.27Z"/><path class="cls-9" d="M257.77,246.11h1.69l2.55,4.8,2.33-4.8H266L259.83,258h-1.65l3-5.58Zm15.62,4.58-1.4,3.07h-1.64L276.18,241,282,253.76h-1.63l-1.4-3.07Zm2.81-6.33L274,249.29h4.33Zm12.34,4a2.78,2.78,0,0,0-2.18-1,2.62,2.62,0,0,0-2.53,2.66,2.56,2.56,0,0,0,2.45,2.68h.17a2.71,2.71,0,0,0,2.09-.95v1.87a4.33,4.33,0,0,1-2.09.5,4,4,0,0,1-4.06-3.91v-.08a4,4,0,0,1,4-4.07h.16a4.05,4.05,0,0,1,2,.5v1.86Zm3.14,5.41h-1.45v-6.22h-.8v-1.41h.8v-2.9h1.45v2.9h1.44v1.36h-1.44v6.27Zm4.3-11a1,1,0,1,1-1-1,1,1,0,0,1,1,1m-.28,11.06h-1.45v-7.65h1.45v7.65Zm9.74-3.78a4.06,4.06,0,1,1-4.08-4h0a4,4,0,0,1,4.06,3.91V250m-6.65,0a2.59,2.59,0,1,0,2.59-2.64,2.63,2.63,0,0,0-2.59,2.64m9.42-2.79a2.59,2.59,0,0,1,2.29-1.25c2.15,0,2.68,1.45,2.68,3.3v4.52h-1.45v-4.34c0-1.3-.18-2.18-1.67-2.18-1.86,0-1.86,1.66-1.86,3v3.48h-1.46v-7.65h1.46v1.08ZM.13,228.69h313m-313-.58h313v1.19H.13Z"/></g></g></g></g></svg>