<?xml version="1.0" encoding="utf-8"?>
<!-- Generator: Adobe Illustrator 24.0.2, SVG Export Plug-In . SVG Version: 6.00 Build 0)  -->
<svg version="1.1" id="Layer_1" xmlns="http://www.w3.org/2000/svg" xmlns:xlink="http://www.w3.org/1999/xlink" x="0px" y="0px"
	 viewBox="0 0 66 66" style="enable-background:new 0 0 66 66;" xml:space="preserve">
<style type="text/css">
	.st0{clip-path:url(#SVGID_2_);}
	.st1{clip-path:url(#SVGID_4_);}
	.st2{fill:#F58F8B;}
	.st3{fill:#AADFEC;}
	.st4{fill:#414143;}
	.st5{fill:#FFDB79;}
	.st6{fill:#484545;}
	.st7{fill:#F1908D;}
	.st8{fill:#74C1AA;}
	.st9{fill:#C9D977;}
	.st10{fill:#BAE1F0;}
	.st11{clip-path:url(#SVGID_6_);}
	.st12{clip-path:url(#SVGID_8_);fill:#BAE1F0;}
	.st13{fill:#EA79AA;}
	.st14{fill:#13110C;}
</style>
<g id="Artwork_4">
	<g>
		<defs>
			<rect id="SVGID_1_" x="1" y="1" width="64" height="64"/>
		</defs>
		<clipPath id="SVGID_2_">
			<use xlink:href="#SVGID_1_"  style="overflow:visible;"/>
		</clipPath>
		<g class="st0">
			<g>
				<defs>
					<rect id="SVGID_3_" x="1" y="1" width="64" height="64"/>
				</defs>
				<clipPath id="SVGID_4_">
					<use xlink:href="#SVGID_3_"  style="overflow:visible;"/>
				</clipPath>
				<g class="st1">
					<path class="st2" d="M65,33c0,17.7-14.3,32-32,32S1,50.7,1,33S15.3,1,33,1S65,15.3,65,33"/>
					<path class="st3" d="M33.7,31.3c-1.7-0.1-3.5-0.5-5.2-0.6c-1.2-0.1-2.5-0.4-3.6-0.8c-0.4,1.7-0.6,3.3-0.9,5
						c-0.3,1.9-0.7,3.7-0.9,5.6c-0.3,3.6-0.7,7.6,2.7,9.9c2.8,1.9,7,2.7,10,0.8c1.8-1.1,3.4-2.6,4.6-4.4c0.9-1.7,1.6-3.5,1.9-5.3
						c0.8-2.6,1.4-5.2,1.8-7.8c-1.5-0.8-3.2-1.3-4.8-1.6C37.5,31.7,35.6,31.4,33.7,31.3"/>
					<path class="st4" d="M41.7,12.5c-0.5,2.7-2.5,5.1-4.5,7l0.2,0.2c1.8-1.3,3.2-3.1,4.2-5c1.2-2.3,1.1-5.5,0.7-8
						c-0.2-1.6-0.6-3.1-1.2-4.6L40.6,2c0.1,0.2,0.2,0.5,0.3,0.7C42,5.8,42.3,9.2,41.7,12.5"/>
					<path class="st3" d="M34.9,30.7L34.9,30.7L34.9,30.7c0,0-0.1,0.1-0.1,0.1l1.1,0.2c1.7,0.2,3.4,0.6,5.1,1.1
						c1.2,0.3,2.3,0.6,3.4,1.2c0.2-1.1,0.3-2.3,0.3-3.4c0-3.5-0.8-6.9-4.3-8.4c-0.9-0.4-1.9-0.8-2.9-1c-0.6,1.8-0.9,3.7-1.4,5.5
						C35.5,27.4,35.1,29,34.9,30.7"/>
					<path class="st3" d="M34.6,30.8C34.6,30.8,34.6,30.8,34.6,30.8L34.6,30.8L34.6,30.8c0-0.6,0.1-1.2,0.3-1.7
						c0.3-1.1,0.5-2.3,0.8-3.4c0.3-1.9,0.8-3.7,1.5-5.5c-0.5-0.1-1-0.2-1.5-0.3c-1.4-0.3-2.8-0.3-4.2-0.2c0,0,0,0-0.1,0
						c-0.1,0-0.2,0-0.4,0c-0.6,0.1-1.2,0.3-1.7,0.7c-0.1,0.1-0.2,0.1-0.2,0c-2.6,1.6-3.4,5.8-4.1,8.6c0,0.1-0.1,0.3-0.1,0.4
						c1.7,0.3,3.4,0.6,5.1,0.8C31.6,30.5,33.1,30.7,34.6,30.8"/>
					<path class="st4" d="M37.2,19.6l-0.3-0.1c-2.2-0.6-5.9-1-7.8,0.6c0,0,0,0,0,0.1c-1.9,1.1-3,3.7-3.7,5.9
						c-0.3,1.1-0.6,2.2-0.9,3.3h-0.1c-0.1,0-0.1,0-0.1,0.1c0,0.1,0,0.1,0.1,0.1h0.1c-0.7,3-1.1,6-1.6,9c-0.5,3.2-1.1,7.1,0.8,10.1
						s5.2,3.7,8.3,4c3.5,0.4,6.8-2.7,8.7-5.3c1-1.6,1.8-3.4,2.2-5.3c0.7-2.3,1.2-4.6,1.7-7c0.8-3.6,1.3-7.7-0.3-11.1
						c-1.2-2.7-4.2-3.8-6.8-4.5l-0.2-0.2L37.2,19.6 M25.1,29.1c0.7-2.8,1.5-7,4.1-8.6c0.1,0.1,0.2,0.1,0.2,0
						c0.5-0.3,1.1-0.6,1.7-0.7c0.1,0,0.2,0,0.4,0c0,0,0.1,0,0.1,0c1.4-0.1,2.8-0.1,4.2,0.2c0.5,0.1,1,0.2,1.5,0.3
						c-0.7,1.8-1.2,3.6-1.5,5.5c-0.3,1.1-0.5,2.3-0.8,3.4c-0.2,0.5-0.3,1-0.3,1.6l0,0l0,0c0,0,0,0.1,0,0.1c-1.5-0.2-3-0.3-4.5-0.5
						c-1.7-0.2-3.4-0.5-5.1-0.8C24.9,29.4,25,29.2,25.1,29.1 M42.5,41.5c-0.4,1.9-1,3.7-1.9,5.3c-1.2,1.8-2.8,3.3-4.6,4.4
						c-3,1.9-7.2,1.1-10-0.8c-3.4-2.3-3.1-6.4-2.7-9.9c0.2-1.9,0.6-3.7,0.9-5.6c0.2-1.7,0.5-3.4,0.9-5c1.2,0.4,2.4,0.7,3.6,0.8
						c1.7,0.2,3.4,0.6,5.2,0.6c1.9,0.1,3.9,0.4,5.7,0.9c1.7,0.2,3.3,0.8,4.8,1.6C43.9,36.3,43.3,38.9,42.5,41.5 M40.3,21.3
						c3.5,1.6,4.3,4.8,4.3,8.4c0,1.2-0.1,2.3-0.3,3.5c-1.1-0.5-2.2-0.9-3.4-1.2c-1.7-0.5-3.4-0.9-5.1-1.1l-1.1-0.1
						c0,0,0.1-0.1,0.1-0.1l0,0l0,0c0.2-1.7,0.6-3.3,1.1-4.9c0.5-1.8,0.8-3.7,1.4-5.5C38.4,20.6,39.3,20.9,40.3,21.3"/>
				</g>
			</g>
		</g>
	</g>
</g>
</svg>
