<?xml version="1.0" encoding="utf-8"?>
<!-- Generator: Adobe Illustrator 24.0.2, SVG Export Plug-In . SVG Version: 6.00 Build 0)  -->
<svg version="1.1" id="Layer_1" xmlns="http://www.w3.org/2000/svg" xmlns:xlink="http://www.w3.org/1999/xlink" x="0px" y="0px"
	 viewBox="0 0 150 124" style="enable-background:new 0 0 150 124;" xml:space="preserve">
<style type="text/css">
	.st0{fill:url(#SVGID_1_);}
	.st1{fill:#414142;}
	.st2{opacity:0.1;enable-background:new    ;}
	.st3{fill:#A1616A;}
	.st4{fill:#00BFA6;}
	.st5{opacity:5.000000e-02;fill:#6AC5AC;enable-background:new    ;}
	.st6{fill:none;stroke:#D63671;stroke-miterlimit:10;}
	.st7{fill:#D0D2D5;}
	.st8{opacity:0.1;fill:#414142;enable-background:new    ;}
	.st9{fill:url(#SVGID_2_);}
	.st10{fill:#FABDBD;}
	.st11{fill:#6AC5AC;}
	.st12{fill:#444053;}
	.st13{opacity:0.1;fill:#6AC5AC;enable-background:new    ;}
	.st14{fill:#3F3D56;}
	.st15{opacity:0.1;}
	.st16{opacity:0.2;fill:#6AC5AC;enable-background:new    ;}
</style>
<g>
	
		<linearGradient id="SVGID_1_" gradientUnits="userSpaceOnUse" x1="886.7299" y1="-81.3533" x2="886.7299" y2="-23.9118" gradientTransform="matrix(-1 0 0 -1 954.18 33.78)">
		<stop  offset="0" style="stop-color:#808080;stop-opacity:0.25"/>
		<stop  offset="0.54" style="stop-color:#808080;stop-opacity:0.12"/>
		<stop  offset="1" style="stop-color:#808080;stop-opacity:0.1"/>
	</linearGradient>
	<path class="st0" d="M58.3,73.3c0.1,0.2,0.1,0.3,0.2,0.5v0c0,0,1.1,4,1.6,4.8c0.1,0.2,0.3,0.5,0.5,0.8c0,0.2,0,0.4,0,0.6
		c0.2,0.9,0.3,2.1,0.3,2.4s0.1,0.9-0.2,1.2c-0.3,0.2-0.6,0.6,0.3,1.2c0,0,0.2,0.5,0,0.6c0,0,0,0,0,0.1c-0.2,0.7-0.6,1.9-0.4,2
		c0.1,0,0.5-0.1,0.8-0.4c0,0,0,0.1,0,0.2c0.1,0.4,0.1,0.8,0.3,1.2c0.2,0.4,0.3,1,0.2,1.2c-0.1,0.2,0.2,0.7,0.2,0.8
		c-0.1,0.2,0.3,0.8,0.3,0.8s0.3,1.1,0.3,1.5s0.4,2.8,0.4,2.8s-0.4,1.3-0.2,1.6c0.2,0.4,0.3,1.6,0,2.1c-0.3,0.5-0.7,1.5-0.6,1.8
		c0.1,0.3-0.2,3.7,0.6,5.1c0.1,0.5,0.2,1.1,0.2,1.6c0,0.4,0.6,1.4,0.6,1.4s-0.4,1.5,0.5,1.8c0.1,0,0.1,0,0.2,0c0,0.2,0,0.3-0.1,0.5
		c-0.2,0.2-0.3,0.5-0.3,0.7l0,0c0,0,0,0.1,0,0.1c0.1,0.1,0.4,1.6,0.4,1.6s0.4,1.7,2.6,1.3c0,0,1.5-0.1,1.4-0.6
		c0-0.2-0.1-0.3-0.2-0.5c-0.1-0.1-0.1-0.2-0.1-0.3c0-0.1-0.3-0.5-0.4-0.7c0-0.2-0.2-0.7-0.2-0.9s-0.3-1.2-0.4-1.5
		c0-0.2-0.1-0.3-0.1-0.5l0.1,0c0,0,0.2-1.1,0-1.5c-0.2-0.4-0.9-1-0.9-1s0.1-2.8,0-3.2s0.1-1.8,0.1-1.8s0.4-2,0.4-2.5
		c0-0.3,0-0.6,0.1-0.8c0,0,0.3-3,0.4-3.4c0.2-0.4,0.4-4.1,0.4-4.1l0.1,0.3c0.2,0.5,0.4,1,0.6,1.5c0.1,0.2,0.4,0.6,0.6,1.1l0.4,0.6
		c0,0,0.2,0.6,0,1c-0.1,0.4,1.2,2.3,1.2,2.3c-0.1,0.2-0.1,0.3-0.1,0.5c0,0.2-0.4,0.8-0.4,0.8s-0.2,0.5-0.1,0.7s-0.2,1.3-0.2,1.3
		s-0.4,2.5-0.5,2.8s0.1,2.3,0.1,2.3s-0.8,2-0.4,2.7c0,0.3,0,0.6-0.1,0.8c-0.1,0.2-0.1,1-0.1,1.2c0,0,0,0.1,0,0.1s-0.4,0.6,0.1,0.8
		c0.5,0.2,2.4,0.4,2.4,0.4s1.8,0.5,2.6,0.6s2.6,0.1,2.8-0.4c0-0.2,0.1-0.3,0-0.5c0-0.2-0.2-0.4-0.3-0.5c-0.5-0.2-1.1-0.4-1.6-0.5
		c0,0-0.8-0.2-0.9-0.6c-0.1-0.4-1.3-1.4-1.3-1.4s0-0.1,0-0.2h0l-0.1-0.1c-0.1-0.2-0.2-0.4-0.3-0.4l0,0c-0.1-0.1,0-0.3,0.1-0.4
		c0,0,0,0,0,0c0.5-0.3,0.7-1,0.6-1.9s-0.2-0.7,0.1-1.2c0.2-0.4,0.2-0.8,0.2-1.2l0.7-2.6c0.1-0.3,0.2-0.7,0.2-1
		c0-0.3,0.1-0.5,0.2-0.8c0,0,0.3-1.8,0.6-2.2c0.3-0.4-0.2-1.9-0.2-1.9s-0.4-2.3-0.4-3.3S73.3,88,73.3,88c-0.1-0.2-0.2-0.5-0.2-0.8
		c0-0.2-0.1-0.6-0.3-0.9l0-0.1c0.1-0.1,0.1-0.1,0.2-0.2c0.3-0.2,0.5-0.7,0.5-1l-4.3-10.2c0,0,2-4.1,2-4.2c-0.1-0.7-1.3-2.5-1.3-2.5
		l0,0c0,0,0,0,0-0.1c-0.3-0.1-1.1-0.6-1.1-0.6c-0.7-0.8-1.3-1-1.7-1c-0.1,0-0.3,0-0.4,0.1c0,0-0.1,0-0.1,0.1l0,0.2
		c0-0.4,0-0.8,0.1-1.1c0,0,0-0.1,0-0.1c0.1,0,0.1,0,0.2,0c1.7,0,3.1-1.4,3.1-3.1c0,0,0,0,0,0c0-0.3,0-0.6-0.1-0.9l0,0l0.1,0
		c0.4-0.1,0.9,0.1,1.2-0.2c0.1-0.1,0.2-0.3,0.2-0.4c0.1-0.2,0.1-0.4,0.2-0.6c0,0,0-0.1,0-0.1c0,0,0,0,0,0c0,0,0,0,0,0c0,0,0,0,0-0.1
		c0,0,0,0,0,0c0-0.1-0.1-0.3-0.2-0.4c-0.2-0.2-0.5-0.3-0.8-0.5c-0.2-0.2-0.4-0.4-0.5-0.6c-0.1-0.2-0.3-0.4-0.5-0.6
		c-0.2-0.2-0.5-0.2-0.7-0.1c-0.1,0.1-0.2,0.1-0.2,0.1c-0.1,0-0.2,0-0.3-0.1c-0.9-0.4-1.9-0.3-2.9-0.2c-0.4,0-0.8,0.1-1.1,0.3
		c-0.4,0.1-0.6,0.5-0.8,0.8c-0.1,0.3,0,0.6-0.1,0.9c-0.1,0.2-0.2,0.4-0.3,0.6c0,0.1-0.1,0.2-0.1,0.3l0,0c0,0,0,0,0,0
		c0,0.4,0.1,0.9,0.2,1.3c0.1,0.6,0.1,1.3,0.3,1.9c0,0.1,0.1,0.1,0.1,0.2c-0.1,0.2-0.2,0.4-0.3,0.6c-0.1,0-0.6-0.1-0.6,0.2
		c0,0.3-0.1,0.6-0.2,0.9c0,0,0,0-0.1,0c0,0-0.1,0.1-0.1,0.1l0,0l0,0c0,0,0,0-0.1,0c0,0-0.1,0-0.4,0.3c-0.4,0.4-0.8,0.7-1.3,1
		c0,0-1.9,1.3-2,1.9C58.6,69.8,57.9,72.4,58.3,73.3z M66.5,66.9C66.5,66.9,66.5,66.9,66.5,66.9L66.5,66.9L66.5,66.9z M71.6,109.7
		c-0.1,0-0.1,0-0.2,0L71.6,109.7z"/>
	<path class="st1" d="M67.3,115.1c-2.2,0.4-2.6-1.3-2.6-1.3s-0.3-1.5-0.4-1.6c0,0,0-0.1,0-0.1l0,0c0.1-0.3,0.2-0.5,0.3-0.7
		c0.1-0.2,0-0.8,0-0.8l2.6-0.7c0.1,0.2,0.2,0.5,0.3,0.8c0,0.2,0.4,1.3,0.4,1.5s0.2,0.6,0.2,0.9c0,0.2,0.3,0.6,0.4,0.7
		c0,0.1,0.1,0.2,0.1,0.3c0.1,0.2,0.1,0.3,0.2,0.5C68.8,115,67.3,115.1,67.3,115.1z"/>
	<path class="st2" d="M67.3,115.1c-2.2,0.4-2.6-1.3-2.6-1.3s-0.3-1.5-0.4-1.6c0,0,0-0.1,0-0.1l0.5,1.5c0,0,0.4,0.9,2.1,0.8
		c0.9-0.1,1.4-0.2,1.6-0.4c0.1,0.2,0.1,0.3,0.2,0.5C68.8,115,67.3,115.1,67.3,115.1z"/>
	<path class="st2" d="M65.6,112.7c0,0,0.6,0,0.6-0.4L65.6,112.7z"/>
	<path class="st1" d="M75.1,97.9c-0.3,0.4-0.6,2.2-0.6,2.2c-0.1,0.2-0.2,0.5-0.2,0.8c0,0.3-0.1,0.7-0.2,1l-0.7,2.6
		c0,0.4,0,0.8-0.2,1.2c-0.3,0.5-0.2,0.3-0.1,1.2c0.1,0.9-0.1,1.6-0.6,1.9c-0.5,0.3,0.2,0.8,0.2,0.8s-2.9,0.8-3.5,0.3
		s0.3-2.8,0.3-2.8s-0.1-2,0-2.3c0.1-0.3,0.5-2.7,0.5-2.7s0.3-1.1,0.2-1.3c-0.1-0.2,0.1-0.7,0.1-0.7s0.4-0.6,0.4-0.8
		c0-0.2,0-0.4,0.1-0.5c0,0-1.3-2-1.2-2.3s0-1,0-1s-0.2-0.3-0.4-0.6c-0.2-0.4-0.5-0.9-0.6-1c-0.2-0.5-0.4-1-0.6-1.5l-0.1-0.3
		c0,0-0.2,3.7-0.4,4.1c-0.2,0.4-0.4,3.3-0.4,3.3c-0.1,0.3-0.1,0.5-0.1,0.8c0,0.5-0.4,2.5-0.4,2.5s-0.2,1.4-0.1,1.8s0,3.1,0,3.1
		s0.7,0.5,0.9,1c0.2,0.4,0,1.5,0,1.5s-2,1-2.9,0.7c-0.9-0.3-0.5-1.8-0.5-1.8s-0.6-1-0.6-1.4c0-0.5-0.1-1.1-0.2-1.6
		c-0.8-1.4-0.5-4.8-0.6-5.1s0.3-1.3,0.6-1.8s0.2-1.7,0-2.1c-0.2-0.4,0.2-1.6,0.2-1.6s-0.4-2.4-0.3-2.8c0-0.4-0.3-1.5-0.3-1.5
		s-0.3-0.6-0.3-0.8c0.1-0.2-0.3-0.6-0.2-0.8c0.1-0.2-0.1-0.8-0.2-1.2c-0.1-0.4-0.2-0.8-0.3-1.1c-0.1-0.4-0.1-0.8-0.1-0.8l2.1-1.7
		l5.2-1.4l2-0.6l1.9,3c0,0,0.2,0.3,0.4,0.7c0.1,0.3,0.3,0.7,0.3,0.9c0,0.3,0,0.5,0.2,0.8c0,0,1.1,3.6,1.1,4.6c0,1,0.4,3.3,0.4,3.3
		S75.4,97.5,75.1,97.9z"/>
	<path class="st2" d="M63.5,99.8c0,0,2.2-0.9,2.9-0.3C67,100.1,63.5,99.8,63.5,99.8z"/>
	<path class="st2" d="M64.8,100.1c0,0-2.2,1.3-1.5,1.5C64.1,101.8,64.8,100.1,64.8,100.1z"/>
	<path class="st2" d="M71.4,99c0,0-1,0.1-0.6,0.3S71.4,99,71.4,99z"/>
	<path class="st2" d="M72.6,99.3c0,0.1-2.8,1-2.2,1.4C70.9,101.1,72.6,99.3,72.6,99.3z"/>
	<path class="st2" d="M63.9,107c0.4-0.1,2.7-1.1,1.8-0.4C65.2,107.1,64.5,107.2,63.9,107z"/>
	<path class="st2" d="M65,107.8c0,0,0.2,0.8,1,0.7S65,107.8,65,107.8z"/>
	<path class="st2" d="M64.4,109.4c0.1,0,1.8-0.8,1.8-0.4s-1.6,1-1.7,0.8C64.4,109.7,64.4,109.5,64.4,109.4z"/>
	<path class="st2" d="M69.7,108.5c0.2,0,2.1-0.6,2.5-0.1L69.7,108.5z"/>
	<path class="st2" d="M71.4,108.9c0,0,0.3-0.3,0.7-0.1C72.4,108.9,71.4,108.9,71.4,108.9z"/>
	<path class="st2" d="M67.2,112c0,0.2,0.2,0.4,0.4,0.4L67.2,112z"/>
	<path class="st1" d="M76.8,113.1c-0.1,0.5-1.9,0.6-2.7,0.4s-2.6-0.6-2.6-0.6s-1.8-0.2-2.4-0.4s-0.1-0.8-0.1-0.8s0,0,0-0.1
		c0-0.2,0-1,0.1-1.2c0.2-0.2,0.1-1,0.1-1s2.6,0.5,2.6,0.3c0-0.2,0.5-0.6,0.6-0.7c0.2-0.1,0.3,0.6,0.3,0.6s1.2,1,1.3,1.4
		c0.1,0.4,0.9,0.6,0.9,0.6c0.5,0.1,1.1,0.3,1.6,0.5c0.2,0.1,0.3,0.3,0.3,0.5C76.8,112.8,76.8,113,76.8,113.1z"/>
	<path class="st2" d="M76.8,113.1c-0.1,0.5-1.9,0.6-2.7,0.4s-2.6-0.6-2.6-0.6s-1.8-0.2-2.4-0.4s-0.1-0.8-0.1-0.8s0,0,0-0.1l2.6,0.6
		c0,0,1.3,0.6,2.1,0.6c0.7,0,2.3,0.3,3.1-0.2C76.8,112.8,76.8,113,76.8,113.1z"/>
	<path class="st2" d="M73.2,111.2c0,0-0.1,0.8-0.6,1.1L73.2,111.2z"/>
	<path class="st3" d="M81.3,80.7C80.5,81,78.8,81,78,81c-0.2,0-0.4,0-0.4,0l-0.5-1l0.5-0.8c0,0,0.5-0.1,1.1-0.2
		c0.9-0.2,2.1-0.3,2.7,0.1C82.3,79.6,82.2,80.4,81.3,80.7z"/>
	<path class="st4" d="M69.9,68.7l0.2-0.3c0,0,1.1,1.8,1.2,2.4c0.1,0.7,0.3,1.4,0.3,1.4s0.3,0.9,0.5,1.3c0.2,0.3,0.3,0.6,0.4,0.9
		c0,0.2-0.1,0.5,0.3,0.8s0.4,0.9,0.4,0.9s1.3,1.2,1.9,1.3c0.7,0,2.6,0.4,2.5,0.7c-0.1,0.3,0.8,0.5,1.1,0.6c0.3,0.1-2.3,1.1-0.7,2.4
		c0,0-1,0.2-1.1,0.4s-1.1-0.1-1.1-0.1s-0.2-0.5-1-0.6c-0.8,0-1.1-0.4-1.1-0.4c0,0-0.8-0.5-1.2-0.6c-0.4-0.1-1-0.2-1-0.3
		c0-0.1-2.5-10.9-2.5-10.9L69.9,68.7z"/>
	<path class="st5" d="M69.9,68.8l0.2-0.3c0,0,1.1,1.8,1.2,2.4c0.1,0.7,0.3,1.4,0.3,1.4s0.3,0.9,0.5,1.3c0.2,0.3,0.3,0.6,0.4,0.9
		c0,0.2-0.1,0.5,0.3,0.8c0.3,0.2,0.4,0.9,0.4,0.9s1.3,1.2,1.9,1.3c0.7,0,2.6,0.4,2.5,0.7c-0.1,0.3,0.8,0.5,1.1,0.6
		c0.3,0.1-2.3,1.1-0.7,2.4c0,0-1,0.2-1.1,0.4s-1.1-0.1-1.1-0.1s-0.2-0.5-1-0.6c-0.8,0-1.1-0.4-1.1-0.4c0-0.1-0.8-0.5-1.2-0.6
		c-0.4-0.1-1-0.2-1-0.3c0-0.1-2.5-10.9-2.5-10.9H69.9z"/>
	<path class="st6" d="M95.4,114.2c12.6,0,22.8,2.1,22.8,4.6s-10.2,4.6-22.8,4.6s-22.8-2.1-22.8-4.6"/>
	
		<rect x="74.9" y="29.7" transform="matrix(0.1673 -0.9859 0.9859 0.1673 41.6612 111.9342)" class="st1" width="24.3" height="3.3"/>
	<polygon class="st7" points="94.5,115.7 95.3,120.8 95.9,115.5 	"/>
	<polygon class="st1" points="71.6,112.9 71.6,116 72.3,118.8 72.8,118.8 73.4,115.8 73.7,112.3 	"/>
	<path class="st7" d="M70.1,100.5l1.5,0.3c0,0-1.7,4.8-0.5,5.8h-1.9C69.2,106.6,68.5,103,70.1,100.5z"/>
	<path class="st2" d="M70.1,100.5l1.5,0.3c0,0-1.7,4.8-0.5,5.8h-1.9C69.2,106.6,68.5,103,70.1,100.5z"/>
	<path class="st7" d="M80.4,42.8l-4.9,31c0,0-7.2,33.1-4.5,39.6h3.5L84.8,50L80.4,42.8z"/>
	<path class="st7" d="M92.8,39l3.8,31.2c0,0,2.7,39.7-0.3,46.2h-3L88,46L92.8,39z"/>
	<path class="st1" d="M79.9,31.5c0.5-1.7,2.1-2.9,4-2.9c3,0.1,7.7,0.6,10.1,3.1c3.8,3.9-2.6,16.9-2.6,16.9s-5.9,10.9-11.3-3
		C80.1,45.8,77.9,38.3,79.9,31.5z"/>
	<path class="st8" d="M79.9,31.5c0.5-1.7,2.1-2.9,4-2.9c3,0.1,7.7,0.6,10.1,3.1c3.8,3.9-2.6,16.9-2.6,16.9s-5.9,10.9-11.3-3
		C80.1,45.8,77.9,38.3,79.9,31.5z"/>
	<path class="st1" d="M82,34.2c0.4-1.2,1.5-2.1,2.8-2c2.2,0.1,5.5,0.4,7.2,2.2c2.7,2.8-1.8,12.1-1.8,12.1s-4.2,7.8-8.1-2.1
		C82.1,44.3,80.5,39,82,34.2z"/>
	
		<linearGradient id="SVGID_2_" gradientUnits="userSpaceOnUse" x1="1047.1276" y1="-69.7766" x2="1063.8549" y2="-69.7766" gradientTransform="matrix(-1 0 0 -1 1156.27 33.78)">
		<stop  offset="0" style="stop-color:#808080;stop-opacity:0.25"/>
		<stop  offset="0.54" style="stop-color:#808080;stop-opacity:0.12"/>
		<stop  offset="1" style="stop-color:#808080;stop-opacity:0.1"/>
	</linearGradient>
	<path class="st9" d="M92.4,113.7c0,0.5,0.1,1,0.4,1.4c0.5,0.6,1.5,0.7,2.3,0.9c0.6,0.2,1.2,0.4,1.8,0.7l1.7,0.8
		c-0.4,0-0.9,0.1-1.3,0.3c-0.2,0.1-0.5,0.2-0.5,0.5c0,0.2,0.1,0.4,0.3,0.5c0.2,0.1,0.4,0.1,0.6,0.1c1,0,2.1,0,3.1-0.2l0.1,0
		c0.5,0.3,1.1,0.5,1.6,0.8c0.2,0.1,0.5,0,0.7-0.2c0.2-0.2,0.4-0.4,0.6-0.7c0,0.1,0.1,0.1,0.1,0.2c0.2,0.3,0.3,0.7,0.1,1
		c-0.2,0.2-0.6,0.3-0.7,0.5c-0.1,0.2,0,0.4,0.2,0.5c0.2,0.1,0.4,0.2,0.6,0.2c0.5,0.1,1,0.1,1.4,0c0.3,0,0.5-0.1,0.7-0.3
		c0.2-0.2,0.2-0.5,0.2-0.8l0.3-3.7c0-0.2,0-0.4,0-0.5c-0.1-0.3-0.5-0.4-0.8-0.5h0c0.3,0,0.6,0,0.9,0c0.3,0,0.5,0,0.8-0.1
		c0.5-0.2,0.7-0.7,1-1.2c0.4-0.8,0.8-1.7,0.8-2.6l-0.1-0.1c0-1-0.4-1.9-0.6-2.8c0.2-0.3,0.3-0.6,0.3-0.9c0-0.3-0.1-0.7-0.2-1
		c-0.6-1.8-1.2-3.6-2-5.3c-0.5-1.1-1.2-2.2-1.9-3.3c-0.2-0.3-0.4-0.5-0.6-0.8c-0.2-0.2-0.5-0.4-0.6-0.6c-0.1-0.2,0.1-0.4,0-0.7
		c0-0.1,0-0.1-0.1-0.2c0.4-0.6,0.3-1.4,0.2-2.2l-0.2-0.9c0-0.3-0.1-0.5-0.2-0.7c-0.1-0.2-0.3-0.4-0.5-0.5c-0.9-0.8-2.1-1.4-3.2-2.1
		c-1.1-0.7-2.1-1.6-3.1-2.5c-0.3-0.3-0.7-0.6-1.1-0.4c-0.4,0.1-0.6,0.5-0.6,0.9c0,0.5,0.2,1.1,0.6,1.4c0.7,0.6,1.7,0.7,2.6,1.1
		c0.3,0.2,0.6,0.4,0.8,0.6l2.4,1.9c0.2,0.1,0.3,0.3,0.4,0.5c0,0.1,0,0.2-0.1,0.4c-0.1,0.3-0.2,0.6-0.4,1l-0.2-0.1
		c-0.4-0.3-0.8-0.6-1.3-0.8c-0.6-0.2-1.2-0.4-1.9-0.4c-1.4-0.2-2.7,0.1-3.5,1.2c-0.2,0.3-0.4,0.5-0.7,0.7c-0.2,0.1-0.4,0.2-0.5,0.3
		c-0.4,0.5-0.2,1.3,0.2,1.7c0.4,0.3,0.8,0.6,1.3,0.7c0.5,1.2,1.9,1.8,3.1,1.4c0,0.2,0,0.5,0,0.7c0,0.3,0.1,0.5,0.3,0.7
		c0.1,0.1,0.2,0.1,0.3,0.2c0.4,0.2,0.8,0.4,1.2,0.6c-0.4,0.5-0.8,1-1.1,1.6c-0.3,0.8-0.3,1.7,0.2,2.4l0,0c0,0.1-0.1,0.2-0.2,0.3
		c-0.2,0.2-0.6,0.2-0.8-0.1c-0.2-0.2-0.3-0.4-0.4-0.6c-0.4-0.6-1-1.1-1.7-1.2c-0.3-0.1-0.5-0.1-0.8,0c-0.3,0.1-0.4,0.3-0.5,0.6
		c0,0.3,0.2,0.5,0.4,0.7c0.6,0.7,1.3,1.2,2.1,1.7c0.2,0.1,0.4,0.2,0.6,0.4c-0.4-0.1-0.8-0.2-1.1-0.2c-0.5-0.1-1.1-0.2-1.6-0.1
		c-0.5,0-1,0.3-1.3,0.8c-0.2,0.4-0.3,0.9-0.1,1.3c0.1,0.4,0.3,0.8,0.6,1.2c0.4,0.7,0.9,1.3,1.5,1.8c-0.5,0.1-1,0.3-1.4,0.5
		c-0.5,0.2-1,0.4-1.2,0.8C92.4,113,92.4,113.3,92.4,113.7z M99.5,107.2L99.5,107.2c0.1,0,0.2-0.1,0.3-0.2c0.3-0.4,0.5-0.8,0.6-1.3
		c0.1,0,0.2,0,0.3-0.1c-0.1,0.1-0.2,0.3-0.2,0.5l1.1,0.5c0.1,0,0.1,0.1,0.2,0.2c0,0.1,0,0.2,0,0.2c0,0.2-0.1,0.5-0.1,0.7
		c-0.3-0.1-0.6-0.2-0.9-0.2C100.3,107.4,99.9,107.3,99.5,107.2L99.5,107.2z"/>
	<path class="st10" d="M99.7,97c0.5,0.1,1.1,0,1.6-0.3c0.1-0.1,0.2-0.1,0.3-0.1c0.2,0,0.4,0.1,0.5,0.2c0.5,0.5,0.5,1.2,0.3,1.8
		c-0.2,0.6-0.7,1.1-1.2,1.5c-0.4,0.3-0.8,0.6-1.3,0.9c-0.2-0.6-0.7-1-1.3-1.3c-0.5-0.2-0.9-0.7-1.2-1.2c-0.2-0.4-0.4-0.3-0.2-0.7
		c0.2-0.3,0.5-0.7,0.8-1c0.2-0.2,0.3-0.4,0.4-0.6c0.1-0.2,0.1-0.4,0.3-0.2c0.1,0.1,0.2,0.4,0.3,0.5C99.2,96.8,99.4,96.9,99.7,97z"/>
	<path class="st10" d="M101.3,93.3c0-0.1,0.1-0.2,0.1-0.4c-0.1-0.2-0.2-0.4-0.4-0.5l-2.3-1.9c-0.2-0.2-0.5-0.4-0.8-0.6
		c-0.8-0.4-1.8-0.5-2.5-1.1c-0.4-0.4-0.6-0.9-0.6-1.4c0-0.4,0.2-0.8,0.6-0.9c0.4-0.1,0.8,0.2,1.1,0.4c1,0.9,2,1.8,3,2.5
		c1,0.7,2.2,1.3,3.1,2.1c0.2,0.1,0.3,0.3,0.4,0.5c0.1,0.2,0.2,0.5,0.2,0.7l0.2,0.9c0.2,0.8,0.3,1.7-0.2,2.2
		c-0.2,0.2-0.4,0.3-0.6,0.3c-0.2,0-0.3-0.1-0.5-0.2c-0.4-0.2-1.1-0.4-1.2-0.9C100.7,94.7,101.1,93.8,101.3,93.3z"/>
	<path class="st10" d="M97.6,105.2c-0.2-0.2-0.3-0.4-0.4-0.6c-0.4-0.6-1-1-1.7-1.2c-0.3-0.1-0.5-0.1-0.8,0c-0.3,0.1-0.4,0.3-0.4,0.6
		c0,0.3,0.2,0.5,0.4,0.7c0.6,0.6,1.3,1.2,2.1,1.7c0.7,0.5,1.6,0.8,2.5,0.9c0.1,0,0.2,0,0.3,0c0.1,0,0.2-0.1,0.2-0.2
		c0.5-0.6,0.6-1.4,0.8-2.2c0,0.3-1.6-0.4-1.8-0.3c-0.3,0.1-0.2,0.5-0.4,0.7C98.1,105.5,97.8,105.5,97.6,105.2z"/>
	<path class="st10" d="M108.8,111.2c0,0.1,0,0.2-0.1,0.3c-0.1,0.2-0.3,0.2-0.5,0.1c-0.4-0.1-0.9-0.2-1.3-0.3l-3.9-1.1
		c-0.1,0-0.1,0-0.2-0.1c0,0-0.1-0.1-0.1-0.2c-0.1-0.6-0.2-1.1-0.1-1.7c0-0.1,0-0.2,0.1-0.2c0.1-0.1,0.2-0.1,0.3-0.1
		c0.6-0.1,1.2-0.1,1.9-0.1c0.4,0,0.8,0,1.2,0c0.5-0.1,1.1-0.4,1.6-0.3c0.4,0,0.4,0.4,0.5,0.8C108.3,109.2,108.8,110.2,108.8,111.2z"
		/>
	<path class="st1" d="M96.3,106.6c-0.5-0.1-1-0.2-1.6-0.1c-0.5,0-1,0.3-1.3,0.8c-0.2,0.4-0.3,0.9-0.1,1.3c0.1,0.4,0.3,0.8,0.6,1.2
		c0.4,0.8,1,1.4,1.7,2c0.3,0.3,0.7,0.5,1,0.8c0.7,0.6,1.1,1.4,1.5,2.2c0.4,0.8,0.8,1.5,0.9,2.4c0,0.1,0,0.1,0.1,0.2
		c0.1,0,0.1,0,0.2,0l1.9-0.3c0.2,0,0.3-0.1,0.3-0.3c0-0.1,0-0.1,0-0.2c-0.4-1.8-1.2-3.4-2.2-4.9c1,1,2.4,1.4,3.8,1.1
		c0.3,0,0.5-0.1,0.7-0.3c0.4-0.4,0.4-1,0.3-1.6c-0.1-0.5-0.2-1-0.3-1.5c-0.4-1.1-1.9-1.5-2.9-1.7C99.2,107.2,97.8,106.9,96.3,106.6z
		"/>
	<path class="st2" d="M97.7,110.6c0.3,0.1,0.5,0.3,0.7,0.5c-0.3-0.4-1.3-0.6-1.8-0.8c-0.6-0.2-1.2-0.4-1.7-0.8
		C95.8,109.8,96.8,110.2,97.7,110.6z"/>
	<path class="st11" d="M103.8,118.7c0.2,0.3,0.3,0.7,0.1,1c-0.2,0.2-0.5,0.2-0.6,0.5c-0.1,0.2,0,0.4,0.2,0.5
		c0.2,0.1,0.3,0.2,0.5,0.2c0.5,0.1,0.9,0.1,1.4,0c0.2,0,0.5-0.1,0.7-0.3c0.2-0.2,0.2-0.5,0.2-0.8l0.3-3.7c0-0.2,0-0.4,0-0.5
		c-0.1-0.3-0.5-0.4-0.8-0.5c-0.4-0.1-0.8-0.1-1.1,0c-0.3,0-0.5,0.1-0.7,0.2c-0.2,0.2-0.3,0.5-0.3,0.8c-0.1,0.4-0.3,1-0.3,1.5
		C103.3,118,103.6,118.4,103.8,118.7z"/>
	<path class="st4" d="M99.5,117.5c-0.7-0.1-1.4,0-2.1,0.2c-0.2,0.1-0.5,0.2-0.5,0.4c0,0.2,0.1,0.4,0.3,0.5c0.2,0.1,0.4,0.1,0.6,0.1
		c1,0,2,0,3-0.2c0.3,0,0.5-0.1,0.7-0.2c0.2-0.1,0.3-0.4,0.2-0.7c-0.1-0.3-0.4-0.3-0.6-0.6c-0.1-0.2-0.1-0.4-0.3-0.5
		c-0.1,0-0.3,0-0.4,0c-0.2,0.1-0.7,0.1-0.8,0.3C99.6,117.1,99.5,117.3,99.5,117.5z"/>
	<circle class="st10" cx="96.8" cy="96.5" r="2.5"/>
	<path class="st11" d="M102.8,95.4c-0.4-0.3-0.9-0.4-1.4-0.5c-0.2-0.1-0.3,0-0.5,0c-0.1,0.1-0.2,0.2-0.2,0.3
		c-0.2,0.2-0.3,0.5-0.3,0.8c-0.1,0.3,0,0.6,0.2,0.8c0.1,0.2,0.4,0.2,0.5,0.4c0.2,0.2,0.3,0.5,0.2,0.8c-0.1,0.3-0.2,0.6-0.3,0.8
		c-0.4,0.6-0.8,1.3-1.3,1.9c-0.5,0.6-1,1.2-1.3,1.9c-0.3,0.8-0.3,1.6,0.2,2.4c0.5,0.7,1.4,1,2.2,0.7c-0.1,0.1-0.2,0.3-0.2,0.5
		l1.1,0.5c0.1,0,0.1,0.1,0.2,0.1c0,0.1,0,0.1,0,0.2c-0.1,0.4-0.1,0.9-0.1,1.3c0,0.4,0.2,0.9,0.6,1.1c0.4,0.2,0.8,0.1,1.2,0
		c0.9-0.2,1.8-0.3,2.8-0.3c0.5,0,0.9,0,1.4-0.2c0.6-0.3,1-0.8,1-1.5c0-0.3-0.1-0.7-0.2-1c-0.6-1.8-1.2-3.6-2-5.3
		c-0.5-1.1-1.1-2.2-1.9-3.2c-0.2-0.3-0.4-0.5-0.6-0.7c-0.1-0.2-0.5-0.4-0.5-0.6c-0.1-0.2,0.1-0.4,0-0.7
		C103.2,95.8,103,95.6,102.8,95.4z"/>
	<path class="st1" d="M108.9,111.3c-1.1-0.5-2.2-1-3.3-1.4c-0.8-0.3-1.8-0.5-2.6-0.2c-0.2,0.1-0.5,0.2-0.7,0.4
		c-0.8,0.4-1.7,0.4-2.6,0.5c-2,0.2-3.9,0.7-5.8,1.4c-0.4,0.2-0.9,0.4-1.1,0.8c-0.1,0.3-0.2,0.6-0.1,1c0,0.5,0.1,1,0.4,1.4
		c0.5,0.6,1.4,0.7,2.2,0.9c0.6,0.2,1.2,0.4,1.7,0.7c1.8,0.9,3.7,1.7,5.5,2.7c0.2,0.1,0.5,0,0.6-0.2c0.5-0.5,0.9-1.1,1.1-1.9
		c0.2-0.7,0.3-1.4,0.3-2.2c0.7,0,1.3,0,2,0c0.3,0,0.5,0,0.8-0.1c0.5-0.2,0.7-0.7,0.9-1.2C108.6,113.1,109,112.2,108.9,111.3z"/>
	<path class="st2" d="M96.2,113.9c0.5-0.2,1.1-0.2,1.6-0.2c0.3,0,0.7,0,1,0.1c0.5,0.1,1,0.3,1.5,0.6c1.2,0.5,2.4,0.7,3.7,0.7"/>
	<path class="st1" d="M93.3,96.8c0.4,0.3,0.8,0.6,1.4,0.7c0.5,0.1,1,0.2,1.5,0.3c0.6,0.1,1.3,0.5,1.4,1.1c0,0.2,0,0.5,0,0.7
		c0,0.3,0.1,0.5,0.3,0.7c0.1,0.1,0.2,0.1,0.3,0.2c2.1,0.8,3.4,2.7,3.4,4.9c0.6-0.4,1.1-1,1.2-1.7c0,0.7,0.6,1.3,0.2,1.9
		c1.4-0.9,1.8-2.8,0.9-4.2c0-0.1-0.1-0.1-0.2-0.2c-0.3-0.3-0.6-0.6-0.8-0.9c-0.8-0.9-1.1-2-1-3.2c0.1-0.5,0.2-1,0.1-1.4
		c-0.1-0.7-0.7-1.1-1.3-1.5c-0.4-0.3-0.8-0.5-1.2-0.8c-0.6-0.2-1.2-0.4-1.8-0.4c-1.4-0.2-2.6,0.1-3.5,1.2c-0.2,0.3-0.4,0.5-0.7,0.7
		c-0.2,0.1-0.4,0.2-0.5,0.3C92.6,95.6,92.9,96.4,93.3,96.8z"/>
	<path class="st3" d="M67.5,68.9c-0.1,0-5.5-2.3-4.8-2.7c0.4-0.3,1-1.4,1.4-2.3c0.3-0.6,0.4-1.1,0.4-1.1s4.4-0.8,2.8,1.9
		c-0.2,0.4-0.4,0.9-0.6,1.3C66.4,67.8,67.5,68.8,67.5,68.9z"/>
	<path class="st2" d="M67.4,64.6c-0.2,0.4-0.4,0.9-0.6,1.3c-1.1-0.1-2.1-0.8-2.6-1.8c0-0.1-0.1-0.2-0.1-0.3c0.3-0.6,0.4-1.1,0.4-1.1
		S68.9,62,67.4,64.6z"/>
	<path class="st3" d="M70.1,62.8c0,1.7-1.4,3.1-3.1,3c-1.2,0-2.3-0.7-2.8-1.8C64,63.7,64,63.2,64,62.8c0-1.7,1.4-3.1,3.1-3
		c1.4,0,2.5,0.9,2.9,2.2C70,62.2,70.1,62.5,70.1,62.8z"/>
	<path class="st2" d="M73,86.5c-0.2,0.2-0.4,0.5-0.4,0.8c0,0-1.5,1-1.4,0.4s-0.8-3.3-0.8-3.3l0.1,3.6c0,0-4.8-0.2-5.2-0.6
		c-0.4-0.3-2.4-1-2.4-1s-0.6,0.5-1.2,0.9c-0.1-0.4-0.1-0.8-0.1-0.8l2.1-1.7l5.2-1.4l1.9-0.6l1.9,3C72.6,85.8,72.8,86.1,73,86.5z"/>
	<path class="st1" d="M73.2,86.2c-0.4,0.3-0.6,0.9-0.6,0.9s-1.5,1-1.4,0.4s-0.8-3.3-0.8-3.3l0.1,3.6c0,0-4.8-0.2-5.2-0.6
		c-0.4-0.3-2.4-1-2.4-1s-1.8,1.4-2.1,1.3c-0.3-0.1,0.6-2.6,0.6-2.6l0.9-14.2c0,0-0.3-4.2,0.1-4.4c0.1,0,0.1-0.1,0.2-0.1
		c0.2-0.2,0.3-0.7,0.3-1.1c0-0.4,0.6-0.2,0.6-0.2l-0.3,0.5l3.1,1.9l0,0c0.1-0.1,0.3-0.1,0.4-0.2c0.3-0.1,0.6-0.2,0.9-0.1
		c0.1,0.1,0.2,0.2,0.3,0.3c0.2,0.3,0.3,0.6,0.4,0.9l1.1,1.9c0,0,0.6,2.5,0.6,2.6c0,0.1,0.2,2.4,0.4,2.7s0.4,1.5,0.3,1.9
		c-0.1,0.4,0.1,1.8,0.1,1.8c0.8,0.7,1.3,3,1.3,3s1.3,2.6,1.4,2.9C73.7,85.2,73.6,86,73.2,86.2z"/>
	<path class="st2" d="M66.4,67.4c-0.3,0.5-1.2,1.1-1.2,1.1l-2.5-2.1c0.2-0.2,0.3-0.7,0.3-1.1c0-0.5,0.6-0.2,0.6-0.2l-0.1,0.1
		c-0.1,0.2-0.1,0.4,0.1,0.6c0,0,0,0,0,0L66.4,67.4z"/>
	<path class="st12" d="M66.4,67.3c-0.3,0.5-1.2,1.1-1.2,1.1l-2.5-2.1c0.2-0.2,0.3-0.7,0.3-1.1c0-0.4,0.6-0.2,0.6-0.2l-0.1,0.1
		c-0.1,0.2-0.1,0.4,0.1,0.6c0,0,0,0,0,0L66.4,67.3z"/>
	<path class="st2" d="M67.6,67.7c-0.3,0.4-0.8,0.8-0.8,0.6c0-0.2-0.3-0.7-0.5-0.9c0.3-0.1,0.6-0.1,0.9,0
		C67.4,67.4,67.5,67.5,67.6,67.7z"/>
	<path class="st12" d="M67.6,67.5c-0.3,0.4-0.8,0.8-0.8,0.6c0-0.2-0.2-0.6-0.4-0.8c0.3-0.1,0.6-0.2,0.9-0.1
		C67.4,67.3,67.5,67.4,67.6,67.5z"/>
	<path class="st2" d="M62.7,66.4c0,0,0-0.3-0.4,0.2c-0.4,0.4-0.8,0.7-1.2,1c0,0-1.9,1.3-2,1.9c-0.1,0.6-0.7,3.2-0.4,4.1
		c0.3,0.9,2.7,5,2.7,5s-0.6,0.8-0.5,1.6c0.1,0.9,0.3,2.1,0.3,2.4c-0.1,0.3,0.1,0.9-0.2,1.2c-0.3,0.2-0.6,0.6,0.3,1.2
		c0,0,0.2,0.5,0,0.6c-0.2,0.1,2.2,1.1,3.2,0.6c0.9-0.6,2.6-5,2.7-5.9c0-1-0.5-4.2-0.8-5c-0.3-0.8-1.2-3.8-1.6-4.4
		C64.3,70,62.7,66.4,62.7,66.4z"/>
	<path class="st11" d="M62.6,66.4c0,0,0-0.3-0.4,0.2c-0.4,0.4-0.8,0.7-1.3,1c0,0-1.9,1.3-2,1.9s-0.7,3.2-0.4,4.1
		c0.3,0.9,2.7,5,2.7,5s-0.6,0.8-0.5,1.6s0.3,2.1,0.3,2.4s0.1,0.9-0.2,1.2c-0.3,0.2-0.6,0.6,0.3,1.2c0,0,0.2,0.5,0,0.6
		c-0.2,0.1,2.2,1.1,3.2,0.6c0.9-0.6,2.6-5,2.7-5.9c0-1-0.5-4.2-0.8-5c-0.3-0.8-1.2-3.8-1.6-4.4S62.6,66.4,62.6,66.4z"/>
	<path class="st2" d="M61.9,69.2c0,0,1.4,1.6,1.4,2.6C63.3,71.9,63.3,70.2,61.9,69.2z"/>
	<path class="st2" d="M66.7,66.9c0,0,0.9-0.6,2.1,0.9c0,0,0.9,0.5,1.1,0.6c0.3,0.1,0.5,3.2,0.5,3.2s0.6,1.3,0.4,2.1
		c-0.2,0.8,0.4,3.4,0.4,3.4s1,4.7,0.9,4.9c0,0.1-1-1.5-1-2.3c0-0.8-0.8-3.3-0.9-3.5c-0.1-0.1-0.9-4.4-0.9-4.4s-0.7-1.8-1.1-2.4
		c-0.4-0.6-0.9-1.7-1.1-1.9c-0.2-0.1-0.3-0.2-0.5-0.3L66.7,66.9z"/>
	<path class="st11" d="M66.7,66.9c0,0,1-0.6,2.2,0.9c0,0,0.9,0.5,1.1,0.6c0.3,0.1,0.5,3.2,0.5,3.2s0.6,1.3,0.4,2.1
		c-0.1,0.8,0.4,3.4,0.4,3.4s1,4.7,0.9,4.9c0,0.1-1-1.5-1-2.3c0-0.8-0.8-3.3-0.9-3.5c-0.1-0.1-0.9-4.4-0.9-4.4s-0.7-1.8-1.1-2.4
		s-0.9-1.7-1.1-1.9c-0.2-0.1-0.4-0.3-0.6-0.3L66.7,66.9z"/>
	<path class="st3" d="M71.3,77.4c0,0,2-1.3,2.9-0.7s2.5,1.6,1,2.2c-1.5,0.7-3.7,0.5-3.7,0.5L71.3,77.4z"/>
	<path class="st13" d="M69.9,89.9c-0.3,0.6-0.5,3.8-0.7,4.8c-0.2-0.4-0.5-0.9-0.6-1c-0.2-0.5-0.4-1-0.6-1.5c0.2-0.5,0.7-1.8,0.7-2.3
		c0-0.6,1-1.3,1-1.3C70,89,70.1,89.5,69.9,89.9z"/>
	<path class="st2" d="M70,62c0,0-0.1,0-0.1,0.1c-0.2,0.1-0.5-0.1-0.7-0.2c-0.2-0.1-0.5-0.2-0.7-0.1c-0.2,0.2-0.1,0.7-0.3,0.9
		c-0.2,0.1-0.4,0.1-0.6,0.2c-0.2,0.1-0.2,0.3-0.3,0.5s-0.1,0.4-0.3,0.5c-0.2,0.1-0.4-0.1-0.6-0.1c0,0-0.1,0-0.1,0c0,0,0-0.1,0-0.1
		c0-0.2,0-0.5-0.1-0.7c-0.1-0.2-0.3-0.4-0.5-0.5c-0.4-0.1-0.6,0.3-0.9,0.5c-0.2,0.3-0.4,0.6-0.6,1c0,0,0,0,0,0.1
		C64,63.7,64,63.2,64,62.8c0-1.7,1.4-3.1,3.1-3C68.4,59.8,69.6,60.7,70,62L70,62z"/>
	<path class="st14" d="M64.8,63c0.2-0.3,0.5-0.6,0.9-0.5c0.2,0.1,0.4,0.2,0.5,0.5c0.1,0.2,0.1,0.5,0.1,0.7c0,0,0,0.1,0,0.1
		c0,0,0.1,0,0.1,0c0.2,0,0.4,0.1,0.6,0.1c0.2-0.1,0.3-0.3,0.3-0.5c0-0.2,0.1-0.4,0.3-0.5c0.2-0.1,0.4-0.1,0.6-0.2
		c0.2-0.2,0.1-0.7,0.3-0.9c0.2-0.2,0.5-0.1,0.7,0.1c0.2,0.1,0.4,0.3,0.7,0.2c0.1,0,0.2-0.1,0.2-0.1c0.4-0.1,0.9,0.1,1.2-0.2
		c0.1-0.1,0.2-0.2,0.2-0.4c0.1-0.2,0.1-0.4,0.2-0.6c0-0.2,0-0.4-0.2-0.6c-0.2-0.2-0.5-0.3-0.8-0.5c-0.2-0.2-0.4-0.4-0.5-0.6
		c-0.1-0.2-0.3-0.4-0.5-0.6c-0.2-0.2-0.5-0.2-0.7-0.1c-0.1,0.1-0.2,0.1-0.2,0.1c-0.1,0-0.2,0-0.3-0.1c-0.9-0.4-1.9-0.3-2.8-0.2
		c-0.4,0-0.8,0.1-1.1,0.3c-0.4,0.2-0.6,0.5-0.8,0.8c-0.1,0.3,0,0.6-0.1,0.9c-0.1,0.2-0.2,0.4-0.3,0.6c-0.2,0.5,0,1.1,0.1,1.7
		c0.1,0.6,0.1,1.3,0.3,1.8c0.1,0.1,0.1,0.3,0.2,0.2c0.1-0.1,0.2-0.4,0.2-0.5C64.4,63.6,64.6,63.3,64.8,63z"/>
	<path class="st2" d="M59.3,72.8l-0.5,1.3c0,0,1.1,4,1.6,4.8s1.2,1.9,1.2,1.9c0.8,0.4,1.8,0.5,2.7,0.3c1.4-0.3,5.6-1,5.6-1
		c0.2,0,0.4,0,0.5-0.2c0.2-0.3,1.1-0.4,1.1-0.4s1.1-1.6-0.3-2.3c0,0-0.2,0.4-0.9,0.1c-0.7-0.3-0.9,0.2-0.9,0.2s-1.2,0.2-1.8,0.2
		c-0.7-0.1-2.3-0.1-2.4-0.3c-0.1-0.1-0.2-0.1-0.3,0c0,0,0,0,0,0c-0.2-0.1-0.4-0.2-0.5-0.3c-0.1-0.1-0.3,0.2-0.3,0.2S64,77.2,64,77
		c0.1-0.2-0.2-0.8-0.2-0.8c-0.1-0.2-0.1-0.5,0-0.8c0.1-0.3-0.4-1.5-0.4-1.5c0-0.2,0-0.4,0.1-0.6c0.1-0.3-0.6-0.9-0.6-0.9
		s-0.7-3.4-2.2-2.3C59.1,71.2,59.3,72.8,59.3,72.8z"/>
	<path class="st11" d="M59.2,72.8l-0.5,1.3c0,0,1.1,4,1.6,4.8s1.2,1.9,1.2,1.9c0.8,0.4,1.8,0.5,2.7,0.3c1.4-0.3,5.6-1,5.6-1
		c0.2,0,0.4,0,0.5-0.2c0.2-0.3,1.1-0.4,1.1-0.4s1.1-1.6-0.3-2.3c0,0-0.2,0.4-0.9,0.1c-0.7-0.3-0.9,0.2-0.9,0.2s-1.2,0.2-1.8,0.2
		c-0.7-0.1-2.3-0.1-2.4-0.3c-0.1-0.1-0.2-0.1-0.3,0c0,0,0,0,0,0c-0.2-0.1-0.4-0.2-0.5-0.3c-0.1-0.1-0.3,0.2-0.3,0.2
		s-0.2-0.1-0.2-0.3c0.1-0.2-0.2-0.8-0.2-0.8c-0.1-0.2-0.1-0.5,0-0.8c0.1-0.3-0.4-1.5-0.4-1.5c0-0.2,0-0.4,0.1-0.6
		c0.1-0.3-0.6-0.9-0.6-0.9S62,69,60.5,70.1C59,71.2,59.2,72.8,59.2,72.8z"/>
	<path class="st2" d="M63.4,76.6c0,0-1.6,0.3-1.1,0.6S63.4,76.6,63.4,76.6z"/>
	<g class="st15">
		<path d="M66.2,62.6c-0.1-0.2-0.3-0.4-0.5-0.5c-0.4-0.1-0.6,0.3-0.9,0.5c-0.2,0.3-0.4,0.6-0.6,1c-0.1,0.1-0.1,0.4-0.2,0.5
			c-0.1,0.1-0.2-0.1-0.2-0.2c-0.3-0.6-0.2-1.2-0.3-1.8c-0.1-0.4-0.2-0.7-0.2-1.1c0,0.4,0.1,0.9,0.2,1.3c0.1,0.6,0.1,1.3,0.3,1.8
			c0.1,0.1,0.1,0.3,0.2,0.2c0.1-0.1,0.2-0.4,0.2-0.5c0.2-0.3,0.4-0.6,0.6-1c0.2-0.3,0.5-0.6,0.9-0.5c0.2,0.1,0.4,0.2,0.5,0.5
			c0,0.1,0.1,0.3,0.1,0.4C66.3,63.1,66.3,62.8,66.2,62.6z"/>
		<path d="M71.4,61.1c0,0.2-0.1,0.3-0.2,0.4c-0.3,0.3-0.8,0-1.2,0.2c-0.1,0-0.1,0.1-0.2,0.1c-0.2,0.1-0.5-0.1-0.7-0.2
			s-0.5-0.2-0.7-0.1c-0.2,0.2-0.1,0.7-0.3,0.9c-0.2,0.1-0.4,0.1-0.6,0.2c-0.2,0.1-0.2,0.3-0.3,0.5s-0.1,0.4-0.3,0.5
			c-0.2,0.1-0.4-0.1-0.6-0.1c0,0-0.1,0-0.1,0c0,0,0,0,0,0c0,0.1,0,0.1,0,0.2c0,0,0,0.1,0,0.1c0,0,0.1,0,0.1,0c0.2,0,0.4,0.1,0.6,0.1
			c0.2-0.1,0.3-0.3,0.3-0.5c0-0.2,0.1-0.4,0.3-0.5c0.2-0.1,0.4-0.1,0.6-0.2c0.2-0.2,0.1-0.7,0.3-0.9c0.2-0.2,0.5-0.1,0.7,0.1
			s0.4,0.3,0.7,0.2c0.1,0,0.2-0.1,0.2-0.1c0.4-0.1,0.9,0.1,1.2-0.2c0.1-0.1,0.2-0.2,0.2-0.4c0.1-0.2,0.1-0.4,0.2-0.6
			c0-0.1,0-0.1,0-0.2C71.6,60.7,71.5,60.9,71.4,61.1z"/>
	</g>
	<ellipse class="st11" cx="38.1" cy="109.4" rx="7.8" ry="1.5"/>
	<ellipse class="st1" cx="37.9" cy="108.7" rx="0.9" ry="1.2"/>
	<ellipse class="st1" cx="37.9" cy="107.3" rx="0.9" ry="1.2"/>
	<ellipse class="st1" cx="37.9" cy="105.8" rx="0.9" ry="1.2"/>
	<ellipse class="st1" cx="37.9" cy="104.4" rx="0.9" ry="1.2"/>
	<ellipse class="st1" cx="37.9" cy="102.9" rx="0.9" ry="1.2"/>
	<ellipse class="st14" cx="37.9" cy="101.5" rx="0.9" ry="1.2"/>
	<ellipse class="st14" cx="37.9" cy="100" rx="0.9" ry="1.2"/>
	<path class="st11" d="M41.4,90c0.1-0.2,0.2-0.3,0.3-0.5l-2.4-0.4l2.6,0c0.5-1.1,0.5-2.3,0.1-3.5l-3.5,1.8l3.2-2.4
		c-1.2-2.1-3.9-2.8-6-1.6c-2.1,1.2-2.8,3.9-1.6,6c0.1,0.2,0.2,0.3,0.3,0.5c-0.2,0.2-0.4,0.5-0.5,0.8l3.1,1.6l-3.3-1.1
		c-0.5,1.4-0.2,2.9,0.7,4.1c-1.5,1.9-1.2,4.6,0.7,6.1c1.9,1.5,4.6,1.2,6.1-0.7c1.2-1.6,1.2-3.8,0-5.4C42.6,93.8,42.6,91.6,41.4,90
		L41.4,90z"/>
	<path class="st2" d="M33.6,92.7c0,1,0.3,1.9,0.9,2.7c-1.5,1.9-1.2,4.6,0.7,6.1s4.6,1.2,6.1-0.7c1.2-1.6,1.2-3.8,0-5.4
		C41.9,94.7,33.6,92.2,33.6,92.7z"/>
	<circle class="st16" cx="66.6" cy="19.2" r="2.9"/>
	<circle class="st16" cx="77.1" cy="6.2" r="4.9"/>
	<circle class="st16" cx="70.6" cy="29.9" r="4.9"/>
	<circle class="st16" cx="10.1" cy="59.6" r="1.7"/>
	<circle class="st16" cx="17.2" cy="53.4" r="2.8"/>
	<circle class="st16" cx="3.9" cy="57.7" r="2.8"/>
	<circle class="st16" cx="131.1" cy="49.7" r="1.7"/>
	<circle class="st16" cx="138.2" cy="43.4" r="2.8"/>
	<circle class="st16" cx="125" cy="47.7" r="2.8"/>
	<circle class="st16" cx="30.7" cy="28.5" r="6.9"/>
	<circle class="st16" cx="70.3" cy="51.4" r="4"/>
	<circle class="st16" cx="109.9" cy="77.4" r="4"/>
	<ellipse class="st6" cx="38.1" cy="110" rx="22.8" ry="4.6"/>
</g>
</svg>
