<?xml version="1.0" encoding="utf-8"?>
<!-- Generator: Adobe Illustrator 24.0.2, SVG Export Plug-In . SVG Version: 6.00 Build 0)  -->
<svg version="1.1" id="Layer_1" xmlns="http://www.w3.org/2000/svg" xmlns:xlink="http://www.w3.org/1999/xlink" x="0px" y="0px"
	 viewBox="0 0 150 124" style="enable-background:new 0 0 150 124;" xml:space="preserve">
<style type="text/css">
	.st0{fill:url(#SVGID_1_);}
	.st1{fill:#FFFFFF;}
	.st2{fill:#6AC5AC;}
	.st3{clip-path:url(#SVGID_3_);}
	.st4{fill:url(#SVGID_4_);}
	.st5{opacity:0.1;enable-background:new    ;}
	.st6{fill:#D63671;}
</style>
<g>
	
		<linearGradient id="SVGID_1_" gradientUnits="userSpaceOnUse" x1="74.6846" y1="30.1655" x2="74.6846" y2="151.653" gradientTransform="matrix(1 0 0 -1 0 152)">
		<stop  offset="0" style="stop-color:#808080;stop-opacity:0.25"/>
		<stop  offset="0.5351" style="stop-color:#808080;stop-opacity:0.12"/>
		<stop  offset="1" style="stop-color:#808080;stop-opacity:0.1"/>
	</linearGradient>
	<polygon class="st0" points="127.6,117.1 98.8,117.1 49.8,121.8 0.4,117.1 0.4,0.3 49.6,3.9 99.8,0.3 149,7.1 147.7,96.7 	"/>
	<polygon class="st1" points="126.6,115.4 98.5,115.4 50.5,120.1 2.2,115.4 2.2,1.9 50.3,5.4 99.5,1.9 147.6,8.4 146.4,95.7 	"/>
	<polygon class="st2" points="126.8,112.4 97.2,112.4 51.9,116.7 6.3,112.4 6.3,5.2 51.7,8.5 98.1,5.2 143.5,11.4 143.5,95.6 	"/>
	<g>
		<defs>
			<polygon id="SVGID_2_" points="126.8,112.4 97.2,112.4 51.9,116.7 6.3,112.4 6.3,5.2 51.7,8.5 98.1,5.2 143.5,11.4 143.5,95.6 
							"/>
		</defs>
		<clipPath id="SVGID_3_">
			<use xlink:href="#SVGID_2_"  style="overflow:visible;"/>
		</clipPath>
		<g class="st3">
			<polygon class="st1" points="184,144.5 79.8,86.9 106.3,-1 97.3,-4.6 84.5,38 -17.6,-18.6 -21.8,-8.7 81.3,48.4 57.8,126.6 
				66.8,130.2 76.7,97.3 179.8,154.4 			"/>
		</g>
	</g>
	
		<linearGradient id="SVGID_4_" gradientUnits="userSpaceOnUse" x1="135.5305" y1="36.7292" x2="135.5305" y2="58.8409" gradientTransform="matrix(1 0 0 -1 0 152)">
		<stop  offset="0" style="stop-color:#000000;stop-opacity:0.12"/>
		<stop  offset="0.5513" style="stop-color:#000000;stop-opacity:9.000000e-02"/>
		<stop  offset="1" style="stop-color:#000000;stop-opacity:2.000000e-02"/>
	</linearGradient>
	<polygon class="st4" points="124.7,115.3 125.1,93.2 146.4,94 	"/>
	<polygon class="st1" points="6.3,51.5 71.7,80.5 76,89.5 71.7,94 6.3,63 	"/>
	<polygon class="st1" points="126.6,115.3 127,94.9 146.4,95.7 	"/>
	<polygon class="st1" points="95.1,98.1 122.4,8.6 133.2,10 102.7,102.8 	"/>
	<polyline class="st5" points="51.7,116.7 97.1,112.4 97.1,5.2 51.7,8.5 	"/>
	<path class="st6" d="M93.3,44.2c0,8.7-15.7,33.2-15.7,33.2S62,52.9,62,44.2c0-8.7,7-15.7,15.7-15.7C86.3,28.6,93.3,35.6,93.3,44.2
		C93.3,44.2,93.3,44.2,93.3,44.2L93.3,44.2z"/>
	<circle class="st1" cx="77.6" cy="43.1" r="4.7"/>
	<polygon class="st1" points="119.6,51.5 143.5,57.7 143.5,69.1 114.2,58.7 	"/>
	<polygon class="st1" points="28.6,73.5 22.5,115.2 29.4,116.7 38.4,78.2 38.4,72.7 	"/>
	<polygon class="st1" points="28.3,19 21.5,58.3 26.8,61.1 39.3,19 	"/>
	<circle class="st6" cx="41.3" cy="11.3" r="1.4"/>
	<circle class="st6" cx="24" cy="85.9" r="1.4"/>
	<circle class="st6" cx="22.5" cy="96.5" r="1.4"/>
	<circle class="st6" cx="37.8" cy="94" r="1.4"/>
	<circle class="st6" cx="13.2" cy="50.7" r="1.4"/>
	<circle class="st6" cx="126.7" cy="49.3" r="1.4"/>
	<circle class="st6" cx="114.2" cy="99.4" r="1.4"/>
</g>
</svg>
